<svg version="1.1" viewBox="0.0 0.0 461.34645669291336 493.5721784776903" fill="none" stroke="none" stroke-linecap="square" stroke-miterlimit="10" xmlns:xlink="http://www.w3.org/1999/xlink" xmlns="http://www.w3.org/2000/svg"><clipPath id="p.0"><path d="m0 0l461.34647 0l0 493.57217l-461.34647 0l0 -493.57217z" clip-rule="nonzero"/></clipPath><g clip-path="url(#p.0)"><path fill="#000000" fill-opacity="0.0" d="m0 0l461.34647 0l0 493.57217l-461.34647 0z" fill-rule="evenodd"/><path fill="#eee8d5" d="m291.62698 12.835064l121.921265 0l0 121.92125l-121.921265 0z" fill-rule="evenodd"/><path stroke="#002b36" stroke-width="2.0" stroke-linejoin="round" stroke-linecap="butt" d="m291.62698 12.835064l121.921265 0l0 121.92125l-121.921265 0z" fill-rule="evenodd"/><path fill="#eee8d5" d="m47.798008 12.835064l121.921265 0l0 121.92125l-121.921265 0z" fill-rule="evenodd"/><path stroke="#002b36" stroke-width="2.0" stroke-linejoin="round" stroke-linecap="butt" d="m47.798008 12.835064l121.921265 0l0 121.92125l-121.921265 0z" fill-rule="evenodd"/><path fill="#eee8d5" d="m169.71251 12.835064l121.92125 0l0 121.92125l-121.92125 0z" fill-rule="evenodd"/><path stroke="#002b36" stroke-width="2.0" stroke-linejoin="round" stroke-linecap="butt" d="m169.71251 12.835064l121.92125 0l0 121.92125l-121.92125 0z" fill-rule="evenodd"/><path fill="#eee8d5" d="m47.798008 134.75034l121.921265 0l0 121.921265l-121.921265 0z" fill-rule="evenodd"/><path stroke="#002b36" stroke-width="2.0" stroke-linejoin="round" stroke-linecap="butt" d="m47.798008 134.75034l121.921265 0l0 121.921265l-121.921265 0z" fill-rule="evenodd"/><path fill="#eee8d5" d="m169.71251 134.75034l121.92125 0l0 121.921265l-121.92125 0z" fill-rule="evenodd"/><path stroke="#002b36" stroke-width="2.0" stroke-linejoin="round" stroke-linecap="butt" d="m169.71251 134.75034l121.92125 0l0 121.921265l-121.92125 0z" fill-rule="evenodd"/><path fill="#eee8d5" d="m291.62698 134.75034l121.921265 0l0 121.921265l-121.921265 0z" fill-rule="evenodd"/><path stroke="#002b36" stroke-width="2.0" stroke-linejoin="round" stroke-linecap="butt" d="m291.62698 134.75034l121.921265 0l0 121.921265l-121.921265 0z" fill-rule="evenodd"/><path fill="#eee8d5" d="m47.798008 256.66562l121.921265 0l0 121.921265l-121.921265 0z" fill-rule="evenodd"/><path stroke="#002b36" stroke-width="2.0" stroke-linejoin="round" stroke-linecap="butt" d="m47.798008 256.66562l121.921265 0l0 121.921265l-121.921265 0z" fill-rule="evenodd"/><path fill="#eee8d5" d="m169.71251 256.66562l121.92125 0l0 121.921265l-121.92125 0z" fill-rule="evenodd"/><path stroke="#002b36" stroke-width="2.0" stroke-linejoin="round" stroke-linecap="butt" d="m169.71251 256.66562l121.92125 0l0 121.921265l-121.92125 0z" fill-rule="evenodd"/><path fill="#eee8d5" d="m291.62698 256.66562l121.921265 0l0 121.921265l-121.921265 0z" fill-rule="evenodd"/><path stroke="#002b36" stroke-width="2.0" stroke-linejoin="round" stroke-linecap="butt" d="m291.62698 256.66562l121.921265 0l0 121.921265l-121.921265 0z" fill-rule="evenodd"/><path fill="#93a1a1" d="m169.63794 134.66426l40.698303 0l0 40.698303l-40.698303 0z" fill-rule="evenodd"/><path stroke="#002b36" stroke-width="1.0" stroke-linejoin="round" stroke-linecap="butt" d="m169.63794 134.66426l40.698303 0l0 40.698303l-40.698303 0z" fill-rule="evenodd"/><path fill="#002b36" d="m210.33624 134.66426l40.698303 0l0 40.698303l-40.698303 0z" fill-rule="evenodd"/><path stroke="#002b36" stroke-width="1.0" stroke-linejoin="round" stroke-linecap="butt" d="m210.33624 134.66426l40.698303 0l0 40.698303l-40.698303 0z" fill-rule="evenodd"/><path fill="#93a1a1" d="m251.03455 134.66426l40.698303 0l0 40.698303l-40.698303 0z" fill-rule="evenodd"/><path stroke="#002b36" stroke-width="1.0" stroke-linejoin="round" stroke-linecap="butt" d="m251.03455 134.66426l40.698303 0l0 40.698303l-40.698303 0z" fill-rule="evenodd"/><path fill="#002b36" d="m169.63794 175.36256l40.698303 0l0 40.698303l-40.698303 0z" fill-rule="evenodd"/><path stroke="#002b36" stroke-width="1.0" stroke-linejoin="round" stroke-linecap="butt" d="m169.63794 175.36256l40.698303 0l0 40.698303l-40.698303 0z" fill-rule="evenodd"/><path fill="#002b36" d="m210.33624 175.36256l40.698303 0l0 40.698303l-40.698303 0z" fill-rule="evenodd"/><path stroke="#002b36" stroke-width="1.0" stroke-linejoin="round" stroke-linecap="butt" d="m210.33624 175.36256l40.698303 0l0 40.698303l-40.698303 0z" fill-rule="evenodd"/><path fill="#002b36" d="m251.03455 175.36256l40.698303 0l0 40.698303l-40.698303 0z" fill-rule="evenodd"/><path stroke="#002b36" stroke-width="1.0" stroke-linejoin="round" stroke-linecap="butt" d="m251.03455 175.36256l40.698303 0l0 40.698303l-40.698303 0z" fill-rule="evenodd"/><path fill="#93a1a1" d="m169.63794 216.06087l40.698303 0l0 40.698288l-40.698303 0z" fill-rule="evenodd"/><path stroke="#002b36" stroke-width="1.0" stroke-linejoin="round" stroke-linecap="butt" d="m169.63794 216.06087l40.698303 0l0 40.698288l-40.698303 0z" fill-rule="evenodd"/><path fill="#93a1a1" d="m210.33624 216.06087l40.698303 0l0 40.698288l-40.698303 0z" fill-rule="evenodd"/><path stroke="#002b36" stroke-width="1.0" stroke-linejoin="round" stroke-linecap="butt" d="m210.33624 216.06087l40.698303 0l0 40.698288l-40.698303 0z" fill-rule="evenodd"/><path fill="#93a1a1" d="m251.03455 216.06087l40.698303 0l0 40.698288l-40.698303 0z" fill-rule="evenodd"/><path stroke="#002b36" stroke-width="1.0" stroke-linejoin="round" stroke-linecap="butt" d="m251.03455 216.06087l40.698303 0l0 40.698288l-40.698303 0z" fill-rule="evenodd"/><path fill="#93a1a1" d="m349.9491 32.64331l-12.997925 0l0 12.997932l12.997925 0z" fill-rule="evenodd"/><path stroke="#002b36" stroke-width="1.0" stroke-linejoin="round" stroke-linecap="butt" d="m349.9491 32.64331l-12.997925 0l0 12.997932l12.997925 0z" fill-rule="evenodd"/><path fill="#002b36" d="m336.95117 32.64331l-12.997925 0l0 12.997932l12.997925 0z" fill-rule="evenodd"/><path stroke="#002b36" stroke-width="1.0" stroke-linejoin="round" stroke-linecap="butt" d="m336.95117 32.64331l-12.997925 0l0 12.997932l12.997925 0z" fill-rule="evenodd"/><path fill="#93a1a1" d="m323.95325 32.64331l-12.997955 0l0 12.997932l12.997955 0z" fill-rule="evenodd"/><path stroke="#002b36" stroke-width="1.0" stroke-linejoin="round" stroke-linecap="butt" d="m323.95325 32.64331l-12.997955 0l0 12.997932l12.997955 0z" fill-rule="evenodd"/><path fill="#93a1a1" d="m349.9491 45.641243l-12.997925 0l0 12.997936l12.997925 0z" fill-rule="evenodd"/><path stroke="#002b36" stroke-width="1.0" stroke-linejoin="round" stroke-linecap="butt" d="m349.9491 45.641243l-12.997925 0l0 12.997936l12.997925 0z" fill-rule="evenodd"/><path fill="#002b36" d="m336.95117 45.641243l-12.997925 0l0 12.997936l12.997925 0z" fill-rule="evenodd"/><path stroke="#002b36" stroke-width="1.0" stroke-linejoin="round" stroke-linecap="butt" d="m336.95117 45.641243l-12.997925 0l0 12.997936l12.997925 0z" fill-rule="evenodd"/><path fill="#93a1a1" d="m323.95325 45.641243l-12.997955 0l0 12.997936l12.997955 0z" fill-rule="evenodd"/><path stroke="#002b36" stroke-width="1.0" stroke-linejoin="round" stroke-linecap="butt" d="m323.95325 45.641243l-12.997955 0l0 12.997936l12.997955 0z" fill-rule="evenodd"/><path fill="#93a1a1" d="m349.9491 58.63918l-12.997925 0l0 12.997936l12.997925 0z" fill-rule="evenodd"/><path stroke="#002b36" stroke-width="1.0" stroke-linejoin="round" stroke-linecap="butt" d="m349.9491 58.63918l-12.997925 0l0 12.997936l12.997925 0z" fill-rule="evenodd"/><path fill="#002b36" d="m336.95117 58.63918l-12.997925 0l0 12.997936l12.997925 0z" fill-rule="evenodd"/><path stroke="#002b36" stroke-width="1.0" stroke-linejoin="round" stroke-linecap="butt" d="m336.95117 58.63918l-12.997925 0l0 12.997936l12.997925 0z" fill-rule="evenodd"/><path fill="#93a1a1" d="m323.95325 58.63918l-12.997955 0l0 12.997936l12.997955 0z" fill-rule="evenodd"/><path stroke="#002b36" stroke-width="1.0" stroke-linejoin="round" stroke-linecap="butt" d="m323.95325 58.63918l-12.997955 0l0 12.997936l12.997955 0z" fill-rule="evenodd"/><path fill="#93a1a1" d="m228.03572 32.644623l-12.99794 0l0 12.997932l12.99794 0z" fill-rule="evenodd"/><path stroke="#002b36" stroke-width="1.0" stroke-linejoin="round" stroke-linecap="butt" d="m228.03572 32.644623l-12.99794 0l0 12.997932l12.99794 0z" fill-rule="evenodd"/><path fill="#002b36" d="m215.03778 32.644623l-12.997925 0l0 12.997932l12.997925 0z" fill-rule="evenodd"/><path stroke="#002b36" stroke-width="1.0" stroke-linejoin="round" stroke-linecap="butt" d="m215.03778 32.644623l-12.997925 0l0 12.997932l12.997925 0z" fill-rule="evenodd"/><path fill="#93a1a1" d="m202.03986 32.644623l-12.99794 0l0 12.997932l12.99794 0z" fill-rule="evenodd"/><path stroke="#002b36" stroke-width="1.0" stroke-linejoin="round" stroke-linecap="butt" d="m202.03986 32.644623l-12.99794 0l0 12.997932l12.99794 0z" fill-rule="evenodd"/><path fill="#93a1a1" d="m228.03572 45.642555l-12.99794 0l0 12.997936l12.99794 0z" fill-rule="evenodd"/><path stroke="#002b36" stroke-width="1.0" stroke-linejoin="round" stroke-linecap="butt" d="m228.03572 45.642555l-12.99794 0l0 12.997936l12.99794 0z" fill-rule="evenodd"/><path fill="#002b36" d="m215.03778 45.642555l-12.997925 0l0 12.997936l12.997925 0z" fill-rule="evenodd"/><path stroke="#002b36" stroke-width="1.0" stroke-linejoin="round" stroke-linecap="butt" d="m215.03778 45.642555l-12.997925 0l0 12.997936l12.997925 0z" fill-rule="evenodd"/><path fill="#93a1a1" d="m202.03986 45.642555l-12.99794 0l0 12.997936l12.99794 0z" fill-rule="evenodd"/><path stroke="#002b36" stroke-width="1.0" stroke-linejoin="round" stroke-linecap="butt" d="m202.03986 45.642555l-12.99794 0l0 12.997936l12.99794 0z" fill-rule="evenodd"/><path fill="#93a1a1" d="m228.03572 58.64049l-12.99794 0l0 12.997936l12.99794 0z" fill-rule="evenodd"/><path stroke="#002b36" stroke-width="1.0" stroke-linejoin="round" stroke-linecap="butt" d="m228.03572 58.64049l-12.99794 0l0 12.997936l12.99794 0z" fill-rule="evenodd"/><path fill="#002b36" d="m215.03778 58.64049l-12.997925 0l0 12.997936l12.997925 0z" fill-rule="evenodd"/><path stroke="#002b36" stroke-width="1.0" stroke-linejoin="round" stroke-linecap="butt" d="m215.03778 58.64049l-12.997925 0l0 12.997936l12.997925 0z" fill-rule="evenodd"/><path fill="#93a1a1" d="m202.03986 58.64049l-12.99794 0l0 12.997936l12.99794 0z" fill-rule="evenodd"/><path stroke="#002b36" stroke-width="1.0" stroke-linejoin="round" stroke-linecap="butt" d="m202.03986 58.64049l-12.99794 0l0 12.997936l12.99794 0z" fill-rule="evenodd"/><path fill="#93a1a1" d="m150.39476 154.55948l-12.99794 0l0 12.99794l12.99794 0z" fill-rule="evenodd"/><path stroke="#002b36" stroke-width="1.0" stroke-linejoin="round" stroke-linecap="butt" d="m150.39476 154.55948l-12.99794 0l0 12.99794l12.99794 0z" fill-rule="evenodd"/><path fill="#002b36" d="m137.39682 154.55948l-12.997925 0l0 12.99794l12.997925 0z" fill-rule="evenodd"/><path stroke="#002b36" stroke-width="1.0" stroke-linejoin="round" stroke-linecap="butt" d="m137.39682 154.55948l-12.997925 0l0 12.99794l12.997925 0z" fill-rule="evenodd"/><path fill="#93a1a1" d="m124.398895 154.55948l-12.99794 0l0 12.99794l12.99794 0z" fill-rule="evenodd"/><path stroke="#002b36" stroke-width="1.0" stroke-linejoin="round" stroke-linecap="butt" d="m124.398895 154.55948l-12.99794 0l0 12.99794l12.99794 0z" fill-rule="evenodd"/><path fill="#002b36" d="m150.39476 167.55742l-12.99794 0l0 12.997925l12.99794 0z" fill-rule="evenodd"/><path stroke="#002b36" stroke-width="1.0" stroke-linejoin="round" stroke-linecap="butt" d="m150.39476 167.55742l-12.99794 0l0 12.997925l12.99794 0z" fill-rule="evenodd"/><path fill="#002b36" d="m137.39682 167.55742l-12.997925 0l0 12.997925l12.997925 0z" fill-rule="evenodd"/><path stroke="#002b36" stroke-width="1.0" stroke-linejoin="round" stroke-linecap="butt" d="m137.39682 167.55742l-12.997925 0l0 12.997925l12.997925 0z" fill-rule="evenodd"/><path fill="#002b36" d="m124.398895 167.55742l-12.99794 0l0 12.997925l12.99794 0z" fill-rule="evenodd"/><path stroke="#002b36" stroke-width="1.0" stroke-linejoin="round" stroke-linecap="butt" d="m124.398895 167.55742l-12.99794 0l0 12.997925l12.99794 0z" fill-rule="evenodd"/><path fill="#93a1a1" d="m150.39476 180.55534l-12.99794 0l0 12.99794l12.99794 0z" fill-rule="evenodd"/><path stroke="#002b36" stroke-width="1.0" stroke-linejoin="round" stroke-linecap="butt" d="m150.39476 180.55534l-12.99794 0l0 12.99794l12.99794 0z" fill-rule="evenodd"/><path fill="#93a1a1" d="m137.39682 180.55534l-12.997925 0l0 12.99794l12.997925 0z" fill-rule="evenodd"/><path stroke="#002b36" stroke-width="1.0" stroke-linejoin="round" stroke-linecap="butt" d="m137.39682 180.55534l-12.997925 0l0 12.99794l12.997925 0z" fill-rule="evenodd"/><path fill="#93a1a1" d="m124.398895 180.55534l-12.99794 0l0 12.99794l12.99794 0z" fill-rule="evenodd"/><path stroke="#002b36" stroke-width="1.0" stroke-linejoin="round" stroke-linecap="butt" d="m124.398895 180.55534l-12.99794 0l0 12.99794l12.99794 0z" fill-rule="evenodd"/><path fill="#93a1a1" d="m106.11933 319.78613l-12.997932 0l0 12.997925l12.997932 0z" fill-rule="evenodd"/><path stroke="#002b36" stroke-width="1.0" stroke-linejoin="round" stroke-linecap="butt" d="m106.11933 319.78613l-12.997932 0l0 12.997925l12.997932 0z" fill-rule="evenodd"/><path fill="#93a1a1" d="m93.1214 319.78613l-12.99794 0l0 12.997925l12.99794 0z" fill-rule="evenodd"/><path stroke="#002b36" stroke-width="1.0" stroke-linejoin="round" stroke-linecap="butt" d="m93.1214 319.78613l-12.99794 0l0 12.997925l12.99794 0z" fill-rule="evenodd"/><path fill="#93a1a1" d="m80.12346 319.78613l-12.997932 0l0 12.997925l12.997932 0z" fill-rule="evenodd"/><path stroke="#002b36" stroke-width="1.0" stroke-linejoin="round" stroke-linecap="butt" d="m80.12346 319.78613l-12.997932 0l0 12.997925l12.997932 0z" fill-rule="evenodd"/><path fill="#93a1a1" d="m106.11933 332.78406l-12.997932 0l0 12.997925l12.997932 0z" fill-rule="evenodd"/><path stroke="#002b36" stroke-width="1.0" stroke-linejoin="round" stroke-linecap="butt" d="m106.11933 332.78406l-12.997932 0l0 12.997925l12.997932 0z" fill-rule="evenodd"/><path fill="#93a1a1" d="m93.1214 332.78406l-12.99794 0l0 12.997925l12.99794 0z" fill-rule="evenodd"/><path stroke="#002b36" stroke-width="1.0" stroke-linejoin="round" stroke-linecap="butt" d="m93.1214 332.78406l-12.99794 0l0 12.997925l12.99794 0z" fill-rule="evenodd"/><path fill="#93a1a1" d="m80.12346 332.78406l-12.997932 0l0 12.997925l12.997932 0z" fill-rule="evenodd"/><path stroke="#002b36" stroke-width="1.0" stroke-linejoin="round" stroke-linecap="butt" d="m80.12346 332.78406l-12.997932 0l0 12.997925l12.997932 0z" fill-rule="evenodd"/><path fill="#93a1a1" d="m106.11933 345.78198l-12.997932 0l0 12.997925l12.997932 0z" fill-rule="evenodd"/><path stroke="#002b36" stroke-width="1.0" stroke-linejoin="round" stroke-linecap="butt" d="m106.11933 345.78198l-12.997932 0l0 12.997925l12.997932 0z" fill-rule="evenodd"/><path fill="#93a1a1" d="m93.1214 345.78198l-12.99794 0l0 12.997925l12.99794 0z" fill-rule="evenodd"/><path stroke="#002b36" stroke-width="1.0" stroke-linejoin="round" stroke-linecap="butt" d="m93.1214 345.78198l-12.99794 0l0 12.997925l12.99794 0z" fill-rule="evenodd"/><path fill="#93a1a1" d="m80.12346 345.78198l-12.997932 0l0 12.997925l12.997932 0z" fill-rule="evenodd"/><path stroke="#002b36" stroke-width="1.0" stroke-linejoin="round" stroke-linecap="butt" d="m80.12346 345.78198l-12.997932 0l0 12.997925l12.997932 0z" fill-rule="evenodd"/><path fill="#93a1a1" d="m106.12233 276.47797l-12.997932 0l0 12.997925l12.997932 0z" fill-rule="evenodd"/><path stroke="#002b36" stroke-width="1.0" stroke-linejoin="round" stroke-linecap="butt" d="m106.12233 276.47797l-12.997932 0l0 12.997925l12.997932 0z" fill-rule="evenodd"/><path fill="#002b36" d="m93.1244 276.47797l-12.997932 0l0 12.997925l12.997932 0z" fill-rule="evenodd"/><path stroke="#002b36" stroke-width="1.0" stroke-linejoin="round" stroke-linecap="butt" d="m93.1244 276.47797l-12.997932 0l0 12.997925l12.997932 0z" fill-rule="evenodd"/><path fill="#93a1a1" d="m80.126465 276.47797l-12.997932 0l0 12.997925l12.997932 0z" fill-rule="evenodd"/><path stroke="#002b36" stroke-width="1.0" stroke-linejoin="round" stroke-linecap="butt" d="m80.126465 276.47797l-12.997932 0l0 12.997925l12.997932 0z" fill-rule="evenodd"/><path fill="#93a1a1" d="m106.12233 289.4759l-12.997932 0l0 12.997925l12.997932 0z" fill-rule="evenodd"/><path stroke="#002b36" stroke-width="1.0" stroke-linejoin="round" stroke-linecap="butt" d="m106.12233 289.4759l-12.997932 0l0 12.997925l12.997932 0z" fill-rule="evenodd"/><path fill="#002b36" d="m93.1244 289.4759l-12.997932 0l0 12.997925l12.997932 0z" fill-rule="evenodd"/><path stroke="#002b36" stroke-width="1.0" stroke-linejoin="round" stroke-linecap="butt" d="m93.1244 289.4759l-12.997932 0l0 12.997925l12.997932 0z" fill-rule="evenodd"/><path fill="#93a1a1" d="m80.126465 289.4759l-12.997932 0l0 12.997925l12.997932 0z" fill-rule="evenodd"/><path stroke="#002b36" stroke-width="1.0" stroke-linejoin="round" stroke-linecap="butt" d="m80.126465 289.4759l-12.997932 0l0 12.997925l12.997932 0z" fill-rule="evenodd"/><path fill="#93a1a1" d="m106.12233 302.47382l-12.997932 0l0 12.997955l12.997932 0z" fill-rule="evenodd"/><path stroke="#002b36" stroke-width="1.0" stroke-linejoin="round" stroke-linecap="butt" d="m106.12233 302.47382l-12.997932 0l0 12.997955l12.997932 0z" fill-rule="evenodd"/><path fill="#002b36" d="m93.1244 302.47382l-12.997932 0l0 12.997955l12.997932 0z" fill-rule="evenodd"/><path stroke="#002b36" stroke-width="1.0" stroke-linejoin="round" stroke-linecap="butt" d="m93.1244 302.47382l-12.997932 0l0 12.997955l12.997932 0z" fill-rule="evenodd"/><path fill="#93a1a1" d="m80.126465 302.47382l-12.997932 0l0 12.997955l12.997932 0z" fill-rule="evenodd"/><path stroke="#002b36" stroke-width="1.0" stroke-linejoin="round" stroke-linecap="butt" d="m80.126465 302.47382l-12.997932 0l0 12.997955l12.997932 0z" fill-rule="evenodd"/><path fill="#93a1a1" d="m394.2189 154.55948l-12.997925 0l0 12.99794l12.997925 0z" fill-rule="evenodd"/><path stroke="#002b36" stroke-width="1.0" stroke-linejoin="round" stroke-linecap="butt" d="m394.2189 154.55948l-12.997925 0l0 12.99794l12.997925 0z" fill-rule="evenodd"/><path fill="#002b36" d="m381.22098 154.55948l-12.997925 0l0 12.99794l12.997925 0z" fill-rule="evenodd"/><path stroke="#002b36" stroke-width="1.0" stroke-linejoin="round" stroke-linecap="butt" d="m381.22098 154.55948l-12.997925 0l0 12.99794l12.997925 0z" fill-rule="evenodd"/><path fill="#93a1a1" d="m368.22305 154.55948l-12.997955 0l0 12.99794l12.997955 0z" fill-rule="evenodd"/><path stroke="#002b36" stroke-width="1.0" stroke-linejoin="round" stroke-linecap="butt" d="m368.22305 154.55948l-12.997955 0l0 12.99794l12.997955 0z" fill-rule="evenodd"/><path fill="#002b36" d="m394.2189 167.55742l-12.997925 0l0 12.997925l12.997925 0z" fill-rule="evenodd"/><path stroke="#002b36" stroke-width="1.0" stroke-linejoin="round" stroke-linecap="butt" d="m394.2189 167.55742l-12.997925 0l0 12.997925l12.997925 0z" fill-rule="evenodd"/><path fill="#002b36" d="m381.22098 167.55742l-12.997925 0l0 12.997925l12.997925 0z" fill-rule="evenodd"/><path stroke="#002b36" stroke-width="1.0" stroke-linejoin="round" stroke-linecap="butt" d="m381.22098 167.55742l-12.997925 0l0 12.997925l12.997925 0z" fill-rule="evenodd"/><path fill="#002b36" d="m368.22305 167.55742l-12.997955 0l0 12.997925l12.997955 0z" fill-rule="evenodd"/><path stroke="#002b36" stroke-width="1.0" stroke-linejoin="round" stroke-linecap="butt" d="m368.22305 167.55742l-12.997955 0l0 12.997925l12.997955 0z" fill-rule="evenodd"/><path fill="#93a1a1" d="m394.2189 180.55534l-12.997925 0l0 12.99794l12.997925 0z" fill-rule="evenodd"/><path stroke="#002b36" stroke-width="1.0" stroke-linejoin="round" stroke-linecap="butt" d="m394.2189 180.55534l-12.997925 0l0 12.99794l12.997925 0z" fill-rule="evenodd"/><path fill="#93a1a1" d="m381.22098 180.55534l-12.997925 0l0 12.99794l12.997925 0z" fill-rule="evenodd"/><path stroke="#002b36" stroke-width="1.0" stroke-linejoin="round" stroke-linecap="butt" d="m381.22098 180.55534l-12.997925 0l0 12.99794l12.997925 0z" fill-rule="evenodd"/><path fill="#93a1a1" d="m368.22305 180.55534l-12.997955 0l0 12.99794l12.997955 0z" fill-rule="evenodd"/><path stroke="#002b36" stroke-width="1.0" stroke-linejoin="round" stroke-linecap="butt" d="m368.22305 180.55534l-12.997955 0l0 12.99794l12.997955 0z" fill-rule="evenodd"/><path fill="#93a1a1" d="m349.97235 319.78613l-12.997925 0l0 12.997925l12.997925 0z" fill-rule="evenodd"/><path stroke="#002b36" stroke-width="1.0" stroke-linejoin="round" stroke-linecap="butt" d="m349.97235 319.78613l-12.997925 0l0 12.997925l12.997925 0z" fill-rule="evenodd"/><path fill="#93a1a1" d="m336.97443 319.78613l-12.997955 0l0 12.997925l12.997955 0z" fill-rule="evenodd"/><path stroke="#002b36" stroke-width="1.0" stroke-linejoin="round" stroke-linecap="butt" d="m336.97443 319.78613l-12.997955 0l0 12.997925l12.997955 0z" fill-rule="evenodd"/><path fill="#93a1a1" d="m323.97647 319.78613l-12.997925 0l0 12.997925l12.997925 0z" fill-rule="evenodd"/><path stroke="#002b36" stroke-width="1.0" stroke-linejoin="round" stroke-linecap="butt" d="m323.97647 319.78613l-12.997925 0l0 12.997925l12.997925 0z" fill-rule="evenodd"/><path fill="#93a1a1" d="m349.97235 332.78406l-12.997925 0l0 12.997925l12.997925 0z" fill-rule="evenodd"/><path stroke="#002b36" stroke-width="1.0" stroke-linejoin="round" stroke-linecap="butt" d="m349.97235 332.78406l-12.997925 0l0 12.997925l12.997925 0z" fill-rule="evenodd"/><path fill="#93a1a1" d="m336.97443 332.78406l-12.997955 0l0 12.997925l12.997955 0z" fill-rule="evenodd"/><path stroke="#002b36" stroke-width="1.0" stroke-linejoin="round" stroke-linecap="butt" d="m336.97443 332.78406l-12.997955 0l0 12.997925l12.997955 0z" fill-rule="evenodd"/><path fill="#93a1a1" d="m323.97647 332.78406l-12.997925 0l0 12.997925l12.997925 0z" fill-rule="evenodd"/><path stroke="#002b36" stroke-width="1.0" stroke-linejoin="round" stroke-linecap="butt" d="m323.97647 332.78406l-12.997925 0l0 12.997925l12.997925 0z" fill-rule="evenodd"/><path fill="#93a1a1" d="m349.97235 345.78198l-12.997925 0l0 12.997925l12.997925 0z" fill-rule="evenodd"/><path stroke="#002b36" stroke-width="1.0" stroke-linejoin="round" stroke-linecap="butt" d="m349.97235 345.78198l-12.997925 0l0 12.997925l12.997925 0z" fill-rule="evenodd"/><path fill="#93a1a1" d="m336.97443 345.78198l-12.997955 0l0 12.997925l12.997955 0z" fill-rule="evenodd"/><path stroke="#002b36" stroke-width="1.0" stroke-linejoin="round" stroke-linecap="butt" d="m336.97443 345.78198l-12.997955 0l0 12.997925l12.997955 0z" fill-rule="evenodd"/><path fill="#93a1a1" d="m323.97647 345.78198l-12.997925 0l0 12.997925l12.997925 0z" fill-rule="evenodd"/><path stroke="#002b36" stroke-width="1.0" stroke-linejoin="round" stroke-linecap="butt" d="m323.97647 345.78198l-12.997925 0l0 12.997925l12.997925 0z" fill-rule="evenodd"/><path fill="#93a1a1" d="m228.03271 319.7835l-12.99794 0l0 12.997925l12.99794 0z" fill-rule="evenodd"/><path stroke="#002b36" stroke-width="1.0" stroke-linejoin="round" stroke-linecap="butt" d="m228.03271 319.7835l-12.99794 0l0 12.997925l12.99794 0z" fill-rule="evenodd"/><path fill="#93a1a1" d="m215.03477 319.7835l-12.997925 0l0 12.997925l12.997925 0z" fill-rule="evenodd"/><path stroke="#002b36" stroke-width="1.0" stroke-linejoin="round" stroke-linecap="butt" d="m215.03477 319.7835l-12.997925 0l0 12.997925l12.997925 0z" fill-rule="evenodd"/><path fill="#93a1a1" d="m202.03685 319.7835l-12.99794 0l0 12.997925l12.99794 0z" fill-rule="evenodd"/><path stroke="#002b36" stroke-width="1.0" stroke-linejoin="round" stroke-linecap="butt" d="m202.03685 319.7835l-12.99794 0l0 12.997925l12.99794 0z" fill-rule="evenodd"/><path fill="#93a1a1" d="m228.03271 332.78143l-12.99794 0l0 12.997925l12.99794 0z" fill-rule="evenodd"/><path stroke="#002b36" stroke-width="1.0" stroke-linejoin="round" stroke-linecap="butt" d="m228.03271 332.78143l-12.99794 0l0 12.997925l12.99794 0z" fill-rule="evenodd"/><path fill="#93a1a1" d="m215.03477 332.78143l-12.997925 0l0 12.997925l12.997925 0z" fill-rule="evenodd"/><path stroke="#002b36" stroke-width="1.0" stroke-linejoin="round" stroke-linecap="butt" d="m215.03477 332.78143l-12.997925 0l0 12.997925l12.997925 0z" fill-rule="evenodd"/><path fill="#93a1a1" d="m202.03685 332.78143l-12.99794 0l0 12.997925l12.99794 0z" fill-rule="evenodd"/><path stroke="#002b36" stroke-width="1.0" stroke-linejoin="round" stroke-linecap="butt" d="m202.03685 332.78143l-12.99794 0l0 12.997925l12.99794 0z" fill-rule="evenodd"/><path fill="#93a1a1" d="m228.03271 345.77936l-12.99794 0l0 12.997925l12.99794 0z" fill-rule="evenodd"/><path stroke="#002b36" stroke-width="1.0" stroke-linejoin="round" stroke-linecap="butt" d="m228.03271 345.77936l-12.99794 0l0 12.997925l12.99794 0z" fill-rule="evenodd"/><path fill="#93a1a1" d="m215.03477 345.77936l-12.997925 0l0 12.997925l12.997925 0z" fill-rule="evenodd"/><path stroke="#002b36" stroke-width="1.0" stroke-linejoin="round" stroke-linecap="butt" d="m215.03477 345.77936l-12.997925 0l0 12.997925l12.997925 0z" fill-rule="evenodd"/><path fill="#93a1a1" d="m202.03685 345.77936l-12.99794 0l0 12.997925l12.99794 0z" fill-rule="evenodd"/><path stroke="#002b36" stroke-width="1.0" stroke-linejoin="round" stroke-linecap="butt" d="m202.03685 345.77936l-12.99794 0l0 12.997925l12.99794 0z" fill-rule="evenodd"/><path fill="#93a1a1" d="m106.11933 75.95148l-12.997932 0l0 12.997932l12.997932 0z" fill-rule="evenodd"/><path stroke="#002b36" stroke-width="1.0" stroke-linejoin="round" stroke-linecap="butt" d="m106.11933 75.95148l-12.997932 0l0 12.997932l12.997932 0z" fill-rule="evenodd"/><path fill="#93a1a1" d="m93.1214 75.95148l-12.99794 0l0 12.997932l12.99794 0z" fill-rule="evenodd"/><path stroke="#002b36" stroke-width="1.0" stroke-linejoin="round" stroke-linecap="butt" d="m93.1214 75.95148l-12.99794 0l0 12.997932l12.99794 0z" fill-rule="evenodd"/><path fill="#93a1a1" d="m80.12346 75.95148l-12.997932 0l0 12.997932l12.997932 0z" fill-rule="evenodd"/><path stroke="#002b36" stroke-width="1.0" stroke-linejoin="round" stroke-linecap="butt" d="m80.12346 75.95148l-12.997932 0l0 12.997932l12.997932 0z" fill-rule="evenodd"/><path fill="#93a1a1" d="m106.11933 88.94941l-12.997932 0l0 12.997932l12.997932 0z" fill-rule="evenodd"/><path stroke="#002b36" stroke-width="1.0" stroke-linejoin="round" stroke-linecap="butt" d="m106.11933 88.94941l-12.997932 0l0 12.997932l12.997932 0z" fill-rule="evenodd"/><path fill="#93a1a1" d="m93.1214 88.94941l-12.99794 0l0 12.997932l12.99794 0z" fill-rule="evenodd"/><path stroke="#002b36" stroke-width="1.0" stroke-linejoin="round" stroke-linecap="butt" d="m93.1214 88.94941l-12.99794 0l0 12.997932l12.99794 0z" fill-rule="evenodd"/><path fill="#93a1a1" d="m80.12346 88.94941l-12.997932 0l0 12.997932l12.997932 0z" fill-rule="evenodd"/><path stroke="#002b36" stroke-width="1.0" stroke-linejoin="round" stroke-linecap="butt" d="m80.12346 88.94941l-12.997932 0l0 12.997932l12.997932 0z" fill-rule="evenodd"/><path fill="#93a1a1" d="m106.11933 101.94734l-12.997932 0l0 12.997932l12.997932 0z" fill-rule="evenodd"/><path stroke="#002b36" stroke-width="1.0" stroke-linejoin="round" stroke-linecap="butt" d="m106.11933 101.94734l-12.997932 0l0 12.997932l12.997932 0z" fill-rule="evenodd"/><path fill="#93a1a1" d="m93.1214 101.94734l-12.99794 0l0 12.997932l12.99794 0z" fill-rule="evenodd"/><path stroke="#002b36" stroke-width="1.0" stroke-linejoin="round" stroke-linecap="butt" d="m93.1214 101.94734l-12.99794 0l0 12.997932l12.99794 0z" fill-rule="evenodd"/><path fill="#93a1a1" d="m80.12346 101.94734l-12.997932 0l0 12.997932l12.997932 0z" fill-rule="evenodd"/><path stroke="#002b36" stroke-width="1.0" stroke-linejoin="round" stroke-linecap="butt" d="m80.12346 101.94734l-12.997932 0l0 12.997932l12.997932 0z" fill-rule="evenodd"/><path fill="#93a1a1" d="m106.12233 32.64331l-12.997932 0l0 12.997932l12.997932 0z" fill-rule="evenodd"/><path stroke="#002b36" stroke-width="1.0" stroke-linejoin="round" stroke-linecap="butt" d="m106.12233 32.64331l-12.997932 0l0 12.997932l12.997932 0z" fill-rule="evenodd"/><path fill="#002b36" d="m93.1244 32.64331l-12.997932 0l0 12.997932l12.997932 0z" fill-rule="evenodd"/><path stroke="#002b36" stroke-width="1.0" stroke-linejoin="round" stroke-linecap="butt" d="m93.1244 32.64331l-12.997932 0l0 12.997932l12.997932 0z" fill-rule="evenodd"/><path fill="#93a1a1" d="m80.126465 32.64331l-12.997932 0l0 12.997932l12.997932 0z" fill-rule="evenodd"/><path stroke="#002b36" stroke-width="1.0" stroke-linejoin="round" stroke-linecap="butt" d="m80.126465 32.64331l-12.997932 0l0 12.997932l12.997932 0z" fill-rule="evenodd"/><path fill="#93a1a1" d="m106.12233 45.641243l-12.997932 0l0 12.997936l12.997932 0z" fill-rule="evenodd"/><path stroke="#002b36" stroke-width="1.0" stroke-linejoin="round" stroke-linecap="butt" d="m106.12233 45.641243l-12.997932 0l0 12.997936l12.997932 0z" fill-rule="evenodd"/><path fill="#002b36" d="m93.1244 45.641243l-12.997932 0l0 12.997936l12.997932 0z" fill-rule="evenodd"/><path stroke="#002b36" stroke-width="1.0" stroke-linejoin="round" stroke-linecap="butt" d="m93.1244 45.641243l-12.997932 0l0 12.997936l12.997932 0z" fill-rule="evenodd"/><path fill="#93a1a1" d="m80.126465 45.641243l-12.997932 0l0 12.997936l12.997932 0z" fill-rule="evenodd"/><path stroke="#002b36" stroke-width="1.0" stroke-linejoin="round" stroke-linecap="butt" d="m80.126465 45.641243l-12.997932 0l0 12.997936l12.997932 0z" fill-rule="evenodd"/><path fill="#93a1a1" d="m106.12233 58.63918l-12.997932 0l0 12.997936l12.997932 0z" fill-rule="evenodd"/><path stroke="#002b36" stroke-width="1.0" stroke-linejoin="round" stroke-linecap="butt" d="m106.12233 58.63918l-12.997932 0l0 12.997936l12.997932 0z" fill-rule="evenodd"/><path fill="#002b36" d="m93.1244 58.63918l-12.997932 0l0 12.997936l12.997932 0z" fill-rule="evenodd"/><path stroke="#002b36" stroke-width="1.0" stroke-linejoin="round" stroke-linecap="butt" d="m93.1244 58.63918l-12.997932 0l0 12.997936l12.997932 0z" fill-rule="evenodd"/><path fill="#93a1a1" d="m80.126465 58.63918l-12.997932 0l0 12.997936l12.997932 0z" fill-rule="evenodd"/><path stroke="#002b36" stroke-width="1.0" stroke-linejoin="round" stroke-linecap="butt" d="m80.126465 58.63918l-12.997932 0l0 12.997936l12.997932 0z" fill-rule="evenodd"/><path fill="#93a1a1" d="m111.43896 197.90916l12.970596 0l0 12.970581l-12.970596 0z" fill-rule="evenodd"/><path stroke="#002b36" stroke-width="1.0" stroke-linejoin="round" stroke-linecap="butt" d="m111.43896 197.90916l12.970596 0l0 12.970581l-12.970596 0z" fill-rule="evenodd"/><path fill="#93a1a1" d="m124.40955 197.90916l12.970589 0l0 12.970581l-12.970589 0z" fill-rule="evenodd"/><path stroke="#002b36" stroke-width="1.0" stroke-linejoin="round" stroke-linecap="butt" d="m124.40955 197.90916l12.970589 0l0 12.970581l-12.970589 0z" fill-rule="evenodd"/><path fill="#93a1a1" d="m137.38014 197.90916l12.970581 0l0 12.970581l-12.970581 0z" fill-rule="evenodd"/><path stroke="#002b36" stroke-width="1.0" stroke-linejoin="round" stroke-linecap="butt" d="m137.38014 197.90916l12.970581 0l0 12.970581l-12.970581 0z" fill-rule="evenodd"/><path fill="#93a1a1" d="m111.43896 210.87975l12.970596 0l0 12.970596l-12.970596 0z" fill-rule="evenodd"/><path stroke="#002b36" stroke-width="1.0" stroke-linejoin="round" stroke-linecap="butt" d="m111.43896 210.87975l12.970596 0l0 12.970596l-12.970596 0z" fill-rule="evenodd"/><path fill="#002b36" d="m124.40955 210.87975l12.970589 0l0 12.970596l-12.970589 0z" fill-rule="evenodd"/><path stroke="#002b36" stroke-width="1.0" stroke-linejoin="round" stroke-linecap="butt" d="m124.40955 210.87975l12.970589 0l0 12.970596l-12.970589 0z" fill-rule="evenodd"/><path fill="#002b36" d="m137.38014 210.87975l12.970581 0l0 12.970596l-12.970581 0z" fill-rule="evenodd"/><path stroke="#002b36" stroke-width="1.0" stroke-linejoin="round" stroke-linecap="butt" d="m137.38014 210.87975l12.970581 0l0 12.970596l-12.970581 0z" fill-rule="evenodd"/><path fill="#93a1a1" d="m111.43896 223.85034l12.970596 0l0 12.970581l-12.970596 0z" fill-rule="evenodd"/><path stroke="#002b36" stroke-width="1.0" stroke-linejoin="round" stroke-linecap="butt" d="m111.43896 223.85034l12.970596 0l0 12.970581l-12.970596 0z" fill-rule="evenodd"/><path fill="#002b36" d="m124.40955 223.85034l12.970589 0l0 12.970581l-12.970589 0z" fill-rule="evenodd"/><path stroke="#002b36" stroke-width="1.0" stroke-linejoin="round" stroke-linecap="butt" d="m124.40955 223.85034l12.970589 0l0 12.970581l-12.970589 0z" fill-rule="evenodd"/><path fill="#93a1a1" d="m137.38014 223.85034l12.970581 0l0 12.970581l-12.970581 0z" fill-rule="evenodd"/><path stroke="#002b36" stroke-width="1.0" stroke-linejoin="round" stroke-linecap="butt" d="m137.38014 223.85034l12.970581 0l0 12.970581l-12.970581 0z" fill-rule="evenodd"/><path fill="#93a1a1" d="m355.22766 76.032524l12.970612 0l0 12.970589l-12.970612 0z" fill-rule="evenodd"/><path stroke="#002b36" stroke-width="1.0" stroke-linejoin="round" stroke-linecap="butt" d="m355.22766 76.032524l12.970612 0l0 12.970589l-12.970612 0z" fill-rule="evenodd"/><path fill="#93a1a1" d="m368.19827 76.032524l12.970581 0l0 12.970589l-12.970581 0z" fill-rule="evenodd"/><path stroke="#002b36" stroke-width="1.0" stroke-linejoin="round" stroke-linecap="butt" d="m368.19827 76.032524l12.970581 0l0 12.970589l-12.970581 0z" fill-rule="evenodd"/><path fill="#93a1a1" d="m381.16885 76.032524l12.970581 0l0 12.970589l-12.970581 0z" fill-rule="evenodd"/><path stroke="#002b36" stroke-width="1.0" stroke-linejoin="round" stroke-linecap="butt" d="m381.16885 76.032524l12.970581 0l0 12.970589l-12.970581 0z" fill-rule="evenodd"/><path fill="#93a1a1" d="m355.22766 89.00311l12.970612 0l0 12.970589l-12.970612 0z" fill-rule="evenodd"/><path stroke="#002b36" stroke-width="1.0" stroke-linejoin="round" stroke-linecap="butt" d="m355.22766 89.00311l12.970612 0l0 12.970589l-12.970612 0z" fill-rule="evenodd"/><path fill="#002b36" d="m368.19827 89.00311l12.970581 0l0 12.970589l-12.970581 0z" fill-rule="evenodd"/><path stroke="#002b36" stroke-width="1.0" stroke-linejoin="round" stroke-linecap="butt" d="m368.19827 89.00311l12.970581 0l0 12.970589l-12.970581 0z" fill-rule="evenodd"/><path fill="#002b36" d="m381.16885 89.00311l12.970581 0l0 12.970589l-12.970581 0z" fill-rule="evenodd"/><path stroke="#002b36" stroke-width="1.0" stroke-linejoin="round" stroke-linecap="butt" d="m381.16885 89.00311l12.970581 0l0 12.970589l-12.970581 0z" fill-rule="evenodd"/><path fill="#93a1a1" d="m355.22766 101.9737l12.970612 0l0 12.970589l-12.970612 0z" fill-rule="evenodd"/><path stroke="#002b36" stroke-width="1.0" stroke-linejoin="round" stroke-linecap="butt" d="m355.22766 101.9737l12.970612 0l0 12.970589l-12.970612 0z" fill-rule="evenodd"/><path fill="#002b36" d="m368.19827 101.9737l12.970581 0l0 12.970589l-12.970581 0z" fill-rule="evenodd"/><path stroke="#002b36" stroke-width="1.0" stroke-linejoin="round" stroke-linecap="butt" d="m368.19827 101.9737l12.970581 0l0 12.970589l-12.970581 0z" fill-rule="evenodd"/><path fill="#93a1a1" d="m381.16885 101.9737l12.970581 0l0 12.970589l-12.970581 0z" fill-rule="evenodd"/><path stroke="#002b36" stroke-width="1.0" stroke-linejoin="round" stroke-linecap="butt" d="m381.16885 101.9737l12.970581 0l0 12.970589l-12.970581 0z" fill-rule="evenodd"/><path fill="#93a1a1" d="m355.22635 319.7858l12.970612 0l0 12.970581l-12.970612 0z" fill-rule="evenodd"/><path stroke="#002b36" stroke-width="1.0" stroke-linejoin="round" stroke-linecap="butt" d="m355.22635 319.7858l12.970612 0l0 12.970581l-12.970612 0z" fill-rule="evenodd"/><path fill="#93a1a1" d="m368.19696 319.7858l12.970581 0l0 12.970581l-12.970581 0z" fill-rule="evenodd"/><path stroke="#002b36" stroke-width="1.0" stroke-linejoin="round" stroke-linecap="butt" d="m368.19696 319.7858l12.970581 0l0 12.970581l-12.970581 0z" fill-rule="evenodd"/><path fill="#93a1a1" d="m381.16754 319.7858l12.970581 0l0 12.970581l-12.970581 0z" fill-rule="evenodd"/><path stroke="#002b36" stroke-width="1.0" stroke-linejoin="round" stroke-linecap="butt" d="m381.16754 319.7858l12.970581 0l0 12.970581l-12.970581 0z" fill-rule="evenodd"/><path fill="#93a1a1" d="m355.22635 332.75638l12.970612 0l0 12.970612l-12.970612 0z" fill-rule="evenodd"/><path stroke="#002b36" stroke-width="1.0" stroke-linejoin="round" stroke-linecap="butt" d="m355.22635 332.75638l12.970612 0l0 12.970612l-12.970612 0z" fill-rule="evenodd"/><path fill="#002b36" d="m368.19696 332.75638l12.970581 0l0 12.970612l-12.970581 0z" fill-rule="evenodd"/><path stroke="#002b36" stroke-width="1.0" stroke-linejoin="round" stroke-linecap="butt" d="m368.19696 332.75638l12.970581 0l0 12.970612l-12.970581 0z" fill-rule="evenodd"/><path fill="#002b36" d="m381.16754 332.75638l12.970581 0l0 12.970612l-12.970581 0z" fill-rule="evenodd"/><path stroke="#002b36" stroke-width="1.0" stroke-linejoin="round" stroke-linecap="butt" d="m381.16754 332.75638l12.970581 0l0 12.970612l-12.970581 0z" fill-rule="evenodd"/><path fill="#93a1a1" d="m355.22635 345.727l12.970612 0l0 12.970581l-12.970612 0z" fill-rule="evenodd"/><path stroke="#002b36" stroke-width="1.0" stroke-linejoin="round" stroke-linecap="butt" d="m355.22635 345.727l12.970612 0l0 12.970581l-12.970612 0z" fill-rule="evenodd"/><path fill="#002b36" d="m368.19696 345.727l12.970581 0l0 12.970581l-12.970581 0z" fill-rule="evenodd"/><path stroke="#002b36" stroke-width="1.0" stroke-linejoin="round" stroke-linecap="butt" d="m368.19696 345.727l12.970581 0l0 12.970581l-12.970581 0z" fill-rule="evenodd"/><path fill="#93a1a1" d="m381.16754 345.727l12.970581 0l0 12.970581l-12.970581 0z" fill-rule="evenodd"/><path stroke="#002b36" stroke-width="1.0" stroke-linejoin="round" stroke-linecap="butt" d="m381.16754 345.727l12.970581 0l0 12.970581l-12.970581 0z" fill-rule="evenodd"/><path fill="#000000" fill-opacity="0.0" d="m47.798927 12.834757l121.92126 0l0 121.92126l-121.92126 0z" fill-rule="evenodd"/><path stroke="#002b36" stroke-width="3.0" stroke-linejoin="round" stroke-linecap="butt" d="m47.798927 12.834757l121.92126 0l0 121.92126l-121.92126 0z" fill-rule="evenodd"/><path fill="#000000" fill-opacity="0.0" d="m169.71686 12.834757l121.921265 0l0 121.92126l-121.921265 0z" fill-rule="evenodd"/><path stroke="#002b36" stroke-width="3.0" stroke-linejoin="round" stroke-linecap="butt" d="m169.71686 12.834757l121.921265 0l0 121.92126l-121.921265 0z" fill-rule="evenodd"/><path fill="#000000" fill-opacity="0.0" d="m291.6348 12.834757l121.921265 0l0 121.92126l-121.921265 0z" fill-rule="evenodd"/><path stroke="#002b36" stroke-width="3.0" stroke-linejoin="round" stroke-linecap="butt" d="m291.6348 12.834757l121.921265 0l0 121.92126l-121.921265 0z" fill-rule="evenodd"/><path fill="#000000" fill-opacity="0.0" d="m47.798927 134.7517l121.92126 0l0 121.92125l-121.92126 0z" fill-rule="evenodd"/><path stroke="#002b36" stroke-width="3.0" stroke-linejoin="round" stroke-linecap="butt" d="m47.798927 134.7517l121.92126 0l0 121.92125l-121.92126 0z" fill-rule="evenodd"/><path fill="#000000" fill-opacity="0.0" d="m169.71686 134.7517l121.921265 0l0 121.92125l-121.921265 0z" fill-rule="evenodd"/><path stroke="#002b36" stroke-width="3.0" stroke-linejoin="round" stroke-linecap="butt" d="m169.71686 134.7517l121.921265 0l0 121.92125l-121.921265 0z" fill-rule="evenodd"/><path fill="#000000" fill-opacity="0.0" d="m291.6348 134.7517l121.921265 0l0 121.92125l-121.921265 0z" fill-rule="evenodd"/><path stroke="#002b36" stroke-width="3.0" stroke-linejoin="round" stroke-linecap="butt" d="m291.6348 134.7517l121.921265 0l0 121.92125l-121.921265 0z" fill-rule="evenodd"/><path fill="#000000" fill-opacity="0.0" d="m47.798927 256.6686l121.92126 0l0 121.921265l-121.92126 0z" fill-rule="evenodd"/><path stroke="#002b36" stroke-width="3.0" stroke-linejoin="round" stroke-linecap="butt" d="m47.798927 256.6686l121.92126 0l0 121.921265l-121.92126 0z" fill-rule="evenodd"/><path fill="#000000" fill-opacity="0.0" d="m169.71686 256.6686l121.921265 0l0 121.921265l-121.921265 0z" fill-rule="evenodd"/><path stroke="#002b36" stroke-width="3.0" stroke-linejoin="round" stroke-linecap="butt" d="m169.71686 256.6686l121.921265 0l0 121.921265l-121.921265 0z" fill-rule="evenodd"/><path fill="#000000" fill-opacity="0.0" d="m291.6348 256.6686l121.921265 0l0 121.921265l-121.921265 0z" fill-rule="evenodd"/><path stroke="#002b36" stroke-width="3.0" stroke-linejoin="round" stroke-linecap="butt" d="m291.6348 256.6686l121.921265 0l0 121.921265l-121.921265 0z" fill-rule="evenodd"/><path fill="#000000" fill-opacity="0.0" d="m42.73622 398.437l375.87402 0l0 82.299194l-375.87402 0z" fill-rule="evenodd"/><path fill="#002b36" d="m164.57167 411.19724l-7.796875 0l0 21.109375l-1.921875 0l0 -21.109375l-7.78125 0l0 -1.640625l17.5 0l0 1.640625zm5.09375 7.0625q0.921875 -1.515625 2.359375 -2.34375q1.4375 -0.828125 3.140625 -0.828125q2.71875 0 4.046875 1.53125q1.328125 1.53125 1.34375 4.59375l0 11.09375l-1.859375 0l0 -11.109375q-0.015625 -2.265625 -0.96875 -3.375q-0.9375 -1.109375 -3.015625 -1.109375q-1.734375 0 -3.078125 1.09375q-1.328125 1.078125 -1.96875 2.921875l0 11.578125l-1.859375 0l0 -24.0l1.859375 0l0 9.953125zm22.25 14.359375q-2.15625 0 -3.90625 -1.0625q-1.734375 -1.0625 -2.703125 -2.953125q-0.96875 -1.90625 -0.96875 -4.265625l0 -0.671875q0 -2.4375 0.9375 -4.390625q0.953125 -1.953125 2.640625 -3.0625q1.6875 -1.125 3.65625 -1.125q3.078125 0 4.875 2.109375q1.8125 2.09375 1.8125 5.734375l0 1.046875l-12.0625 0l0 0.359375q0 2.875 1.640625 4.796875q1.65625 1.90625 4.15625 1.90625q1.5 0 2.640625 -0.546875q1.15625 -0.546875 2.09375 -1.75l1.171875 0.890625q-2.0625 2.984375 -5.984375 2.984375zm-0.34375 -15.9375q-2.109375 0 -3.5625 1.546875q-1.4375 1.546875 -1.75 4.15625l10.140625 0l0 -0.203125q-0.078125 -2.4375 -1.390625 -3.96875q-1.3125 -1.53125 -3.4375 -1.53125zm28.78125 15.625q-0.28125 -0.796875 -0.359375 -2.359375q-0.984375 1.28125 -2.515625 1.984375q-1.515625 0.6875 -3.21875 0.6875q-2.4375 0 -3.953125 -1.359375q-1.5 -1.359375 -1.5 -3.4375q0 -2.46875 2.046875 -3.90625q2.0625 -1.4375 5.734375 -1.4375l3.390625 0l0 -1.921875q0 -1.8125 -1.125 -2.84375q-1.109375 -1.046875 -3.25 -1.046875q-1.953125 0 -3.234375 1.0q-1.28125 1.0 -1.28125 2.40625l-1.875 -0.015625q0 -2.015625 1.875 -3.484375q1.875 -1.484375 4.609375 -1.484375q2.828125 0 4.453125 1.421875q1.640625 1.40625 1.6875 3.9375l0 8.0q0 2.453125 0.515625 3.671875l0 0.1875l-2.0 0zm-5.875 -1.34375q1.875 0 3.34375 -0.90625q1.484375 -0.90625 2.15625 -2.421875l0 -3.71875l-3.34375 0q-2.796875 0.03125 -4.375 1.03125q-1.578125 0.984375 -1.578125 2.71875q0 1.421875 1.046875 2.359375q1.0625 0.9375 2.75 0.9375zm14.4375 1.34375l-1.875 0l0 -24.0l1.875 0l0 24.0zm7.171875 0l-1.875 0l0 -24.0l1.875 0l0 24.0zm4.046875 -8.703125q0 -2.4375 0.9375 -4.390625q0.953125 -1.953125 2.671875 -3.03125q1.734375 -1.09375 3.921875 -1.09375q3.375 0 5.46875 2.375q2.09375 2.359375 2.09375 6.265625l0 0.390625q0 2.453125 -0.953125 4.421875q-0.9375 1.953125 -2.65625 3.015625q-1.71875 1.0625 -3.921875 1.0625q-3.359375 0 -5.46875 -2.359375q-2.09375 -2.375 -2.09375 -6.28125l0 -0.375zm1.875 0.515625q0 3.03125 1.5625 4.984375q1.578125 1.9375 4.125 1.9375q2.53125 0 4.09375 -1.9375q1.578125 -1.953125 1.578125 -5.140625l0 -0.359375q0 -1.9375 -0.71875 -3.546875q-0.71875 -1.609375 -2.015625 -2.484375q-1.296875 -0.890625 -2.96875 -0.890625q-2.5 0 -4.078125 1.96875q-1.578125 1.953125 -1.578125 5.125l0 0.34375zm21.124985 4.296875l0.28125 1.453125l0.375 -1.53125l4.0625 -12.9375l1.59375 0l4.015625 12.828125l0.4375 1.78125l0.359375 -1.640625l3.46875 -12.96875l1.9375 0l-4.921875 16.90625l-1.59375 0l-4.34375 -13.40625l-0.203125 -0.921875l-0.203125 0.9375l-4.265625 13.390625l-1.59375 0l-4.90625 -16.90625l1.921875 0l3.578125 13.015625zm26.625 4.203125q-2.15625 0 -3.90625 -1.0625q-1.734375 -1.0625 -2.703125 -2.953125q-0.96875 -1.90625 -0.96875 -4.265625l0 -0.671875q0 -2.4375 0.9375 -4.390625q0.953125 -1.953125 2.640625 -3.0625q1.6875 -1.125 3.65625 -1.125q3.078125 0 4.875 2.109375q1.8125 2.09375 1.8125 5.734375l0 1.046875l-12.0625 0l0 0.359375q0 2.875 1.640625 4.796875q1.65625 1.90625 4.15625 1.90625q1.5 0 2.640625 -0.546875q1.15625 -0.546875 2.09375 -1.75l1.171875 0.890625q-2.0625 2.984375 -5.984375 2.984375zm-0.34375 -15.9375q-2.109375 0 -3.5625 1.546875q-1.4375 1.546875 -1.75 4.15625l10.140625 0l0 -0.203125q-0.078125 -2.4375 -1.390625 -3.96875q-1.3125 -1.53125 -3.4375 -1.53125zm9.578125 7.015625q0 -3.9375 1.75 -6.265625q1.765625 -2.34375 4.78125 -2.34375q3.421875 0 5.21875 2.703125l0 -9.484375l1.859375 0l0 24.0l-1.75 0l-0.078125 -2.25q-1.796875 2.5625 -5.28125 2.5625q-2.921875 0 -4.71875 -2.34375q-1.78125 -2.359375 -1.78125 -6.359375l0 -0.21875zm1.890625 0.328125q0 3.234375 1.296875 5.109375q1.296875 1.859375 3.65625 1.859375q3.453125 0 4.90625 -3.046875l0 -7.9375q-1.453125 -3.296875 -4.875 -3.296875q-2.359375 0 -3.671875 1.859375q-1.3125 1.84375 -1.3125 5.453125z" fill-rule="nonzero"/><path fill="#002b36" d="m119.64198 453.40036l0.0625 2.890625q0.953125 -1.5625 2.375 -2.375q1.421875 -0.828125 3.140625 -0.828125q2.71875 0 4.046875 1.53125q1.328125 1.53125 1.34375 4.59375l0 11.09375l-1.859375 0l0 -11.109375q-0.015625 -2.265625 -0.96875 -3.375q-0.9375 -1.109375 -3.015625 -1.109375q-1.734375 0 -3.078125 1.09375q-1.328125 1.078125 -1.96875 2.921875l0 11.578125l-1.859375 0l0 -16.90625l1.78125 0zm22.34375 17.21875q-2.15625 0 -3.90625 -1.0625q-1.734375 -1.0625 -2.703125 -2.953125q-0.96875 -1.90625 -0.96875 -4.265625l0 -0.671875q0 -2.4375 0.9375 -4.390625q0.953125 -1.953125 2.640625 -3.0625q1.6875 -1.125 3.65625 -1.125q3.078125 0 4.875 2.109375q1.8125 2.09375 1.8125 5.734375l0 1.046875l-12.0625 0l0 0.359375q0 2.875 1.640625 4.796875q1.65625 1.90625 4.15625 1.90625q1.5 0 2.640625 -0.546875q1.15625 -0.546875 2.09375 -1.75l1.171875 0.890625q-2.0625 2.984375 -5.984375 2.984375zm-0.34375 -15.9375q-2.109375 0 -3.5625 1.546875q-1.4375 1.546875 -1.75 4.15625l10.140625 0l0 -0.203125q-0.078125 -2.4375 -1.390625 -3.96875q-1.3125 -1.53125 -3.4375 -1.53125zm12.421875 15.625l-1.875 0l0 -16.90625l1.875 0l0 16.90625zm-2.203125 -21.796875q0 -0.53125 0.34375 -0.890625q0.34375 -0.375 0.9375 -0.375q0.59375 0 0.9375 0.375q0.359375 0.359375 0.359375 0.890625q0 0.53125 -0.359375 0.890625q-0.34375 0.359375 -0.9375 0.359375q-0.59375 0 -0.9375 -0.359375q-0.34375 -0.359375 -0.34375 -0.890625zm6.53125 13.1875q0 -3.96875 1.75 -6.28125q1.765625 -2.328125 4.78125 -2.328125q3.453125 0 5.25 2.75l0.09375 -2.4375l1.75 0l0 16.5625q0 3.265625 -1.828125 5.171875q-1.828125 1.90625 -4.953125 1.90625q-1.765625 0 -3.375 -0.796875q-1.59375 -0.78125 -2.515625 -2.09375l1.046875 -1.125q1.984375 2.4375 4.71875 2.4375q2.34375 0 3.65625 -1.390625q1.3125 -1.375 1.359375 -3.828125l0 -2.125q-1.796875 2.5 -5.234375 2.5q-2.9375 0 -4.71875 -2.34375q-1.78125 -2.34375 -1.78125 -6.328125l0 -0.25zm1.890625 0.328125q0 3.234375 1.296875 5.109375q1.296875 1.859375 3.65625 1.859375q3.453125 0 4.890625 -3.09375l0 -7.859375q-0.65625 -1.625 -1.890625 -2.46875q-1.234375 -0.859375 -2.96875 -0.859375q-2.359375 0 -3.671875 1.859375q-1.3125 1.84375 -1.3125 5.453125zm18.46875 -5.765625q0.921875 -1.515625 2.359375 -2.34375q1.4375 -0.828125 3.140625 -0.828125q2.71875 0 4.046875 1.53125q1.328125 1.53125 1.34375 4.59375l0 11.09375l-1.859375 0l0 -11.109375q-0.015625 -2.265625 -0.96875 -3.375q-0.9375 -1.109375 -3.015625 -1.109375q-1.734375 0 -3.078125 1.09375q-1.328125 1.078125 -1.96875 2.921875l0 11.578125l-1.859375 0l0 -24.0l1.859375 0l0 9.953125zm29.3125 5.765625q0 3.953125 -1.75 6.28125q-1.75 2.3125 -4.703125 2.3125q-3.53125 0 -5.34375 -2.625l-0.078125 2.3125l-1.75 0l0 -24.0l1.859375 0l0 9.546875q1.78125 -2.765625 5.28125 -2.765625q3.0 0 4.734375 2.296875q1.75 2.28125 1.75 6.359375l0 0.28125zm-1.875 -0.328125q0 -3.34375 -1.296875 -5.15625q-1.296875 -1.828125 -3.65625 -1.828125q-1.796875 0 -3.046875 0.890625q-1.25 0.875 -1.890625 2.578125l0 7.625q1.40625 3.1875 4.96875 3.1875q2.3125 0 3.609375 -1.828125q1.3125 -1.828125 1.3125 -5.46875zm4.96875 -0.09375q0 -2.4375 0.9375 -4.390625q0.953125 -1.953125 2.671875 -3.03125q1.734375 -1.09375 3.921875 -1.09375q3.375 0 5.46875 2.375q2.09375 2.359375 2.09375 6.265625l0 0.390625q0 2.453125 -0.953125 4.421875q-0.9375 1.953125 -2.65625 3.015625q-1.71875 1.0625 -3.921875 1.0625q-3.359375 0 -5.46875 -2.359375q-2.09375 -2.375 -2.09375 -6.28125l0 -0.375zm1.875 0.515625q0 3.03125 1.5625 4.984375q1.578125 1.9375 4.125 1.9375q2.53125 0 4.09375 -1.9375q1.578125 -1.953125 1.578125 -5.140625l0 -0.359375q0 -1.9375 -0.71875 -3.546875q-0.71875 -1.609375 -2.015625 -2.484375q-1.296875 -0.890625 -2.96875 -0.890625q-2.5 0 -4.078125 1.96875q-1.578125 1.953125 -1.578125 5.125l0 0.34375zm24.890625 -7.125q-0.59375 -0.109375 -1.265625 -0.109375q-1.75 0 -2.96875 0.984375q-1.203125 0.96875 -1.71875 2.828125l0 11.609375l-1.859375 0l0 -16.90625l1.828125 0l0.03125 2.6875q1.484375 -3.0 4.765625 -3.0q0.78125 0 1.234375 0.203125l-0.046875 1.703125zm4.8125 1.265625q0.921875 -1.515625 2.359375 -2.34375q1.4375 -0.828125 3.140625 -0.828125q2.71875 0 4.046875 1.53125q1.328125 1.53125 1.34375 4.59375l0 11.09375l-1.859375 0l0 -11.109375q-0.015625 -2.265625 -0.96875 -3.375q-0.9375 -1.109375 -3.015625 -1.109375q-1.734375 0 -3.078125 1.09375q-1.328125 1.078125 -1.96875 2.921875l0 11.578125l-1.859375 0l0 -24.0l1.859375 0l0 9.953125zm14.67186 5.34375q0 -2.4375 0.9375 -4.390625q0.953125 -1.953125 2.671875 -3.03125q1.734375 -1.09375 3.921875 -1.09375q3.375 0 5.46875 2.375q2.09375 2.359375 2.09375 6.265625l0 0.390625q0 2.453125 -0.953125 4.421875q-0.9375 1.953125 -2.65625 3.015625q-1.71875 1.0625 -3.921875 1.0625q-3.359375 0 -5.46875 -2.359375q-2.09375 -2.375 -2.09375 -6.28125l0 -0.375zm1.875 0.515625q0 3.03125 1.5625 4.984375q1.578125 1.9375 4.125 1.9375q2.53125 0 4.09375 -1.9375q1.578125 -1.953125 1.578125 -5.140625l0 -0.359375q0 -1.9375 -0.71875 -3.546875q-0.71875 -1.609375 -2.015625 -2.484375q-1.296875 -0.890625 -2.96875 -0.890625q-2.5 0 -4.078125 1.96875q-1.578125 1.953125 -1.578125 5.125l0 0.34375zm16.046875 -0.515625q0 -2.4375 0.9375 -4.390625q0.953125 -1.953125 2.671875 -3.03125q1.734375 -1.09375 3.921875 -1.09375q3.375 0 5.46875 2.375q2.09375 2.359375 2.09375 6.265625l0 0.390625q0 2.453125 -0.953125 4.421875q-0.9375 1.953125 -2.65625 3.015625q-1.71875 1.0625 -3.921875 1.0625q-3.359375 0 -5.46875 -2.359375q-2.09375 -2.375 -2.09375 -6.28125l0 -0.375zm1.875 0.515625q0 3.03125 1.5625 4.984375q1.578125 1.9375 4.125 1.9375q2.53125 0 4.09375 -1.9375q1.578125 -1.953125 1.578125 -5.140625l0 -0.359375q0 -1.9375 -0.71875 -3.546875q-0.71875 -1.609375 -2.015625 -2.484375q-1.296875 -0.890625 -2.96875 -0.890625q-2.5 0 -4.078125 1.96875q-1.578125 1.953125 -1.578125 5.125l0 0.34375zm16.328125 -0.421875q0 -3.9375 1.75 -6.265625q1.765625 -2.34375 4.78125 -2.34375q3.421875 0 5.21875 2.703125l0 -9.484375l1.859375 0l0 24.0l-1.75 0l-0.078125 -2.25q-1.796875 2.5625 -5.28125 2.5625q-2.921875 0 -4.71875 -2.34375q-1.78125 -2.359375 -1.78125 -6.359375l0 -0.21875zm1.890625 0.328125q0 3.234375 1.296875 5.109375q1.296875 1.859375 3.65625 1.859375q3.453125 0 4.90625 -3.046875l0 -7.9375q-1.453125 -3.296875 -4.875 -3.296875q-2.359375 0 -3.671875 1.859375q-1.3125 1.84375 -1.3125 5.453125zm23.390625 -0.421875q0 -2.4375 0.9375 -4.390625q0.953125 -1.953125 2.671875 -3.03125q1.734375 -1.09375 3.921875 -1.09375q3.375 0 5.46875 2.375q2.09375 2.359375 2.09375 6.265625l0 0.390625q0 2.453125 -0.953125 4.421875q-0.9375 1.953125 -2.65625 3.015625q-1.71875 1.0625 -3.921875 1.0625q-3.359375 0 -5.46875 -2.359375q-2.09375 -2.375 -2.09375 -6.28125l0 -0.375zm1.875 0.515625q0 3.03125 1.5625 4.984375q1.578125 1.9375 4.125 1.9375q2.53125 0 4.09375 -1.9375q1.578125 -1.953125 1.578125 -5.140625l0 -0.359375q0 -1.9375 -0.71875 -3.546875q-0.71875 -1.609375 -2.015625 -2.484375q-1.296875 -0.890625 -2.96875 -0.890625q-2.5 0 -4.078125 1.96875q-1.578125 1.953125 -1.578125 5.125l0 0.34375zm18.421875 8.1875l0 -15.375l-2.796875 0l0 -1.53125l2.796875 0l0 -2.046875q0 -2.59375 1.3125 -3.984375q1.328125 -1.390625 3.6875 -1.390625q1.0625 0 1.984375 0.265625l-0.140625 1.5625q-0.78125 -0.1875 -1.703125 -0.1875q-1.546875 0 -2.40625 0.96875q-0.859375 0.953125 -0.859375 2.71875l0 2.09375l4.03125 0l0 1.53125l-4.03125 0l0 15.375l-1.875 0z" fill-rule="nonzero"/><path fill="#93a1a1" d="m398.68152 437.40088l-11.60788 0l0 11.60791l11.60788 0z" fill-rule="evenodd"/><path stroke="#002b36" stroke-width="1.0" stroke-linejoin="round" stroke-linecap="butt" d="m398.68152 437.40088l-11.60788 0l0 11.60791l11.60788 0z" fill-rule="evenodd"/><path fill="#002b36" d="m387.07364 437.40088l-11.60791 0l0 11.60791l11.60791 0z" fill-rule="evenodd"/><path stroke="#002b36" stroke-width="1.0" stroke-linejoin="round" stroke-linecap="butt" d="m387.07364 437.40088l-11.60791 0l0 11.60791l11.60791 0z" fill-rule="evenodd"/><path fill="#93a1a1" d="m375.46573 437.40088l-11.60791 0l0 11.60791l11.60791 0z" fill-rule="evenodd"/><path stroke="#002b36" stroke-width="1.0" stroke-linejoin="round" stroke-linecap="butt" d="m375.46573 437.40088l-11.60791 0l0 11.60791l11.60791 0z" fill-rule="evenodd"/><path fill="#002b36" d="m398.68152 449.0088l-11.60788 0l0 11.60791l11.60788 0z" fill-rule="evenodd"/><path stroke="#002b36" stroke-width="1.0" stroke-linejoin="round" stroke-linecap="butt" d="m398.68152 449.0088l-11.60788 0l0 11.60791l11.60788 0z" fill-rule="evenodd"/><path fill="#002b36" d="m387.07364 449.0088l-11.60791 0l0 11.60791l11.60791 0z" fill-rule="evenodd"/><path stroke="#002b36" stroke-width="1.0" stroke-linejoin="round" stroke-linecap="butt" d="m387.07364 449.0088l-11.60791 0l0 11.60791l11.60791 0z" fill-rule="evenodd"/><path fill="#002b36" d="m375.46573 449.0088l-11.60791 0l0 11.60791l11.60791 0z" fill-rule="evenodd"/><path stroke="#002b36" stroke-width="1.0" stroke-linejoin="round" stroke-linecap="butt" d="m375.46573 449.0088l-11.60791 0l0 11.60791l11.60791 0z" fill-rule="evenodd"/><path fill="#93a1a1" d="m398.68152 460.6167l-11.60788 0l0 11.60788l11.60788 0z" fill-rule="evenodd"/><path stroke="#002b36" stroke-width="1.0" stroke-linejoin="round" stroke-linecap="butt" d="m398.68152 460.6167l-11.60788 0l0 11.60788l11.60788 0z" fill-rule="evenodd"/><path fill="#93a1a1" d="m387.07364 460.6167l-11.60791 0l0 11.60788l11.60791 0z" fill-rule="evenodd"/><path stroke="#002b36" stroke-width="1.0" stroke-linejoin="round" stroke-linecap="butt" d="m387.07364 460.6167l-11.60791 0l0 11.60788l11.60791 0z" fill-rule="evenodd"/><path fill="#93a1a1" d="m375.46573 460.6167l-11.60791 0l0 11.60788l11.60791 0z" fill-rule="evenodd"/><path stroke="#002b36" stroke-width="1.0" stroke-linejoin="round" stroke-linecap="butt" d="m375.46573 460.6167l-11.60791 0l0 11.60788l11.60791 0z" fill-rule="evenodd"/></g></svg>