<svg version="1.1" viewBox="0.0 0.0 1191.0 724.0" fill="none" stroke="none" stroke-linecap="square" stroke-miterlimit="10" xmlns:xlink="http://www.w3.org/1999/xlink" xmlns="http://www.w3.org/2000/svg"><clipPath id="p.0"><path d="m0 0l1191.0 0l0 724.0l-1191.0 0l0 -724.0z" clip-rule="nonzero"/></clipPath><g clip-path="url(#p.0)"><path fill="#000000" fill-opacity="0.0" d="m0 0l1191.0 0l0 724.0l-1191.0 0z" fill-rule="evenodd"/><path fill="#eee8d5" d="m44.174183 33.645298l93.54332 0l0 93.543304l-93.54332 0z" fill-rule="evenodd"/><path stroke="#002b36" stroke-width="3.0" stroke-linejoin="round" stroke-linecap="butt" d="m44.174183 33.645298l93.54332 0l0 93.543304l-93.54332 0z" fill-rule="evenodd"/><path fill="#eee8d5" d="m137.72192 33.645298l93.543304 0l0 93.543304l-93.543304 0z" fill-rule="evenodd"/><path stroke="#002b36" stroke-width="3.0" stroke-linejoin="round" stroke-linecap="butt" d="m137.72192 33.645298l93.543304 0l0 93.543304l-93.543304 0z" fill-rule="evenodd"/><path fill="#eee8d5" d="m231.26967 33.645298l93.54332 0l0 93.543304l-93.54332 0z" fill-rule="evenodd"/><path stroke="#002b36" stroke-width="3.0" stroke-linejoin="round" stroke-linecap="butt" d="m231.26967 33.645298l93.54332 0l0 93.543304l-93.54332 0z" fill-rule="evenodd"/><path fill="#eee8d5" d="m44.174183 127.193344l93.54332 0l0 93.543304l-93.54332 0z" fill-rule="evenodd"/><path stroke="#002b36" stroke-width="3.0" stroke-linejoin="round" stroke-linecap="butt" d="m44.174183 127.193344l93.54332 0l0 93.543304l-93.54332 0z" fill-rule="evenodd"/><path fill="#eee8d5" d="m137.72192 127.193344l93.543304 0l0 93.543304l-93.543304 0z" fill-rule="evenodd"/><path stroke="#002b36" stroke-width="3.0" stroke-linejoin="round" stroke-linecap="butt" d="m137.72192 127.193344l93.543304 0l0 93.543304l-93.543304 0z" fill-rule="evenodd"/><path fill="#eee8d5" d="m231.26967 127.193344l93.54332 0l0 93.543304l-93.54332 0z" fill-rule="evenodd"/><path stroke="#002b36" stroke-width="3.0" stroke-linejoin="round" stroke-linecap="butt" d="m231.26967 127.193344l93.54332 0l0 93.543304l-93.54332 0z" fill-rule="evenodd"/><path fill="#eee8d5" d="m44.174183 220.7414l93.54332 0l0 93.543304l-93.54332 0z" fill-rule="evenodd"/><path stroke="#002b36" stroke-width="3.0" stroke-linejoin="round" stroke-linecap="butt" d="m44.174183 220.7414l93.54332 0l0 93.543304l-93.54332 0z" fill-rule="evenodd"/><path fill="#eee8d5" d="m137.72192 220.7414l93.543304 0l0 93.543304l-93.543304 0z" fill-rule="evenodd"/><path stroke="#002b36" stroke-width="3.0" stroke-linejoin="round" stroke-linecap="butt" d="m137.72192 220.7414l93.543304 0l0 93.543304l-93.543304 0z" fill-rule="evenodd"/><path fill="#eee8d5" d="m231.26967 220.7414l93.54332 0l0 93.543304l-93.54332 0z" fill-rule="evenodd"/><path stroke="#002b36" stroke-width="3.0" stroke-linejoin="round" stroke-linecap="butt" d="m231.26967 220.7414l93.54332 0l0 93.543304l-93.54332 0z" fill-rule="evenodd"/><path fill="#eee8d5" d="m379.75424 33.64661l93.543304 0l0 93.543304l-93.543304 0z" fill-rule="evenodd"/><path stroke="#002b36" stroke-width="3.0" stroke-linejoin="round" stroke-linecap="butt" d="m379.75424 33.64661l93.543304 0l0 93.543304l-93.543304 0z" fill-rule="evenodd"/><path fill="#eee8d5" d="m473.30197 33.64661l93.543304 0l0 93.543304l-93.543304 0z" fill-rule="evenodd"/><path stroke="#002b36" stroke-width="3.0" stroke-linejoin="round" stroke-linecap="butt" d="m473.30197 33.64661l93.543304 0l0 93.543304l-93.543304 0z" fill-rule="evenodd"/><path fill="#eee8d5" d="m566.84973 33.64661l93.543274 0l0 93.543304l-93.543274 0z" fill-rule="evenodd"/><path stroke="#002b36" stroke-width="3.0" stroke-linejoin="round" stroke-linecap="butt" d="m566.84973 33.64661l93.543274 0l0 93.543304l-93.543274 0z" fill-rule="evenodd"/><path fill="#eee8d5" d="m379.75424 127.19466l93.543304 0l0 93.543304l-93.543304 0z" fill-rule="evenodd"/><path stroke="#002b36" stroke-width="3.0" stroke-linejoin="round" stroke-linecap="butt" d="m379.75424 127.19466l93.543304 0l0 93.543304l-93.543304 0z" fill-rule="evenodd"/><path fill="#eee8d5" d="m566.84973 127.19466l93.543274 0l0 93.543304l-93.543274 0z" fill-rule="evenodd"/><path stroke="#002b36" stroke-width="3.0" stroke-linejoin="round" stroke-linecap="butt" d="m566.84973 127.19466l93.543274 0l0 93.543304l-93.543274 0z" fill-rule="evenodd"/><path fill="#eee8d5" d="m379.75424 220.7427l93.543304 0l0 93.543304l-93.543304 0z" fill-rule="evenodd"/><path stroke="#002b36" stroke-width="3.0" stroke-linejoin="round" stroke-linecap="butt" d="m379.75424 220.7427l93.543304 0l0 93.543304l-93.543304 0z" fill-rule="evenodd"/><path fill="#eee8d5" d="m473.30197 220.7427l93.543304 0l0 93.543304l-93.543304 0z" fill-rule="evenodd"/><path stroke="#002b36" stroke-width="3.0" stroke-linejoin="round" stroke-linecap="butt" d="m473.30197 220.7427l93.543304 0l0 93.543304l-93.543304 0z" fill-rule="evenodd"/><path fill="#eee8d5" d="m566.84973 220.7427l93.543274 0l0 93.543304l-93.543274 0z" fill-rule="evenodd"/><path stroke="#002b36" stroke-width="3.0" stroke-linejoin="round" stroke-linecap="butt" d="m566.84973 220.7427l93.543274 0l0 93.543304l-93.543274 0z" fill-rule="evenodd"/><path fill="#93a1a1" d="m473.23126 127.124985l31.227844 0l0 31.227844l-31.227844 0z" fill-rule="evenodd"/><path stroke="#002b36" stroke-width="1.0" stroke-linejoin="round" stroke-linecap="butt" d="m473.23126 127.124985l31.227844 0l0 31.227844l-31.227844 0z" fill-rule="evenodd"/><path fill="#002b36" d="m504.4591 127.124985l31.227844 0l0 31.227844l-31.227844 0z" fill-rule="evenodd"/><path stroke="#002b36" stroke-width="1.0" stroke-linejoin="round" stroke-linecap="butt" d="m504.4591 127.124985l31.227844 0l0 31.227844l-31.227844 0z" fill-rule="evenodd"/><path fill="#93a1a1" d="m535.68695 127.124985l31.227905 0l0 31.227844l-31.227905 0z" fill-rule="evenodd"/><path stroke="#002b36" stroke-width="1.0" stroke-linejoin="round" stroke-linecap="butt" d="m535.68695 127.124985l31.227905 0l0 31.227844l-31.227905 0z" fill-rule="evenodd"/><path fill="#002b36" d="m473.23126 158.35283l31.227844 0l0 31.22786l-31.227844 0z" fill-rule="evenodd"/><path stroke="#002b36" stroke-width="1.0" stroke-linejoin="round" stroke-linecap="butt" d="m473.23126 158.35283l31.227844 0l0 31.22786l-31.227844 0z" fill-rule="evenodd"/><path fill="#002b36" d="m504.4591 158.35283l31.227844 0l0 31.22786l-31.227844 0z" fill-rule="evenodd"/><path stroke="#002b36" stroke-width="1.0" stroke-linejoin="round" stroke-linecap="butt" d="m504.4591 158.35283l31.227844 0l0 31.22786l-31.227844 0z" fill-rule="evenodd"/><path fill="#002b36" d="m535.68695 158.35283l31.227905 0l0 31.22786l-31.227905 0z" fill-rule="evenodd"/><path stroke="#002b36" stroke-width="1.0" stroke-linejoin="round" stroke-linecap="butt" d="m535.68695 158.35283l31.227905 0l0 31.22786l-31.227905 0z" fill-rule="evenodd"/><path fill="#93a1a1" d="m473.23126 189.58069l31.227844 0l0 31.22786l-31.227844 0z" fill-rule="evenodd"/><path stroke="#002b36" stroke-width="1.0" stroke-linejoin="round" stroke-linecap="butt" d="m473.23126 189.58069l31.227844 0l0 31.22786l-31.227844 0z" fill-rule="evenodd"/><path fill="#93a1a1" d="m504.4591 189.58069l31.227844 0l0 31.22786l-31.227844 0z" fill-rule="evenodd"/><path stroke="#002b36" stroke-width="1.0" stroke-linejoin="round" stroke-linecap="butt" d="m504.4591 189.58069l31.227844 0l0 31.22786l-31.227844 0z" fill-rule="evenodd"/><path fill="#93a1a1" d="m535.68695 189.58069l31.227905 0l0 31.22786l-31.227905 0z" fill-rule="evenodd"/><path stroke="#002b36" stroke-width="1.0" stroke-linejoin="round" stroke-linecap="butt" d="m535.68695 189.58069l31.227905 0l0 31.22786l-31.227905 0z" fill-rule="evenodd"/><path fill="#000000" fill-opacity="0.0" d="m473.30197 127.19466l93.543304 0l0 93.543304l-93.543304 0z" fill-rule="evenodd"/><path stroke="#002b36" stroke-width="3.0" stroke-linejoin="round" stroke-linecap="butt" d="m473.30197 127.19466l93.543304 0l0 93.543304l-93.543304 0z" fill-rule="evenodd"/><path fill="#eee8d5" d="m715.476 33.64661l93.543335 0l0 93.543304l-93.543335 0z" fill-rule="evenodd"/><path stroke="#002b36" stroke-width="2.0" stroke-linejoin="round" stroke-linecap="butt" d="m715.476 33.64661l93.543335 0l0 93.543304l-93.543335 0z" fill-rule="evenodd"/><path fill="#eee8d5" d="m809.02374 33.64661l93.543335 0l0 93.543304l-93.543335 0z" fill-rule="evenodd"/><path stroke="#002b36" stroke-width="2.0" stroke-linejoin="round" stroke-linecap="butt" d="m809.02374 33.64661l93.543335 0l0 93.543304l-93.543335 0z" fill-rule="evenodd"/><path fill="#eee8d5" d="m902.57153 33.64661l93.543274 0l0 93.543304l-93.543274 0z" fill-rule="evenodd"/><path stroke="#002b36" stroke-width="2.0" stroke-linejoin="round" stroke-linecap="butt" d="m902.57153 33.64661l93.543274 0l0 93.543304l-93.543274 0z" fill-rule="evenodd"/><path fill="#eee8d5" d="m715.476 127.19466l93.543335 0l0 93.543304l-93.543335 0z" fill-rule="evenodd"/><path stroke="#002b36" stroke-width="2.0" stroke-linejoin="round" stroke-linecap="butt" d="m715.476 127.19466l93.543335 0l0 93.543304l-93.543335 0z" fill-rule="evenodd"/><path fill="#eee8d5" d="m809.02374 127.19466l93.543335 0l0 93.543304l-93.543335 0z" fill-rule="evenodd"/><path stroke="#002b36" stroke-width="2.0" stroke-linejoin="round" stroke-linecap="butt" d="m809.02374 127.19466l93.543335 0l0 93.543304l-93.543335 0z" fill-rule="evenodd"/><path fill="#eee8d5" d="m902.57153 127.19466l93.543274 0l0 93.543304l-93.543274 0z" fill-rule="evenodd"/><path stroke="#002b36" stroke-width="2.0" stroke-linejoin="round" stroke-linecap="butt" d="m902.57153 127.19466l93.543274 0l0 93.543304l-93.543274 0z" fill-rule="evenodd"/><path fill="#eee8d5" d="m715.476 220.7427l93.543335 0l0 93.543304l-93.543335 0z" fill-rule="evenodd"/><path stroke="#002b36" stroke-width="2.0" stroke-linejoin="round" stroke-linecap="butt" d="m715.476 220.7427l93.543335 0l0 93.543304l-93.543335 0z" fill-rule="evenodd"/><path fill="#eee8d5" d="m809.02374 220.7427l93.543335 0l0 93.543304l-93.543335 0z" fill-rule="evenodd"/><path stroke="#002b36" stroke-width="2.0" stroke-linejoin="round" stroke-linecap="butt" d="m809.02374 220.7427l93.543335 0l0 93.543304l-93.543335 0z" fill-rule="evenodd"/><path fill="#eee8d5" d="m902.57153 220.7427l93.543274 0l0 93.543304l-93.543274 0z" fill-rule="evenodd"/><path stroke="#002b36" stroke-width="2.0" stroke-linejoin="round" stroke-linecap="butt" d="m902.57153 220.7427l93.543274 0l0 93.543304l-93.543274 0z" fill-rule="evenodd"/><path fill="#93a1a1" d="m808.95306 127.124985l31.227844 0l0 31.227844l-31.227844 0z" fill-rule="evenodd"/><path stroke="#002b36" stroke-width="1.0" stroke-linejoin="round" stroke-linecap="butt" d="m808.95306 127.124985l31.227844 0l0 31.227844l-31.227844 0z" fill-rule="evenodd"/><path fill="#002b36" d="m840.1809 127.124985l31.227844 0l0 31.227844l-31.227844 0z" fill-rule="evenodd"/><path stroke="#002b36" stroke-width="1.0" stroke-linejoin="round" stroke-linecap="butt" d="m840.1809 127.124985l31.227844 0l0 31.227844l-31.227844 0z" fill-rule="evenodd"/><path fill="#93a1a1" d="m871.40875 127.124985l31.227844 0l0 31.227844l-31.227844 0z" fill-rule="evenodd"/><path stroke="#002b36" stroke-width="1.0" stroke-linejoin="round" stroke-linecap="butt" d="m871.40875 127.124985l31.227844 0l0 31.227844l-31.227844 0z" fill-rule="evenodd"/><path fill="#002b36" d="m808.95306 158.35283l31.227844 0l0 31.22786l-31.227844 0z" fill-rule="evenodd"/><path stroke="#002b36" stroke-width="1.0" stroke-linejoin="round" stroke-linecap="butt" d="m808.95306 158.35283l31.227844 0l0 31.22786l-31.227844 0z" fill-rule="evenodd"/><path fill="#002b36" d="m840.1809 158.35283l31.227844 0l0 31.22786l-31.227844 0z" fill-rule="evenodd"/><path stroke="#002b36" stroke-width="1.0" stroke-linejoin="round" stroke-linecap="butt" d="m840.1809 158.35283l31.227844 0l0 31.22786l-31.227844 0z" fill-rule="evenodd"/><path fill="#002b36" d="m871.40875 158.35283l31.227844 0l0 31.22786l-31.227844 0z" fill-rule="evenodd"/><path stroke="#002b36" stroke-width="1.0" stroke-linejoin="round" stroke-linecap="butt" d="m871.40875 158.35283l31.227844 0l0 31.22786l-31.227844 0z" fill-rule="evenodd"/><path fill="#93a1a1" d="m808.95306 189.58069l31.227844 0l0 31.22786l-31.227844 0z" fill-rule="evenodd"/><path stroke="#002b36" stroke-width="1.0" stroke-linejoin="round" stroke-linecap="butt" d="m808.95306 189.58069l31.227844 0l0 31.22786l-31.227844 0z" fill-rule="evenodd"/><path fill="#93a1a1" d="m840.1809 189.58069l31.227844 0l0 31.22786l-31.227844 0z" fill-rule="evenodd"/><path stroke="#002b36" stroke-width="1.0" stroke-linejoin="round" stroke-linecap="butt" d="m840.1809 189.58069l31.227844 0l0 31.22786l-31.227844 0z" fill-rule="evenodd"/><path fill="#93a1a1" d="m871.40875 189.58069l31.227844 0l0 31.22786l-31.227844 0z" fill-rule="evenodd"/><path stroke="#002b36" stroke-width="1.0" stroke-linejoin="round" stroke-linecap="butt" d="m871.40875 189.58069l31.227844 0l0 31.22786l-31.227844 0z" fill-rule="evenodd"/><path fill="#93a1a1" d="m715.334 127.124985l31.227844 0l0 31.227844l-31.227844 0z" fill-rule="evenodd"/><path stroke="#002b36" stroke-width="1.0" stroke-linejoin="round" stroke-linecap="butt" d="m715.334 127.124985l31.227844 0l0 31.227844l-31.227844 0z" fill-rule="evenodd"/><path fill="#93a1a1" d="m746.5618 127.124985l31.227844 0l0 31.227844l-31.227844 0z" fill-rule="evenodd"/><path stroke="#002b36" stroke-width="1.0" stroke-linejoin="round" stroke-linecap="butt" d="m746.5618 127.124985l31.227844 0l0 31.227844l-31.227844 0z" fill-rule="evenodd"/><path fill="#93a1a1" d="m777.7897 127.124985l31.227844 0l0 31.227844l-31.227844 0z" fill-rule="evenodd"/><path stroke="#002b36" stroke-width="1.0" stroke-linejoin="round" stroke-linecap="butt" d="m777.7897 127.124985l31.227844 0l0 31.227844l-31.227844 0z" fill-rule="evenodd"/><path fill="#93a1a1" d="m715.334 158.35283l31.227844 0l0 31.22786l-31.227844 0z" fill-rule="evenodd"/><path stroke="#002b36" stroke-width="1.0" stroke-linejoin="round" stroke-linecap="butt" d="m715.334 158.35283l31.227844 0l0 31.22786l-31.227844 0z" fill-rule="evenodd"/><path fill="#002b36" d="m746.5618 158.35283l31.227844 0l0 31.22786l-31.227844 0z" fill-rule="evenodd"/><path stroke="#002b36" stroke-width="1.0" stroke-linejoin="round" stroke-linecap="butt" d="m746.5618 158.35283l31.227844 0l0 31.22786l-31.227844 0z" fill-rule="evenodd"/><path fill="#002b36" d="m777.7897 158.35283l31.227844 0l0 31.22786l-31.227844 0z" fill-rule="evenodd"/><path stroke="#002b36" stroke-width="1.0" stroke-linejoin="round" stroke-linecap="butt" d="m777.7897 158.35283l31.227844 0l0 31.22786l-31.227844 0z" fill-rule="evenodd"/><path fill="#93a1a1" d="m715.334 189.58069l31.227844 0l0 31.22786l-31.227844 0z" fill-rule="evenodd"/><path stroke="#002b36" stroke-width="1.0" stroke-linejoin="round" stroke-linecap="butt" d="m715.334 189.58069l31.227844 0l0 31.22786l-31.227844 0z" fill-rule="evenodd"/><path fill="#002b36" d="m746.5618 189.58069l31.227844 0l0 31.22786l-31.227844 0z" fill-rule="evenodd"/><path stroke="#002b36" stroke-width="1.0" stroke-linejoin="round" stroke-linecap="butt" d="m746.5618 189.58069l31.227844 0l0 31.22786l-31.227844 0z" fill-rule="evenodd"/><path fill="#93a1a1" d="m777.7897 189.58069l31.227844 0l0 31.22786l-31.227844 0z" fill-rule="evenodd"/><path stroke="#002b36" stroke-width="1.0" stroke-linejoin="round" stroke-linecap="butt" d="m777.7897 189.58069l31.227844 0l0 31.22786l-31.227844 0z" fill-rule="evenodd"/><path fill="#000000" fill-opacity="0.0" d="m715.476 33.64661l93.543335 0l0 93.543304l-93.543335 0z" fill-rule="evenodd"/><path stroke="#002b36" stroke-width="3.0" stroke-linejoin="round" stroke-linecap="butt" d="m715.476 33.64661l93.543335 0l0 93.543304l-93.543335 0z" fill-rule="evenodd"/><path fill="#000000" fill-opacity="0.0" d="m809.02374 33.64661l93.543335 0l0 93.543304l-93.543335 0z" fill-rule="evenodd"/><path stroke="#002b36" stroke-width="3.0" stroke-linejoin="round" stroke-linecap="butt" d="m809.02374 33.64661l93.543335 0l0 93.543304l-93.543335 0z" fill-rule="evenodd"/><path fill="#000000" fill-opacity="0.0" d="m902.57153 33.64661l93.543274 0l0 93.543304l-93.543274 0z" fill-rule="evenodd"/><path stroke="#002b36" stroke-width="3.0" stroke-linejoin="round" stroke-linecap="butt" d="m902.57153 33.64661l93.543274 0l0 93.543304l-93.543274 0z" fill-rule="evenodd"/><path fill="#000000" fill-opacity="0.0" d="m715.476 127.19466l93.543335 0l0 93.543304l-93.543335 0z" fill-rule="evenodd"/><path stroke="#002b36" stroke-width="3.0" stroke-linejoin="round" stroke-linecap="butt" d="m715.476 127.19466l93.543335 0l0 93.543304l-93.543335 0z" fill-rule="evenodd"/><path fill="#000000" fill-opacity="0.0" d="m809.02374 127.19466l93.543335 0l0 93.543304l-93.543335 0z" fill-rule="evenodd"/><path stroke="#002b36" stroke-width="3.0" stroke-linejoin="round" stroke-linecap="butt" d="m809.02374 127.19466l93.543335 0l0 93.543304l-93.543335 0z" fill-rule="evenodd"/><path fill="#000000" fill-opacity="0.0" d="m902.57153 127.19466l93.543274 0l0 93.543304l-93.543274 0z" fill-rule="evenodd"/><path stroke="#002b36" stroke-width="3.0" stroke-linejoin="round" stroke-linecap="butt" d="m902.57153 127.19466l93.543274 0l0 93.543304l-93.543274 0z" fill-rule="evenodd"/><path fill="#000000" fill-opacity="0.0" d="m715.476 220.7427l93.543335 0l0 93.543304l-93.543335 0z" fill-rule="evenodd"/><path stroke="#002b36" stroke-width="3.0" stroke-linejoin="round" stroke-linecap="butt" d="m715.476 220.7427l93.543335 0l0 93.543304l-93.543335 0z" fill-rule="evenodd"/><path fill="#000000" fill-opacity="0.0" d="m809.02374 220.7427l93.543335 0l0 93.543304l-93.543335 0z" fill-rule="evenodd"/><path stroke="#002b36" stroke-width="3.0" stroke-linejoin="round" stroke-linecap="butt" d="m809.02374 220.7427l93.543335 0l0 93.543304l-93.543335 0z" fill-rule="evenodd"/><path fill="#000000" fill-opacity="0.0" d="m902.57153 220.7427l93.543274 0l0 93.543304l-93.543274 0z" fill-rule="evenodd"/><path stroke="#002b36" stroke-width="3.0" stroke-linejoin="round" stroke-linecap="butt" d="m902.57153 220.7427l93.543274 0l0 93.543304l-93.543274 0z" fill-rule="evenodd"/><path fill="#eee8d5" d="m44.175495 409.7319l93.54332 0l0 93.543304l-93.54332 0z" fill-rule="evenodd"/><path stroke="#002b36" stroke-width="2.0" stroke-linejoin="round" stroke-linecap="butt" d="m44.175495 409.7319l93.54332 0l0 93.543304l-93.54332 0z" fill-rule="evenodd"/><path fill="#eee8d5" d="m137.72324 409.7319l93.543304 0l0 93.543304l-93.543304 0z" fill-rule="evenodd"/><path stroke="#002b36" stroke-width="3.0" stroke-linejoin="round" stroke-linecap="butt" d="m137.72324 409.7319l93.543304 0l0 93.543304l-93.543304 0z" fill-rule="evenodd"/><path fill="#eee8d5" d="m231.27098 409.7319l93.54332 0l0 93.543304l-93.54332 0z" fill-rule="evenodd"/><path stroke="#002b36" stroke-width="2.0" stroke-linejoin="round" stroke-linecap="butt" d="m231.27098 409.7319l93.54332 0l0 93.543304l-93.54332 0z" fill-rule="evenodd"/><path fill="#eee8d5" d="m44.175495 503.27997l93.54332 0l0 93.543274l-93.54332 0z" fill-rule="evenodd"/><path stroke="#002b36" stroke-width="2.0" stroke-linejoin="round" stroke-linecap="butt" d="m44.175495 503.27997l93.54332 0l0 93.543274l-93.54332 0z" fill-rule="evenodd"/><path fill="#eee8d5" d="m137.72324 503.27997l93.543304 0l0 93.543274l-93.543304 0z" fill-rule="evenodd"/><path stroke="#002b36" stroke-width="2.0" stroke-linejoin="round" stroke-linecap="butt" d="m137.72324 503.27997l93.543304 0l0 93.543274l-93.543304 0z" fill-rule="evenodd"/><path fill="#eee8d5" d="m231.27098 503.27997l93.54332 0l0 93.543274l-93.54332 0z" fill-rule="evenodd"/><path stroke="#002b36" stroke-width="2.0" stroke-linejoin="round" stroke-linecap="butt" d="m231.27098 503.27997l93.54332 0l0 93.543274l-93.54332 0z" fill-rule="evenodd"/><path fill="#eee8d5" d="m44.175495 596.828l93.54332 0l0 93.543335l-93.54332 0z" fill-rule="evenodd"/><path stroke="#002b36" stroke-width="3.0" stroke-linejoin="round" stroke-linecap="butt" d="m44.175495 596.828l93.54332 0l0 93.543335l-93.54332 0z" fill-rule="evenodd"/><path fill="#eee8d5" d="m137.72324 596.828l93.543304 0l0 93.543335l-93.543304 0z" fill-rule="evenodd"/><path stroke="#002b36" stroke-width="2.0" stroke-linejoin="round" stroke-linecap="butt" d="m137.72324 596.828l93.543304 0l0 93.543335l-93.543304 0z" fill-rule="evenodd"/><path fill="#eee8d5" d="m231.27098 596.828l93.54332 0l0 93.543335l-93.54332 0z" fill-rule="evenodd"/><path stroke="#002b36" stroke-width="2.0" stroke-linejoin="round" stroke-linecap="butt" d="m231.27098 596.828l93.54332 0l0 93.543335l-93.54332 0z" fill-rule="evenodd"/><path fill="#93a1a1" d="m137.65253 503.2103l31.227844 0l0 31.227814l-31.227844 0z" fill-rule="evenodd"/><path stroke="#002b36" stroke-width="1.0" stroke-linejoin="round" stroke-linecap="butt" d="m137.65253 503.2103l31.227844 0l0 31.227814l-31.227844 0z" fill-rule="evenodd"/><path fill="#002b36" d="m168.88037 503.2103l31.22786 0l0 31.227814l-31.22786 0z" fill-rule="evenodd"/><path stroke="#002b36" stroke-width="1.0" stroke-linejoin="round" stroke-linecap="butt" d="m168.88037 503.2103l31.22786 0l0 31.227814l-31.22786 0z" fill-rule="evenodd"/><path fill="#93a1a1" d="m200.10823 503.2103l31.22786 0l0 31.227814l-31.22786 0z" fill-rule="evenodd"/><path stroke="#002b36" stroke-width="1.0" stroke-linejoin="round" stroke-linecap="butt" d="m200.10823 503.2103l31.22786 0l0 31.227814l-31.22786 0z" fill-rule="evenodd"/><path fill="#002b36" d="m137.65253 534.4381l31.227844 0l0 31.227905l-31.227844 0z" fill-rule="evenodd"/><path stroke="#002b36" stroke-width="1.0" stroke-linejoin="round" stroke-linecap="butt" d="m137.65253 534.4381l31.227844 0l0 31.227905l-31.227844 0z" fill-rule="evenodd"/><path fill="#002b36" d="m168.88037 534.4381l31.22786 0l0 31.227905l-31.22786 0z" fill-rule="evenodd"/><path stroke="#002b36" stroke-width="1.0" stroke-linejoin="round" stroke-linecap="butt" d="m168.88037 534.4381l31.22786 0l0 31.227905l-31.22786 0z" fill-rule="evenodd"/><path fill="#002b36" d="m200.10823 534.4381l31.22786 0l0 31.227905l-31.22786 0z" fill-rule="evenodd"/><path stroke="#002b36" stroke-width="1.0" stroke-linejoin="round" stroke-linecap="butt" d="m200.10823 534.4381l31.22786 0l0 31.227905l-31.22786 0z" fill-rule="evenodd"/><path fill="#93a1a1" d="m137.65253 565.666l31.227844 0l0 31.227844l-31.227844 0z" fill-rule="evenodd"/><path stroke="#002b36" stroke-width="1.0" stroke-linejoin="round" stroke-linecap="butt" d="m137.65253 565.666l31.227844 0l0 31.227844l-31.227844 0z" fill-rule="evenodd"/><path fill="#93a1a1" d="m168.88037 565.666l31.22786 0l0 31.227844l-31.22786 0z" fill-rule="evenodd"/><path stroke="#002b36" stroke-width="1.0" stroke-linejoin="round" stroke-linecap="butt" d="m168.88037 565.666l31.22786 0l0 31.227844l-31.22786 0z" fill-rule="evenodd"/><path fill="#93a1a1" d="m200.10823 565.666l31.22786 0l0 31.227844l-31.22786 0z" fill-rule="evenodd"/><path stroke="#002b36" stroke-width="1.0" stroke-linejoin="round" stroke-linecap="butt" d="m200.10823 565.666l31.22786 0l0 31.227844l-31.22786 0z" fill-rule="evenodd"/><path fill="#93a1a1" d="m44.033447 503.2103l31.227852 0l0 31.227814l-31.227852 0z" fill-rule="evenodd"/><path stroke="#002b36" stroke-width="1.0" stroke-linejoin="round" stroke-linecap="butt" d="m44.033447 503.2103l31.227852 0l0 31.227814l-31.227852 0z" fill-rule="evenodd"/><path fill="#93a1a1" d="m75.2613 503.2103l31.22786 0l0 31.227814l-31.22786 0z" fill-rule="evenodd"/><path stroke="#002b36" stroke-width="1.0" stroke-linejoin="round" stroke-linecap="butt" d="m75.2613 503.2103l31.22786 0l0 31.227814l-31.22786 0z" fill-rule="evenodd"/><path fill="#93a1a1" d="m106.48916 503.2103l31.227852 0l0 31.227814l-31.227852 0z" fill-rule="evenodd"/><path stroke="#002b36" stroke-width="1.0" stroke-linejoin="round" stroke-linecap="butt" d="m106.48916 503.2103l31.227852 0l0 31.227814l-31.227852 0z" fill-rule="evenodd"/><path fill="#93a1a1" d="m44.033447 534.4381l31.227852 0l0 31.227905l-31.227852 0z" fill-rule="evenodd"/><path stroke="#002b36" stroke-width="1.0" stroke-linejoin="round" stroke-linecap="butt" d="m44.033447 534.4381l31.227852 0l0 31.227905l-31.227852 0z" fill-rule="evenodd"/><path fill="#002b36" d="m75.2613 534.4381l31.22786 0l0 31.227905l-31.22786 0z" fill-rule="evenodd"/><path stroke="#002b36" stroke-width="1.0" stroke-linejoin="round" stroke-linecap="butt" d="m75.2613 534.4381l31.22786 0l0 31.227905l-31.22786 0z" fill-rule="evenodd"/><path fill="#002b36" d="m106.48916 534.4381l31.227852 0l0 31.227905l-31.227852 0z" fill-rule="evenodd"/><path stroke="#002b36" stroke-width="1.0" stroke-linejoin="round" stroke-linecap="butt" d="m106.48916 534.4381l31.227852 0l0 31.227905l-31.227852 0z" fill-rule="evenodd"/><path fill="#93a1a1" d="m44.033447 565.666l31.227852 0l0 31.227844l-31.227852 0z" fill-rule="evenodd"/><path stroke="#002b36" stroke-width="1.0" stroke-linejoin="round" stroke-linecap="butt" d="m44.033447 565.666l31.227852 0l0 31.227844l-31.227852 0z" fill-rule="evenodd"/><path fill="#002b36" d="m75.2613 565.666l31.22786 0l0 31.227844l-31.22786 0z" fill-rule="evenodd"/><path stroke="#002b36" stroke-width="1.0" stroke-linejoin="round" stroke-linecap="butt" d="m75.2613 565.666l31.22786 0l0 31.227844l-31.22786 0z" fill-rule="evenodd"/><path fill="#93a1a1" d="m106.48916 565.666l31.227852 0l0 31.227844l-31.227852 0z" fill-rule="evenodd"/><path stroke="#002b36" stroke-width="1.0" stroke-linejoin="round" stroke-linecap="butt" d="m106.48916 565.666l31.227852 0l0 31.227844l-31.227852 0z" fill-rule="evenodd"/><path fill="#93a1a1" d="m231.27063 503.2103l31.227844 0l0 31.227814l-31.227844 0z" fill-rule="evenodd"/><path stroke="#002b36" stroke-width="1.0" stroke-linejoin="round" stroke-linecap="butt" d="m231.27063 503.2103l31.227844 0l0 31.227814l-31.227844 0z" fill-rule="evenodd"/><path fill="#002b36" d="m262.49847 503.2103l31.227875 0l0 31.227814l-31.227875 0z" fill-rule="evenodd"/><path stroke="#002b36" stroke-width="1.0" stroke-linejoin="round" stroke-linecap="butt" d="m262.49847 503.2103l31.227875 0l0 31.227814l-31.227875 0z" fill-rule="evenodd"/><path fill="#93a1a1" d="m293.72635 503.2103l31.227844 0l0 31.227814l-31.227844 0z" fill-rule="evenodd"/><path stroke="#002b36" stroke-width="1.0" stroke-linejoin="round" stroke-linecap="butt" d="m293.72635 503.2103l31.227844 0l0 31.227814l-31.227844 0z" fill-rule="evenodd"/><path fill="#002b36" d="m231.27063 534.4381l31.227844 0l0 31.227905l-31.227844 0z" fill-rule="evenodd"/><path stroke="#002b36" stroke-width="1.0" stroke-linejoin="round" stroke-linecap="butt" d="m231.27063 534.4381l31.227844 0l0 31.227905l-31.227844 0z" fill-rule="evenodd"/><path fill="#002b36" d="m262.49847 534.4381l31.227875 0l0 31.227905l-31.227875 0z" fill-rule="evenodd"/><path stroke="#002b36" stroke-width="1.0" stroke-linejoin="round" stroke-linecap="butt" d="m262.49847 534.4381l31.227875 0l0 31.227905l-31.227875 0z" fill-rule="evenodd"/><path fill="#002b36" d="m293.72635 534.4381l31.227844 0l0 31.227905l-31.227844 0z" fill-rule="evenodd"/><path stroke="#002b36" stroke-width="1.0" stroke-linejoin="round" stroke-linecap="butt" d="m293.72635 534.4381l31.227844 0l0 31.227905l-31.227844 0z" fill-rule="evenodd"/><path fill="#93a1a1" d="m231.27063 565.666l31.227844 0l0 31.227844l-31.227844 0z" fill-rule="evenodd"/><path stroke="#002b36" stroke-width="1.0" stroke-linejoin="round" stroke-linecap="butt" d="m231.27063 565.666l31.227844 0l0 31.227844l-31.227844 0z" fill-rule="evenodd"/><path fill="#93a1a1" d="m262.49847 565.666l31.227875 0l0 31.227844l-31.227875 0z" fill-rule="evenodd"/><path stroke="#002b36" stroke-width="1.0" stroke-linejoin="round" stroke-linecap="butt" d="m262.49847 565.666l31.227875 0l0 31.227844l-31.227875 0z" fill-rule="evenodd"/><path fill="#93a1a1" d="m293.72635 565.666l31.227844 0l0 31.227844l-31.227844 0z" fill-rule="evenodd"/><path stroke="#002b36" stroke-width="1.0" stroke-linejoin="round" stroke-linecap="butt" d="m293.72635 565.666l31.227844 0l0 31.227844l-31.227844 0z" fill-rule="evenodd"/><path fill="#000000" fill-opacity="0.0" d="m44.175495 409.7319l93.54332 0l0 93.543304l-93.54332 0z" fill-rule="evenodd"/><path stroke="#002b36" stroke-width="3.0" stroke-linejoin="round" stroke-linecap="butt" d="m44.175495 409.7319l93.54332 0l0 93.543304l-93.54332 0z" fill-rule="evenodd"/><path fill="#000000" fill-opacity="0.0" d="m231.27098 409.7319l93.54332 0l0 93.543304l-93.54332 0z" fill-rule="evenodd"/><path stroke="#002b36" stroke-width="3.0" stroke-linejoin="round" stroke-linecap="butt" d="m231.27098 409.7319l93.54332 0l0 93.543304l-93.54332 0z" fill-rule="evenodd"/><path fill="#000000" fill-opacity="0.0" d="m44.175495 503.27997l93.54332 0l0 93.543274l-93.54332 0z" fill-rule="evenodd"/><path stroke="#002b36" stroke-width="3.0" stroke-linejoin="round" stroke-linecap="butt" d="m44.175495 503.27997l93.54332 0l0 93.543274l-93.54332 0z" fill-rule="evenodd"/><path fill="#000000" fill-opacity="0.0" d="m137.72324 503.27997l93.543304 0l0 93.543274l-93.543304 0z" fill-rule="evenodd"/><path stroke="#002b36" stroke-width="3.0" stroke-linejoin="round" stroke-linecap="butt" d="m137.72324 503.27997l93.543304 0l0 93.543274l-93.543304 0z" fill-rule="evenodd"/><path fill="#000000" fill-opacity="0.0" d="m231.27098 503.27997l93.54332 0l0 93.543274l-93.54332 0z" fill-rule="evenodd"/><path stroke="#002b36" stroke-width="3.0" stroke-linejoin="round" stroke-linecap="butt" d="m231.27098 503.27997l93.54332 0l0 93.543274l-93.54332 0z" fill-rule="evenodd"/><path fill="#000000" fill-opacity="0.0" d="m137.72324 596.828l93.543304 0l0 93.543335l-93.543304 0z" fill-rule="evenodd"/><path stroke="#002b36" stroke-width="3.0" stroke-linejoin="round" stroke-linecap="butt" d="m137.72324 596.828l93.543304 0l0 93.543335l-93.543304 0z" fill-rule="evenodd"/><path fill="#000000" fill-opacity="0.0" d="m231.27098 596.828l93.54332 0l0 93.543335l-93.54332 0z" fill-rule="evenodd"/><path stroke="#002b36" stroke-width="3.0" stroke-linejoin="round" stroke-linecap="butt" d="m231.27098 596.828l93.54332 0l0 93.543335l-93.54332 0z" fill-rule="evenodd"/><path fill="#eee8d5" d="m379.75555 409.80276l93.543304 0l0 93.543335l-93.543304 0z" fill-rule="evenodd"/><path stroke="#002b36" stroke-width="2.0" stroke-linejoin="round" stroke-linecap="butt" d="m379.75555 409.80276l93.543304 0l0 93.543335l-93.543304 0z" fill-rule="evenodd"/><path fill="#eee8d5" d="m473.30328 409.80276l93.543335 0l0 93.543335l-93.543335 0z" fill-rule="evenodd"/><path stroke="#002b36" stroke-width="2.0" stroke-linejoin="round" stroke-linecap="butt" d="m473.30328 409.80276l93.543335 0l0 93.543335l-93.543335 0z" fill-rule="evenodd"/><path fill="#eee8d5" d="m566.851 409.80276l93.543335 0l0 93.543335l-93.543335 0z" fill-rule="evenodd"/><path stroke="#002b36" stroke-width="2.0" stroke-linejoin="round" stroke-linecap="butt" d="m566.851 409.80276l93.543335 0l0 93.543335l-93.543335 0z" fill-rule="evenodd"/><path fill="#eee8d5" d="m379.75555 503.35083l93.543304 0l0 93.543274l-93.543304 0z" fill-rule="evenodd"/><path stroke="#002b36" stroke-width="2.0" stroke-linejoin="round" stroke-linecap="butt" d="m379.75555 503.35083l93.543304 0l0 93.543274l-93.543304 0z" fill-rule="evenodd"/><path fill="#eee8d5" d="m473.30328 503.35083l93.543335 0l0 93.543274l-93.543335 0z" fill-rule="evenodd"/><path stroke="#002b36" stroke-width="2.0" stroke-linejoin="round" stroke-linecap="butt" d="m473.30328 503.35083l93.543335 0l0 93.543274l-93.543335 0z" fill-rule="evenodd"/><path fill="#eee8d5" d="m566.851 503.35083l93.543335 0l0 93.543274l-93.543335 0z" fill-rule="evenodd"/><path stroke="#002b36" stroke-width="2.0" stroke-linejoin="round" stroke-linecap="butt" d="m566.851 503.35083l93.543335 0l0 93.543274l-93.543335 0z" fill-rule="evenodd"/><path fill="#eee8d5" d="m379.75555 596.89886l93.543304 0l0 93.543335l-93.543304 0z" fill-rule="evenodd"/><path stroke="#002b36" stroke-width="3.0" stroke-linejoin="round" stroke-linecap="butt" d="m379.75555 596.89886l93.543304 0l0 93.543335l-93.543304 0z" fill-rule="evenodd"/><path fill="#eee8d5" d="m473.30328 596.89886l93.543335 0l0 93.543335l-93.543335 0z" fill-rule="evenodd"/><path stroke="#002b36" stroke-width="2.0" stroke-linejoin="round" stroke-linecap="butt" d="m473.30328 596.89886l93.543335 0l0 93.543335l-93.543335 0z" fill-rule="evenodd"/><path fill="#eee8d5" d="m566.851 596.89886l93.543335 0l0 93.543335l-93.543335 0z" fill-rule="evenodd"/><path stroke="#002b36" stroke-width="2.0" stroke-linejoin="round" stroke-linecap="butt" d="m566.851 596.89886l93.543335 0l0 93.543335l-93.543335 0z" fill-rule="evenodd"/><path fill="#93a1a1" d="m473.23257 503.28116l31.227844 0l0 31.227875l-31.227844 0z" fill-rule="evenodd"/><path stroke="#002b36" stroke-width="1.0" stroke-linejoin="round" stroke-linecap="butt" d="m473.23257 503.28116l31.227844 0l0 31.227875l-31.227844 0z" fill-rule="evenodd"/><path fill="#002b36" d="m504.46042 503.28116l31.227875 0l0 31.227875l-31.227875 0z" fill-rule="evenodd"/><path stroke="#002b36" stroke-width="1.0" stroke-linejoin="round" stroke-linecap="butt" d="m504.46042 503.28116l31.227875 0l0 31.227875l-31.227875 0z" fill-rule="evenodd"/><path fill="#93a1a1" d="m535.6883 503.28116l31.227844 0l0 31.227875l-31.227844 0z" fill-rule="evenodd"/><path stroke="#002b36" stroke-width="1.0" stroke-linejoin="round" stroke-linecap="butt" d="m535.6883 503.28116l31.227844 0l0 31.227875l-31.227844 0z" fill-rule="evenodd"/><path fill="#002b36" d="m473.23257 534.50903l31.227844 0l0 31.227844l-31.227844 0z" fill-rule="evenodd"/><path stroke="#002b36" stroke-width="1.0" stroke-linejoin="round" stroke-linecap="butt" d="m473.23257 534.50903l31.227844 0l0 31.227844l-31.227844 0z" fill-rule="evenodd"/><path fill="#002b36" d="m504.46042 534.50903l31.227875 0l0 31.227844l-31.227875 0z" fill-rule="evenodd"/><path stroke="#002b36" stroke-width="1.0" stroke-linejoin="round" stroke-linecap="butt" d="m504.46042 534.50903l31.227875 0l0 31.227844l-31.227875 0z" fill-rule="evenodd"/><path fill="#002b36" d="m535.6883 534.50903l31.227844 0l0 31.227844l-31.227844 0z" fill-rule="evenodd"/><path stroke="#002b36" stroke-width="1.0" stroke-linejoin="round" stroke-linecap="butt" d="m535.6883 534.50903l31.227844 0l0 31.227844l-31.227844 0z" fill-rule="evenodd"/><path fill="#93a1a1" d="m473.23257 565.7369l31.227844 0l0 31.227844l-31.227844 0z" fill-rule="evenodd"/><path stroke="#002b36" stroke-width="1.0" stroke-linejoin="round" stroke-linecap="butt" d="m473.23257 565.7369l31.227844 0l0 31.227844l-31.227844 0z" fill-rule="evenodd"/><path fill="#93a1a1" d="m504.46042 565.7369l31.227875 0l0 31.227844l-31.227875 0z" fill-rule="evenodd"/><path stroke="#002b36" stroke-width="1.0" stroke-linejoin="round" stroke-linecap="butt" d="m504.46042 565.7369l31.227875 0l0 31.227844l-31.227875 0z" fill-rule="evenodd"/><path fill="#93a1a1" d="m535.6883 565.7369l31.227844 0l0 31.227844l-31.227844 0z" fill-rule="evenodd"/><path stroke="#002b36" stroke-width="1.0" stroke-linejoin="round" stroke-linecap="butt" d="m535.6883 565.7369l31.227844 0l0 31.227844l-31.227844 0z" fill-rule="evenodd"/><path fill="#93a1a1" d="m379.6135 503.28116l31.227844 0l0 31.227875l-31.227844 0z" fill-rule="evenodd"/><path stroke="#002b36" stroke-width="1.0" stroke-linejoin="round" stroke-linecap="butt" d="m379.6135 503.28116l31.227844 0l0 31.227875l-31.227844 0z" fill-rule="evenodd"/><path fill="#93a1a1" d="m410.84134 503.28116l31.227875 0l0 31.227875l-31.227875 0z" fill-rule="evenodd"/><path stroke="#002b36" stroke-width="1.0" stroke-linejoin="round" stroke-linecap="butt" d="m410.84134 503.28116l31.227875 0l0 31.227875l-31.227875 0z" fill-rule="evenodd"/><path fill="#93a1a1" d="m442.0692 503.28116l31.227844 0l0 31.227875l-31.227844 0z" fill-rule="evenodd"/><path stroke="#002b36" stroke-width="1.0" stroke-linejoin="round" stroke-linecap="butt" d="m442.0692 503.28116l31.227844 0l0 31.227875l-31.227844 0z" fill-rule="evenodd"/><path fill="#93a1a1" d="m379.6135 534.50903l31.227844 0l0 31.227844l-31.227844 0z" fill-rule="evenodd"/><path stroke="#002b36" stroke-width="1.0" stroke-linejoin="round" stroke-linecap="butt" d="m379.6135 534.50903l31.227844 0l0 31.227844l-31.227844 0z" fill-rule="evenodd"/><path fill="#002b36" d="m410.84134 534.50903l31.227875 0l0 31.227844l-31.227875 0z" fill-rule="evenodd"/><path stroke="#002b36" stroke-width="1.0" stroke-linejoin="round" stroke-linecap="butt" d="m410.84134 534.50903l31.227875 0l0 31.227844l-31.227875 0z" fill-rule="evenodd"/><path fill="#002b36" d="m442.0692 534.50903l31.227844 0l0 31.227844l-31.227844 0z" fill-rule="evenodd"/><path stroke="#002b36" stroke-width="1.0" stroke-linejoin="round" stroke-linecap="butt" d="m442.0692 534.50903l31.227844 0l0 31.227844l-31.227844 0z" fill-rule="evenodd"/><path fill="#93a1a1" d="m379.6135 565.7369l31.227844 0l0 31.227844l-31.227844 0z" fill-rule="evenodd"/><path stroke="#002b36" stroke-width="1.0" stroke-linejoin="round" stroke-linecap="butt" d="m379.6135 565.7369l31.227844 0l0 31.227844l-31.227844 0z" fill-rule="evenodd"/><path fill="#002b36" d="m410.84134 565.7369l31.227875 0l0 31.227844l-31.227875 0z" fill-rule="evenodd"/><path stroke="#002b36" stroke-width="1.0" stroke-linejoin="round" stroke-linecap="butt" d="m410.84134 565.7369l31.227875 0l0 31.227844l-31.227875 0z" fill-rule="evenodd"/><path fill="#93a1a1" d="m442.0692 565.7369l31.227844 0l0 31.227844l-31.227844 0z" fill-rule="evenodd"/><path stroke="#002b36" stroke-width="1.0" stroke-linejoin="round" stroke-linecap="butt" d="m442.0692 565.7369l31.227844 0l0 31.227844l-31.227844 0z" fill-rule="evenodd"/><path fill="#93a1a1" d="m473.1686 409.66434l31.227875 0l0 31.227875l-31.227875 0z" fill-rule="evenodd"/><path stroke="#002b36" stroke-width="1.0" stroke-linejoin="round" stroke-linecap="butt" d="m473.1686 409.66434l31.227875 0l0 31.227875l-31.227875 0z" fill-rule="evenodd"/><path fill="#93a1a1" d="m504.39648 409.66434l31.227844 0l0 31.227875l-31.227844 0z" fill-rule="evenodd"/><path stroke="#002b36" stroke-width="1.0" stroke-linejoin="round" stroke-linecap="butt" d="m504.39648 409.66434l31.227844 0l0 31.227875l-31.227844 0z" fill-rule="evenodd"/><path fill="#93a1a1" d="m535.6243 409.66434l31.227844 0l0 31.227875l-31.227844 0z" fill-rule="evenodd"/><path stroke="#002b36" stroke-width="1.0" stroke-linejoin="round" stroke-linecap="butt" d="m535.6243 409.66434l31.227844 0l0 31.227875l-31.227844 0z" fill-rule="evenodd"/><path fill="#93a1a1" d="m473.1686 440.8922l31.227875 0l0 31.227844l-31.227875 0z" fill-rule="evenodd"/><path stroke="#002b36" stroke-width="1.0" stroke-linejoin="round" stroke-linecap="butt" d="m473.1686 440.8922l31.227875 0l0 31.227844l-31.227875 0z" fill-rule="evenodd"/><path fill="#002b36" d="m504.39648 440.8922l31.227844 0l0 31.227844l-31.227844 0z" fill-rule="evenodd"/><path stroke="#002b36" stroke-width="1.0" stroke-linejoin="round" stroke-linecap="butt" d="m504.39648 440.8922l31.227844 0l0 31.227844l-31.227844 0z" fill-rule="evenodd"/><path fill="#002b36" d="m535.6243 440.8922l31.227844 0l0 31.227844l-31.227844 0z" fill-rule="evenodd"/><path stroke="#002b36" stroke-width="1.0" stroke-linejoin="round" stroke-linecap="butt" d="m535.6243 440.8922l31.227844 0l0 31.227844l-31.227844 0z" fill-rule="evenodd"/><path fill="#93a1a1" d="m473.1686 472.12006l31.227875 0l0 31.227875l-31.227875 0z" fill-rule="evenodd"/><path stroke="#002b36" stroke-width="1.0" stroke-linejoin="round" stroke-linecap="butt" d="m473.1686 472.12006l31.227875 0l0 31.227875l-31.227875 0z" fill-rule="evenodd"/><path fill="#002b36" d="m504.39648 472.12006l31.227844 0l0 31.227875l-31.227844 0z" fill-rule="evenodd"/><path stroke="#002b36" stroke-width="1.0" stroke-linejoin="round" stroke-linecap="butt" d="m504.39648 472.12006l31.227844 0l0 31.227875l-31.227844 0z" fill-rule="evenodd"/><path fill="#93a1a1" d="m535.6243 472.12006l31.227844 0l0 31.227875l-31.227844 0z" fill-rule="evenodd"/><path stroke="#002b36" stroke-width="1.0" stroke-linejoin="round" stroke-linecap="butt" d="m535.6243 472.12006l31.227844 0l0 31.227875l-31.227844 0z" fill-rule="evenodd"/><path fill="#93a1a1" d="m566.8507 503.28116l31.227844 0l0 31.227875l-31.227844 0z" fill-rule="evenodd"/><path stroke="#002b36" stroke-width="1.0" stroke-linejoin="round" stroke-linecap="butt" d="m566.8507 503.28116l31.227844 0l0 31.227875l-31.227844 0z" fill-rule="evenodd"/><path fill="#002b36" d="m598.07855 503.28116l31.227844 0l0 31.227875l-31.227844 0z" fill-rule="evenodd"/><path stroke="#002b36" stroke-width="1.0" stroke-linejoin="round" stroke-linecap="butt" d="m598.07855 503.28116l31.227844 0l0 31.227875l-31.227844 0z" fill-rule="evenodd"/><path fill="#93a1a1" d="m629.3064 503.28116l31.227844 0l0 31.227875l-31.227844 0z" fill-rule="evenodd"/><path stroke="#002b36" stroke-width="1.0" stroke-linejoin="round" stroke-linecap="butt" d="m629.3064 503.28116l31.227844 0l0 31.227875l-31.227844 0z" fill-rule="evenodd"/><path fill="#002b36" d="m566.8507 534.50903l31.227844 0l0 31.227844l-31.227844 0z" fill-rule="evenodd"/><path stroke="#002b36" stroke-width="1.0" stroke-linejoin="round" stroke-linecap="butt" d="m566.8507 534.50903l31.227844 0l0 31.227844l-31.227844 0z" fill-rule="evenodd"/><path fill="#002b36" d="m598.07855 534.50903l31.227844 0l0 31.227844l-31.227844 0z" fill-rule="evenodd"/><path stroke="#002b36" stroke-width="1.0" stroke-linejoin="round" stroke-linecap="butt" d="m598.07855 534.50903l31.227844 0l0 31.227844l-31.227844 0z" fill-rule="evenodd"/><path fill="#002b36" d="m629.3064 534.50903l31.227844 0l0 31.227844l-31.227844 0z" fill-rule="evenodd"/><path stroke="#002b36" stroke-width="1.0" stroke-linejoin="round" stroke-linecap="butt" d="m629.3064 534.50903l31.227844 0l0 31.227844l-31.227844 0z" fill-rule="evenodd"/><path fill="#93a1a1" d="m566.8507 565.7369l31.227844 0l0 31.227844l-31.227844 0z" fill-rule="evenodd"/><path stroke="#002b36" stroke-width="1.0" stroke-linejoin="round" stroke-linecap="butt" d="m566.8507 565.7369l31.227844 0l0 31.227844l-31.227844 0z" fill-rule="evenodd"/><path fill="#93a1a1" d="m598.07855 565.7369l31.227844 0l0 31.227844l-31.227844 0z" fill-rule="evenodd"/><path stroke="#002b36" stroke-width="1.0" stroke-linejoin="round" stroke-linecap="butt" d="m598.07855 565.7369l31.227844 0l0 31.227844l-31.227844 0z" fill-rule="evenodd"/><path fill="#93a1a1" d="m629.3064 565.7369l31.227844 0l0 31.227844l-31.227844 0z" fill-rule="evenodd"/><path stroke="#002b36" stroke-width="1.0" stroke-linejoin="round" stroke-linecap="butt" d="m629.3064 565.7369l31.227844 0l0 31.227844l-31.227844 0z" fill-rule="evenodd"/><path fill="#000000" fill-opacity="0.0" d="m379.75555 409.80276l93.543304 0l0 93.543335l-93.543304 0z" fill-rule="evenodd"/><path stroke="#002b36" stroke-width="3.0" stroke-linejoin="round" stroke-linecap="butt" d="m379.75555 409.80276l93.543304 0l0 93.543335l-93.543304 0z" fill-rule="evenodd"/><path fill="#000000" fill-opacity="0.0" d="m473.30328 409.80276l93.543335 0l0 93.543335l-93.543335 0z" fill-rule="evenodd"/><path stroke="#002b36" stroke-width="3.0" stroke-linejoin="round" stroke-linecap="butt" d="m473.30328 409.80276l93.543335 0l0 93.543335l-93.543335 0z" fill-rule="evenodd"/><path fill="#000000" fill-opacity="0.0" d="m566.851 409.80276l93.543335 0l0 93.543335l-93.543335 0z" fill-rule="evenodd"/><path stroke="#002b36" stroke-width="3.0" stroke-linejoin="round" stroke-linecap="butt" d="m566.851 409.80276l93.543335 0l0 93.543335l-93.543335 0z" fill-rule="evenodd"/><path fill="#000000" fill-opacity="0.0" d="m379.75555 503.35083l93.543304 0l0 93.543274l-93.543304 0z" fill-rule="evenodd"/><path stroke="#002b36" stroke-width="3.0" stroke-linejoin="round" stroke-linecap="butt" d="m379.75555 503.35083l93.543304 0l0 93.543274l-93.543304 0z" fill-rule="evenodd"/><path fill="#000000" fill-opacity="0.0" d="m473.30328 503.35083l93.543335 0l0 93.543274l-93.543335 0z" fill-rule="evenodd"/><path stroke="#002b36" stroke-width="3.0" stroke-linejoin="round" stroke-linecap="butt" d="m473.30328 503.35083l93.543335 0l0 93.543274l-93.543335 0z" fill-rule="evenodd"/><path fill="#000000" fill-opacity="0.0" d="m566.851 503.35083l93.543335 0l0 93.543274l-93.543335 0z" fill-rule="evenodd"/><path stroke="#002b36" stroke-width="3.0" stroke-linejoin="round" stroke-linecap="butt" d="m566.851 503.35083l93.543335 0l0 93.543274l-93.543335 0z" fill-rule="evenodd"/><path fill="#000000" fill-opacity="0.0" d="m473.30328 596.89886l93.543335 0l0 93.543335l-93.543335 0z" fill-rule="evenodd"/><path stroke="#002b36" stroke-width="3.0" stroke-linejoin="round" stroke-linecap="butt" d="m473.30328 596.89886l93.543335 0l0 93.543335l-93.543335 0z" fill-rule="evenodd"/><path fill="#000000" fill-opacity="0.0" d="m566.851 596.89886l93.543335 0l0 93.543335l-93.543335 0z" fill-rule="evenodd"/><path stroke="#002b36" stroke-width="3.0" stroke-linejoin="round" stroke-linecap="butt" d="m566.851 596.89886l93.543335 0l0 93.543335l-93.543335 0z" fill-rule="evenodd"/><path fill="#eee8d5" d="m715.3369 409.7319l93.543335 0l0 93.543304l-93.543335 0z" fill-rule="evenodd"/><path stroke="#002b36" stroke-width="2.0" stroke-linejoin="round" stroke-linecap="butt" d="m715.3369 409.7319l93.543335 0l0 93.543304l-93.543335 0z" fill-rule="evenodd"/><path fill="#eee8d5" d="m808.88464 409.7319l93.543335 0l0 93.543304l-93.543335 0z" fill-rule="evenodd"/><path stroke="#002b36" stroke-width="2.0" stroke-linejoin="round" stroke-linecap="butt" d="m808.88464 409.7319l93.543335 0l0 93.543304l-93.543335 0z" fill-rule="evenodd"/><path fill="#dc322f" d="m902.4324 409.7319l93.543335 0l0 93.543304l-93.543335 0z" fill-rule="evenodd"/><path stroke="#002b36" stroke-width="2.0" stroke-linejoin="round" stroke-linecap="butt" d="m902.4324 409.7319l93.543335 0l0 93.543304l-93.543335 0z" fill-rule="evenodd"/><path fill="#eee8d5" d="m715.3369 503.27997l93.543335 0l0 93.543274l-93.543335 0z" fill-rule="evenodd"/><path stroke="#002b36" stroke-width="2.0" stroke-linejoin="round" stroke-linecap="butt" d="m715.3369 503.27997l93.543335 0l0 93.543274l-93.543335 0z" fill-rule="evenodd"/><path fill="#eee8d5" d="m808.88464 503.27997l93.543335 0l0 93.543274l-93.543335 0z" fill-rule="evenodd"/><path stroke="#002b36" stroke-width="2.0" stroke-linejoin="round" stroke-linecap="butt" d="m808.88464 503.27997l93.543335 0l0 93.543274l-93.543335 0z" fill-rule="evenodd"/><path fill="#eee8d5" d="m902.4324 503.27997l93.543335 0l0 93.543274l-93.543335 0z" fill-rule="evenodd"/><path stroke="#002b36" stroke-width="2.0" stroke-linejoin="round" stroke-linecap="butt" d="m902.4324 503.27997l93.543335 0l0 93.543274l-93.543335 0z" fill-rule="evenodd"/><path fill="#eee8d5" d="m715.3369 596.828l93.543335 0l0 93.543335l-93.543335 0z" fill-rule="evenodd"/><path stroke="#002b36" stroke-width="3.0" stroke-linejoin="round" stroke-linecap="butt" d="m715.3369 596.828l93.543335 0l0 93.543335l-93.543335 0z" fill-rule="evenodd"/><path fill="#eee8d5" d="m808.88464 596.828l93.543335 0l0 93.543335l-93.543335 0z" fill-rule="evenodd"/><path stroke="#002b36" stroke-width="2.0" stroke-linejoin="round" stroke-linecap="butt" d="m808.88464 596.828l93.543335 0l0 93.543335l-93.543335 0z" fill-rule="evenodd"/><path fill="#eee8d5" d="m902.4324 596.828l93.543335 0l0 93.543335l-93.543335 0z" fill-rule="evenodd"/><path stroke="#002b36" stroke-width="2.0" stroke-linejoin="round" stroke-linecap="butt" d="m902.4324 596.828l93.543335 0l0 93.543335l-93.543335 0z" fill-rule="evenodd"/><path fill="#93a1a1" d="m808.81396 503.2103l31.227844 0l0 31.227814l-31.227844 0z" fill-rule="evenodd"/><path stroke="#002b36" stroke-width="1.0" stroke-linejoin="round" stroke-linecap="butt" d="m808.81396 503.2103l31.227844 0l0 31.227814l-31.227844 0z" fill-rule="evenodd"/><path fill="#002b36" d="m840.0418 503.2103l31.227844 0l0 31.227814l-31.227844 0z" fill-rule="evenodd"/><path stroke="#002b36" stroke-width="1.0" stroke-linejoin="round" stroke-linecap="butt" d="m840.0418 503.2103l31.227844 0l0 31.227814l-31.227844 0z" fill-rule="evenodd"/><path fill="#93a1a1" d="m871.26965 503.2103l31.227844 0l0 31.227814l-31.227844 0z" fill-rule="evenodd"/><path stroke="#002b36" stroke-width="1.0" stroke-linejoin="round" stroke-linecap="butt" d="m871.26965 503.2103l31.227844 0l0 31.227814l-31.227844 0z" fill-rule="evenodd"/><path fill="#002b36" d="m808.81396 534.4381l31.227844 0l0 31.227905l-31.227844 0z" fill-rule="evenodd"/><path stroke="#002b36" stroke-width="1.0" stroke-linejoin="round" stroke-linecap="butt" d="m808.81396 534.4381l31.227844 0l0 31.227905l-31.227844 0z" fill-rule="evenodd"/><path fill="#002b36" d="m840.0418 534.4381l31.227844 0l0 31.227905l-31.227844 0z" fill-rule="evenodd"/><path stroke="#002b36" stroke-width="1.0" stroke-linejoin="round" stroke-linecap="butt" d="m840.0418 534.4381l31.227844 0l0 31.227905l-31.227844 0z" fill-rule="evenodd"/><path fill="#002b36" d="m871.26965 534.4381l31.227844 0l0 31.227905l-31.227844 0z" fill-rule="evenodd"/><path stroke="#002b36" stroke-width="1.0" stroke-linejoin="round" stroke-linecap="butt" d="m871.26965 534.4381l31.227844 0l0 31.227905l-31.227844 0z" fill-rule="evenodd"/><path fill="#93a1a1" d="m808.81396 565.666l31.227844 0l0 31.227844l-31.227844 0z" fill-rule="evenodd"/><path stroke="#002b36" stroke-width="1.0" stroke-linejoin="round" stroke-linecap="butt" d="m808.81396 565.666l31.227844 0l0 31.227844l-31.227844 0z" fill-rule="evenodd"/><path fill="#93a1a1" d="m840.0418 565.666l31.227844 0l0 31.227844l-31.227844 0z" fill-rule="evenodd"/><path stroke="#002b36" stroke-width="1.0" stroke-linejoin="round" stroke-linecap="butt" d="m840.0418 565.666l31.227844 0l0 31.227844l-31.227844 0z" fill-rule="evenodd"/><path fill="#93a1a1" d="m871.26965 565.666l31.227844 0l0 31.227844l-31.227844 0z" fill-rule="evenodd"/><path stroke="#002b36" stroke-width="1.0" stroke-linejoin="round" stroke-linecap="butt" d="m871.26965 565.666l31.227844 0l0 31.227844l-31.227844 0z" fill-rule="evenodd"/><path fill="#93a1a1" d="m715.1949 503.2103l31.227844 0l0 31.227814l-31.227844 0z" fill-rule="evenodd"/><path stroke="#002b36" stroke-width="1.0" stroke-linejoin="round" stroke-linecap="butt" d="m715.1949 503.2103l31.227844 0l0 31.227814l-31.227844 0z" fill-rule="evenodd"/><path fill="#93a1a1" d="m746.4227 503.2103l31.227844 0l0 31.227814l-31.227844 0z" fill-rule="evenodd"/><path stroke="#002b36" stroke-width="1.0" stroke-linejoin="round" stroke-linecap="butt" d="m746.4227 503.2103l31.227844 0l0 31.227814l-31.227844 0z" fill-rule="evenodd"/><path fill="#93a1a1" d="m777.6506 503.2103l31.227844 0l0 31.227814l-31.227844 0z" fill-rule="evenodd"/><path stroke="#002b36" stroke-width="1.0" stroke-linejoin="round" stroke-linecap="butt" d="m777.6506 503.2103l31.227844 0l0 31.227814l-31.227844 0z" fill-rule="evenodd"/><path fill="#93a1a1" d="m715.1949 534.4381l31.227844 0l0 31.227905l-31.227844 0z" fill-rule="evenodd"/><path stroke="#002b36" stroke-width="1.0" stroke-linejoin="round" stroke-linecap="butt" d="m715.1949 534.4381l31.227844 0l0 31.227905l-31.227844 0z" fill-rule="evenodd"/><path fill="#002b36" d="m746.4227 534.4381l31.227844 0l0 31.227905l-31.227844 0z" fill-rule="evenodd"/><path stroke="#002b36" stroke-width="1.0" stroke-linejoin="round" stroke-linecap="butt" d="m746.4227 534.4381l31.227844 0l0 31.227905l-31.227844 0z" fill-rule="evenodd"/><path fill="#002b36" d="m777.6506 534.4381l31.227844 0l0 31.227905l-31.227844 0z" fill-rule="evenodd"/><path stroke="#002b36" stroke-width="1.0" stroke-linejoin="round" stroke-linecap="butt" d="m777.6506 534.4381l31.227844 0l0 31.227905l-31.227844 0z" fill-rule="evenodd"/><path fill="#93a1a1" d="m715.1949 565.666l31.227844 0l0 31.227844l-31.227844 0z" fill-rule="evenodd"/><path stroke="#002b36" stroke-width="1.0" stroke-linejoin="round" stroke-linecap="butt" d="m715.1949 565.666l31.227844 0l0 31.227844l-31.227844 0z" fill-rule="evenodd"/><path fill="#002b36" d="m746.4227 565.666l31.227844 0l0 31.227844l-31.227844 0z" fill-rule="evenodd"/><path stroke="#002b36" stroke-width="1.0" stroke-linejoin="round" stroke-linecap="butt" d="m746.4227 565.666l31.227844 0l0 31.227844l-31.227844 0z" fill-rule="evenodd"/><path fill="#93a1a1" d="m777.6506 565.666l31.227844 0l0 31.227844l-31.227844 0z" fill-rule="evenodd"/><path stroke="#002b36" stroke-width="1.0" stroke-linejoin="round" stroke-linecap="butt" d="m777.6506 565.666l31.227844 0l0 31.227844l-31.227844 0z" fill-rule="evenodd"/><path fill="#93a1a1" d="m808.75 409.59348l31.227844 0l0 31.227875l-31.227844 0z" fill-rule="evenodd"/><path stroke="#002b36" stroke-width="1.0" stroke-linejoin="round" stroke-linecap="butt" d="m808.75 409.59348l31.227844 0l0 31.227875l-31.227844 0z" fill-rule="evenodd"/><path fill="#93a1a1" d="m839.97784 409.59348l31.227844 0l0 31.227875l-31.227844 0z" fill-rule="evenodd"/><path stroke="#002b36" stroke-width="1.0" stroke-linejoin="round" stroke-linecap="butt" d="m839.97784 409.59348l31.227844 0l0 31.227875l-31.227844 0z" fill-rule="evenodd"/><path fill="#93a1a1" d="m871.2057 409.59348l31.227844 0l0 31.227875l-31.227844 0z" fill-rule="evenodd"/><path stroke="#002b36" stroke-width="1.0" stroke-linejoin="round" stroke-linecap="butt" d="m871.2057 409.59348l31.227844 0l0 31.227875l-31.227844 0z" fill-rule="evenodd"/><path fill="#93a1a1" d="m808.75 440.82135l31.227844 0l0 31.227844l-31.227844 0z" fill-rule="evenodd"/><path stroke="#002b36" stroke-width="1.0" stroke-linejoin="round" stroke-linecap="butt" d="m808.75 440.82135l31.227844 0l0 31.227844l-31.227844 0z" fill-rule="evenodd"/><path fill="#002b36" d="m839.97784 440.82135l31.227844 0l0 31.227844l-31.227844 0z" fill-rule="evenodd"/><path stroke="#002b36" stroke-width="1.0" stroke-linejoin="round" stroke-linecap="butt" d="m839.97784 440.82135l31.227844 0l0 31.227844l-31.227844 0z" fill-rule="evenodd"/><path fill="#002b36" d="m871.2057 440.82135l31.227844 0l0 31.227844l-31.227844 0z" fill-rule="evenodd"/><path stroke="#002b36" stroke-width="1.0" stroke-linejoin="round" stroke-linecap="butt" d="m871.2057 440.82135l31.227844 0l0 31.227844l-31.227844 0z" fill-rule="evenodd"/><path fill="#93a1a1" d="m808.75 472.0492l31.227844 0l0 31.227844l-31.227844 0z" fill-rule="evenodd"/><path stroke="#002b36" stroke-width="1.0" stroke-linejoin="round" stroke-linecap="butt" d="m808.75 472.0492l31.227844 0l0 31.227844l-31.227844 0z" fill-rule="evenodd"/><path fill="#002b36" d="m839.97784 472.0492l31.227844 0l0 31.227844l-31.227844 0z" fill-rule="evenodd"/><path stroke="#002b36" stroke-width="1.0" stroke-linejoin="round" stroke-linecap="butt" d="m839.97784 472.0492l31.227844 0l0 31.227844l-31.227844 0z" fill-rule="evenodd"/><path fill="#93a1a1" d="m871.2057 472.0492l31.227844 0l0 31.227844l-31.227844 0z" fill-rule="evenodd"/><path stroke="#002b36" stroke-width="1.0" stroke-linejoin="round" stroke-linecap="butt" d="m871.2057 472.0492l31.227844 0l0 31.227844l-31.227844 0z" fill-rule="evenodd"/><path fill="#93a1a1" d="m902.43207 503.2103l31.227844 0l0 31.227814l-31.227844 0z" fill-rule="evenodd"/><path stroke="#002b36" stroke-width="1.0" stroke-linejoin="round" stroke-linecap="butt" d="m902.43207 503.2103l31.227844 0l0 31.227814l-31.227844 0z" fill-rule="evenodd"/><path fill="#002b36" d="m933.6599 503.2103l31.227844 0l0 31.227814l-31.227844 0z" fill-rule="evenodd"/><path stroke="#002b36" stroke-width="1.0" stroke-linejoin="round" stroke-linecap="butt" d="m933.6599 503.2103l31.227844 0l0 31.227814l-31.227844 0z" fill-rule="evenodd"/><path fill="#93a1a1" d="m964.88776 503.2103l31.227844 0l0 31.227814l-31.227844 0z" fill-rule="evenodd"/><path stroke="#002b36" stroke-width="1.0" stroke-linejoin="round" stroke-linecap="butt" d="m964.88776 503.2103l31.227844 0l0 31.227814l-31.227844 0z" fill-rule="evenodd"/><path fill="#002b36" d="m902.43207 534.4381l31.227844 0l0 31.227905l-31.227844 0z" fill-rule="evenodd"/><path stroke="#002b36" stroke-width="1.0" stroke-linejoin="round" stroke-linecap="butt" d="m902.43207 534.4381l31.227844 0l0 31.227905l-31.227844 0z" fill-rule="evenodd"/><path fill="#002b36" d="m933.6599 534.4381l31.227844 0l0 31.227905l-31.227844 0z" fill-rule="evenodd"/><path stroke="#002b36" stroke-width="1.0" stroke-linejoin="round" stroke-linecap="butt" d="m933.6599 534.4381l31.227844 0l0 31.227905l-31.227844 0z" fill-rule="evenodd"/><path fill="#002b36" d="m964.88776 534.4381l31.227844 0l0 31.227905l-31.227844 0z" fill-rule="evenodd"/><path stroke="#002b36" stroke-width="1.0" stroke-linejoin="round" stroke-linecap="butt" d="m964.88776 534.4381l31.227844 0l0 31.227905l-31.227844 0z" fill-rule="evenodd"/><path fill="#93a1a1" d="m902.43207 565.666l31.227844 0l0 31.227844l-31.227844 0z" fill-rule="evenodd"/><path stroke="#002b36" stroke-width="1.0" stroke-linejoin="round" stroke-linecap="butt" d="m902.43207 565.666l31.227844 0l0 31.227844l-31.227844 0z" fill-rule="evenodd"/><path fill="#93a1a1" d="m933.6599 565.666l31.227844 0l0 31.227844l-31.227844 0z" fill-rule="evenodd"/><path stroke="#002b36" stroke-width="1.0" stroke-linejoin="round" stroke-linecap="butt" d="m933.6599 565.666l31.227844 0l0 31.227844l-31.227844 0z" fill-rule="evenodd"/><path fill="#93a1a1" d="m964.88776 565.666l31.227844 0l0 31.227844l-31.227844 0z" fill-rule="evenodd"/><path stroke="#002b36" stroke-width="1.0" stroke-linejoin="round" stroke-linecap="butt" d="m964.88776 565.666l31.227844 0l0 31.227844l-31.227844 0z" fill-rule="evenodd"/><path fill="#000000" fill-opacity="0.0" d="m715.3369 409.7319l93.543335 0l0 93.543304l-93.543335 0z" fill-rule="evenodd"/><path stroke="#002b36" stroke-width="3.0" stroke-linejoin="round" stroke-linecap="butt" d="m715.3369 409.7319l93.543335 0l0 93.543304l-93.543335 0z" fill-rule="evenodd"/><path fill="#000000" fill-opacity="0.0" d="m808.88464 409.7319l93.543335 0l0 93.543304l-93.543335 0z" fill-rule="evenodd"/><path stroke="#002b36" stroke-width="3.0" stroke-linejoin="round" stroke-linecap="butt" d="m808.88464 409.7319l93.543335 0l0 93.543304l-93.543335 0z" fill-rule="evenodd"/><path fill="#000000" fill-opacity="0.0" d="m902.4324 409.7319l93.543335 0l0 93.543304l-93.543335 0z" fill-rule="evenodd"/><path stroke="#002b36" stroke-width="3.0" stroke-linejoin="round" stroke-linecap="butt" d="m902.4324 409.7319l93.543335 0l0 93.543304l-93.543335 0z" fill-rule="evenodd"/><path fill="#000000" fill-opacity="0.0" d="m715.3369 503.27997l93.543335 0l0 93.543274l-93.543335 0z" fill-rule="evenodd"/><path stroke="#002b36" stroke-width="3.0" stroke-linejoin="round" stroke-linecap="butt" d="m715.3369 503.27997l93.543335 0l0 93.543274l-93.543335 0z" fill-rule="evenodd"/><path fill="#000000" fill-opacity="0.0" d="m808.88464 503.27997l93.543335 0l0 93.543274l-93.543335 0z" fill-rule="evenodd"/><path stroke="#002b36" stroke-width="3.0" stroke-linejoin="round" stroke-linecap="butt" d="m808.88464 503.27997l93.543335 0l0 93.543274l-93.543335 0z" fill-rule="evenodd"/><path fill="#000000" fill-opacity="0.0" d="m902.4324 503.27997l93.543335 0l0 93.543274l-93.543335 0z" fill-rule="evenodd"/><path stroke="#002b36" stroke-width="3.0" stroke-linejoin="round" stroke-linecap="butt" d="m902.4324 503.27997l93.543335 0l0 93.543274l-93.543335 0z" fill-rule="evenodd"/><path fill="#000000" fill-opacity="0.0" d="m808.88464 596.828l93.543335 0l0 93.543335l-93.543335 0z" fill-rule="evenodd"/><path stroke="#002b36" stroke-width="3.0" stroke-linejoin="round" stroke-linecap="butt" d="m808.88464 596.828l93.543335 0l0 93.543335l-93.543335 0z" fill-rule="evenodd"/><path fill="#000000" fill-opacity="0.0" d="m902.4324 596.828l93.543335 0l0 93.543335l-93.543335 0z" fill-rule="evenodd"/><path stroke="#002b36" stroke-width="3.0" stroke-linejoin="round" stroke-linecap="butt" d="m902.4324 596.828l93.543335 0l0 93.543335l-93.543335 0z" fill-rule="evenodd"/><path fill="#000000" fill-opacity="0.0" d="m324.813 173.965l54.929108 0" fill-rule="evenodd"/><path stroke="#000000" stroke-width="4.0" stroke-linejoin="round" stroke-linecap="butt" d="m324.81296 173.965l30.929169 0" fill-rule="evenodd"/><path fill="#000000" stroke="#000000" stroke-width="4.0" stroke-linecap="butt" d="m355.74213 180.57193l18.152405 -6.6069336l-18.152405 -6.6069336z" fill-rule="evenodd"/><path fill="#000000" fill-opacity="0.0" d="m660.393 173.96631l55.08661 0" fill-rule="evenodd"/><path stroke="#000000" stroke-width="4.0" stroke-linejoin="round" stroke-linecap="butt" d="m660.39307 173.96631l31.086609 0" fill-rule="evenodd"/><path fill="#000000" stroke="#000000" stroke-width="4.0" stroke-linecap="butt" d="m691.4797 180.57324l18.152405 -6.6069336l-18.152405 -6.6069336z" fill-rule="evenodd"/><path fill="#000000" fill-opacity="0.0" d="m324.8143 550.05164l54.929108 0.06298828" fill-rule="evenodd"/><path stroke="#000000" stroke-width="4.0" stroke-linejoin="round" stroke-linecap="butt" d="m324.81427 550.05164l30.929169 0.035461426" fill-rule="evenodd"/><path fill="#000000" stroke="#000000" stroke-width="4.0" stroke-linecap="butt" d="m355.73587 556.69403l18.159973 -6.5861206l-18.144806 -6.6277466z" fill-rule="evenodd"/><path fill="#000000" fill-opacity="0.0" d="m660.39435 550.1225l54.92914 -0.06298828" fill-rule="evenodd"/><path stroke="#000000" stroke-width="4.0" stroke-linejoin="round" stroke-linecap="butt" d="m660.39435 550.1225l30.929138 -0.035461426" fill-rule="evenodd"/><path fill="#000000" stroke="#000000" stroke-width="4.0" stroke-linecap="butt" d="m691.33105 556.694l18.144836 -6.6277466l-18.159973 -6.5861206z" fill-rule="evenodd"/><path fill="#000000" fill-opacity="0.0" d="m855.7954 314.286c0 23.861603 -167.82678 35.794098 -335.65356 47.723206c-167.82675 11.929138 -335.6535 23.85495 -335.6535 47.70987" fill-rule="evenodd"/><path stroke="#000000" stroke-width="3.0" stroke-linejoin="round" stroke-linecap="butt" d="m855.7954 314.286c0 23.861603 -167.82678 35.794098 -335.65356 47.723206c-83.91339 5.964569 -167.82675 11.928314 -230.76181 19.382751c-31.467499 3.7272644 -57.69043 7.8271484 -76.04648 12.486176c-4.5890045 1.1647949 -8.686356 2.3644714 -12.251022 3.6020508c-0.8911743 0.3093872 -1.749054 0.6211548 -2.572998 0.93533325l-0.009933472 0.0038146973" fill-rule="evenodd"/><path fill="#000000" stroke="#000000" stroke-width="3.0" stroke-linecap="butt" d="m195.38892 394.5622l-7.486725 12.403687l13.708099 -4.689392z" fill-rule="evenodd"/><path fill="#000000" fill-opacity="0.0" d="m1011.0 407.77954l0 0c6.349121 0 11.496033 3.8095703 11.496033 8.508911l0 30.6987c0 4.699341 5.1470337 8.508911 11.496033 8.508911l0 0c-6.348999 0 -11.496033 3.8095703 -11.496033 8.508911l0 30.6987c0 4.699341 -5.1469116 8.508911 -11.496033 8.508911z" fill-rule="evenodd"/><path fill="#000000" fill-opacity="0.0" d="m1011.0 407.77954l0 0c6.349121 0 11.496033 3.8095703 11.496033 8.508911l0 30.6987c0 4.699341 5.1470337 8.508911 11.496033 8.508911l0 0c-6.348999 0 -11.496033 3.8095703 -11.496033 8.508911l0 30.6987c0 4.699341 -5.1469116 8.508911 -11.496033 8.508911" fill-rule="evenodd"/><path stroke="#000000" stroke-width="4.0" stroke-linejoin="round" stroke-linecap="butt" d="m1011.0 407.77954l0 0c6.349121 0 11.496033 3.8095703 11.496033 8.508911l0 30.6987c0 4.699341 5.1470337 8.508911 11.496033 8.508911l0 0c-6.348999 0 -11.496033 3.8095703 -11.496033 8.508911l0 30.6987c0 4.699341 -5.1469116 8.508911 -11.496033 8.508911" fill-rule="evenodd"/><path fill="#000000" fill-opacity="0.0" d="m1042.0 425.07874l145.98425 0l0 62.992126l-145.98425 0z" fill-rule="evenodd"/><path fill="#000000" d="m1066.0938 436.1148l-2.265625 0l-8.578125 -13.15625l0 13.15625l-2.265625 0l0 -17.0625l2.265625 0l8.609375 13.203125l0 -13.203125l2.234375 0l0 17.0625zm3.078125 -6.453125q0 -1.875 0.734375 -3.359375q0.734375 -1.484375 2.03125 -2.296875q1.3125 -0.8125 3.0 -0.8125q2.578125 0 4.171875 1.796875q1.609375 1.796875 1.609375 4.765625l0 0.15625q0 1.859375 -0.71875 3.328125q-0.703125 1.46875 -2.015625 2.296875q-1.3125 0.8125 -3.03125 0.8125q-2.578125 0 -4.1875 -1.796875q-1.59375 -1.796875 -1.59375 -4.75l0 -0.140625zm2.1875 0.25q0 2.109375 0.96875 3.390625q0.984375 1.28125 2.625 1.28125q1.65625 0 2.625 -1.296875q0.96875 -1.296875 0.96875 -3.625q0 -2.09375 -0.984375 -3.390625q-0.984375 -1.296875 -2.625 -1.296875q-1.609375 0 -2.59375 1.28125q-0.984375 1.28125 -0.984375 3.65625zm14.125 -6.484375l0.078125 1.59375q1.453125 -1.828125 3.796875 -1.828125q4.015625 0 4.046875 4.546875l0 8.375l-2.15625 0l0 -8.390625q-0.015625 -1.375 -0.640625 -2.03125q-0.609375 -0.65625 -1.90625 -0.65625q-1.0625 0 -1.859375 0.5625q-0.796875 0.5625 -1.234375 1.484375l0 9.03125l-2.171875 0l0 -12.6875l2.046875 0zm16.460938 12.921875q-2.578125 0 -4.203125 -1.6875q-1.609375 -1.703125 -1.609375 -4.53125l0 -0.40625q0 -1.890625 0.71875 -3.359375q0.71875 -1.484375 2.015625 -2.328125q1.296875 -0.84375 2.8125 -0.84375q2.46875 0 3.828125 1.640625q1.375 1.625 1.375 4.65625l0 0.90625l-8.578125 0q0.046875 1.875 1.09375 3.03125q1.046875 1.15625 2.65625 1.15625q1.15625 0 1.953125 -0.46875q0.796875 -0.46875 1.390625 -1.25l1.328125 1.03125q-1.59375 2.453125 -4.78125 2.453125zm-0.265625 -11.375q-1.3125 0 -2.203125 0.96875q-0.890625 0.953125 -1.109375 2.671875l6.359375 0l0 -0.171875q-0.09375 -1.640625 -0.890625 -2.546875q-0.796875 -0.921875 -2.15625 -0.921875zm13.078125 4.6875q0 -1.875 0.734375 -3.359375q0.734375 -1.484375 2.03125 -2.296875q1.3125 -0.8125 3.0 -0.8125q2.578125 0 4.171875 1.796875q1.609375 1.796875 1.609375 4.765625l0 0.15625q0 1.859375 -0.71875 3.328125q-0.703125 1.46875 -2.015625 2.296875q-1.3125 0.8125 -3.03125 0.8125q-2.578125 0 -4.1875 -1.796875q-1.59375 -1.796875 -1.59375 -4.75l0 -0.140625zm2.1875 0.25q0 2.109375 0.96875 3.390625q0.984375 1.28125 2.625 1.28125q1.65625 0 2.625 -1.296875q0.96875 -1.296875 0.96875 -3.625q0 -2.09375 -0.984375 -3.390625q-0.984375 -1.296875 -2.625 -1.296875q-1.609375 0 -2.59375 1.28125q-0.984375 1.28125 -0.984375 3.65625zm13.140625 6.203125l0 -11.0l-2.0 0l0 -1.6875l2.0 0l0 -1.296875q0 -2.03125 1.09375 -3.140625q1.09375 -1.125 3.078125 -1.125q0.75 0 1.5 0.203125l-0.125 1.75q-0.546875 -0.09375 -1.171875 -0.09375q-1.046875 0 -1.625 0.609375q-0.578125 0.609375 -0.578125 1.765625l0 1.328125l2.703125 0l0 1.6875l-2.703125 0l0 11.0l-2.171875 0zm16.148438 -15.75l0 3.0625l2.375 0l0 1.6875l-2.375 0l0 7.859375q0 0.765625 0.3125 1.140625q0.328125 0.375 1.09375 0.375q0.375 0 1.03125 -0.140625l0 1.765625q-0.859375 0.234375 -1.671875 0.234375q-1.453125 0 -2.1875 -0.875q-0.734375 -0.890625 -0.734375 -2.5l0 -7.859375l-2.3125 0l0 -1.6875l2.3125 0l0 -3.0625l2.15625 0zm7.0742188 4.609375q1.4375 -1.78125 3.75 -1.78125q4.015625 0 4.046875 4.546875l0 8.375l-2.15625 0l0 -8.390625q-0.015625 -1.375 -0.640625 -2.03125q-0.609375 -0.65625 -1.90625 -0.65625q-1.0625 0 -1.859375 0.5625q-0.796875 0.5625 -1.234375 1.484375l0 9.03125l-2.171875 0l0 -18.0l2.171875 0l0 6.859375zm16.3125 11.375q-2.578125 0 -4.203125 -1.6875q-1.609375 -1.703125 -1.609375 -4.53125l0 -0.40625q0 -1.890625 0.71875 -3.359375q0.71875 -1.484375 2.015625 -2.328125q1.296875 -0.84375 2.8125 -0.84375q2.46875 0 3.828125 1.640625q1.375 1.625 1.375 4.65625l0 0.90625l-8.578125 0q0.046875 1.875 1.09375 3.03125q1.046875 1.15625 2.65625 1.15625q1.15625 0 1.953125 -0.46875q0.796875 -0.46875 1.390625 -1.25l1.328125 1.03125q-1.59375 2.453125 -4.78125 2.453125zm-0.265625 -11.375q-1.3125 0 -2.203125 0.96875q-0.890625 0.953125 -1.109375 2.671875l6.359375 0l0 -0.171875q-0.09375 -1.640625 -0.890625 -2.546875q-0.796875 -0.921875 -2.15625 -0.921875z" fill-rule="nonzero"/><path fill="#000000" d="m1061.5781 459.38043l2.359375 0l0 1.765625l-2.359375 0l0 3.96875l-2.1875 0l0 -3.96875l-7.765625 0l0 -1.265625l7.640625 -11.828125l2.3125 0l0 11.328125zm-7.5 0l5.3125 0l0 -8.359375l-0.25 0.46875l-5.0625 7.890625zm20.917969 -10.015625l0 3.0625l2.375 0l0 1.6875l-2.375 0l0 7.859375q0 0.765625 0.3125 1.140625q0.328125 0.375 1.09375 0.375q0.375 0 1.03125 -0.140625l0 1.765625q-0.859375 0.234375 -1.671875 0.234375q-1.453125 0 -2.1875 -0.875q-0.734375 -0.890625 -0.734375 -2.5l0 -7.859375l-2.3125 0l0 -1.6875l2.3125 0l0 -3.0625l2.15625 0zm7.2617188 15.75l-2.171875 0l0 -12.6875l2.171875 0l0 12.6875zm-2.34375 -16.046875q0 -0.53125 0.3125 -0.890625q0.328125 -0.359375 0.953125 -0.359375q0.640625 0 0.96875 0.359375q0.328125 0.359375 0.328125 0.890625q0 0.53125 -0.328125 0.890625q-0.328125 0.34375 -0.96875 0.34375q-0.625 0 -0.953125 -0.34375q-0.3125 -0.359375 -0.3125 -0.890625zm8.167969 16.046875l-2.171875 0l0 -18.0l2.171875 0l0 18.0zm8.730469 0.234375q-2.578125 0 -4.203125 -1.6875q-1.609375 -1.703125 -1.609375 -4.53125l0 -0.40625q0 -1.890625 0.71875 -3.359375q0.71875 -1.484375 2.015625 -2.328125q1.296875 -0.84375 2.8125 -0.84375q2.46875 0 3.828125 1.640625q1.375 1.625 1.375 4.65625l0 0.90625l-8.578125 0q0.046875 1.875 1.09375 3.03125q1.046875 1.15625 2.65625 1.15625q1.15625 0 1.953125 -0.46875q0.796875 -0.46875 1.390625 -1.25l1.328125 1.03125q-1.59375 2.453125 -4.78125 2.453125zm-0.265625 -11.375q-1.3125 0 -2.203125 0.96875q-0.890625 0.953125 -1.109375 2.671875l6.359375 0l0 -0.171875q-0.09375 -1.640625 -0.890625 -2.546875q-0.796875 -0.921875 -2.15625 -0.921875zm15.105469 7.78125q0 -0.890625 -0.671875 -1.375q-0.65625 -0.484375 -2.3125 -0.828125q-1.640625 -0.359375 -2.609375 -0.84375q-0.96875 -0.5 -1.4375 -1.171875q-0.453125 -0.6875 -0.453125 -1.625q0 -1.5625 1.3125 -2.640625q1.328125 -1.078125 3.375 -1.078125q2.15625 0 3.5 1.125q1.34375 1.109375 1.34375 2.84375l-2.1875 0q0 -0.890625 -0.75 -1.53125q-0.75 -0.65625 -1.90625 -0.65625q-1.1875 0 -1.859375 0.515625q-0.65625 0.515625 -0.65625 1.359375q0 0.78125 0.609375 1.1875q0.625 0.390625 2.25 0.75q1.625 0.359375 2.625 0.875q1.015625 0.5 1.5 1.21875q0.484375 0.703125 0.484375 1.71875q0 1.703125 -1.359375 2.734375q-1.359375 1.015625 -3.515625 1.015625q-1.53125 0 -2.703125 -0.53125q-1.171875 -0.546875 -1.84375 -1.515625q-0.65625 -0.96875 -0.65625 -2.09375l2.171875 0q0.0625 1.09375 0.875 1.734375q0.8125 0.640625 2.15625 0.640625q1.21875 0 1.96875 -0.5q0.75 -0.5 0.75 -1.328125zm16.019531 1.828125q1.15625 0 2.015625 -0.703125q0.875 -0.703125 0.96875 -1.765625l2.046875 0q-0.0625 1.09375 -0.75 2.078125q-0.6875 0.984375 -1.84375 1.578125q-1.15625 0.578125 -2.4375 0.578125q-2.59375 0 -4.125 -1.71875q-1.53125 -1.734375 -1.53125 -4.734375l0 -0.375q0 -1.84375 0.671875 -3.28125q0.6875 -1.453125 1.953125 -2.25q1.28125 -0.796875 3.015625 -0.796875q2.125 0 3.53125 1.28125q1.421875 1.28125 1.515625 3.3125l-2.046875 0q-0.09375 -1.21875 -0.9375 -2.015625q-0.828125 -0.796875 -2.0625 -0.796875q-1.65625 0 -2.5625 1.203125q-0.90625 1.1875 -0.90625 3.4375l0 0.40625q0 2.1875 0.890625 3.375q0.90625 1.1875 2.59375 1.1875zm15.296875 1.53125q-0.1875 -0.375 -0.296875 -1.34375q-1.515625 1.578125 -3.609375 1.578125q-1.875 0 -3.078125 -1.0625q-1.203125 -1.0625 -1.203125 -2.6875q0 -1.984375 1.5 -3.078125q1.515625 -1.09375 4.234375 -1.09375l2.109375 0l0 -1.0q0 -1.140625 -0.6875 -1.8125q-0.671875 -0.671875 -1.984375 -0.671875q-1.171875 0 -1.953125 0.59375q-0.78125 0.578125 -0.78125 1.40625l-2.1875 0q0 -0.9375 0.671875 -1.828125q0.6875 -0.890625 1.828125 -1.40625q1.15625 -0.515625 2.546875 -0.515625q2.1875 0 3.421875 1.109375q1.25 1.09375 1.296875 3.015625l0 5.828125q0 1.75 0.453125 2.78125l0 0.1875l-2.28125 0zm-3.59375 -1.65625q1.015625 0 1.921875 -0.515625q0.921875 -0.53125 1.328125 -1.375l0 -2.609375l-1.6875 0q-3.984375 0 -3.984375 2.328125q0 1.03125 0.671875 1.609375q0.6875 0.5625 1.75 0.5625zm10.8671875 -11.03125l0.078125 1.59375q1.453125 -1.828125 3.796875 -1.828125q4.015625 0 4.046875 4.546875l0 8.375l-2.15625 0l0 -8.390625q-0.015625 -1.375 -0.640625 -2.03125q-0.609375 -0.65625 -1.90625 -0.65625q-1.0625 0 -1.859375 0.5625q-0.796875 0.5625 -1.234375 1.484375l0 9.03125l-2.171875 0l0 -12.6875l2.046875 0z" fill-rule="nonzero"/><path fill="#000000" d="m1053.375 494.1148l0 -11.0l-2.015625 0l0 -1.6875l2.015625 0l0 -1.078125q0 -2.109375 1.203125 -3.296875q1.21875 -1.1875 3.4375 -1.1875q1.3125 0 3.3125 0.71875l-0.359375 1.828125q-1.46875 -0.59375 -2.796875 -0.59375q-1.390625 0 -2.015625 0.640625q-0.609375 0.625 -0.609375 1.875l0 1.09375l2.59375 0l0 1.6875l-2.59375 0l0 11.0l-2.171875 0zm9.03125 0l-2.1875 0l0 -12.6875l2.1875 0l0 12.6875zm6.4609375 -15.75l0 3.0625l2.375 0l0 1.6875l-2.375 0l0 7.859375q0 0.765625 0.3125 1.140625q0.328125 0.375 1.09375 0.375q0.375 0 1.03125 -0.140625l0 1.765625q-0.859375 0.234375 -1.671875 0.234375q-1.453125 0 -2.1875 -0.875q-0.734375 -0.890625 -0.734375 -2.5l0 -7.859375l-2.3125 0l0 -1.6875l2.3125 0l0 -3.0625l2.15625 0zm13.015625 4.609375q1.4375 -1.78125 3.75 -1.78125q4.015625 0 4.046875 4.546875l0 8.375l-2.15625 0l0 -8.390625q-0.015625 -1.375 -0.640625 -2.03125q-0.609375 -0.65625 -1.90625 -0.65625q-1.0625 0 -1.859375 0.5625q-0.796875 0.5625 -1.234375 1.484375l0 9.03125l-2.171875 0l0 -18.0l2.171875 0l0 6.859375zm16.3125 11.375q-2.578125 0 -4.203125 -1.6875q-1.609375 -1.703125 -1.609375 -4.53125l0 -0.40625q0 -1.890625 0.71875 -3.359375q0.71875 -1.484375 2.015625 -2.328125q1.296875 -0.84375 2.8125 -0.84375q2.46875 0 3.828125 1.640625q1.375 1.625 1.375 4.65625l0 0.90625l-8.578125 0q0.046875 1.875 1.09375 3.03125q1.046875 1.15625 2.65625 1.15625q1.15625 0 1.953125 -0.46875q0.796875 -0.46875 1.390625 -1.25l1.328125 1.03125q-1.59375 2.453125 -4.78125 2.453125zm-0.265625 -11.375q-1.3125 0 -2.203125 0.96875q-0.890625 0.953125 -1.109375 2.671875l6.359375 0l0 -0.171875q-0.09375 -1.640625 -0.890625 -2.546875q-0.796875 -0.921875 -2.15625 -0.921875zm13.839844 0.40625q-0.484375 -0.078125 -1.0625 -0.078125q-2.125 0 -2.890625 1.8125l0 9.0l-2.171875 0l0 -12.6875l2.109375 0l0.03125 1.46875q1.078125 -1.703125 3.03125 -1.703125q0.625 0 0.953125 0.171875l0 2.015625zm7.0390625 10.96875q-2.578125 0 -4.203125 -1.6875q-1.609375 -1.703125 -1.609375 -4.53125l0 -0.40625q0 -1.890625 0.71875 -3.359375q0.71875 -1.484375 2.015625 -2.328125q1.296875 -0.84375 2.8125 -0.84375q2.46875 0 3.828125 1.640625q1.375 1.625 1.375 4.65625l0 0.90625l-8.578125 0q0.046875 1.875 1.09375 3.03125q1.046875 1.15625 2.65625 1.15625q1.15625 0 1.953125 -0.46875q0.796875 -0.46875 1.390625 -1.25l1.328125 1.03125q-1.59375 2.453125 -4.78125 2.453125zm-0.265625 -11.375q-1.3125 0 -2.203125 0.96875q-0.890625 0.953125 -1.109375 2.671875l6.359375 0l0 -0.171875q-0.09375 -1.640625 -0.890625 -2.546875q-0.796875 -0.921875 -2.15625 -0.921875zm7.7617188 10.0q0 -0.5625 0.328125 -0.9375q0.34375 -0.375 1.0 -0.375q0.671875 0 1.015625 0.375q0.359375 0.375 0.359375 0.9375q0 0.546875 -0.359375 0.90625q-0.34375 0.359375 -1.015625 0.359375q-0.65625 0 -1.0 -0.359375q-0.328125 -0.359375 -0.328125 -0.90625z" fill-rule="nonzero"/></g></svg>