<svg version="1.1" viewBox="0.0 0.0 980.7900262467192 693.5695538057743" fill="none" stroke="none" stroke-linecap="square" stroke-miterlimit="10" xmlns:xlink="http://www.w3.org/1999/xlink" xmlns="http://www.w3.org/2000/svg"><clipPath id="p.0"><path d="m0 0l980.79004 0l0 693.5696l-980.79004 0l0 -693.5696z" clip-rule="nonzero"/></clipPath><g clip-path="url(#p.0)"><path fill="#000000" fill-opacity="0.0" d="m0 0l980.79004 0l0 693.5696l-980.79004 0z" fill-rule="evenodd"/><path fill="#736b5c" d="m134.65816 -24.010187l46.818893 0l0 46.818897l46.818893 0l0 46.8189l-93.63779 0z" fill-rule="evenodd"/><path fill="#958aa6" d="m470.63925 271.23557l-93.60632 0l0 -93.60628l93.60632 0z" fill-rule="evenodd"/><path fill="#000000" fill-opacity="0.0" d="m470.63925 271.23557l-98.834656 0" fill-rule="evenodd"/><path stroke="#0d080b" stroke-width="12.0" stroke-linejoin="round" stroke-linecap="butt" d="m470.63925 271.23557l-98.834656 0" fill-rule="evenodd"/><path fill="#000000" fill-opacity="0.0" d="m377.70105 277.2262l0 -99.46457" fill-rule="evenodd"/><path stroke="#0d080b" stroke-width="12.0" stroke-linejoin="round" stroke-linecap="butt" d="m377.70105 277.2262l0 -99.46457" fill-rule="evenodd"/><path fill="#736b5c" d="m491.70276 384.6006l46.80316 0l0 93.63779l-46.80316 0z" fill-rule="evenodd"/><path fill="#958aa6" d="m377.6006 93.126564l0 -93.60629l93.60629 0l0 93.60629z" fill-rule="evenodd"/><path fill="#000000" fill-opacity="0.0" d="m377.6006 93.126564l0 -93.68469" fill-rule="evenodd"/><path stroke="#0d080b" stroke-width="12.0" stroke-linejoin="round" stroke-linecap="butt" d="m377.6006 93.126564l0 -93.68469" fill-rule="evenodd"/><path fill="#736b5c" d="m363.4761 69.72021l0 -46.803154l20.0 0l0 46.803154z" fill-rule="evenodd"/><path fill="#958aa6" d="m724.0146 -31.565811l93.60626 0l0 93.6063l-93.60626 0z" fill-rule="evenodd"/><path fill="#000000" fill-opacity="0.0" d="m724.0146 -31.565811l98.834595 0" fill-rule="evenodd"/><path stroke="#0d080b" stroke-width="12.0" stroke-linejoin="round" stroke-linecap="butt" d="m724.0146 -31.565811l98.834595 0" fill-rule="evenodd"/><path fill="#000000" fill-opacity="0.0" d="m816.95276 -37.55643l0 99.46457" fill-rule="evenodd"/><path stroke="#0d080b" stroke-width="12.0" stroke-linejoin="round" stroke-linecap="butt" d="m816.95276 -37.55643l0 99.46457" fill-rule="evenodd"/><path fill="#958aa6" d="m377.56888 186.19753l0 -93.6378l93.63779 0l0 93.6378z" fill-rule="evenodd"/><path fill="#000000" fill-opacity="0.0" d="m377.56888 186.19753l0 -93.6378" fill-rule="evenodd"/><path stroke="#0d080b" stroke-width="12.0" stroke-linejoin="round" stroke-linecap="butt" d="m377.56888 186.19753l0 -93.6378" fill-rule="evenodd"/><path fill="#958aa6" d="m563.67975 92.54211l0 93.6063l-93.60632 0l0 -93.6063z" fill-rule="evenodd"/><path fill="#000000" fill-opacity="0.0" d="m563.67975 92.54211l0 93.66929" fill-rule="evenodd"/><path stroke="#0d080b" stroke-width="12.0" stroke-linejoin="round" stroke-linecap="butt" d="m563.67975 92.54211l0 93.66929" fill-rule="evenodd"/><path fill="#736b5c" d="m577.8042 115.94847l0 46.803146l-20.0 0l0 -46.803146z" fill-rule="evenodd"/><path fill="#736b5c" d="m652.12335 307.72656l0 46.80316l-93.63782 0l0 -46.80316z" fill-rule="evenodd"/><path fill="#736b5c" d="m275.29007 233.31003l46.80313 0l0 93.63779l-46.80313 0z" fill-rule="evenodd"/><path fill="#736b5c" d="m772.74805 209.61371l-46.81891 0l0 -46.818893l-46.81891 0l0 -46.818893l93.63782 0z" fill-rule="evenodd"/><path fill="#736b5c" d="m459.6404 498.5691l0 46.80316l-93.63779 0l0 -46.80316z" fill-rule="evenodd"/><path fill="#736b5c" d="m389.22046 498.5691l0 46.80316l-93.63779 0l0 -46.80316z" fill-rule="evenodd"/><path fill="#736b5c" d="m444.88388 545.373l0 -46.81888l46.81888 0l0 -46.81888l46.81891 0l0 93.63776z" fill-rule="evenodd"/><path fill="#736b5c" d="m322.09448 498.5691l0 46.81891l-46.81888 0l0 46.81891l-46.81891 0l0 -93.63782z" fill-rule="evenodd"/><path fill="#736b5c" d="m228.4567 572.0048l46.80316 0l0 93.63776l-46.80316 0z" fill-rule="evenodd"/><path fill="#736b5c" d="m228.4567 616.38275l46.80316 0l0 93.63782l-46.80316 0z" fill-rule="evenodd"/><path fill="#736b5c" d="m845.91077 525.0431l0 -46.80316l93.63782 0l0 46.80316z" fill-rule="evenodd"/><path fill="#736b5c" d="m775.42255 525.0431l0 -46.80316l93.63782 0l0 46.80316z" fill-rule="evenodd"/><path fill="#736b5c" d="m706.81885 431.31815l46.81891 0l0 46.81888l46.818848 0l0 46.81891l-93.63776 0z" fill-rule="evenodd"/><path fill="#736b5c" d="m585.3412 307.72656l0 46.81891l-46.818848 0l0 46.81891l-46.81894 0l0 -93.63782z" fill-rule="evenodd"/><path fill="#736b5c" d="m663.30707 115.97592l0 46.803146l-93.63776 0l0 -46.803146z" fill-rule="evenodd"/><path fill="#736b5c" d="m228.45541 392.20505l0 -46.81891l46.81891 0l0 -46.81891l46.81888 0l0 93.63782z" fill-rule="evenodd"/><path fill="#736b5c" d="m253.13521 345.40112l0 46.80313l-93.6378 0l0 -46.80313z" fill-rule="evenodd"/><path fill="#736b5c" d="m165.26906 345.40112l0 46.80313l-93.637794 0l0 -46.80313z" fill-rule="evenodd"/><path fill="#958aa6" d="m563.7112 -0.53412205l0 93.637794l-93.63779 0l0 -93.637794z" fill-rule="evenodd"/><path fill="#000000" fill-opacity="0.0" d="m563.7112 -0.53412205l0 93.637794" fill-rule="evenodd"/><path stroke="#0d080b" stroke-width="12.0" stroke-linejoin="round" stroke-linecap="butt" d="m563.7112 -0.53412205l0 93.637794" fill-rule="evenodd"/><path fill="#958aa6" d="m563.6781 178.39156l0 93.60631l-93.60632 0l0 -93.60631z" fill-rule="evenodd"/><path fill="#000000" fill-opacity="0.0" d="m563.6781 178.39156l0 98.83464" fill-rule="evenodd"/><path stroke="#0d080b" stroke-width="12.0" stroke-linejoin="round" stroke-linecap="butt" d="m563.6781 178.39156l0 98.83464" fill-rule="evenodd"/><path fill="#000000" fill-opacity="0.0" d="m569.6687 271.32974l-99.46457 0" fill-rule="evenodd"/><path stroke="#0d080b" stroke-width="12.0" stroke-linejoin="round" stroke-linecap="butt" d="m569.6687 271.32974l-99.46457 0" fill-rule="evenodd"/><path fill="#958aa6" d="m638.4088 61.278774l0 -93.6063l93.60632 0l0 93.6063z" fill-rule="evenodd"/><path fill="#000000" fill-opacity="0.0" d="m638.4088 61.278774l0 -98.83464" fill-rule="evenodd"/><path stroke="#0d080b" stroke-width="12.0" stroke-linejoin="round" stroke-linecap="butt" d="m638.4088 61.278774l0 -98.83464" fill-rule="evenodd"/><path fill="#000000" fill-opacity="0.0" d="m632.4182 -31.659416l99.46454 0" fill-rule="evenodd"/><path stroke="#0d080b" stroke-width="12.0" stroke-linejoin="round" stroke-linecap="butt" d="m632.4182 -31.659416l99.46454 0" fill-rule="evenodd"/><path fill="#958aa6" d="m731.25287 97.30708l-93.60632 0l0 -93.60629l93.60632 0z" fill-rule="evenodd"/><path fill="#000000" fill-opacity="0.0" d="m731.25287 97.30708l-98.834656 0" fill-rule="evenodd"/><path stroke="#0d080b" stroke-width="12.0" stroke-linejoin="round" stroke-linecap="butt" d="m731.25287 97.30708l-98.834656 0" fill-rule="evenodd"/><path fill="#000000" fill-opacity="0.0" d="m638.31464 103.29771l0 -99.46457" fill-rule="evenodd"/><path stroke="#0d080b" stroke-width="12.0" stroke-linejoin="round" stroke-linecap="butt" d="m638.31464 103.29771l0 -99.46457" fill-rule="evenodd"/><path fill="#958aa6" d="m816.8586 4.462502l0 93.6063l-93.60626 0l0 -93.6063z" fill-rule="evenodd"/><path fill="#000000" fill-opacity="0.0" d="m816.8586 4.462502l0 98.83465" fill-rule="evenodd"/><path stroke="#0d080b" stroke-width="12.0" stroke-linejoin="round" stroke-linecap="butt" d="m816.8586 4.462502l0 98.83465" fill-rule="evenodd"/><path fill="#000000" fill-opacity="0.0" d="m822.8492 97.400696l-99.46454 0" fill-rule="evenodd"/><path stroke="#0d080b" stroke-width="12.0" stroke-linejoin="round" stroke-linecap="butt" d="m822.8492 97.400696l-99.46454 0" fill-rule="evenodd"/><path fill="#736b5c" d="m297.2546 22.82433l0 46.80315l-93.63782 0l0 -46.80315z" fill-rule="evenodd"/><path fill="#736b5c" d="m368.7651 22.82433l0 46.80315l-93.63782 0l0 -46.80315z" fill-rule="evenodd"/><path fill="#958aa6" d="m377.6006 245.12657l0 -93.60631l93.60629 0l0 93.60631z" fill-rule="evenodd"/><path fill="#000000" fill-opacity="0.0" d="m377.6006 245.12657l0 -93.6693" fill-rule="evenodd"/><path stroke="#0d080b" stroke-width="12.0" stroke-linejoin="round" stroke-linecap="butt" d="m377.6006 245.12657l0 -93.6693" fill-rule="evenodd"/><path fill="#736b5c" d="m363.4761 221.7202l0 -46.803146l20.0 0l0 46.803146z" fill-rule="evenodd"/><path fill="#736b5c" d="m368.76642 174.72856l0 46.818893l-46.81891 0l0 46.81891l-46.81891 0l0 -93.6378z" fill-rule="evenodd"/><path fill="#736b5c" d="m77.26906 345.40112l0 46.80313l-93.637794 0l0 -46.80313z" fill-rule="evenodd"/><path fill="#736b5c" d="m742.87665 115.97592l0 46.803146l-93.63782 0l0 -46.803146z" fill-rule="evenodd"/><path fill="#958aa6" d="m658.08435 358.18616l0 -93.63779l93.63782 0l0 93.63779z" fill-rule="evenodd"/><path fill="#000000" fill-opacity="0.0" d="m658.08435 358.18616l0 -93.63779" fill-rule="evenodd"/><path stroke="#0d080b" stroke-width="12.0" stroke-linejoin="round" stroke-linecap="butt" d="m658.08435 358.18616l0 -93.63779" fill-rule="evenodd"/><path fill="#958aa6" d="m658.1141 315.77484l0 -93.60631l93.60626 0l0 93.60631z" fill-rule="evenodd"/><path fill="#000000" fill-opacity="0.0" d="m658.1141 315.77484l0 -98.834656" fill-rule="evenodd"/><path stroke="#0d080b" stroke-width="12.0" stroke-linejoin="round" stroke-linecap="butt" d="m658.1141 315.77484l0 -98.834656" fill-rule="evenodd"/><path fill="#000000" fill-opacity="0.0" d="m652.1234 222.83665l99.4646 0" fill-rule="evenodd"/><path stroke="#0d080b" stroke-width="12.0" stroke-linejoin="round" stroke-linecap="butt" d="m652.1234 222.83665l99.4646 0" fill-rule="evenodd"/><path fill="#958aa6" d="m750.95807 431.80316l-93.60626 0l0 -93.60632l93.60626 0z" fill-rule="evenodd"/><path fill="#000000" fill-opacity="0.0" d="m750.95807 431.80316l-98.834656 0" fill-rule="evenodd"/><path stroke="#0d080b" stroke-width="12.0" stroke-linejoin="round" stroke-linecap="butt" d="m750.95807 431.80316l-98.834656 0" fill-rule="evenodd"/><path fill="#000000" fill-opacity="0.0" d="m658.0199 437.79376l0 -99.46457" fill-rule="evenodd"/><path stroke="#0d080b" stroke-width="12.0" stroke-linejoin="round" stroke-linecap="butt" d="m658.0199 437.79376l0 -99.46457" fill-rule="evenodd"/><path fill="#958aa6" d="m831.3833 296.5491l0 93.63782l-93.63782 0l0 -93.63782z" fill-rule="evenodd"/><path fill="#000000" fill-opacity="0.0" d="m831.3833 296.5491l0 93.63782" fill-rule="evenodd"/><path stroke="#0d080b" stroke-width="12.0" stroke-linejoin="round" stroke-linecap="butt" d="m831.3833 296.5491l0 93.63782" fill-rule="evenodd"/><path fill="#958aa6" d="m831.3536 338.96045l0 93.60629l-93.60626 0l0 -93.60629z" fill-rule="evenodd"/><path fill="#000000" fill-opacity="0.0" d="m831.3536 338.96045l0 98.834625" fill-rule="evenodd"/><path stroke="#0d080b" stroke-width="12.0" stroke-linejoin="round" stroke-linecap="butt" d="m831.3536 338.96045l0 98.834625" fill-rule="evenodd"/><path fill="#000000" fill-opacity="0.0" d="m837.34424 431.89862l-99.4646 0" fill-rule="evenodd"/><path stroke="#0d080b" stroke-width="12.0" stroke-linejoin="round" stroke-linecap="butt" d="m837.34424 431.89862l-99.4646 0" fill-rule="evenodd"/><path fill="#958aa6" d="m738.5096 222.93213l93.60626 0l0 93.60629l-93.60626 0z" fill-rule="evenodd"/><path fill="#000000" fill-opacity="0.0" d="m738.5096 222.93213l98.834656 0" fill-rule="evenodd"/><path stroke="#0d080b" stroke-width="12.0" stroke-linejoin="round" stroke-linecap="butt" d="m738.5096 222.93213l98.834656 0" fill-rule="evenodd"/><path fill="#000000" fill-opacity="0.0" d="m831.44775 216.9415l0 99.46457" fill-rule="evenodd"/><path stroke="#0d080b" stroke-width="12.0" stroke-linejoin="round" stroke-linecap="butt" d="m831.44775 216.9415l0 99.46457" fill-rule="evenodd"/><path fill="#958aa6" d="m702.7088 223.06413l93.60632 0l0 93.60631l-93.60632 0z" fill-rule="evenodd"/><path fill="#000000" fill-opacity="0.0" d="m702.7088 223.06413l93.66931 0" fill-rule="evenodd"/><path stroke="#0d080b" stroke-width="12.0" stroke-linejoin="round" stroke-linecap="butt" d="m702.7088 223.06413l93.66931 0" fill-rule="evenodd"/><path fill="#736b5c" d="m726.1152 208.93965l46.80316 0l0 20.0l-46.80316 0z" fill-rule="evenodd"/><path fill="#958aa6" d="m658.11487 377.96252l0 -93.60629l93.60632 0l0 93.60629z" fill-rule="evenodd"/><path fill="#000000" fill-opacity="0.0" d="m658.11487 377.96252l0 -93.66928" fill-rule="evenodd"/><path stroke="#0d080b" stroke-width="12.0" stroke-linejoin="round" stroke-linecap="butt" d="m658.11487 377.96252l0 -93.66928" fill-rule="evenodd"/><path fill="#736b5c" d="m643.9904 354.55615l0 -46.80313l20.0 0l0 46.80313z" fill-rule="evenodd"/><path fill="#958aa6" d="m777.1511 431.67194l-93.60632 0l0 -93.60629l93.60632 0z" fill-rule="evenodd"/><path fill="#000000" fill-opacity="0.0" d="m777.1511 431.67194l-93.66931 0" fill-rule="evenodd"/><path stroke="#0d080b" stroke-width="12.0" stroke-linejoin="round" stroke-linecap="butt" d="m777.1511 431.67194l-93.66931 0" fill-rule="evenodd"/><path fill="#736b5c" d="m753.74475 445.79642l-46.80316 0l0 -20.0l46.80316 0z" fill-rule="evenodd"/><path fill="#958aa6" d="m1033.4476 434.11783l93.60632 0l0 93.60629l-93.60632 0z" fill-rule="evenodd"/><path fill="#000000" fill-opacity="0.0" d="m1033.4476 434.11783l98.834595 0" fill-rule="evenodd"/><path stroke="#0d080b" stroke-width="12.0" stroke-linejoin="round" stroke-linecap="butt" d="m1033.4476 434.11783l98.834595 0" fill-rule="evenodd"/><path fill="#000000" fill-opacity="0.0" d="m1126.3859 428.1272l0 99.4646" fill-rule="evenodd"/><path stroke="#0d080b" stroke-width="12.0" stroke-linejoin="round" stroke-linecap="butt" d="m1126.3859 428.1272l0 99.4646" fill-rule="evenodd"/><path fill="#958aa6" d="m947.8419 526.9624l0 -93.60629l93.60632 0l0 93.60629z" fill-rule="evenodd"/><path fill="#000000" fill-opacity="0.0" d="m947.8419 526.9624l0 -98.834656" fill-rule="evenodd"/><path stroke="#0d080b" stroke-width="12.0" stroke-linejoin="round" stroke-linecap="butt" d="m947.8419 526.9624l0 -98.834656" fill-rule="evenodd"/><path fill="#000000" fill-opacity="0.0" d="m941.85126 434.0242l99.46454 0" fill-rule="evenodd"/><path stroke="#0d080b" stroke-width="12.0" stroke-linejoin="round" stroke-linecap="butt" d="m941.85126 434.0242l99.46454 0" fill-rule="evenodd"/><path fill="#958aa6" d="m1040.6859 562.9907l-93.60626 0l0 -93.60629l93.60626 0z" fill-rule="evenodd"/><path fill="#000000" fill-opacity="0.0" d="m1040.6859 562.9907l-98.834656 0" fill-rule="evenodd"/><path stroke="#0d080b" stroke-width="12.0" stroke-linejoin="round" stroke-linecap="butt" d="m1040.6859 562.9907l-98.834656 0" fill-rule="evenodd"/><path fill="#000000" fill-opacity="0.0" d="m947.74774 568.9813l0 -99.46454" fill-rule="evenodd"/><path stroke="#0d080b" stroke-width="12.0" stroke-linejoin="round" stroke-linecap="butt" d="m947.74774 568.9813l0 -99.46454" fill-rule="evenodd"/><path fill="#958aa6" d="m1126.2916 470.14612l0 93.60632l-93.60632 0l0 -93.60632z" fill-rule="evenodd"/><path fill="#000000" fill-opacity="0.0" d="m1126.2916 470.14612l0 98.834656" fill-rule="evenodd"/><path stroke="#0d080b" stroke-width="12.0" stroke-linejoin="round" stroke-linecap="butt" d="m1126.2916 470.14612l0 98.834656" fill-rule="evenodd"/><path fill="#000000" fill-opacity="0.0" d="m1132.2822 563.08435l-99.46448 0" fill-rule="evenodd"/><path stroke="#0d080b" stroke-width="12.0" stroke-linejoin="round" stroke-linecap="butt" d="m1132.2822 563.08435l-99.46448 0" fill-rule="evenodd"/><path fill="#958aa6" d="m948.21277 548.47424l0 -93.60629l93.60632 0l0 93.60629z" fill-rule="evenodd"/><path fill="#000000" fill-opacity="0.0" d="m948.21277 548.47424l0 -93.66928" fill-rule="evenodd"/><path stroke="#0d080b" stroke-width="12.0" stroke-linejoin="round" stroke-linecap="butt" d="m948.21277 548.47424l0 -93.66928" fill-rule="evenodd"/><path fill="#736b5c" d="m934.08826 525.0679l0 -46.80313l20.0 0l0 46.80313z" fill-rule="evenodd"/></g></svg>