<svg version="1.1" viewBox="0.0 0.0 978.7585301837271 520.9055118110236" fill="none" stroke="none" stroke-linecap="square" stroke-miterlimit="10" xmlns:xlink="http://www.w3.org/1999/xlink" xmlns="http://www.w3.org/2000/svg"><clipPath id="p.0"><path d="m0 0l978.75854 0l0 520.9055l-978.75854 0l0 -520.9055z" clip-rule="nonzero"/></clipPath><g clip-path="url(#p.0)"><path fill="#000000" fill-opacity="0.0" d="m0 0l978.75854 0l0 520.9055l-978.75854 0z" fill-rule="evenodd"/><path fill="#736b5c" d="m41.923885 15.411616l46.818897 0l0 46.818897l46.818893 0l0 46.818893l-93.63779 0z" fill-rule="evenodd"/><path fill="#958aa6" d="m170.69911 349.0284l93.6378 0l0 93.63779l-93.6378 0z" fill-rule="evenodd"/><path fill="#958aa6" d="m374.93845 294.55905l-93.60629 0l0 -93.60629l93.60629 0z" fill-rule="evenodd"/><path fill="#000000" fill-opacity="0.0" d="m374.93845 294.55905l-98.834656 0" fill-rule="evenodd"/><path stroke="#0d080b" stroke-width="12.0" stroke-linejoin="round" stroke-linecap="butt" d="m374.93845 294.55905l-98.834656 0" fill-rule="evenodd"/><path fill="#000000" fill-opacity="0.0" d="m282.00027 300.54968l0 -99.46457" fill-rule="evenodd"/><path stroke="#0d080b" stroke-width="12.0" stroke-linejoin="round" stroke-linecap="butt" d="m282.00027 300.54968l0 -99.46457" fill-rule="evenodd"/><path fill="#736b5c" d="m480.0 394.81583l46.80316 0l0 93.63779l-46.80316 0z" fill-rule="evenodd"/><path fill="#958aa6" d="m135.58542 317.28873l-93.60629 0l0 -93.60631l93.60629 0z" fill-rule="evenodd"/><path fill="#000000" fill-opacity="0.0" d="m135.58542 317.28873l-93.68469 0" fill-rule="evenodd"/><path stroke="#0d080b" stroke-width="12.0" stroke-linejoin="round" stroke-linecap="butt" d="m135.58542 317.28873l-93.68469 0" fill-rule="evenodd"/><path fill="#736b5c" d="m112.17906 331.41318l-46.803154 0l0 -20.0l46.803154 0z" fill-rule="evenodd"/><path fill="#958aa6" d="m793.4393 376.20425l93.63782 0l0 93.63782l-93.63782 0z" fill-rule="evenodd"/><path fill="#958aa6" d="m797.403 29.489307l93.60632 0l0 93.60629l-93.60632 0z" fill-rule="evenodd"/><path fill="#000000" fill-opacity="0.0" d="m797.403 29.489307l98.834656 0" fill-rule="evenodd"/><path stroke="#0d080b" stroke-width="12.0" stroke-linejoin="round" stroke-linecap="butt" d="m797.403 29.489307l98.834656 0" fill-rule="evenodd"/><path fill="#000000" fill-opacity="0.0" d="m890.3412 23.498688l0 99.46457" fill-rule="evenodd"/><path stroke="#0d080b" stroke-width="12.0" stroke-linejoin="round" stroke-linecap="butt" d="m890.3412 23.498688l0 99.46457" fill-rule="evenodd"/><path fill="#958aa6" d="m339.5445 371.44208l93.63779 0l0 93.63779l-93.63779 0z" fill-rule="evenodd"/><path fill="#000000" fill-opacity="0.0" d="m339.5445 371.44208l93.63779 0" fill-rule="evenodd"/><path stroke="#0d080b" stroke-width="12.0" stroke-linejoin="round" stroke-linecap="butt" d="m339.5445 371.44208l93.63779 0" fill-rule="evenodd"/><path fill="#958aa6" d="m858.6755 148.42737l93.63782 0l0 93.63779l-93.63782 0z" fill-rule="evenodd"/><path fill="#958aa6" d="m652.02826 379.70923l0 -93.60629l93.60626 0l0 93.60629z" fill-rule="evenodd"/><path fill="#000000" fill-opacity="0.0" d="m652.02826 379.70923l0 -98.834656" fill-rule="evenodd"/><path stroke="#0d080b" stroke-width="12.0" stroke-linejoin="round" stroke-linecap="butt" d="m652.02826 379.70923l0 -98.834656" fill-rule="evenodd"/><path fill="#000000" fill-opacity="0.0" d="m646.0376 286.77103l99.4646 0" fill-rule="evenodd"/><path stroke="#0d080b" stroke-width="12.0" stroke-linejoin="round" stroke-linecap="butt" d="m646.0376 286.77103l99.4646 0" fill-rule="evenodd"/><path fill="#958aa6" d="m463.67047 223.68353l93.63782 0l0 93.63779l-93.63782 0z" fill-rule="evenodd"/><path fill="#000000" fill-opacity="0.0" d="m463.67047 223.68353l93.63782 0" fill-rule="evenodd"/><path stroke="#0d080b" stroke-width="12.0" stroke-linejoin="round" stroke-linecap="butt" d="m463.67047 223.68353l93.63782 0" fill-rule="evenodd"/><path fill="#958aa6" d="m616.32666 81.64492l0 93.6063l-93.60626 0l0 -93.6063z" fill-rule="evenodd"/><path fill="#000000" fill-opacity="0.0" d="m616.32666 81.64492l0 93.66929" fill-rule="evenodd"/><path stroke="#0d080b" stroke-width="12.0" stroke-linejoin="round" stroke-linecap="butt" d="m616.32666 81.64492l0 93.66929" fill-rule="evenodd"/><path fill="#736b5c" d="m630.4512 105.05128l0 46.803154l-20.0 0l0 -46.803154z" fill-rule="evenodd"/><path fill="#736b5c" d="m908.49603 294.77908l0 46.80313l-93.63776 0l0 -46.80313z" fill-rule="evenodd"/><path fill="#736b5c" d="m688.4252 81.66096l46.80316 0l0 93.637794l-46.80316 0z" fill-rule="evenodd"/><path fill="#736b5c" d="m143.61942 394.81583l0 46.81888l-46.818893 0l0 46.81891l-46.818893 0l0 -93.63779z" fill-rule="evenodd"/><path fill="#736b5c" d="m264.33597 194.7292l-46.81891 0l0 -46.818893l-46.818893 0l0 -46.8189l93.6378 0z" fill-rule="evenodd"/><path fill="#736b5c" d="m461.36484 57.800068l0 46.80315l-93.63782 0l0 -46.80315z" fill-rule="evenodd"/></g></svg>