<svg version="1.1" viewBox="0.0 0.0 980.7900262467192 693.5695538057743" fill="none" stroke="none" stroke-linecap="square" stroke-miterlimit="10" xmlns:xlink="http://www.w3.org/1999/xlink" xmlns="http://www.w3.org/2000/svg"><clipPath id="p.0"><path d="m0 0l980.79004 0l0 693.5696l-980.79004 0l0 -693.5696z" clip-rule="nonzero"/></clipPath><g clip-path="url(#p.0)"><path fill="#000000" fill-opacity="0.0" d="m0 0l980.79004 0l0 693.5696l-980.79004 0z" fill-rule="evenodd"/><path fill="#736b5c" d="m96.631905 0.44848976l46.8189 0l0 46.818897l46.818893 0l0 46.8189l-93.637794 0z" fill-rule="evenodd"/><path fill="#958aa6" d="m408.36316 592.7738l93.63779 0l0 93.63782l-93.63779 0z" fill-rule="evenodd"/><path fill="#958aa6" d="m810.3012 129.08717l0 -93.6063l93.60632 0l0 93.6063z" fill-rule="evenodd"/><path fill="#000000" fill-opacity="0.0" d="m810.3012 129.08717l0 -98.83465" fill-rule="evenodd"/><path stroke="#0d080b" stroke-width="12.0" stroke-linejoin="round" stroke-linecap="butt" d="m810.3012 129.08717l0 -98.83465" fill-rule="evenodd"/><path fill="#000000" fill-opacity="0.0" d="m804.3106 36.148983l99.46454 0" fill-rule="evenodd"/><path stroke="#0d080b" stroke-width="12.0" stroke-linejoin="round" stroke-linecap="butt" d="m804.3106 36.148983l99.46454 0" fill-rule="evenodd"/><path fill="#958aa6" d="m303.77808 313.18222l93.63779 0l0 93.63779l-93.63779 0z" fill-rule="evenodd"/><path fill="#000000" fill-opacity="0.0" d="m303.77808 313.18222l93.63779 0" fill-rule="evenodd"/><path stroke="#0d080b" stroke-width="12.0" stroke-linejoin="round" stroke-linecap="butt" d="m303.77808 313.18222l93.63779 0" fill-rule="evenodd"/><path fill="#736b5c" d="m480.0 385.1675l46.80316 0l0 93.63782l-46.80316 0z" fill-rule="evenodd"/><path fill="#958aa6" d="m79.00741 289.86917l0 -93.60631l93.6063 0l0 93.60631z" fill-rule="evenodd"/><path fill="#000000" fill-opacity="0.0" d="m79.00741 289.86917l0 -93.68471" fill-rule="evenodd"/><path stroke="#0d080b" stroke-width="12.0" stroke-linejoin="round" stroke-linecap="butt" d="m79.00741 289.86917l0 -93.68471" fill-rule="evenodd"/><path fill="#736b5c" d="m64.882935 266.4628l0 -46.80316l20.0 0l0 46.80316z" fill-rule="evenodd"/><path fill="#958aa6" d="m633.58887 543.6321l93.63782 0l0 93.63782l-93.63782 0z" fill-rule="evenodd"/><path fill="#958aa6" d="m585.1563 18.056236l93.60626 0l0 93.6063l-93.60626 0z" fill-rule="evenodd"/><path fill="#000000" fill-opacity="0.0" d="m585.1563 18.056236l98.834656 0" fill-rule="evenodd"/><path stroke="#0d080b" stroke-width="12.0" stroke-linejoin="round" stroke-linecap="butt" d="m585.1563 18.056236l98.834656 0" fill-rule="evenodd"/><path fill="#000000" fill-opacity="0.0" d="m678.0945 12.065617l0 99.46457" fill-rule="evenodd"/><path stroke="#0d080b" stroke-width="12.0" stroke-linejoin="round" stroke-linecap="butt" d="m678.0945 12.065617l0 99.46457" fill-rule="evenodd"/><path fill="#958aa6" d="m177.20853 421.05887l0 93.63779l-93.637794 0l0 -93.63779z" fill-rule="evenodd"/><path fill="#000000" fill-opacity="0.0" d="m177.20853 421.05887l0 93.63779" fill-rule="evenodd"/><path stroke="#0d080b" stroke-width="12.0" stroke-linejoin="round" stroke-linecap="butt" d="m177.20853 421.05887l0 93.63779" fill-rule="evenodd"/><path fill="#958aa6" d="m699.57263 500.57086l-93.60626 0l0 -93.60629l93.60626 0z" fill-rule="evenodd"/><path fill="#000000" fill-opacity="0.0" d="m699.57263 500.57086l-93.66931 0" fill-rule="evenodd"/><path stroke="#0d080b" stroke-width="12.0" stroke-linejoin="round" stroke-linecap="butt" d="m699.57263 500.57086l-93.66931 0" fill-rule="evenodd"/><path fill="#736b5c" d="m676.16626 514.6954l-46.80316 0l0 -20.00003l46.80316 0z" fill-rule="evenodd"/><path fill="#958aa6" d="m819.686 556.20166l93.63782 0l0 93.63776l-93.63782 0z" fill-rule="evenodd"/><path fill="#958aa6" d="m801.65424 500.90344l0 -93.60629l93.60632 0l0 93.60629z" fill-rule="evenodd"/><path fill="#000000" fill-opacity="0.0" d="m801.65424 500.90344l0 -98.834656" fill-rule="evenodd"/><path stroke="#0d080b" stroke-width="12.0" stroke-linejoin="round" stroke-linecap="butt" d="m801.65424 500.90344l0 -98.834656" fill-rule="evenodd"/><path fill="#000000" fill-opacity="0.0" d="m795.66364 407.96527l99.46454 0" fill-rule="evenodd"/><path stroke="#0d080b" stroke-width="12.0" stroke-linejoin="round" stroke-linecap="butt" d="m795.66364 407.96527l99.46454 0" fill-rule="evenodd"/><path fill="#958aa6" d="m34.75971 577.4211l93.6378 0l0 93.63776l-93.6378 0z" fill-rule="evenodd"/><path fill="#000000" fill-opacity="0.0" d="m34.75971 577.4211l93.6378 0" fill-rule="evenodd"/><path stroke="#0d080b" stroke-width="12.0" stroke-linejoin="round" stroke-linecap="butt" d="m34.75971 577.4211l93.6378 0" fill-rule="evenodd"/><path fill="#958aa6" d="m694.95135 158.97826l0 93.60629l-93.60632 0l0 -93.60629z" fill-rule="evenodd"/><path fill="#000000" fill-opacity="0.0" d="m694.95135 158.97826l0 93.66928" fill-rule="evenodd"/><path stroke="#0d080b" stroke-width="12.0" stroke-linejoin="round" stroke-linecap="butt" d="m694.95135 158.97826l0 93.66928" fill-rule="evenodd"/><path fill="#736b5c" d="m709.0758 182.38461l0 46.803146l-20.0 0l0 -46.803146z" fill-rule="evenodd"/><path fill="#736b5c" d="m659.44617 299.96542l0 46.80316l-93.63776 0l0 -46.80316z" fill-rule="evenodd"/><path fill="#736b5c" d="m212.4252 217.31003l46.80313 0l0 93.63779l-46.80313 0z" fill-rule="evenodd"/><path fill="#736b5c" d="m573.6378 299.96542l0 46.81891l-46.81891 0l0 46.81888l-46.81891 0l0 -93.63779z" fill-rule="evenodd"/><path fill="#736b5c" d="m259.22833 140.81134l-46.81888 0l0 -46.8189l-46.81891 0l0 -46.8189l93.63779 0z" fill-rule="evenodd"/><path fill="#736b5c" d="m212.4252 132.81134l46.80313 0l0 93.63779l-46.80313 0z" fill-rule="evenodd"/><path fill="#736b5c" d="m447.3701 499.13602l0 46.80313l-93.63782 0l0 -46.80313z" fill-rule="evenodd"/><path fill="#736b5c" d="m376.95013 499.13602l0 46.80313l-93.63779 0l0 -46.80313z" fill-rule="evenodd"/><path fill="#736b5c" d="m433.1811 545.93994l0 -46.81891l46.81891 0l0 -46.81888l46.81891 0l0 93.63779z" fill-rule="evenodd"/><path fill="#736b5c" d="m309.82416 499.13602l0 46.81888l-46.81891 0l0 46.81891l-46.818893 0l0 -93.63779z" fill-rule="evenodd"/><path fill="#736b5c" d="m216.18636 572.5717l46.803146 0l0 93.63782l-46.803146 0z" fill-rule="evenodd"/><path fill="#736b5c" d="m216.18636 616.94965l46.803146 0l0 93.63782l-46.803146 0z" fill-rule="evenodd"/><path fill="#736b5c" d="m740.3018 299.96542l0 46.80316l-93.63776 0l0 -46.80316z" fill-rule="evenodd"/><path fill="#736b5c" d="m810.79004 299.96542l0 46.80316l-93.63782 0l0 -46.80316z" fill-rule="evenodd"/><path fill="#736b5c" d="m775.53284 346.76935l0 -46.81891l46.818848 0l0 -46.818893l46.81891 0l0 93.6378z" fill-rule="evenodd"/><path fill="#736b5c" d="m915.9921 196.2069l0 46.818893l-46.81891 0l0 46.81891l-46.81891 0l0 -93.6378z" fill-rule="evenodd"/><path fill="#736b5c" d="m993.853 196.2069l0 46.803146l-93.63782 0l0 -46.803146z" fill-rule="evenodd"/><path fill="#736b5c" d="m165.59055 376.20505l0 -46.81891l46.81891 0l0 -46.81891l46.81888 0l0 93.63782z" fill-rule="evenodd"/><path fill="#736b5c" d="m190.27034 329.40112l0 46.80313l-93.637794 0l0 -46.80313z" fill-rule="evenodd"/><path fill="#736b5c" d="m102.4042 329.40112l0 46.80313l-93.637794 0l0 -46.80313z" fill-rule="evenodd"/><path fill="#736b5c" d="m79.808395 329.40112l0 46.80313l-93.637794 0l0 -46.80313z" fill-rule="evenodd"/></g></svg>