<svg version="1.1" viewBox="0.0 0.0 976.8162729658793 582.0157480314961" fill="none" stroke="none" stroke-linecap="square" stroke-miterlimit="10" xmlns:xlink="http://www.w3.org/1999/xlink" xmlns="http://www.w3.org/2000/svg"><clipPath id="p.0"><path d="m0 0l976.8163 0l0 582.01575l-976.8163 0l0 -582.01575z" clip-rule="nonzero"/></clipPath><g clip-path="url(#p.0)"><path fill="#000000" fill-opacity="0.0" d="m0 0l976.8163 0l0 582.01575l-976.8163 0z" fill-rule="evenodd"/><path fill="#736b5c" d="m96.631905 0.44848976l46.8189 0l0 46.818897l46.818893 0l0 46.8189l-93.637794 0z" fill-rule="evenodd"/><path fill="#958aa6" d="m470.63925 271.23557l-93.60632 0l0 -93.60628l93.60632 0z" fill-rule="evenodd"/><path fill="#000000" fill-opacity="0.0" d="m470.63925 271.23557l-98.834656 0" fill-rule="evenodd"/><path stroke="#0d080b" stroke-width="12.0" stroke-linejoin="round" stroke-linecap="butt" d="m470.63925 271.23557l-98.834656 0" fill-rule="evenodd"/><path fill="#000000" fill-opacity="0.0" d="m377.70105 277.2262l0 -99.46457" fill-rule="evenodd"/><path stroke="#0d080b" stroke-width="12.0" stroke-linejoin="round" stroke-linecap="butt" d="m377.70105 277.2262l0 -99.46457" fill-rule="evenodd"/><path fill="#958aa6" d="m908.21643 416.95126l0 -93.63782l93.63776 0l0 93.63782z" fill-rule="evenodd"/><path fill="#000000" fill-opacity="0.0" d="m908.21643 416.95126l0 -93.63782" fill-rule="evenodd"/><path stroke="#0d080b" stroke-width="12.0" stroke-linejoin="round" stroke-linecap="butt" d="m908.21643 416.95126l0 -93.63782" fill-rule="evenodd"/><path fill="#736b5c" d="m480.0 385.1675l46.80316 0l0 93.63782l-46.80316 0z" fill-rule="evenodd"/><path fill="#958aa6" d="m377.6006 93.126564l0 -93.60629l93.60629 0l0 93.60629z" fill-rule="evenodd"/><path fill="#000000" fill-opacity="0.0" d="m377.6006 93.126564l0 -93.68469" fill-rule="evenodd"/><path stroke="#0d080b" stroke-width="12.0" stroke-linejoin="round" stroke-linecap="butt" d="m377.6006 93.126564l0 -93.68469" fill-rule="evenodd"/><path fill="#736b5c" d="m363.4761 69.72021l0 -46.803154l20.0 0l0 46.803154z" fill-rule="evenodd"/><path fill="#958aa6" d="m708.0146 40.43419l93.60626 0l0 93.60629l-93.60626 0z" fill-rule="evenodd"/><path fill="#000000" fill-opacity="0.0" d="m708.0146 40.43419l98.834595 0" fill-rule="evenodd"/><path stroke="#0d080b" stroke-width="12.0" stroke-linejoin="round" stroke-linecap="butt" d="m708.0146 40.43419l98.834595 0" fill-rule="evenodd"/><path fill="#000000" fill-opacity="0.0" d="m800.95276 34.44357l0 99.46457" fill-rule="evenodd"/><path stroke="#0d080b" stroke-width="12.0" stroke-linejoin="round" stroke-linecap="butt" d="m800.95276 34.44357l0 99.46457" fill-rule="evenodd"/><path fill="#958aa6" d="m377.56888 186.19753l0 -93.6378l93.63779 0l0 93.6378z" fill-rule="evenodd"/><path fill="#000000" fill-opacity="0.0" d="m377.56888 186.19753l0 -93.6378" fill-rule="evenodd"/><path stroke="#0d080b" stroke-width="12.0" stroke-linejoin="round" stroke-linecap="butt" d="m377.56888 186.19753l0 -93.6378" fill-rule="evenodd"/><path fill="#958aa6" d="m563.67975 92.54211l0 93.6063l-93.60632 0l0 -93.6063z" fill-rule="evenodd"/><path fill="#000000" fill-opacity="0.0" d="m563.67975 92.54211l0 93.66929" fill-rule="evenodd"/><path stroke="#0d080b" stroke-width="12.0" stroke-linejoin="round" stroke-linecap="butt" d="m563.67975 92.54211l0 93.66929" fill-rule="evenodd"/><path fill="#736b5c" d="m577.8042 115.94847l0 46.803146l-20.0 0l0 -46.803146z" fill-rule="evenodd"/><path fill="#736b5c" d="m659.44617 299.96542l0 46.80316l-93.63776 0l0 -46.80316z" fill-rule="evenodd"/><path fill="#736b5c" d="m212.4252 217.31003l46.80313 0l0 93.63779l-46.80313 0z" fill-rule="evenodd"/><path fill="#736b5c" d="m573.6378 299.96542l0 46.81891l-46.81891 0l0 46.81888l-46.81891 0l0 -93.63779z" fill-rule="evenodd"/><path fill="#736b5c" d="m259.22833 140.81134l-46.81888 0l0 -46.8189l-46.81891 0l0 -46.8189l93.63779 0z" fill-rule="evenodd"/><path fill="#736b5c" d="m212.4252 132.81134l46.80313 0l0 93.63779l-46.80313 0z" fill-rule="evenodd"/><path fill="#736b5c" d="m447.3701 499.13602l0 46.80313l-93.63782 0l0 -46.80313z" fill-rule="evenodd"/><path fill="#736b5c" d="m376.95013 499.13602l0 46.80313l-93.63779 0l0 -46.80313z" fill-rule="evenodd"/><path fill="#736b5c" d="m433.1811 545.93994l0 -46.81891l46.81891 0l0 -46.81888l46.81891 0l0 93.63779z" fill-rule="evenodd"/><path fill="#736b5c" d="m309.82416 499.13602l0 46.81888l-46.81891 0l0 46.81891l-46.818893 0l0 -93.63779z" fill-rule="evenodd"/><path fill="#736b5c" d="m740.3018 299.96542l0 46.80316l-93.63776 0l0 -46.80316z" fill-rule="evenodd"/><path fill="#736b5c" d="m810.79004 299.96542l0 46.80316l-93.63782 0l0 -46.80316z" fill-rule="evenodd"/><path fill="#736b5c" d="m775.53284 346.76935l0 -46.81891l46.818848 0l0 -46.818893l46.81891 0l0 93.6378z" fill-rule="evenodd"/><path fill="#736b5c" d="m915.9921 196.2069l0 46.818893l-46.81891 0l0 46.81891l-46.81891 0l0 -93.6378z" fill-rule="evenodd"/><path fill="#736b5c" d="m993.853 196.2069l0 46.803146l-93.63782 0l0 -46.803146z" fill-rule="evenodd"/><path fill="#736b5c" d="m165.59055 376.20505l0 -46.81891l46.81891 0l0 -46.81891l46.81888 0l0 93.63782z" fill-rule="evenodd"/><path fill="#736b5c" d="m190.27034 329.40112l0 46.80313l-93.637794 0l0 -46.80313z" fill-rule="evenodd"/><path fill="#736b5c" d="m102.4042 329.40112l0 46.80313l-93.637794 0l0 -46.80313z" fill-rule="evenodd"/><path fill="#736b5c" d="m79.808395 329.40112l0 46.80313l-93.637794 0l0 -46.80313z" fill-rule="evenodd"/><path fill="#958aa6" d="m563.7112 -0.53412205l0 93.637794l-93.63779 0l0 -93.637794z" fill-rule="evenodd"/><path fill="#000000" fill-opacity="0.0" d="m563.7112 -0.53412205l0 93.637794" fill-rule="evenodd"/><path stroke="#0d080b" stroke-width="12.0" stroke-linejoin="round" stroke-linecap="butt" d="m563.7112 -0.53412205l0 93.637794" fill-rule="evenodd"/><path fill="#958aa6" d="m563.6781 178.39156l0 93.60631l-93.60632 0l0 -93.60631z" fill-rule="evenodd"/><path fill="#000000" fill-opacity="0.0" d="m563.6781 178.39156l0 98.83464" fill-rule="evenodd"/><path stroke="#0d080b" stroke-width="12.0" stroke-linejoin="round" stroke-linecap="butt" d="m563.6781 178.39156l0 98.83464" fill-rule="evenodd"/><path fill="#000000" fill-opacity="0.0" d="m569.6687 271.32974l-99.46457 0" fill-rule="evenodd"/><path stroke="#0d080b" stroke-width="12.0" stroke-linejoin="round" stroke-linecap="butt" d="m569.6687 271.32974l-99.46457 0" fill-rule="evenodd"/><path fill="#958aa6" d="m622.4088 133.27878l0 -93.60631l93.60632 0l0 93.60631z" fill-rule="evenodd"/><path fill="#000000" fill-opacity="0.0" d="m622.4088 133.27878l0 -98.83465" fill-rule="evenodd"/><path stroke="#0d080b" stroke-width="12.0" stroke-linejoin="round" stroke-linecap="butt" d="m622.4088 133.27878l0 -98.83465" fill-rule="evenodd"/><path fill="#000000" fill-opacity="0.0" d="m616.4182 40.340584l99.46454 0" fill-rule="evenodd"/><path stroke="#0d080b" stroke-width="12.0" stroke-linejoin="round" stroke-linecap="butt" d="m616.4182 40.340584l99.46454 0" fill-rule="evenodd"/><path fill="#958aa6" d="m715.25287 169.30708l-93.60632 0l0 -93.60629l93.60632 0z" fill-rule="evenodd"/><path fill="#000000" fill-opacity="0.0" d="m715.25287 169.30708l-98.834656 0" fill-rule="evenodd"/><path stroke="#0d080b" stroke-width="12.0" stroke-linejoin="round" stroke-linecap="butt" d="m715.25287 169.30708l-98.834656 0" fill-rule="evenodd"/><path fill="#000000" fill-opacity="0.0" d="m622.31464 175.29771l0 -99.46458" fill-rule="evenodd"/><path stroke="#0d080b" stroke-width="12.0" stroke-linejoin="round" stroke-linecap="butt" d="m622.31464 175.29771l0 -99.46458" fill-rule="evenodd"/><path fill="#958aa6" d="m800.8586 76.4625l0 93.6063l-93.60626 0l0 -93.6063z" fill-rule="evenodd"/><path fill="#000000" fill-opacity="0.0" d="m800.8586 76.4625l0 98.83465" fill-rule="evenodd"/><path stroke="#0d080b" stroke-width="12.0" stroke-linejoin="round" stroke-linecap="butt" d="m800.8586 76.4625l0 98.83465" fill-rule="evenodd"/><path fill="#000000" fill-opacity="0.0" d="m806.8492 169.4007l-99.46454 0" fill-rule="evenodd"/><path stroke="#0d080b" stroke-width="12.0" stroke-linejoin="round" stroke-linecap="butt" d="m806.8492 169.4007l-99.46454 0" fill-rule="evenodd"/><path fill="#958aa6" d="m908.2461 374.53992l0 -93.60629l93.60632 0l0 93.60629z" fill-rule="evenodd"/><path fill="#000000" fill-opacity="0.0" d="m908.2461 374.53992l0 -98.834625" fill-rule="evenodd"/><path stroke="#0d080b" stroke-width="12.0" stroke-linejoin="round" stroke-linecap="butt" d="m908.2461 374.53992l0 -98.834625" fill-rule="evenodd"/><path fill="#000000" fill-opacity="0.0" d="m902.2555 281.60175l99.46454 0" fill-rule="evenodd"/><path stroke="#0d080b" stroke-width="12.0" stroke-linejoin="round" stroke-linecap="butt" d="m902.2555 281.60175l99.46454 0" fill-rule="evenodd"/><path fill="#958aa6" d="m1001.09015 490.56824l-93.60632 0l0 -93.60629l93.60632 0z" fill-rule="evenodd"/><path fill="#000000" fill-opacity="0.0" d="m1001.09015 490.56824l-98.834656 0" fill-rule="evenodd"/><path stroke="#0d080b" stroke-width="12.0" stroke-linejoin="round" stroke-linecap="butt" d="m1001.09015 490.56824l-98.834656 0" fill-rule="evenodd"/><path fill="#000000" fill-opacity="0.0" d="m908.1519 496.55887l0 -99.46457" fill-rule="evenodd"/><path stroke="#0d080b" stroke-width="12.0" stroke-linejoin="round" stroke-linecap="butt" d="m908.1519 496.55887l0 -99.46457" fill-rule="evenodd"/></g></svg>