<svg version="1.1" viewBox="0.0 0.0 776.0603674540682 591.4120734908137" fill="none" stroke="none" stroke-linecap="square" stroke-miterlimit="10" xmlns:xlink="http://www.w3.org/1999/xlink" xmlns="http://www.w3.org/2000/svg"><clipPath id="p.0"><path d="m0 0l776.06036 0l0 591.41205l-776.06036 0l0 -591.41205z" clip-rule="nonzero"/></clipPath><g clip-path="url(#p.0)"><path fill="#000000" fill-opacity="0.0" d="m0 0l776.06036 0l0 591.41205l-776.06036 0z" fill-rule="evenodd"/><path fill="#eee8d5" d="m32.422573 319.54462l207.2126 0l0 207.21259l-207.2126 0z" fill-rule="evenodd"/><path stroke="#586e75" stroke-width="1.0" stroke-linejoin="round" stroke-linecap="butt" d="m32.422573 319.54462l207.2126 0l0 207.21259l-207.2126 0z" fill-rule="evenodd"/><path fill="#000000" fill-opacity="0.0" d="m281.92154 144.00038l0 0c10.809143 -1.1819763 21.645111 1.9783478 30.124115 8.785782c8.479004 6.807419 13.906494 16.7043 15.08847 27.513443l-40.75589 4.4566803z" fill-rule="evenodd"/><path fill="#000000" fill-opacity="0.0" d="m281.92154 144.00038l0 0c10.809143 -1.1819763 21.645111 1.9783478 30.124115 8.785782c8.479004 6.807419 13.906494 16.7043 15.08847 27.513443" fill-rule="evenodd"/><path stroke="#586e75" stroke-width="2.0" stroke-linejoin="round" stroke-linecap="butt" d="m281.92154 144.00038l0 0c10.809143 -1.1819763 21.645111 1.9783478 30.124115 8.785782c8.479004 6.807419 13.906494 16.7043 15.08847 27.513443" fill-rule="evenodd"/><path fill="#000000" fill-opacity="0.0" d="m286.37823 184.75629l31.874023 -76.913376" fill-rule="evenodd"/><path stroke="#586e75" stroke-width="2.0" stroke-linejoin="round" stroke-linecap="butt" d="m286.37823 184.75629l31.874023 -76.913376" fill-rule="evenodd"/><path fill="#000000" fill-opacity="0.0" d="m286.46878 184.81471l68.22049 -47.81102" fill-rule="evenodd"/><path stroke="#586e75" stroke-width="2.0" stroke-linejoin="round" stroke-linecap="butt" d="m286.46878 184.81471l68.22049 -47.81102" fill-rule="evenodd"/><path fill="#000000" fill-opacity="0.0" d="m17.183727 539.5945l262.29922 0l0 42.519714l-262.29922 0z" fill-rule="evenodd"/><path fill="#586e75" d="m51.19193 561.1551l-3.125 0l0 5.359375l-1.75 0l0 -13.265625l4.390625 0q2.234375 0 3.4375 1.03125q1.21875 1.015625 1.21875 2.953125q0 1.25 -0.671875 2.171875q-0.671875 0.921875 -1.859375 1.375l3.109375 5.625l0 0.109375l-1.875 0l-2.875 -5.359375zm-3.125 -1.4375l2.6875 0q1.3125 0 2.078125 -0.671875q0.765625 -0.671875 0.765625 -1.8125q0 -1.21875 -0.734375 -1.875q-0.734375 -0.65625 -2.109375 -0.671875l-2.6875 0l0 5.03125zm13.565201 6.984375q-2.0 0 -3.265625 -1.3125q-1.25 -1.328125 -1.25 -3.53125l0 -0.3125q0 -1.46875 0.5625 -2.609375q0.5625 -1.15625 1.5625 -1.796875q1.015625 -0.65625 2.1875 -0.65625q1.921875 0 2.9843712 1.265625q1.0625 1.265625 1.0625 3.625l0 0.6875l-6.671871 0q0.03125 1.46875 0.84375 2.375q0.828125 0.890625 2.078125 0.890625q0.890625 0 1.515625 -0.359375q0.625 -0.375 1.0781212 -0.96875l1.03125 0.796875q-1.234375 1.90625 -3.7187462 1.90625zm-0.203125 -8.84375q-1.015625 0 -1.71875 0.75q-0.6875 0.734375 -0.84375 2.078125l4.9375 0l0 -0.125q-0.078125 -1.28125 -0.703125 -1.984375q-0.609375 -0.71875 -1.671875 -0.71875zm6.8369255 8.65625l0 -8.546875l-1.5625 0l0 -1.3125l1.5625 0l0 -1.015625q0 -1.578125 0.84375 -2.4375q0.84375 -0.875 2.390625 -0.875q0.59375 0 1.15625 0.15625l-0.09375 1.375q-0.421875 -0.09375 -0.90625 -0.09375q-0.8125 0 -1.265625 0.484375q-0.4375 0.484375 -0.4375 1.375l0 1.03125l2.09375 0l0 1.3125l-2.09375 0l0 8.546875l-1.6875 0zm9.726852 0.1875q-2.0 0 -3.265625 -1.3125q-1.25 -1.328125 -1.25 -3.53125l0 -0.3125q0 -1.46875 0.5625 -2.609375q0.5625 -1.15625 1.5625 -1.796875q1.015625 -0.65625 2.1875 -0.65625q1.921875 0 2.984375 1.265625q1.0625 1.265625 1.0625 3.625l0 0.6875l-6.671875 0q0.03125 1.46875 0.84375 2.375q0.828125 0.890625 2.078125 0.890625q0.890625 0 1.515625 -0.359375q0.625 -0.375 1.078125 -0.96875l1.03125 0.796875q-1.234375 1.90625 -3.71875 1.90625zm-0.203125 -8.84375q-1.015625 0 -1.71875 0.75q-0.6875 0.734375 -0.84375 2.078125l4.9375 0l0 -0.125q-0.078125 -1.28125 -0.703125 -1.984375q-0.609375 -0.71875 -1.671875 -0.71875zm10.774429 0.3125q-0.390625 -0.0625 -0.84375 -0.0625q-1.65625 0 -2.25 1.40625l0 7.0l-1.671875 0l0 -9.859375l1.640625 0l0.015625 1.140625q0.828125 -1.3125 2.359375 -1.3125q0.484375 0 0.75 0.125l0 1.5625zm5.6253815 8.53125q-2.0 0 -3.265625 -1.3125q-1.25 -1.328125 -1.25 -3.53125l0 -0.3125q0 -1.46875 0.5625 -2.609375q0.5625 -1.15625 1.5625 -1.796875q1.015625 -0.65625 2.1875 -0.65625q1.921875 0 2.984375 1.265625q1.0625 1.265625 1.0625 3.625l0 0.6875l-6.671875 0q0.03125 1.46875 0.84375 2.375q0.828125 0.890625 2.078125 0.890625q0.890625 0 1.515625 -0.359375q0.625 -0.375 1.078125 -0.96875l1.03125 0.796875q-1.234375 1.90625 -3.71875 1.90625zm-0.203125 -8.84375q-1.015625 0 -1.71875 0.75q-0.6875 0.734375 -0.84375 2.078125l4.9375 0l0 -0.125q-0.078125 -1.28125 -0.703125 -1.984375q-0.609375 -0.71875 -1.671875 -0.71875zm7.6025543 -1.203125l0.046875 1.234375q1.125 -1.40625 2.953125 -1.40625q3.125 0 3.15625 3.515625l0 6.515625l-1.6875 0l0 -6.515625q-0.015625 -1.078125 -0.5 -1.578125q-0.46875 -0.515625 -1.484375 -0.515625q-0.8125 0 -1.4375 0.4375q-0.609375 0.4375 -0.96875 1.15625l0 7.015625l-1.671875 0l0 -9.859375l1.59375 0zm12.653107 8.671875q0.890625 0 1.5625 -0.546875q0.6875 -0.546875 0.75 -1.375l1.59375 0q-0.046875 0.84375 -0.578125 1.609375q-0.53125 0.765625 -1.4375 1.234375q-0.890625 0.453125 -1.890625 0.453125q-2.015625 0 -3.203125 -1.34375q-1.1875 -1.34375 -1.1875 -3.6875l0 -0.28125q0 -1.4375 0.515625 -2.546875q0.53125 -1.125 1.515625 -1.734375q1.0 -0.625 2.34375 -0.625q1.65625 0 2.75 1.0q1.109375 0.984375 1.171875 2.5625l-1.59375 0q-0.0625 -0.953125 -0.71875 -1.5625q-0.65625 -0.625 -1.609375 -0.625q-1.28125 0 -2.0 0.921875q-0.703125 0.921875 -0.703125 2.671875l0 0.328125q0 1.703125 0.703125 2.625q0.703125 0.921875 2.015625 0.921875zm9.890381 1.375q-2.0 0 -3.265625 -1.3125q-1.25 -1.328125 -1.25 -3.53125l0 -0.3125q0 -1.46875 0.5625 -2.609375q0.5625 -1.15625 1.5625 -1.796875q1.015625 -0.65625 2.1875 -0.65625q1.921875 0 2.984375 1.265625q1.0625 1.265625 1.0625 3.625l0 0.6875l-6.671875 0q0.03125 1.46875 0.84375 2.375q0.828125 0.890625 2.078125 0.890625q0.890625 0 1.515625 -0.359375q0.625 -0.375 1.078125 -0.96875l1.03125 0.796875q-1.234375 1.90625 -3.71875 1.90625zm-0.203125 -8.84375q-1.015625 0 -1.71875 0.75q-0.6875 0.734375 -0.84375 2.078125l4.9375 0l0 -0.125q-0.078125 -1.28125 -0.703125 -1.984375q-0.609375 -0.71875 -1.671875 -0.71875zm14.580444 7.46875q0.890625 0 1.5625 -0.546875q0.6875 -0.546875 0.75 -1.375l1.59375 0q-0.046875 0.84375 -0.578125 1.609375q-0.53125 0.765625 -1.4375 1.234375q-0.890625 0.453125 -1.890625 0.453125q-2.015625 0 -3.203125 -1.34375q-1.1875 -1.34375 -1.1875 -3.6875l0 -0.28125q0 -1.4375 0.515625 -2.546875q0.53125 -1.125 1.515625 -1.734375q1.0 -0.625 2.34375 -0.625q1.65625 0 2.75 1.0q1.109375 0.984375 1.171875 2.5625l-1.59375 0q-0.0625 -0.953125 -0.71875 -1.5625q-0.65625 -0.625 -1.609375 -0.625q-1.28125 0 -2.0 0.921875q-0.703125 0.921875 -0.703125 2.671875l0 0.328125q0 1.703125 0.703125 2.625q0.703125 0.921875 2.015625 0.921875zm11.890396 1.1875q-0.140625 -0.296875 -0.234375 -1.03125q-1.171875 1.21875 -2.8125 1.21875q-1.453125 0 -2.3906403 -0.828125q-0.921875 -0.828125 -0.921875 -2.09375q0 -1.53125 1.1562653 -2.375q1.171875 -0.859375 3.296875 -0.859375l1.640625 0l0 -0.78125q0 -0.890625 -0.53125 -1.40625q-0.515625 -0.53125 -1.546875 -0.53125q-0.90625 0 -1.515625 0.46875q-0.609375 0.453125 -0.609375 1.09375l-1.7031403 0q0 -0.734375 0.515625 -1.421875q0.53126526 -0.6875 1.4218903 -1.078125q0.90625 -0.40625 1.984375 -0.40625q1.703125 0 2.671875 0.859375q0.96875 0.84375 1.0 2.328125l0 4.53125q0 1.359375 0.34375 2.171875l0 0.140625l-1.765625 0zm-2.796875 -1.28125q0.796875 0 1.5 -0.40625q0.71875 -0.421875 1.03125 -1.078125l0 -2.015625l-1.3125 0q-3.109375 0 -3.109375 1.8125q0 0.796875 0.53125 1.25q0.53125 0.4375 1.359375 0.4375zm8.444855 -8.578125l0.046875 1.09375q1.078125 -1.265625 2.921875 -1.265625q2.0625 0 2.8125 1.578125q0.5 -0.71875 1.28125 -1.140625q0.796875 -0.4375 1.859375 -0.4375q3.25 0 3.296875 3.421875l0 6.609375l-1.671875 0l0 -6.5q0 -1.0625 -0.484375 -1.578125q-0.484375 -0.53125 -1.625 -0.53125q-0.9375 0 -1.5625 0.5625q-0.609375 0.5625 -0.71875 1.5l0 6.546875l-1.6875 0l0 -6.453125q0 -2.15625 -2.109375 -2.15625q-1.65625 0 -2.265625 1.40625l0 7.203125l-1.6875 0l0 -9.859375l1.59375 0zm18.851532 10.046875q-2.0 0 -3.265625 -1.3125q-1.25 -1.328125 -1.25 -3.53125l0 -0.3125q0 -1.46875 0.5625 -2.609375q0.5625 -1.15625 1.5625 -1.796875q1.015625 -0.65625 2.1875 -0.65625q1.921875 0 2.984375 1.265625q1.0625 1.265625 1.0625 3.625l0 0.6875l-6.671875 0q0.03125 1.46875 0.84375 2.375q0.828125 0.890625 2.078125 0.890625q0.890625 0 1.515625 -0.359375q0.625 -0.375 1.078125 -0.96875l1.03125 0.796875q-1.234375 1.90625 -3.71875 1.90625zm-0.203125 -8.84375q-1.015625 0 -1.71875 0.75q-0.6875 0.734375 -0.84375 2.078125l4.9375 0l0 -0.125q-0.078125 -1.28125 -0.703125 -1.984375q-0.609375 -0.71875 -1.671875 -0.71875zm10.774445 0.3125q-0.390625 -0.0625 -0.84375 -0.0625q-1.65625 0 -2.25 1.40625l0 7.0l-1.671875 0l0 -9.859375l1.640625 0l0.015625 1.140625q0.828125 -1.3125 2.359375 -1.3125q0.484375 0 0.75 0.125l0 1.5625zm7.625366 8.34375q-0.140625 -0.296875 -0.234375 -1.03125q-1.171875 1.21875 -2.8125 1.21875q-1.453125 0 -2.390625 -0.828125q-0.921875 -0.828125 -0.921875 -2.09375q0 -1.53125 1.15625 -2.375q1.171875 -0.859375 3.296875 -0.859375l1.640625 0l0 -0.78125q0 -0.890625 -0.53125 -1.40625q-0.515625 -0.53125 -1.546875 -0.53125q-0.90625 0 -1.515625 0.46875q-0.609375 0.453125 -0.609375 1.09375l-1.703125 0q0 -0.734375 0.515625 -1.421875q0.53125 -0.6875 1.421875 -1.078125q0.90625 -0.40625 1.984375 -0.40625q1.703125 0 2.671875 0.859375q0.96875 0.84375 1.0 2.328125l0 4.53125q0 1.359375 0.34375 2.171875l0 0.140625l-1.765625 0zm-2.796875 -1.28125q0.796875 0 1.5 -0.40625q0.71875 -0.421875 1.03125 -1.078125l0 -2.015625l-1.3125 0q-3.109375 0 -3.109375 1.8125q0 0.796875 0.53125 1.25q0.53125 0.4375 1.359375 0.4375zm13.313385 1.28125l-1.6875 0l0 -9.859375l1.6875 0l0 9.859375zm-1.828125 -12.46875q0 -0.40625 0.25 -0.6875q0.25 -0.296875 0.734375 -0.296875q0.5 0 0.75 0.296875q0.265625 0.28125 0.265625 0.6875q0 0.40625 -0.265625 0.6875q-0.25 0.265625 -0.75 0.265625q-0.484375 0 -0.734375 -0.265625q-0.25 -0.28125 -0.25 -0.6875zm6.10553 2.609375l0.046875 1.09375q1.078125 -1.265625 2.921875 -1.265625q2.0625 0 2.8125 1.578125q0.5 -0.71875 1.28125 -1.140625q0.796875 -0.4375 1.859375 -0.4375q3.25 0 3.296875 3.421875l0 6.609375l-1.671875 0l0 -6.5q0 -1.0625 -0.484375 -1.578125q-0.484375 -0.53125 -1.625 -0.53125q-0.9375 0 -1.5625 0.5625q-0.609375 0.5625 -0.71875 1.5l0 6.546875l-1.6875 0l0 -6.453125q0 -2.15625 -2.109375 -2.15625q-1.65625 0 -2.265625 1.40625l0 7.203125l-1.6875 0l0 -9.859375l1.59375 0zm20.851562 9.859375q-0.140625 -0.296875 -0.234375 -1.03125q-1.171875 1.21875 -2.8125 1.21875q-1.453125 0 -2.390625 -0.828125q-0.921875 -0.828125 -0.921875 -2.09375q0 -1.53125 1.15625 -2.375q1.171875 -0.859375 3.296875 -0.859375l1.640625 0l0 -0.78125q0 -0.890625 -0.53125 -1.40625q-0.515625 -0.53125 -1.546875 -0.53125q-0.90625 0 -1.515625 0.46875q-0.609375 0.453125 -0.609375 1.09375l-1.703125 0q0 -0.734375 0.515625 -1.421875q0.53125 -0.6875 1.421875 -1.078125q0.90625 -0.40625 1.984375 -0.40625q1.703125 0 2.671875 0.859375q0.96875 0.84375 1.0 2.328125l0 4.53125q0 1.359375 0.34375 2.171875l0 0.140625l-1.765625 0zm-2.796875 -1.28125q0.796875 0 1.5 -0.40625q0.71875 -0.421875 1.03125 -1.078125l0 -2.015625l-1.3125 0q-3.109375 0 -3.109375 1.8125q0 0.796875 0.53125 1.25q0.53125 0.4375 1.359375 0.4375zm6.4604797 -3.734375q0 -2.296875 1.0625 -3.65625q1.0625 -1.359375 2.828125 -1.359375q1.796875 0 2.8125 1.265625l0.078125 -1.09375l1.546875 0l0 9.625q0 1.90625 -1.140625 3.0q-1.125 1.109375 -3.046875 1.109375q-1.0625 0 -2.09375 -0.453125q-1.015625 -0.453125 -1.546875 -1.25l0.875 -1.0q1.078125 1.328125 2.65625 1.328125q1.21875 0 1.90625 -0.6875q0.6875 -0.6875 0.6875 -1.953125l0 -0.84375q-1.0 1.171875 -2.75 1.171875q-1.734375 0 -2.8125 -1.390625q-1.0625 -1.40625 -1.0625 -3.8125zm1.6875 0.203125q0 1.65625 0.6875 2.609375q0.6875 0.953125 1.921875 0.953125q1.59375 0 2.328125 -1.453125l0 -4.5q-0.765625 -1.40625 -2.3125 -1.40625q-1.234375 0 -1.9375 0.953125q-0.6875 0.953125 -0.6875 2.84375zm13.263672 5.0q-2.0 0 -3.265625 -1.3125q-1.25 -1.328125 -1.25 -3.53125l0 -0.3125q0 -1.46875 0.5625 -2.609375q0.5625 -1.15625 1.5625 -1.796875q1.015625 -0.65625 2.1875 -0.65625q1.921875 0 2.984375 1.265625q1.0625 1.265625 1.0625 3.625l0 0.6875l-6.671875 0q0.03125 1.46875 0.84375 2.375q0.828125 0.890625 2.078125 0.890625q0.890625 0 1.515625 -0.359375q0.625 -0.375 1.078125 -0.96875l1.03125 0.796875q-1.234375 1.90625 -3.71875 1.90625zm-0.203125 -8.84375q-1.015625 0 -1.71875 0.75q-0.6875 0.734375 -0.84375 2.078125l4.9375 0l0 -0.125q-0.078125 -1.28125 -0.703125 -1.984375q-0.609375 -0.71875 -1.671875 -0.71875z" fill-rule="nonzero"/><path fill="#6c71c4" d="m437.02625 25.202099l54.259857 0l0 54.259846l-54.259857 0z" fill-rule="evenodd"/><path fill="#565a9c" d="m491.2861 25.202099l18.086609 -18.086613l0 54.259842l-18.086609 18.086617z" fill-rule="evenodd"/><path fill="#898dcf" d="m437.02625 25.202099l18.086609 -18.086613l54.259857 0l-18.086609 18.086613z" fill-rule="evenodd"/><path fill="#000000" fill-opacity="0.0" d="m437.02625 25.202099l18.086609 -18.086613l54.259857 0l0 54.259842l-18.086609 18.086617l-54.259857 0zm0 0l54.259857 0l18.086609 -18.086613m-18.086609 18.086613l0 54.259846" fill-rule="evenodd"/><path stroke="#586e75" stroke-width="1.0" stroke-linejoin="round" stroke-linecap="butt" d="m437.02625 25.202099l18.086609 -18.086613l54.259857 0l0 54.259842l-18.086609 18.086617l-54.259857 0zm0 0l54.259857 0l18.086609 -18.086613m-18.086609 18.086613l0 54.259846" fill-rule="evenodd"/><path fill="#2aa198" d="m383.80054 19.749344l0 0c0 4.746605 15.39151 8.594488 34.37793 8.594488c18.98642 0 34.37796 -3.8478832 34.37796 -8.594488l0 74.244095c0 4.746605 -15.391541 8.59449 -34.37796 8.59449c-18.98642 0 -34.37793 -3.8478851 -34.37793 -8.59449z" fill-rule="evenodd"/><path fill="#7fc6c1" d="m383.80054 19.749344l0 0c0 -4.746605 15.39151 -8.594488 34.37793 -8.594488c18.98642 0 34.37796 3.8478832 34.37796 8.594488l0 0c0 4.746605 -15.391541 8.594488 -34.37796 8.594488c-18.98642 0 -34.37793 -3.8478832 -34.37793 -8.594488z" fill-rule="evenodd"/><path fill="#000000" fill-opacity="0.0" d="m452.55643 19.749344l0 0c0 4.746605 -15.391541 8.594488 -34.37796 8.594488c-18.98642 0 -34.37793 -3.8478832 -34.37793 -8.594488l0 0c0 -4.746605 15.39151 -8.594488 34.37793 -8.594488c18.98642 0 34.37796 3.8478832 34.37796 8.594488l0 74.244095c0 4.746605 -15.391541 8.59449 -34.37796 8.59449c-18.98642 0 -34.37793 -3.8478851 -34.37793 -8.59449l0 -74.244095" fill-rule="evenodd"/><path stroke="#586e75" stroke-width="1.0" stroke-linejoin="round" stroke-linecap="butt" d="m452.55643 19.749344l0 0c0 4.746605 -15.391541 8.594488 -34.37796 8.594488c-18.98642 0 -34.37793 -3.8478832 -34.37793 -8.594488l0 0c0 -4.746605 15.39151 -8.594488 34.37793 -8.594488c18.98642 0 34.37796 3.8478832 34.37796 8.594488l0 74.244095c0 4.746605 -15.391541 8.59449 -34.37796 8.59449c-18.98642 0 -34.37793 -3.8478851 -34.37793 -8.59449l0 -74.244095" fill-rule="evenodd"/><path fill="#000000" fill-opacity="0.0" d="m385.84692 217.615l0 0c8.850281 -6.3150787 19.84674 -8.855743 30.570282 -7.06308c10.723541 1.7926788 20.295746 7.7718353 26.61081 16.622131l-33.370087 23.81102z" fill-rule="evenodd"/><path fill="#000000" fill-opacity="0.0" d="m385.84692 217.615l0 0c8.850281 -6.3150787 19.84674 -8.855743 30.570282 -7.06308c10.723541 1.7926788 20.295746 7.7718353 26.61081 16.622131" fill-rule="evenodd"/><path stroke="#586e75" stroke-width="2.0" stroke-linejoin="round" stroke-linecap="butt" d="m385.84692 217.615l0 0c8.850281 -6.3150787 19.84674 -8.855743 30.570282 -7.06308c10.723541 1.7926788 20.295746 7.7718353 26.61081 16.622131" fill-rule="evenodd"/><path fill="#000000" fill-opacity="0.0" d="m409.65793 250.98508l-9.826752 -82.67717" fill-rule="evenodd"/><path stroke="#586e75" stroke-width="2.0" stroke-linejoin="round" stroke-linecap="butt" d="m409.65793 250.98508l-9.826752 -82.67717" fill-rule="evenodd"/><path fill="#000000" fill-opacity="0.0" d="m409.77228 250.9908l36.125977 -75.086624" fill-rule="evenodd"/><path stroke="#586e75" stroke-width="2.0" stroke-linejoin="round" stroke-linecap="butt" d="m409.77228 250.9908l36.125977 -75.086624" fill-rule="evenodd"/><path fill="#6c71c4" d="m112.1601 388.4181l65.735435 0l0 65.73544l-65.735435 0z" fill-rule="evenodd"/><path fill="#565a9c" d="m177.89554 388.4181l6.611023 -6.6109924l0 65.73541l-6.611023 6.611023z" fill-rule="evenodd"/><path fill="#898dcf" d="m112.1601 388.4181l6.611023 -6.6109924l65.735435 0l-6.611023 6.6109924z" fill-rule="evenodd"/><path fill="#000000" fill-opacity="0.0" d="m112.1601 388.4181l6.611023 -6.6109924l65.735435 0l0 65.73541l-6.611023 6.611023l-65.735435 0zm0 0l65.735435 0l6.611023 -6.6109924m-6.611023 6.6109924l0 65.73544" fill-rule="evenodd"/><path stroke="#586e75" stroke-width="1.0" stroke-linejoin="round" stroke-linecap="butt" d="m112.1601 388.4181l6.611023 -6.6109924l65.735435 0l0 65.73541l-6.611023 6.611023l-65.735435 0zm0 0l65.735435 0l6.611023 -6.6109924m-6.611023 6.6109924l0 65.73544" fill-rule="evenodd"/><path fill="#2aa198" d="m67.8189 370.2995l0 0c0 3.512268 21.469177 6.359497 47.95275 6.359497c26.483582 0 47.95276 -2.847229 47.95276 -6.359497l0 114.80859c0 3.5122375 -21.469177 6.359497 -47.95276 6.359497c-26.483574 0 -47.95275 -2.8472595 -47.95275 -6.359497z" fill-rule="evenodd"/><path fill="#7fc6c1" d="m67.8189 370.2995l0 0c0 -3.5122375 21.469177 -6.3594666 47.95275 -6.3594666c26.483582 0 47.95276 2.847229 47.95276 6.3594666l0 0c0 3.512268 -21.469177 6.359497 -47.95276 6.359497c-26.483574 0 -47.95275 -2.847229 -47.95275 -6.359497z" fill-rule="evenodd"/><path fill="#000000" fill-opacity="0.0" d="m163.72441 370.2995l0 0c0 3.512268 -21.469177 6.359497 -47.95276 6.359497c-26.483574 0 -47.95275 -2.847229 -47.95275 -6.359497l0 0c0 -3.5122375 21.469177 -6.3594666 47.95275 -6.3594666c26.483582 0 47.95276 2.847229 47.95276 6.3594666l0 114.80859c0 3.5122375 -21.469177 6.359497 -47.95276 6.359497c-26.483574 0 -47.95275 -2.8472595 -47.95275 -6.359497l0 -114.80859" fill-rule="evenodd"/><path stroke="#586e75" stroke-width="1.0" stroke-linejoin="round" stroke-linecap="butt" d="m163.72441 370.2995l0 0c0 3.512268 -21.469177 6.359497 -47.95276 6.359497c-26.483574 0 -47.95275 -2.847229 -47.95275 -6.359497l0 0c0 -3.5122375 21.469177 -6.3594666 47.95275 -6.3594666c26.483582 0 47.95276 2.847229 47.95276 6.3594666l0 114.80859c0 3.5122375 -21.469177 6.359497 -47.95276 6.359497c-26.483574 0 -47.95275 -2.8472595 -47.95275 -6.359497l0 -114.80859" fill-rule="evenodd"/><path fill="#eee8d5" d="m292.2126 316.7034l207.21262 0l0 207.21262l-207.21262 0z" fill-rule="evenodd"/><path stroke="#586e75" stroke-width="1.0" stroke-linejoin="round" stroke-linecap="butt" d="m292.2126 316.7034l207.21262 0l0 207.21262l-207.21262 0z" fill-rule="evenodd"/><path fill="#6c71c4" d="m376.59088 386.92886l54.368134 0l0 58.242188l-54.368134 0z" fill-rule="evenodd"/><path fill="#565a9c" d="m430.959 386.92886l9.726349 -9.726318l0 58.242157l-9.726349 9.726349z" fill-rule="evenodd"/><path fill="#898dcf" d="m376.59088 386.92886l9.726349 -9.726318l54.368134 0l-9.726349 9.726318z" fill-rule="evenodd"/><path fill="#000000" fill-opacity="0.0" d="m376.59088 386.92886l9.726349 -9.726318l54.368134 0l0 58.242157l-9.726349 9.726349l-54.368134 0zm0 0l54.368134 0l9.726349 -9.726318m-9.726349 9.726318l0 58.242188" fill-rule="evenodd"/><path stroke="#586e75" stroke-width="1.0" stroke-linejoin="round" stroke-linecap="butt" d="m376.59088 386.92886l9.726349 -9.726318l54.368134 0l0 58.242157l-9.726349 9.726349l-54.368134 0zm0 0l54.368134 0l9.726349 -9.726318m-9.726349 9.726318l0 58.242188" fill-rule="evenodd"/><path fill="#2aa198" d="m322.21783 370.94647l0 0c0 4.60437 18.155396 8.336945 40.55121 8.336945c22.395782 0 40.551178 -3.7325745 40.551178 -8.336945l0 97.688385c0 4.6043396 -18.155396 8.336914 -40.551178 8.336914c-22.395813 0 -40.55121 -3.7325745 -40.55121 -8.336914z" fill-rule="evenodd"/><path fill="#7fc6c1" d="m322.21783 370.94647l0 0c0 -4.6043396 18.155396 -8.336914 40.55121 -8.336914c22.395782 0 40.551178 3.7325745 40.551178 8.336914l0 0c0 4.60437 -18.155396 8.336945 -40.551178 8.336945c-22.395813 0 -40.55121 -3.7325745 -40.55121 -8.336945z" fill-rule="evenodd"/><path fill="#000000" fill-opacity="0.0" d="m403.32022 370.94647l0 0c0 4.60437 -18.155396 8.336945 -40.551178 8.336945c-22.395813 0 -40.55121 -3.7325745 -40.55121 -8.336945l0 0c0 -4.6043396 18.155396 -8.336914 40.55121 -8.336914c22.395782 0 40.551178 3.7325745 40.551178 8.336914l0 97.688385c0 4.6043396 -18.155396 8.336914 -40.551178 8.336914c-22.395813 0 -40.55121 -3.7325745 -40.55121 -8.336914l0 -97.688385" fill-rule="evenodd"/><path stroke="#586e75" stroke-width="1.0" stroke-linejoin="round" stroke-linecap="butt" d="m403.32022 370.94647l0 0c0 4.60437 -18.155396 8.336945 -40.551178 8.336945c-22.395813 0 -40.55121 -3.7325745 -40.55121 -8.336945l0 0c0 -4.6043396 18.155396 -8.336914 40.55121 -8.336914c22.395782 0 40.551178 3.7325745 40.551178 8.336914l0 97.688385c0 4.6043396 -18.155396 8.336914 -40.551178 8.336914c-22.395813 0 -40.55121 -3.7325745 -40.55121 -8.336914l0 -97.688385" fill-rule="evenodd"/><path fill="#000000" fill-opacity="0.0" d="m136.02887 319.54462l151.90552 -137.44882" fill-rule="evenodd"/><path stroke="#586e75" stroke-width="2.0" stroke-linejoin="round" stroke-linecap="butt" stroke-dasharray="2.0,6.0" d="m136.02887 319.54462l151.90552 -137.44882" fill-rule="evenodd"/><path fill="#000000" fill-opacity="0.0" d="m409.14172 249.04987l-13.322815 67.653534" fill-rule="evenodd"/><path stroke="#586e75" stroke-width="2.0" stroke-linejoin="round" stroke-linecap="butt" stroke-dasharray="2.0,6.0" d="m409.14172 249.04987l-13.322815 67.653534" fill-rule="evenodd"/><path fill="#000000" fill-opacity="0.0" d="m152.65355 102.58793l139.55904 0l0 42.519676l-139.55904 0z" fill-rule="evenodd"/><path fill="#586e75" d="m168.0598 124.14855l-3.125 0l0 5.3593674l-1.75 0l0 -13.265617l4.390625 0q2.234375 0 3.4375 1.03125q1.21875 1.015625 1.21875 2.953125q0 1.25 -0.671875 2.171875q-0.671875 0.921875 -1.859375 1.375l3.109375 5.6249924l0 0.109375l-1.875 0l-2.875 -5.3593674zm-3.125 -1.4375l2.6875 0q1.3125 0 2.078125 -0.671875q0.765625 -0.671875 0.765625 -1.8125q0 -1.21875 -0.734375 -1.875q-0.734375 -0.65625 -2.109375 -0.671875l-2.6875 0l0 5.03125zm13.565201 6.9843674q-2.0 0 -3.265625 -1.3125q-1.25 -1.3281174 -1.25 -3.5312424l0 -0.3125q0 -1.46875 0.5625 -2.609375q0.5625 -1.15625 1.5625 -1.796875q1.015625 -0.65625 2.1875 -0.65625q1.921875 0 2.984375 1.265625q1.0625 1.265625 1.0625 3.625l0 0.6875l-6.671875 0q0.03125 1.46875 0.84375 2.375q0.828125 0.8906174 2.078125 0.8906174q0.890625 0 1.515625 -0.35936737q0.625 -0.375 1.078125 -0.96875l1.03125 0.796875q-1.234375 1.9062424 -3.71875 1.9062424zm-0.203125 -8.843742q-1.015625 0 -1.71875 0.75q-0.6875 0.734375 -0.84375 2.078125l4.9375 0l0 -0.125q-0.078125 -1.28125 -0.703125 -1.984375q-0.609375 -0.71875 -1.671875 -0.71875zm6.8369293 8.656242l0 -8.546867l-1.5625 0l0 -1.3125l1.5625 0l0 -1.015625q0 -1.578125 0.84375 -2.4375q0.84375 -0.875 2.390625 -0.875q0.59375 0 1.15625 0.15625l-0.09375 1.375q-0.421875 -0.09375 -0.90625 -0.09375q-0.8125 0 -1.265625 0.484375q-0.4375 0.484375 -0.4375 1.375l0 1.03125l2.09375 0l0 1.3125l-2.09375 0l0 8.546867l-1.6875 0zm9.726852 0.1875q-2.0 0 -3.265625 -1.3125q-1.25 -1.3281174 -1.25 -3.5312424l0 -0.3125q0 -1.46875 0.5625 -2.609375q0.5625 -1.15625 1.5625 -1.796875q1.015625 -0.65625 2.1875 -0.65625q1.921875 0 2.984375 1.265625q1.0625 1.265625 1.0625 3.625l0 0.6875l-6.671875 0q0.03125 1.46875 0.84375 2.375q0.828125 0.8906174 2.078125 0.8906174q0.890625 0 1.515625 -0.35936737q0.625 -0.375 1.078125 -0.96875l1.03125 0.796875q-1.234375 1.9062424 -3.71875 1.9062424zm-0.203125 -8.843742q-1.015625 0 -1.71875 0.75q-0.6875 0.734375 -0.84375 2.078125l4.9375 0l0 -0.125q-0.078125 -1.28125 -0.703125 -1.984375q-0.609375 -0.71875 -1.671875 -0.71875zm10.774429 0.3125q-0.390625 -0.0625 -0.84375 -0.0625q-1.65625 0 -2.25 1.40625l0 6.9999924l-1.671875 0l0 -9.859367l1.640625 0l0.015625 1.140625q0.828125 -1.3125 2.359375 -1.3125q0.484375 0 0.75 0.125l0 1.5625zm5.6253815 8.531242q-2.0 0 -3.265625 -1.3125q-1.25 -1.3281174 -1.25 -3.5312424l0 -0.3125q0 -1.46875 0.5625 -2.609375q0.5625 -1.15625 1.5625 -1.796875q1.015625 -0.65625 2.1875 -0.65625q1.921875 0 2.984375 1.265625q1.0625 1.265625 1.0625 3.625l0 0.6875l-6.671875 0q0.03125 1.46875 0.84375 2.375q0.828125 0.8906174 2.078125 0.8906174q0.890625 0 1.515625 -0.35936737q0.625 -0.375 1.078125 -0.96875l1.03125 0.796875q-1.234375 1.9062424 -3.71875 1.9062424zm-0.203125 -8.843742q-1.015625 0 -1.71875 0.75q-0.6875 0.734375 -0.84375 2.078125l4.9375 0l0 -0.125q-0.078125 -1.28125 -0.703125 -1.984375q-0.609375 -0.71875 -1.671875 -0.71875zm7.6025543 -1.203125l0.046875 1.234375q1.125 -1.40625 2.953125 -1.40625q3.125 0 3.15625 3.515625l0 6.5156174l-1.6875 0l0 -6.5156174q-0.015625 -1.078125 -0.5 -1.578125q-0.46875 -0.515625 -1.484375 -0.515625q-0.8125 0 -1.4375 0.4375q-0.609375 0.4375 -0.96875 1.15625l0 7.0156174l-1.671875 0l0 -9.859367l1.59375 0zm12.653107 8.671867q0.890625 0 1.5625 -0.5468674q0.6875 -0.546875 0.75 -1.375l1.59375 0q-0.046875 0.84375 -0.578125 1.6093674q-0.53125 0.765625 -1.4375 1.234375q-0.890625 0.453125 -1.890625 0.453125q-2.015625 0 -3.203125 -1.34375q-1.1875 -1.3437424 -1.1875 -3.6874924l0 -0.28125q0 -1.4375 0.515625 -2.546875q0.53125 -1.125 1.515625 -1.734375q1.0 -0.625 2.34375 -0.625q1.65625 0 2.75 1.0q1.109375 0.984375 1.171875 2.5625l-1.59375 0q-0.0625 -0.953125 -0.71875 -1.5625q-0.65625 -0.625 -1.609375 -0.625q-1.28125 0 -2.0 0.921875q-0.703125 0.921875 -0.703125 2.671875l0 0.328125q0 1.703125 0.703125 2.625q0.703125 0.9218674 2.015625 0.9218674zm9.890381 1.375q-2.0 0 -3.265625 -1.3125q-1.25 -1.3281174 -1.25 -3.5312424l0 -0.3125q0 -1.46875 0.5625 -2.609375q0.5625 -1.15625 1.5625 -1.796875q1.015625 -0.65625 2.1875 -0.65625q1.921875 0 2.984375 1.265625q1.0625 1.265625 1.0625 3.625l0 0.6875l-6.671875 0q0.03125 1.46875 0.84375 2.375q0.828125 0.8906174 2.078125 0.8906174q0.890625 0 1.515625 -0.35936737q0.625 -0.375 1.078125 -0.96875l1.03125 0.796875q-1.234375 1.9062424 -3.71875 1.9062424zm-0.203125 -8.843742q-1.015625 0 -1.71875 0.75q-0.6875 0.734375 -0.84375 2.078125l4.9375 0l0 -0.125q-0.078125 -1.28125 -0.703125 -1.984375q-0.609375 -0.71875 -1.671875 -0.71875z" fill-rule="nonzero"/><path fill="#586e75" d="m166.88792 150.32042q0.890625 0 1.5625 -0.546875q0.6875 -0.546875 0.75 -1.375l1.59375 0q-0.046875 0.84375 -0.578125 1.609375q-0.53125 0.765625 -1.4375 1.234375q-0.890625 0.453125 -1.890625 0.453125q-2.015625 0 -3.203125 -1.34375q-1.1875 -1.34375 -1.1875 -3.6875l0 -0.28125q0 -1.4375 0.515625 -2.546875q0.53125 -1.125 1.515625 -1.734375q1.0 -0.625 2.34375 -0.625q1.65625 0 2.75 1.0q1.109375 0.984375 1.171875 2.5625l-1.59375 0q-0.0625 -0.953125 -0.71875 -1.5625q-0.65625 -0.625 -1.609375 -0.625q-1.28125 0 -2.0 0.921875q-0.703125 0.921875 -0.703125 2.671875l0 0.328125q0 1.703125 0.703125 2.625q0.703125 0.921875 2.015625 0.921875zm11.890381 1.1875q-0.140625 -0.296875 -0.234375 -1.03125q-1.171875 1.21875 -2.8125 1.21875q-1.453125 0 -2.390625 -0.828125q-0.921875 -0.828125 -0.921875 -2.09375q0 -1.53125 1.15625 -2.375q1.171875 -0.859375 3.296875 -0.859375l1.640625 0l0 -0.78125q0 -0.890625 -0.53125 -1.40625q-0.515625 -0.53125 -1.546875 -0.53125q-0.90625 0 -1.515625 0.46875q-0.609375 0.453125 -0.609375 1.09375l-1.703125 0q0 -0.734375 0.515625 -1.421875q0.53125 -0.6875 1.421875 -1.078125q0.90625 -0.40625 1.984375 -0.40625q1.703125 0 2.671875 0.859375q0.96875 0.84375 1.0 2.328125l0 4.53125q0 1.359375 0.34375 2.171875l0 0.140625l-1.765625 0zm-2.796875 -1.28125q0.796875 0 1.5 -0.40625q0.71875 -0.421875 1.03125 -1.078125l0 -2.015625l-1.3125 0q-3.109375 0 -3.109375 1.8125q0 0.796875 0.53125 1.25q0.53125 0.4375 1.359375 0.4375zm8.444855 -8.578125l0.046875 1.09375q1.078125 -1.265625 2.921875 -1.265625q2.0625 0 2.8125 1.578125q0.5 -0.71875 1.28125 -1.140625q0.796875 -0.4375 1.859375 -0.4375q3.25 0 3.296875 3.421875l0 6.609375l-1.671875 0l0 -6.5q0 -1.0625 -0.484375 -1.578125q-0.484375 -0.53125 -1.625 -0.53125q-0.9375 0 -1.5625 0.5625q-0.609375 0.5625 -0.71875 1.5l0 6.546875l-1.6875 0l0 -6.453125q0 -2.15625 -2.109375 -2.15625q-1.65625 0 -2.265625 1.40625l0 7.203125l-1.6875 0l0 -9.859375l1.59375 0zm18.851547 10.046875q-2.0 0 -3.265625 -1.3125q-1.25 -1.328125 -1.25 -3.53125l0 -0.3125q0 -1.46875 0.5625 -2.609375q0.5625 -1.15625 1.5625 -1.796875q1.015625 -0.65625 2.1875 -0.65625q1.921875 0 2.984375 1.265625q1.0625 1.265625 1.0625 3.625l0 0.6875l-6.671875 0q0.03125 1.46875 0.84375 2.375q0.828125 0.890625 2.078125 0.890625q0.890625 0 1.515625 -0.359375q0.625 -0.375 1.078125 -0.96875l1.03125 0.796875q-1.234375 1.90625 -3.71875 1.90625zm-0.203125 -8.84375q-1.015625 0 -1.71875 0.75q-0.6875 0.734375 -0.84375 2.078125l4.9375 0l0 -0.125q-0.078125 -1.28125 -0.703125 -1.984375q-0.609375 -0.71875 -1.671875 -0.71875zm10.774429 0.3125q-0.390625 -0.0625 -0.84375 -0.0625q-1.65625 0 -2.25 1.40625l0 7.0l-1.671875 0l0 -9.859375l1.640625 0l0.015625 1.140625q0.828125 -1.3125 2.359375 -1.3125q0.484375 0 0.75 0.125l0 1.5625zm7.6253815 8.34375q-0.140625 -0.296875 -0.234375 -1.03125q-1.171875 1.21875 -2.8125 1.21875q-1.453125 0 -2.390625 -0.828125q-0.921875 -0.828125 -0.921875 -2.09375q0 -1.53125 1.15625 -2.375q1.171875 -0.859375 3.296875 -0.859375l1.640625 0l0 -0.78125q0 -0.890625 -0.53125 -1.40625q-0.515625 -0.53125 -1.546875 -0.53125q-0.90625 0 -1.515625 0.46875q-0.609375 0.453125 -0.609375 1.09375l-1.703125 0q0 -0.734375 0.515625 -1.421875q0.53125 -0.6875 1.421875 -1.078125q0.90625 -0.40625 1.984375 -0.40625q1.703125 0 2.671875 0.859375q0.96875 0.84375 1.0 2.328125l0 4.53125q0 1.359375 0.34375 2.171875l0 0.140625l-1.765625 0zm-2.796875 -1.28125q0.796875 0 1.5 -0.40625q0.71875 -0.421875 1.03125 -1.078125l0 -2.015625l-1.3125 0q-3.109375 0 -3.109375 1.8125q0 0.796875 0.53125 1.25q0.53125 0.4375 1.359375 0.4375zm19.797745 -3.53125q0 2.25 -1.03125 3.625q-1.015625 1.375 -2.78125 1.375q-1.796875 0 -2.828125 -1.140625l0 4.75l-1.671875 0l0 -13.65625l1.53125 0l0.078125 1.09375q1.03125 -1.265625 2.859375 -1.265625q1.78125 0 2.8125 1.34375q1.03125 1.328125 1.03125 3.71875l0 0.15625zm-1.671875 -0.203125q0 -1.65625 -0.71875 -2.625q-0.703125 -0.96875 -1.953125 -0.96875q-1.53125 0 -2.296875 1.359375l0 4.703125q0.765625 1.359375 2.328125 1.359375q1.203125 0 1.921875 -0.953125q0.71875 -0.96875 0.71875 -2.875zm3.3730621 0q0 -1.453125 0.5625 -2.609375q0.578125 -1.15625 1.59375 -1.78125q1.015625 -0.625 2.3125 -0.625q2.015625 0 3.25 1.390625q1.25 1.390625 1.25 3.703125l0 0.125q0 1.4375 -0.546875 2.578125q-0.546875 1.140625 -1.578125 1.78125q-1.015625 0.640625 -2.359375 0.640625q-2.0 0 -3.25 -1.390625q-1.234375 -1.40625 -1.234375 -3.703125l0 -0.109375zm1.6875 0.203125q0 1.640625 0.765625 2.640625q0.765625 0.984375 2.03125 0.984375q1.296875 0 2.046875 -1.0q0.75 -1.015625 0.75 -2.828125q0 -1.625 -0.765625 -2.625q-0.765625 -1.015625 -2.046875 -1.015625q-1.25 0 -2.015625 1.0q-0.765625 0.984375 -0.765625 2.84375zm15.139893 2.203125q0 -0.6875 -0.515625 -1.0625q-0.515625 -0.375 -1.796875 -0.640625q-1.28125 -0.28125 -2.03125 -0.65625q-0.75 -0.390625 -1.109375 -0.921875q-0.359375 -0.53125 -0.359375 -1.265625q0 -1.203125 1.015625 -2.03125q1.03125 -0.84375 2.625 -0.84375q1.671875 0 2.71875 0.859375q1.046875 0.859375 1.046875 2.21875l-1.6875 0q0 -0.703125 -0.59375 -1.203125q-0.59375 -0.5 -1.484375 -0.5q-0.921875 0 -1.4375 0.40625q-0.515625 0.390625 -0.515625 1.046875q0 0.609375 0.484375 0.921875q0.484375 0.3125 1.734375 0.59375q1.265625 0.28125 2.046875 0.671875q0.78125 0.390625 1.15625 0.9375q0.390625 0.546875 0.390625 1.34375q0 1.328125 -1.0625 2.125q-1.046875 0.796875 -2.734375 0.796875q-1.1875 0 -2.109375 -0.421875q-0.90625 -0.421875 -1.421875 -1.171875q-0.515625 -0.75 -0.515625 -1.625l1.6875 0q0.046875 0.84375 0.671875 1.34375q0.640625 0.5 1.6875 0.5q0.953125 0 1.53125 -0.390625q0.578125 -0.390625 0.578125 -1.03125zm7.963379 2.796875q-2.0 0 -3.265625 -1.3125q-1.25 -1.328125 -1.25 -3.53125l0 -0.3125q0 -1.46875 0.5625 -2.609375q0.5625 -1.15625 1.5625 -1.796875q1.015625 -0.65625 2.1875 -0.65625q1.921875 0 2.984375 1.265625q1.0625 1.265625 1.0625 3.625l0 0.6875l-6.671875 0q0.03125 1.46875 0.84375 2.375q0.828125 0.890625 2.078125 0.890625q0.890625 0 1.515625 -0.359375q0.625 -0.375 1.078125 -0.96875l1.03125 0.796875q-1.234375 1.90625 -3.71875 1.90625zm-0.203125 -8.84375q-1.015625 0 -1.71875 0.75q-0.6875 0.734375 -0.84375 2.078125l4.9375 0l0 -0.125q-0.078125 -1.28125 -0.703125 -1.984375q-0.609375 -0.71875 -1.671875 -0.71875z" fill-rule="nonzero"/><path fill="#000000" fill-opacity="0.0" d="m481.44528 223.86574l0 0c4.79895 -9.760803 13.278809 -17.215454 23.574127 -20.723999c10.295288 -3.5085602 21.562683 -2.783615 31.323486 2.015335l-18.094482 36.803146z" fill-rule="evenodd"/><path fill="#000000" fill-opacity="0.0" d="m481.44528 223.86574l0 0c4.79895 -9.760803 13.278809 -17.215454 23.574127 -20.723999c10.295288 -3.5085602 21.562683 -2.783615 31.323486 2.015335" fill-rule="evenodd"/><path stroke="#586e75" stroke-width="2.0" stroke-linejoin="round" stroke-linecap="butt" d="m481.44528 223.86574l0 0c4.79895 -9.760803 13.278809 -17.215454 23.574127 -20.723999c10.295288 -3.5085602 21.562683 -2.783615 31.323486 2.015335" fill-rule="evenodd"/><path fill="#000000" fill-opacity="0.0" d="m518.2484 241.96022l-47.873993 -68.12598" fill-rule="evenodd"/><path stroke="#586e75" stroke-width="2.0" stroke-linejoin="round" stroke-linecap="butt" d="m518.2484 241.96022l-47.873993 -68.12598" fill-rule="evenodd"/><path fill="#000000" fill-opacity="0.0" d="m518.32697 241.91068l-3.8109741 -83.244095" fill-rule="evenodd"/><path stroke="#586e75" stroke-width="2.0" stroke-linejoin="round" stroke-linecap="butt" d="m518.32697 241.91068l-3.8109741 -83.244095" fill-rule="evenodd"/><path fill="#eee8d5" d="m541.0315 316.7034l207.21259 0l0 207.21262l-207.21259 0z" fill-rule="evenodd"/><path stroke="#586e75" stroke-width="1.0" stroke-linejoin="round" stroke-linecap="butt" d="m541.0315 316.7034l207.21259 0l0 207.21262l-207.21259 0z" fill-rule="evenodd"/><path fill="#6c71c4" d="m630.40686 393.76828l50.717285 0l0 54.15033l-50.717285 0z" fill-rule="evenodd"/><path fill="#565a9c" d="m681.12415 393.76828l5.723694 -5.723694l0 54.15033l-5.723694 5.723694z" fill-rule="evenodd"/><path fill="#898dcf" d="m630.40686 393.76828l5.723694 -5.723694l50.717285 0l-5.723694 5.723694z" fill-rule="evenodd"/><path fill="#000000" fill-opacity="0.0" d="m630.40686 393.76828l5.723694 -5.723694l50.717285 0l0 54.15033l-5.723694 5.723694l-50.717285 0zm0 0l50.717285 0l5.723694 -5.723694m-5.723694 5.723694l0 54.15033" fill-rule="evenodd"/><path stroke="#586e75" stroke-width="1.0" stroke-linejoin="round" stroke-linecap="butt" d="m630.40686 393.76828l5.723694 -5.723694l50.717285 0l0 54.15033l-5.723694 5.723694l-50.717285 0zm0 0l50.717285 0l5.723694 -5.723694m-5.723694 5.723694l0 54.15033" fill-rule="evenodd"/><path fill="#2aa198" d="m563.03674 376.13477c0 3.2449036 16.942688 5.8754272 37.84253 5.8754272c20.899841 0 37.84253 -2.6305237 37.84253 -5.8754272l0 94.957794c0 3.244934 -16.942688 5.875458 -37.84253 5.875458c-20.899841 0 -37.84253 -2.6305237 -37.84253 -5.875458z" fill-rule="evenodd"/><path fill="#7fc6c1" d="m563.03674 376.13477c0 -3.2449036 16.942688 -5.8754272 37.84253 -5.8754272c20.899841 0 37.84253 2.6305237 37.84253 5.8754272l0 0c0 3.2449036 -16.942688 5.8754272 -37.84253 5.8754272c-20.899841 0 -37.84253 -2.6305237 -37.84253 -5.8754272z" fill-rule="evenodd"/><path fill="#000000" fill-opacity="0.0" d="m638.7218 376.13477l0 0c0 3.2449036 -16.942688 5.8754272 -37.84253 5.8754272c-20.899841 0 -37.84253 -2.6305237 -37.84253 -5.8754272c0 -3.2449036 16.942688 -5.8754272 37.84253 -5.8754272c20.899841 0 37.84253 2.6305237 37.84253 5.8754272l0 94.957794c0 3.244934 -16.942688 5.875458 -37.84253 5.875458c-20.899841 0 -37.84253 -2.6305237 -37.84253 -5.875458l0 -94.957794" fill-rule="evenodd"/><path stroke="#586e75" stroke-width="1.0" stroke-linejoin="round" stroke-linecap="butt" d="m638.7218 376.13477l0 0c0 3.2449036 -16.942688 5.8754272 -37.84253 5.8754272c-20.899841 0 -37.84253 -2.6305237 -37.84253 -5.8754272c0 -3.2449036 16.942688 -5.8754272 37.84253 -5.8754272c20.899841 0 37.84253 2.6305237 37.84253 5.8754272l0 94.957794c0 3.244934 -16.942688 5.875458 -37.84253 5.875458c-20.899841 0 -37.84253 -2.6305237 -37.84253 -5.875458l0 -94.957794" fill-rule="evenodd"/><path fill="#000000" fill-opacity="0.0" d="m517.6772 241.80577l126.96063 74.89763" fill-rule="evenodd"/><path stroke="#586e75" stroke-width="2.0" stroke-linejoin="round" stroke-linecap="butt" stroke-dasharray="2.0,6.0" d="m517.6772 241.80577l126.96063 74.89763" fill-rule="evenodd"/><path fill="#000000" fill-opacity="0.0" d="m254.00525 539.5945l262.2992 0l0 42.519714l-262.2992 0z" fill-rule="evenodd"/><path fill="#586e75" d="m337.16257 560.6082q-2.25 -0.65625 -3.28125 -1.59375q-1.03125 -0.9375 -1.03125 -2.328125q0 -1.5625 1.25 -2.59375q1.265625 -1.03125 3.265625 -1.03125q1.359375 0 2.4375 0.53125q1.078125 0.53125 1.65625 1.46875q0.59375 0.921875 0.59375 2.03125l-1.765625 0q0 -1.203125 -0.765625 -1.890625q-0.765625 -0.6875 -2.15625 -0.6875q-1.296875 0 -2.015625 0.5625q-0.71875 0.5625 -0.71875 1.578125q0 0.8125 0.6875 1.375q0.6875 0.5625 2.328125 1.03125q1.65625 0.453125 2.59375 1.015625q0.9375 0.5625 1.375 1.3125q0.453125 0.75 0.453125 1.75q0 1.609375 -1.25 2.59375q-1.25 0.96875 -3.359375 0.96875q-1.375 0 -2.5625 -0.515625q-1.171875 -0.53125 -1.8125 -1.4375q-0.640625 -0.921875 -0.640625 -2.078125l1.75 0q0 1.203125 0.890625 1.90625q0.890625 0.6875 2.375 0.6875q1.375 0 2.109375 -0.5625q0.75 -0.5625 0.75 -1.53125q0 -0.984375 -0.6875 -1.515625q-0.6875 -0.53125 -2.46875 -1.046875zm10.849274 4.71875q0.890625 0 1.5625 -0.546875q0.6875 -0.546875 0.75 -1.375l1.59375 0q-0.046875 0.84375 -0.578125 1.609375q-0.53125 0.765625 -1.4375 1.234375q-0.890625 0.453125 -1.890625 0.453125q-2.015625 0 -3.203125 -1.34375q-1.1875 -1.34375 -1.1875 -3.6875l0 -0.28125q0 -1.4375 0.515625 -2.546875q0.53125 -1.125 1.515625 -1.734375q1.0 -0.625 2.34375 -0.625q1.65625 0 2.75 1.0q1.109375 0.984375 1.171875 2.5625l-1.59375 0q-0.0625 -0.953125 -0.71875 -1.5625q-0.65625 -0.625 -1.609375 -0.625q-1.28125 0 -2.0 0.921875q-0.703125 0.921875 -0.703125 2.671875l0 0.328125q0 1.703125 0.703125 2.625q0.703125 0.921875 2.015625 0.921875zm9.890381 1.375q-2.0 0 -3.265625 -1.3125q-1.25 -1.328125 -1.25 -3.53125l0 -0.3125q0 -1.46875 0.5625 -2.609375q0.5625 -1.15625 1.5625 -1.796875q1.015625 -0.65625 2.1875 -0.65625q1.921875 0 2.984375 1.265625q1.0625 1.265625 1.0625 3.625l0 0.6875l-6.671875 0q0.03125 1.46875 0.84375 2.375q0.828125 0.890625 2.078125 0.890625q0.890625 0 1.515625 -0.359375q0.625 -0.375 1.078125 -0.96875l1.03125 0.796875q-1.234375 1.90625 -3.71875 1.90625zm-0.203125 -8.84375q-1.015625 0 -1.71875 0.75q-0.6875 0.734375 -0.84375 2.078125l4.9375 0l0 -0.125q-0.078125 -1.28125 -0.703125 -1.984375q-0.609375 -0.71875 -1.671875 -0.71875zm7.6025696 -1.203125l0.046875 1.234375q1.125 -1.40625 2.953125 -1.40625q3.125 0 3.15625 3.515625l0 6.515625l-1.6875 0l0 -6.515625q-0.015625 -1.078125 -0.5 -1.578125q-0.46875 -0.515625 -1.484375 -0.515625q-0.8125 0 -1.4375 0.4375q-0.609375 0.4375 -0.96875 1.15625l0 7.015625l-1.671875 0l0 -9.859375l1.59375 0zm12.778107 10.046875q-2.0 0 -3.265625 -1.3125q-1.25 -1.328125 -1.25 -3.53125l0 -0.3125q0 -1.46875 0.5625 -2.609375q0.5625 -1.15625 1.5625 -1.796875q1.015625 -0.65625 2.1875 -0.65625q1.921875 0 2.984375 1.265625q1.0625 1.265625 1.0625 3.625l0 0.6875l-6.671875 0q0.03125 1.46875 0.84375 2.375q0.828125 0.890625 2.078125 0.890625q0.890625 0 1.515625 -0.359375q0.625 -0.375 1.078125 -0.96875l1.03125 0.796875q-1.234375 1.90625 -3.71875 1.90625zm-0.203125 -8.84375q-1.015625 0 -1.71875 0.75q-0.6875 0.734375 -0.84375 2.078125l4.9375 0l0 -0.125q-0.078125 -1.28125 -0.703125 -1.984375q-0.609375 -0.71875 -1.671875 -0.71875zm12.455444 8.65625l-1.6875 0l0 -9.859375l1.6875 0l0 9.859375zm-1.828125 -12.46875q0 -0.40625 0.25 -0.6875q0.25 -0.296875 0.734375 -0.296875q0.5 0 0.75 0.296875q0.265625 0.28125 0.265625 0.6875q0 0.40625 -0.265625 0.6875q-0.25 0.265625 -0.75 0.265625q-0.484375 0 -0.734375 -0.265625q-0.25 -0.28125 -0.25 -0.6875zm6.10553 2.609375l0.046875 1.09375q1.078125 -1.265625 2.921875 -1.265625q2.0625 0 2.8125 1.578125q0.5 -0.71875 1.28125 -1.140625q0.796875 -0.4375 1.859375 -0.4375q3.25 0 3.296875 3.421875l0 6.609375l-1.671875 0l0 -6.5q0 -1.0625 -0.484375 -1.578125q-0.484375 -0.53125 -1.625 -0.53125q-0.9375 0 -1.5625 0.5625q-0.609375 0.5625 -0.71875 1.5l0 6.546875l-1.6875 0l0 -6.453125q0 -2.15625 -2.109375 -2.15625q-1.65625 0 -2.265625 1.40625l0 7.203125l-1.6875 0l0 -9.859375l1.59375 0zm20.851562 9.859375q-0.140625 -0.296875 -0.234375 -1.03125q-1.171875 1.21875 -2.8125 1.21875q-1.453125 0 -2.390625 -0.828125q-0.921875 -0.828125 -0.921875 -2.09375q0 -1.53125 1.15625 -2.375q1.171875 -0.859375 3.296875 -0.859375l1.640625 0l0 -0.78125q0 -0.890625 -0.53125 -1.40625q-0.515625 -0.53125 -1.546875 -0.53125q-0.90625 0 -1.515625 0.46875q-0.609375 0.453125 -0.609375 1.09375l-1.703125 0q0 -0.734375 0.515625 -1.421875q0.53125 -0.6875 1.421875 -1.078125q0.90625 -0.40625 1.984375 -0.40625q1.703125 0 2.671875 0.859375q0.96875 0.84375 1.0 2.328125l0 4.53125q0 1.359375 0.34375 2.171875l0 0.140625l-1.765625 0zm-2.796875 -1.28125q0.796875 0 1.5 -0.40625q0.71875 -0.421875 1.03125 -1.078125l0 -2.015625l-1.3125 0q-3.109375 0 -3.109375 1.8125q0 0.796875 0.53125 1.25q0.53125 0.4375 1.359375 0.4375zm6.4604797 -3.734375q0 -2.296875 1.0625 -3.65625q1.0625 -1.359375 2.828125 -1.359375q1.796875 0 2.8125 1.265625l0.078125 -1.09375l1.546875 0l0 9.625q0 1.90625 -1.140625 3.0q-1.125 1.109375 -3.046875 1.109375q-1.0625 0 -2.09375 -0.453125q-1.015625 -0.453125 -1.546875 -1.25l0.875 -1.0q1.078125 1.328125 2.65625 1.328125q1.21875 0 1.90625 -0.6875q0.6875 -0.6875 0.6875 -1.953125l0 -0.84375q-1.0 1.171875 -2.75 1.171875q-1.734375 0 -2.8125 -1.390625q-1.0625 -1.40625 -1.0625 -3.8125zm1.6875 0.203125q0 1.65625 0.6875 2.609375q0.6875 0.953125 1.921875 0.953125q1.59375 0 2.328125 -1.453125l0 -4.5q-0.765625 -1.40625 -2.3125 -1.40625q-1.234375 0 -1.9375 0.953125q-0.6875 0.953125 -0.6875 2.84375zm13.263672 5.0q-2.0 0 -3.265625 -1.3125q-1.25 -1.328125 -1.25 -3.53125l0 -0.3125q0 -1.46875 0.5625 -2.609375q0.5625 -1.15625 1.5625 -1.796875q1.015625 -0.65625 2.1875 -0.65625q1.921875 0 2.984375 1.265625q1.0625 1.265625 1.0625 3.625l0 0.6875l-6.671875 0q0.03125 1.46875 0.84375 2.375q0.828125 0.890625 2.078125 0.890625q0.890625 0 1.515625 -0.359375q0.625 -0.375 1.078125 -0.96875l1.03125 0.796875q-1.234375 1.90625 -3.71875 1.90625zm-0.203125 -8.84375q-1.015625 0 -1.71875 0.75q-0.6875 0.734375 -0.84375 2.078125l4.9375 0l0 -0.125q-0.078125 -1.28125 -0.703125 -1.984375q-0.609375 -0.71875 -1.671875 -0.71875z" fill-rule="nonzero"/><path fill="#000000" fill-opacity="0.0" d="m527.47766 539.5945l262.29926 0l0 42.519714l-262.29926 0z" fill-rule="evenodd"/><path fill="#586e75" d="m610.635 560.6082q-2.25 -0.65625 -3.28125 -1.59375q-1.03125 -0.9375 -1.03125 -2.328125q0 -1.5625 1.25 -2.59375q1.265625 -1.03125 3.265625 -1.03125q1.359375 0 2.4375 0.53125q1.078125 0.53125 1.65625 1.46875q0.59375 0.921875 0.59375 2.03125l-1.765625 0q0 -1.203125 -0.765625 -1.890625q-0.765625 -0.6875 -2.15625 -0.6875q-1.296875 0 -2.015625 0.5625q-0.71875 0.5625 -0.71875 1.578125q0 0.8125 0.6875 1.375q0.6875 0.5625 2.328125 1.03125q1.65625 0.453125 2.59375 1.015625q0.9375 0.5625 1.375 1.3125q0.453125 0.75 0.453125 1.75q0 1.609375 -1.25 2.59375q-1.25 0.96875 -3.359375 0.96875q-1.375 0 -2.5625 -0.515625q-1.171875 -0.53125 -1.8125 -1.4375q-0.640625 -0.921875 -0.640625 -2.078125l1.75 0q0 1.203125 0.890625 1.90625q0.890625 0.6875 2.375 0.6875q1.375 0 2.109375 -0.5625q0.75 -0.5625 0.75 -1.53125q0 -0.984375 -0.6875 -1.515625q-0.6875 -0.53125 -2.46875 -1.046875zm10.849304 4.71875q0.890625 0 1.5625 -0.546875q0.6875 -0.546875 0.75 -1.375l1.59375 0q-0.046875 0.84375 -0.578125 1.609375q-0.53125 0.765625 -1.4375 1.234375q-0.890625 0.453125 -1.890625 0.453125q-2.015625 0 -3.203125 -1.34375q-1.1875 -1.34375 -1.1875 -3.6875l0 -0.28125q0 -1.4375 0.515625 -2.546875q0.53125 -1.125 1.515625 -1.734375q1.0 -0.625 2.34375 -0.625q1.65625 0 2.75 1.0q1.109375 0.984375 1.171875 2.5625l-1.59375 0q-0.0625 -0.953125 -0.71875 -1.5625q-0.65625 -0.625 -1.609375 -0.625q-1.28125 0 -2.0 0.921875q-0.703125 0.921875 -0.703125 2.671875l0 0.328125q0 1.703125 0.703125 2.625q0.703125 0.921875 2.015625 0.921875zm9.890381 1.375q-2.0 0 -3.265625 -1.3125q-1.25 -1.328125 -1.25 -3.53125l0 -0.3125q0 -1.46875 0.5625 -2.609375q0.5625 -1.15625 1.5625 -1.796875q1.015625 -0.65625 2.1875 -0.65625q1.921875 0 2.984375 1.265625q1.0625 1.265625 1.0625 3.625l0 0.6875l-6.671875 0q0.03125 1.46875 0.84375 2.375q0.828125 0.890625 2.078125 0.890625q0.890625 0 1.515625 -0.359375q0.625 -0.375 1.078125 -0.96875l1.03125 0.796875q-1.234375 1.90625 -3.71875 1.90625zm-0.203125 -8.84375q-1.015625 0 -1.71875 0.75q-0.6875 0.734375 -0.84375 2.078125l4.9375 0l0 -0.125q-0.078125 -1.28125 -0.703125 -1.984375q-0.609375 -0.71875 -1.671875 -0.71875zm7.602539 -1.203125l0.046875 1.234375q1.125 -1.40625 2.953125 -1.40625q3.125 0 3.15625 3.515625l0 6.515625l-1.6875 0l0 -6.515625q-0.015625 -1.078125 -0.5 -1.578125q-0.46875 -0.515625 -1.484375 -0.515625q-0.8125 0 -1.4375 0.4375q-0.609375 0.4375 -0.96875 1.15625l0 7.015625l-1.671875 0l0 -9.859375l1.59375 0zm12.778076 10.046875q-2.0 0 -3.265625 -1.3125q-1.25 -1.328125 -1.25 -3.53125l0 -0.3125q0 -1.46875 0.5625 -2.609375q0.5625 -1.15625 1.5625 -1.796875q1.015625 -0.65625 2.1875 -0.65625q1.921875 0 2.984375 1.265625q1.0625 1.265625 1.0625 3.625l0 0.6875l-6.671875 0q0.03125 1.46875 0.84375 2.375q0.828125 0.890625 2.078125 0.890625q0.890625 0 1.515625 -0.359375q0.625 -0.375 1.078125 -0.96875l1.03125 0.796875q-1.234375 1.90625 -3.71875 1.90625zm-0.203125 -8.84375q-1.015625 0 -1.71875 0.75q-0.6875 0.734375 -0.84375 2.078125l4.9375 0l0 -0.125q-0.078125 -1.28125 -0.703125 -1.984375q-0.609375 -0.71875 -1.671875 -0.71875zm12.455444 8.65625l-1.6875 0l0 -9.859375l1.6875 0l0 9.859375zm-1.828125 -12.46875q0 -0.40625 0.25 -0.6875q0.25 -0.296875 0.734375 -0.296875q0.5 0 0.75 0.296875q0.265625 0.28125 0.265625 0.6875q0 0.40625 -0.265625 0.6875q-0.25 0.265625 -0.75 0.265625q-0.484375 0 -0.734375 -0.265625q-0.25 -0.28125 -0.25 -0.6875zm6.10553 2.609375l0.046875 1.09375q1.078125 -1.265625 2.921875 -1.265625q2.0625 0 2.8125 1.578125q0.5 -0.71875 1.28125 -1.140625q0.796875 -0.4375 1.859375 -0.4375q3.25 0 3.296875 3.421875l0 6.609375l-1.671875 0l0 -6.5q0 -1.0625 -0.484375 -1.578125q-0.484375 -0.53125 -1.625 -0.53125q-0.9375 0 -1.5625 0.5625q-0.609375 0.5625 -0.71875 1.5l0 6.546875l-1.6875 0l0 -6.453125q0 -2.15625 -2.109375 -2.15625q-1.65625 0 -2.265625 1.40625l0 7.203125l-1.6875 0l0 -9.859375l1.59375 0zm20.851562 9.859375q-0.140625 -0.296875 -0.234375 -1.03125q-1.171875 1.21875 -2.8125 1.21875q-1.453125 0 -2.390625 -0.828125q-0.921875 -0.828125 -0.921875 -2.09375q0 -1.53125 1.15625 -2.375q1.171875 -0.859375 3.296875 -0.859375l1.640625 0l0 -0.78125q0 -0.890625 -0.53125 -1.40625q-0.515625 -0.53125 -1.546875 -0.53125q-0.90625 0 -1.515625 0.46875q-0.609375 0.453125 -0.609375 1.09375l-1.703125 0q0 -0.734375 0.515625 -1.421875q0.53125 -0.6875 1.421875 -1.078125q0.90625 -0.40625 1.984375 -0.40625q1.703125 0 2.671875 0.859375q0.96875 0.84375 1.0 2.328125l0 4.53125q0 1.359375 0.34375 2.171875l0 0.140625l-1.765625 0zm-2.796875 -1.28125q0.796875 0 1.5 -0.40625q0.71875 -0.421875 1.03125 -1.078125l0 -2.015625l-1.3125 0q-3.109375 0 -3.109375 1.8125q0 0.796875 0.53125 1.25q0.53125 0.4375 1.359375 0.4375zm6.4605103 -3.734375q0 -2.296875 1.0625 -3.65625q1.0625 -1.359375 2.828125 -1.359375q1.796875 0 2.8125 1.265625l0.078125 -1.09375l1.546875 0l0 9.625q0 1.90625 -1.140625 3.0q-1.125 1.109375 -3.046875 1.109375q-1.0625 0 -2.09375 -0.453125q-1.015625 -0.453125 -1.546875 -1.25l0.875 -1.0q1.078125 1.328125 2.65625 1.328125q1.21875 0 1.90625 -0.6875q0.6875 -0.6875 0.6875 -1.953125l0 -0.84375q-1.0 1.171875 -2.75 1.171875q-1.734375 0 -2.8125 -1.390625q-1.0625 -1.40625 -1.0625 -3.8125zm1.6875 0.203125q0 1.65625 0.6875 2.609375q0.6875 0.953125 1.921875 0.953125q1.59375 0 2.328125 -1.453125l0 -4.5q-0.765625 -1.40625 -2.3125 -1.40625q-1.234375 0 -1.9375 0.953125q-0.6875 0.953125 -0.6875 2.84375zm13.263672 5.0q-2.0 0 -3.265625 -1.3125q-1.25 -1.328125 -1.25 -3.53125l0 -0.3125q0 -1.46875 0.5625 -2.609375q0.5625 -1.15625 1.5625 -1.796875q1.015625 -0.65625 2.1875 -0.65625q1.921875 0 2.984375 1.265625q1.0625 1.265625 1.0625 3.625l0 0.6875l-6.671875 0q0.03125 1.46875 0.84375 2.375q0.828125 0.890625 2.078125 0.890625q0.890625 0 1.515625 -0.359375q0.625 -0.375 1.078125 -0.96875l1.03125 0.796875q-1.234375 1.90625 -3.71875 1.90625zm-0.203125 -8.84375q-1.015625 0 -1.71875 0.75q-0.6875 0.734375 -0.84375 2.078125l4.9375 0l0 -0.125q-0.078125 -1.28125 -0.703125 -1.984375q-0.609375 -0.71875 -1.671875 -0.71875z" fill-rule="nonzero"/></g></svg>