<svg version="1.1" viewBox="0.0 0.0 507.0 321.0" fill="none" stroke="none" stroke-linecap="square" stroke-miterlimit="10" xmlns:xlink="http://www.w3.org/1999/xlink" xmlns="http://www.w3.org/2000/svg"><clipPath id="p.0"><path d="m0 0l507.0 0l0 321.0l-507.0 0l0 -321.0z" clip-rule="nonzero"/></clipPath><g clip-path="url(#p.0)"><path fill="#000000" fill-opacity="0.0" d="m0 0l507.0 0l0 321.0l-507.0 0z" fill-rule="evenodd"/><path fill="#eee8d5" d="m335.79382 282.72845l21.697632 -143.97748l132.44409 -24.904411l-21.697662 143.97748z" fill-rule="evenodd"/><path stroke="#586e75" stroke-width="1.0" stroke-linejoin="round" stroke-linecap="butt" d="m335.79382 282.72845l21.697632 -143.97748l132.44409 -24.904411l-21.697662 143.97748z" fill-rule="evenodd"/><path fill="#eee8d5" d="m21.149593 278.7874l0 -137.48033l153.35432 0l0 137.48033z" fill-rule="evenodd"/><path stroke="#586e75" stroke-width="1.0" stroke-linejoin="round" stroke-linecap="butt" d="m21.149593 278.7874l0 -137.48033l153.35432 0l0 137.48033z" fill-rule="evenodd"/><path fill="#d33682" d="m224.61679 81.43044l0 0c0 -1.243721 1.008255 -2.2519684 2.2519684 -2.2519684l0 0c0.5972595 0 1.1700592 0.23726654 1.592392 0.6595917c0.4223175 0.42232513 0.6595764 0.9951172 0.6595764 1.5923767l0 0c0 1.2437286 -1.0082397 2.2519684 -2.2519684 2.2519684l0 0c-1.2437134 0 -2.2519684 -1.0082397 -2.2519684 -2.2519684z" fill-rule="evenodd"/><path stroke="#d33682" stroke-width="1.0" stroke-linejoin="round" stroke-linecap="butt" d="m224.61679 81.43044l0 0c0 -1.243721 1.008255 -2.2519684 2.2519684 -2.2519684l0 0c0.5972595 0 1.1700592 0.23726654 1.592392 0.6595917c0.4223175 0.42232513 0.6595764 0.9951172 0.6595764 1.5923767l0 0c0 1.2437286 -1.0082397 2.2519684 -2.2519684 2.2519684l0 0c-1.2437134 0 -2.2519684 -1.0082397 -2.2519684 -2.2519684z" fill-rule="evenodd"/><path fill="#000000" fill-opacity="0.0" d="m400.01596 182.33049l-2.015747 13.448822" fill-rule="evenodd"/><path stroke="#586e75" stroke-width="1.0" stroke-linejoin="round" stroke-linecap="butt" d="m400.01596 182.33049l-2.015747 13.448822" fill-rule="evenodd"/><path fill="#000000" fill-opacity="0.0" d="m405.18378 187.88745l-12.37796 2.3307037" fill-rule="evenodd"/><path stroke="#586e75" stroke-width="1.0" stroke-linejoin="round" stroke-linecap="butt" d="m405.18378 187.88745l-12.37796 2.3307037" fill-rule="evenodd"/><path fill="#000000" fill-opacity="0.0" d="m108.32962 187.85577l0 13.448822" fill-rule="evenodd"/><path stroke="#586e75" stroke-width="1.0" stroke-linejoin="round" stroke-linecap="butt" d="m108.32962 187.85577l0 13.448822" fill-rule="evenodd"/><path fill="#000000" fill-opacity="0.0" d="m102.149605 194.58461l12.377953 0" fill-rule="evenodd"/><path stroke="#586e75" stroke-width="1.0" stroke-linejoin="round" stroke-linecap="butt" d="m102.149605 194.58461l12.377953 0" fill-rule="evenodd"/><path fill="#000000" fill-opacity="0.0" d="m108.48898 194.29842l116.7874 -111.27559" fill-rule="evenodd"/><path stroke="#586e75" stroke-width="1.0" stroke-linejoin="round" stroke-linecap="butt" stroke-dasharray="4.0,3.0" d="m108.48898 194.29842l116.7874 -111.27559" fill-rule="evenodd"/><path fill="#000000" fill-opacity="0.0" d="m399.51627 189.29054l-171.05511 -106.267715" fill-rule="evenodd"/><path stroke="#586e75" stroke-width="1.0" stroke-linejoin="round" stroke-linecap="butt" stroke-dasharray="4.0,3.0" d="m399.51627 189.29054l-171.05511 -106.267715" fill-rule="evenodd"/><path fill="#000000" fill-opacity="0.0" d="m15.653543 277.1601l164.34645 0l0 13.448822l-164.34645 0z" fill-rule="evenodd"/><path fill="#586e75" d="m44.118263 293.62268q-2.25 -0.65625 -3.28125 -1.59375q-1.03125 -0.9375 -1.03125 -2.328125q0 -1.5625 1.25 -2.59375q1.265625 -1.03125 3.265625 -1.03125q1.359375 0 2.4375 0.53125q1.078125 0.53125 1.65625 1.46875q0.59375 0.921875 0.59375 2.03125l-1.765625 0q0 -1.203125 -0.765625 -1.890625q-0.765625 -0.6875 -2.15625 -0.6875q-1.296875 0 -2.015625 0.5625q-0.71875 0.5625 -0.71875 1.578125q0 0.8125 0.6875 1.375q0.6875 0.5625 2.328125 1.03125q1.65625 0.453125 2.59375 1.015625q0.9375 0.5625 1.375 1.3125q0.453125 0.75 0.453125 1.75q0 1.609375 -1.25 2.59375q-1.25 0.96875 -3.359375 0.96875q-1.375 0 -2.5625 -0.515625q-1.171875 -0.53125 -1.8125 -1.4375q-0.640625 -0.921875 -0.640625 -2.078125l1.75 0q0 1.203125 0.890625 1.90625q0.890625 0.6875 2.375 0.6875q1.375 0 2.109375 -0.5625q0.75 -0.5625 0.75 -1.53125q0 -0.984375 -0.6875 -1.515625q-0.6875 -0.53125 -2.46875 -1.046875zm10.849289 4.71875q0.890625 0 1.5625 -0.546875q0.6875 -0.546875 0.75 -1.375l1.59375 0q-0.046875 0.84375 -0.578125 1.609375q-0.53125 0.765625 -1.4375 1.234375q-0.890625 0.453125 -1.890625 0.453125q-2.015625 0 -3.203125 -1.34375q-1.1875 -1.34375 -1.1875 -3.6875l0 -0.28125q0 -1.4375 0.515625 -2.546875q0.53125 -1.125 1.515625 -1.734375q1.0 -0.625 2.34375 -0.625q1.65625 0 2.75 1.0q1.109375 0.984375 1.171875 2.5625l-1.59375 0q-0.0625 -0.953125 -0.71875 -1.5625q-0.65625 -0.625 -1.609375 -0.625q-1.28125 0 -2.0 0.921875q-0.703125 0.921875 -0.703125 2.671875l0 0.328125q0 1.703125 0.703125 2.625q0.703125 0.921875 2.015625 0.921875zm9.890381 1.375q-2.0 0 -3.265625 -1.3125q-1.25 -1.328125 -1.25 -3.53125l0 -0.3125q0 -1.46875 0.5625 -2.609375q0.5625 -1.15625 1.5625 -1.796875q1.015625 -0.65625 2.1875 -0.65625q1.921875 0 2.984375 1.265625q1.0625 1.265625 1.0625 3.625l0 0.6875l-6.671875 0q0.03125 1.46875 0.84375 2.375q0.828125 0.890625 2.078125 0.890625q0.890625 0 1.515625 -0.359375q0.625 -0.375 1.078125 -0.96875l1.03125 0.796875q-1.234375 1.90625 -3.71875 1.90625zm-0.203125 -8.84375q-1.015625 0 -1.71875 0.75q-0.6875 0.734375 -0.84375 2.078125l4.9375 0l0 -0.125q-0.078125 -1.28125 -0.703125 -1.984375q-0.609375 -0.71875 -1.671875 -0.71875zm7.6025543 -1.203125l0.046875 1.234375q1.125 -1.40625 2.953125 -1.40625q3.125 0 3.15625 3.515625l0 6.515625l-1.6875 0l0 -6.515625q-0.015625 -1.078125 -0.5 -1.578125q-0.46875 -0.515625 -1.484375 -0.515625q-0.8125 0 -1.4375 0.4375q-0.609375 0.4375 -0.96875 1.15625l0 7.015625l-1.671875 0l0 -9.859375l1.59375 0zm12.778107 10.046875q-2.0 0 -3.265625 -1.3125q-1.25 -1.328125 -1.25 -3.53125l0 -0.3125q0 -1.46875 0.5625 -2.609375q0.5625 -1.15625 1.5625 -1.796875q1.015625 -0.65625 2.1875 -0.65625q1.921875 0 2.984375 1.265625q1.0625 1.265625 1.0625 3.625l0 0.6875l-6.671875 0q0.03125 1.46875 0.84375 2.375q0.828125 0.890625 2.078125 0.890625q0.890625 0 1.515625 -0.359375q0.625 -0.375 1.078125 -0.96875l1.03125 0.796875q-1.234375 1.90625 -3.71875 1.90625zm-0.203125 -8.84375q-1.015625 0 -1.71875 0.75q-0.6875 0.734375 -0.84375 2.078125l4.9375 0l0 -0.125q-0.078125 -1.28125 -0.703125 -1.984375q-0.609375 -0.71875 -1.671875 -0.71875zm12.455444 8.65625l-1.6875 0l0 -9.859375l1.6875 0l0 9.859375zm-1.828125 -12.46875q0 -0.40625 0.25 -0.6875q0.25 -0.296875 0.734375 -0.296875q0.5 0 0.75 0.296875q0.265625 0.28125 0.265625 0.6875q0 0.40625 -0.265625 0.6875q-0.25 0.265625 -0.75 0.265625q-0.484375 0 -0.734375 -0.265625q-0.25 -0.28125 -0.25 -0.6875zm6.105545 2.609375l0.046875 1.09375q1.078125 -1.265625 2.921875 -1.265625q2.0625 0 2.8125 1.578125q0.5 -0.71875 1.28125 -1.140625q0.796875 -0.4375 1.859375 -0.4375q3.25 0 3.296875 3.421875l0 6.609375l-1.671875 0l0 -6.5q0 -1.0625 -0.484375 -1.578125q-0.484375 -0.53125 -1.625 -0.53125q-0.9375 0 -1.5625 0.5625q-0.609375 0.5625 -0.71875 1.5l0 6.546875l-1.6875 0l0 -6.453125q0 -2.15625 -2.109375 -2.15625q-1.65625 0 -2.265625 1.40625l0 7.203125l-1.6875 0l0 -9.859375l1.59375 0zm20.851547 9.859375q-0.140625 -0.296875 -0.234375 -1.03125q-1.171875 1.21875 -2.8125 1.21875q-1.453125 0 -2.390625 -0.828125q-0.921875 -0.828125 -0.921875 -2.09375q0 -1.53125 1.15625 -2.375q1.171875 -0.859375 3.296875 -0.859375l1.640625 0l0 -0.78125q0 -0.890625 -0.53125 -1.40625q-0.515625 -0.53125 -1.546875 -0.53125q-0.90625 0 -1.515625 0.46875q-0.609375 0.453125 -0.609375 1.09375l-1.703125 0q0 -0.734375 0.515625 -1.421875q0.53125 -0.6875 1.421875 -1.078125q0.90625 -0.40625 1.984375 -0.40625q1.703125 0 2.671875 0.859375q0.96875 0.84375 1.0 2.328125l0 4.53125q0 1.359375 0.34375 2.171875l0 0.140625l-1.765625 0zm-2.796875 -1.28125q0.796875 0 1.5 -0.40625q0.71875 -0.421875 1.03125 -1.078125l0 -2.015625l-1.3125 0q-3.109375 0 -3.109375 1.8125q0 0.796875 0.53125 1.25q0.53125 0.4375 1.359375 0.4375zm6.4604797 -3.734375q0 -2.296875 1.0625 -3.65625q1.0625076 -1.359375 2.8281326 -1.359375q1.796875 0 2.8125 1.265625l0.078125 -1.09375l1.546875 0l0 9.625q0 1.90625 -1.140625 3.0q-1.125 1.109375 -3.046875 1.109375q-1.0625 0 -2.09375 -0.453125q-1.0156326 -0.453125 -1.5468826 -1.25l0.875 -1.0q1.0781326 1.328125 2.6562576 1.328125q1.21875 0 1.90625 -0.6875q0.6875 -0.6875 0.6875 -1.953125l0 -0.84375q-1.0 1.171875 -2.75 1.171875q-1.734375 0 -2.8125076 -1.390625q-1.0625 -1.40625 -1.0625 -3.8125zm1.6875 0.203125q0 1.65625 0.6875076 2.609375q0.6875 0.953125 1.921875 0.953125q1.59375 0 2.328125 -1.453125l0 -4.5q-0.765625 -1.40625 -2.3125 -1.40625q-1.234375 0 -1.9375 0.953125q-0.6875076 0.953125 -0.6875076 2.84375zm13.263695 5.0q-2.0 0 -3.265625 -1.3125q-1.25 -1.328125 -1.25 -3.53125l0 -0.3125q0 -1.46875 0.5625 -2.609375q0.5625 -1.15625 1.5625 -1.796875q1.015625 -0.65625 2.1875 -0.65625q1.921875 0 2.984375 1.265625q1.0625 1.265625 1.0625 3.625l0 0.6875l-6.671875 0q0.03125 1.46875 0.84375 2.375q0.828125 0.890625 2.078125 0.890625q0.890625 0 1.515625 -0.359375q0.625 -0.375 1.078125 -0.96875l1.03125 0.796875q-1.234375 1.90625 -3.71875 1.90625zm-0.203125 -8.84375q-1.015625 0 -1.71875 0.75q-0.6875 0.734375 -0.84375 2.078125l4.9375 0l0 -0.125q-0.078125 -1.28125 -0.703125 -1.984375q-0.609375 -0.71875 -1.671875 -0.71875z" fill-rule="nonzero"/><path fill="#586e75" d="m152.1745 298.12268l1.59375 -8.84375q0.0625 -0.296875 -0.125 -0.4375q-0.1875 -0.15625 -1.203125 -0.3125l0.109375 -0.609375l2.84375 0.078125q0.65625 0 1.125 -0.03125q0.46875 -0.046875 1.078125 -0.046875l-0.078125 0.65625q-0.9375 0.015625 -1.1875 0.28125q-0.25 0.25 -0.375 0.921875l-1.484375 8.390625q-0.03125 0.09375 -0.03125 0.171875q0 0.59375 1.484375 0.671875l-0.140625 0.640625l-2.9375 -0.078125l-2.4375 0.078125q0.046875 -0.4375 0.078125 -0.53125q0.046875 -0.109375 0.515625 -0.1875q0.484375 -0.078125 0.78125 -0.234375q0.3125 -0.15625 0.390625 -0.578125z" fill-rule="nonzero"/><path fill="#000000" fill-opacity="0.0" d="m323.97375 277.1601l164.34647 0l0 13.448822l-164.34647 0z" fill-rule="evenodd"/><path fill="#586e75" d="m342.61963 294.16956l-3.125 0l0 5.359375l-1.75 0l0 -13.265625l4.390625 0q2.234375 0 3.4375 1.03125q1.21875 1.015625 1.21875 2.953125q0 1.25 -0.671875 2.171875q-0.671875 0.921875 -1.859375 1.375l3.109375 5.625l0 0.109375l-1.875 0l-2.875 -5.359375zm-3.125 -1.4375l2.6875 0q1.3125 0 2.078125 -0.671875q0.765625 -0.671875 0.765625 -1.8125q0 -1.21875 -0.734375 -1.875q-0.734375 -0.65625 -2.109375 -0.671875l-2.6875 0l0 5.03125zm13.565186 6.984375q-2.0 0 -3.265625 -1.3125q-1.25 -1.328125 -1.25 -3.53125l0 -0.3125q0 -1.46875 0.5625 -2.609375q0.5625 -1.15625 1.5625 -1.796875q1.015625 -0.65625 2.1875 -0.65625q1.921875 0 2.984375 1.265625q1.0625 1.265625 1.0625 3.625l0 0.6875l-6.671875 0q0.03125 1.46875 0.84375 2.375q0.828125 0.890625 2.078125 0.890625q0.890625 0 1.515625 -0.359375q0.625 -0.375 1.078125 -0.96875l1.03125 0.796875q-1.234375 1.90625 -3.71875 1.90625zm-0.203125 -8.84375q-1.015625 0 -1.71875 0.75q-0.6875 0.734375 -0.84375 2.078125l4.9375 0l0 -0.125q-0.078125 -1.28125 -0.703125 -1.984375q-0.609375 -0.71875 -1.671875 -0.71875zm6.8369446 8.65625l0 -8.546875l-1.5625 0l0 -1.3125l1.5625 0l0 -1.015625q0 -1.578125 0.84375 -2.4375q0.84375 -0.875 2.390625 -0.875q0.59375 0 1.15625 0.15625l-0.09375 1.375q-0.421875 -0.09375 -0.90625 -0.09375q-0.8125 0 -1.265625 0.484375q-0.4375 0.484375 -0.4375 1.375l0 1.03125l2.09375 0l0 1.3125l-2.09375 0l0 8.546875l-1.6875 0zm9.726837 0.1875q-2.0 0 -3.265625 -1.3125q-1.25 -1.328125 -1.25 -3.53125l0 -0.3125q0 -1.46875 0.5625 -2.609375q0.5625 -1.15625 1.5625 -1.796875q1.015625 -0.65625 2.1875 -0.65625q1.921875 0 2.984375 1.265625q1.0625 1.265625 1.0625 3.625l0 0.6875l-6.671875 0q0.03125 1.46875 0.84375 2.375q0.828125 0.890625 2.078125 0.890625q0.890625 0 1.515625 -0.359375q0.625 -0.375 1.078125 -0.96875l1.03125 0.796875q-1.234375 1.90625 -3.71875 1.90625zm-0.203125 -8.84375q-1.015625 0 -1.71875 0.75q-0.6875 0.734375 -0.84375 2.078125l4.9375 0l0 -0.125q-0.078125 -1.28125 -0.703125 -1.984375q-0.609375 -0.71875 -1.671875 -0.71875zm10.774445 0.3125q-0.390625 -0.0625 -0.84375 -0.0625q-1.65625 0 -2.25 1.40625l0 7.0l-1.671875 0l0 -9.859375l1.640625 0l0.015625 1.140625q0.828125 -1.3125 2.359375 -1.3125q0.484375 0 0.75 0.125l0 1.5625zm5.625366 8.53125q-2.0 0 -3.265625 -1.3125q-1.25 -1.328125 -1.25 -3.53125l0 -0.3125q0 -1.46875 0.5625 -2.609375q0.5625 -1.15625 1.5625 -1.796875q1.015625 -0.65625 2.1875 -0.65625q1.921875 0 2.984375 1.265625q1.0625 1.265625 1.0625 3.625l0 0.6875l-6.671875 0q0.03125 1.46875 0.84375 2.375q0.828125 0.890625 2.078125 0.890625q0.890625 0 1.515625 -0.359375q0.625 -0.375 1.078125 -0.96875l1.03125 0.796875q-1.234375 1.90625 -3.71875 1.90625zm-0.203125 -8.84375q-1.015625 0 -1.71875 0.75q-0.6875 0.734375 -0.84375 2.078125l4.9375 0l0 -0.125q-0.078125 -1.28125 -0.703125 -1.984375q-0.609375 -0.71875 -1.671875 -0.71875zm7.6025696 -1.203125l0.046875 1.234375q1.125 -1.40625 2.953125 -1.40625q3.125 0 3.15625 3.515625l0 6.515625l-1.6875 0l0 -6.515625q-0.015625 -1.078125 -0.5 -1.578125q-0.46875 -0.515625 -1.484375 -0.515625q-0.8125 0 -1.4375 0.4375q-0.609375 0.4375 -0.96875 1.15625l0 7.015625l-1.671875 0l0 -9.859375l1.59375 0zm12.653107 8.671875q0.890625 0 1.5625 -0.546875q0.6875 -0.546875 0.75 -1.375l1.59375 0q-0.046875 0.84375 -0.578125 1.609375q-0.53125 0.765625 -1.4375 1.234375q-0.890625 0.453125 -1.890625 0.453125q-2.015625 0 -3.203125 -1.34375q-1.1875 -1.34375 -1.1875 -3.6875l0 -0.28125q0 -1.4375 0.515625 -2.546875q0.53125 -1.125 1.515625 -1.734375q1.0 -0.625 2.34375 -0.625q1.65625 0 2.75 1.0q1.109375 0.984375 1.171875 2.5625l-1.59375 0q-0.0625 -0.953125 -0.71875 -1.5625q-0.65625 -0.625 -1.609375 -0.625q-1.28125 0 -2.0 0.921875q-0.703125 0.921875 -0.703125 2.671875l0 0.328125q0 1.703125 0.703125 2.625q0.703125 0.921875 2.015625 0.921875zm9.890381 1.375q-2.0 0 -3.265625 -1.3125q-1.25 -1.328125 -1.25 -3.53125l0 -0.3125q0 -1.46875 0.5625 -2.609375q0.5625 -1.15625 1.5625 -1.796875q1.015625 -0.65625 2.1875 -0.65625q1.921875 0 2.984375 1.265625q1.0625 1.265625 1.0625 3.625l0 0.6875l-6.671875 0q0.03125 1.46875 0.84375 2.375q0.828125 0.890625 2.078125 0.890625q0.890625 0 1.515625 -0.359375q0.625 -0.375 1.078125 -0.96875l1.03125 0.796875q-1.234375 1.90625 -3.71875 1.90625zm-0.203125 -8.84375q-1.015625 0 -1.71875 0.75q-0.6875 0.734375 -0.84375 2.078125l4.9375 0l0 -0.125q-0.078125 -1.28125 -0.703125 -1.984375q-0.609375 -0.71875 -1.671875 -0.71875zm12.455444 8.65625l-1.6875 0l0 -9.859375l1.6875 0l0 9.859375zm-1.828125 -12.46875q0 -0.40625 0.25 -0.6875q0.25 -0.296875 0.734375 -0.296875q0.5 0 0.75 0.296875q0.265625 0.28125 0.265625 0.6875q0 0.40625 -0.265625 0.6875q-0.25 0.265625 -0.75 0.265625q-0.484375 0 -0.734375 -0.265625q-0.25 -0.28125 -0.25 -0.6875zm6.10553 2.609375l0.046875 1.09375q1.078125 -1.265625 2.921875 -1.265625q2.0625 0 2.8125 1.578125q0.5 -0.71875 1.28125 -1.140625q0.796875 -0.4375 1.859375 -0.4375q3.25 0 3.296875 3.421875l0 6.609375l-1.671875 0l0 -6.5q0 -1.0625 -0.484375 -1.578125q-0.484375 -0.53125 -1.625 -0.53125q-0.9375 0 -1.5625 0.5625q-0.609375 0.5625 -0.71875 1.5l0 6.546875l-1.6875 0l0 -6.453125q0 -2.15625 -2.109375 -2.15625q-1.65625 0 -2.265625 1.40625l0 7.203125l-1.6875 0l0 -9.859375l1.59375 0zm20.851562 9.859375q-0.140625 -0.296875 -0.234375 -1.03125q-1.171875 1.21875 -2.8125 1.21875q-1.453125 0 -2.390625 -0.828125q-0.921875 -0.828125 -0.921875 -2.09375q0 -1.53125 1.15625 -2.375q1.171875 -0.859375 3.296875 -0.859375l1.640625 0l0 -0.78125q0 -0.890625 -0.53125 -1.40625q-0.515625 -0.53125 -1.546875 -0.53125q-0.90625 0 -1.515625 0.46875q-0.609375 0.453125 -0.609375 1.09375l-1.703125 0q0 -0.734375 0.515625 -1.421875q0.53125 -0.6875 1.421875 -1.078125q0.90625 -0.40625 1.984375 -0.40625q1.703125 0 2.671875 0.859375q0.96875 0.84375 1.0 2.328125l0 4.53125q0 1.359375 0.34375 2.171875l0 0.140625l-1.765625 0zm-2.796875 -1.28125q0.796875 0 1.5 -0.40625q0.71875 -0.421875 1.03125 -1.078125l0 -2.015625l-1.3125 0q-3.109375 0 -3.109375 1.8125q0 0.796875 0.53125 1.25q0.53125 0.4375 1.359375 0.4375zm6.4604797 -3.734375q0 -2.296875 1.0625 -3.65625q1.0625 -1.359375 2.828125 -1.359375q1.796875 0 2.8125 1.265625l0.078125 -1.09375l1.546875 0l0 9.625q0 1.90625 -1.140625 3.0q-1.125 1.109375 -3.046875 1.109375q-1.0625 0 -2.09375 -0.453125q-1.015625 -0.453125 -1.546875 -1.25l0.875 -1.0q1.078125 1.328125 2.65625 1.328125q1.21875 0 1.90625 -0.6875q0.6875 -0.6875 0.6875 -1.953125l0 -0.84375q-1.0 1.171875 -2.75 1.171875q-1.734375 0 -2.8125 -1.390625q-1.0625 -1.40625 -1.0625 -3.8125zm1.6875 0.203125q0 1.65625 0.6875 2.609375q0.6875 0.953125 1.921875 0.953125q1.59375 0 2.328125 -1.453125l0 -4.5q-0.765625 -1.40625 -2.3125 -1.40625q-1.234375 0 -1.9375 0.953125q-0.6875 0.953125 -0.6875 2.84375zm13.263672 5.0q-2.0 0 -3.265625 -1.3125q-1.25 -1.328125 -1.25 -3.53125l0 -0.3125q0 -1.46875 0.5625 -2.609375q0.5625 -1.15625 1.5625 -1.796875q1.015625 -0.65625 2.1875 -0.65625q1.921875 0 2.984375 1.265625q1.0625 1.265625 1.0625 3.625l0 0.6875l-6.671875 0q0.03125 1.46875 0.84375 2.375q0.828125 0.890625 2.078125 0.890625q0.890625 0 1.515625 -0.359375q0.625 -0.375 1.078125 -0.96875l1.03125 0.796875q-1.234375 1.90625 -3.71875 1.90625zm-0.203125 -8.84375q-1.015625 0 -1.71875 0.75q-0.6875 0.734375 -0.84375 2.078125l4.9375 0l0 -0.125q-0.078125 -1.28125 -0.703125 -1.984375q-0.609375 -0.71875 -1.671875 -0.71875z" fill-rule="nonzero"/><path fill="#000000" fill-opacity="0.0" d="m254.35031 67.04068l101.73227 64.44095l-10.48819 16.503937l-101.73227 -64.44095z" fill-rule="evenodd"/><path fill="#586e75" d="m258.0588 90.016464l-3.4715118 -2.1989899l-1.8018188 2.8352966l4.0391083 2.5585175l-0.54473877 0.85717773l-5.0950775 -3.2274094l5.078598 -7.991562l5.0290833 3.1856003l-0.54473877 0.85717773l-3.9730835 -2.5167084l-1.6342163 2.5715485l3.471527 2.1989822l-0.5531311 0.87036896zm3.8440857 5.394333q0.25979614 -0.40880585 0.08547974 -0.83366394q-0.16113281 -0.41648865 -0.83932495 -1.0680466q-0.6566467 -0.6563797 -0.9761658 -1.1732101q-0.29794312 -0.5216522 -0.3211975 -0.9802933q-0.0016784668 -0.46346283 0.27487183 -0.8986435q0.4609375 -0.7253113 1.3997803 -0.83345795q0.9472351 -0.12133026 1.9107971 0.48903656q1.0031738 0.63544464 1.3015442 1.5642776q0.30673218 0.9156418 -0.2128601 1.7332611l-1.0295715 -0.6521683q0.26818848 -0.42199707 0.10455322 -0.95105743q-0.16363525 -0.52906036 -0.6916504 -0.86351013q-0.5543823 -0.35116577 -1.0303955 -0.30127716q-0.46765137 0.036705017 -0.7190552 0.43232727q-0.22628784 0.35606384 -0.061584473 0.73781586q0.17306519 0.36856842 0.8296814 1.0249557q0.6566467 0.6563797 0.96777344 1.1863937q0.33273315 0.52519226 0.3392334 1.0102005q0.028076172 0.48018646 -0.2736206 0.95493317q-0.50283813 0.7912445 -1.4596863 0.86948395q-0.93530273 0.073410034 -1.9516602 -0.5703964q-0.7127991 -0.45150757 -1.1079407 -1.0532379q-0.381958 -0.59336853 -0.41381836 -1.2424011q-0.010284424 -0.6538696 0.32495117 -1.181366l1.0163574 0.64380646q-0.30044556 0.5310364 -0.11038208 1.0768204q0.19839478 0.5325928 0.8187866 0.9255676q0.58078 0.3678894 1.0664673 0.36109924q0.50723267 -0.011627197 0.7586365 -0.40724945zm7.407501 -3.446045l-0.91348267 1.4374313l1.1087646 0.70233154l-0.50283813 0.7912445l-1.1087646 -0.7023392l-2.3381653 3.6792908q-0.22628784 0.3560562 -0.1984253 0.6326523q0.027893066 0.27659607 0.38427734 0.50234985q0.18478394 0.1170578 0.53027344 0.24342346l-0.5195923 0.8176193q-0.4630127 -0.14533234 -0.8458252 -0.38780975q-0.68637085 -0.4347763 -0.7697754 -1.0609741q-0.08340454 -0.62620544 0.40267944 -1.3910751l2.3381653 -3.6792831l-1.082367 -0.68561554l0.50283813 -0.7912445l1.082367 0.68561554l0.91348267 -1.4374237l1.0163879 0.64380646zm-1.2923279 9.539131l-1.0163879 -0.6438141l3.7796326 -5.9475174l1.0163879 0.6438141l-3.7796326 5.9475174zm3.6813354 -8.2108q0.15924072 -0.25055695 0.4133606 -0.33002472q0.2673645 -0.07109833 0.55773926 0.112846375q0.30358887 0.19230652 0.33984375 0.45571136q0.049468994 0.2717743 -0.10977173 0.52233124q-0.15924072 0.25056458 -0.4265747 0.3216629q-0.24575806 0.06627655 -0.5493469 -0.12602997q-0.29040527 -0.1839447 -0.34823608 -0.44252777q-0.036254883 -0.26340485 0.12298584 -0.5139694zm2.6854553 3.902092l-0.39260864 0.67609406q1.132843 -0.3551712 2.2548218 0.35552216q1.2407532 0.7859497 1.0861511 2.019722q0.57177734 -0.22969055 1.2145691 -0.19243622q0.64279175 0.037254333 1.2895813 0.44695282q1.9535522 1.2374496 0.6774292 3.3329544l-2.5309448 3.9825974l-1.0163574 -0.64380646l2.4890137 -3.9166641q0.41064453 -0.6461792 0.32138062 -1.1466217q-0.089263916 -0.5004425 -0.7888489 -0.94358826q-0.5543823 -0.35116577 -1.1550598 -0.25077057q-0.5874939 0.10876465 -1.013855 0.63401794l-2.5057678 3.9430313l-1.0163879 -0.64380646l2.4722595 -3.8902893q0.8296814 -1.3055496 -0.4375 -2.108223q-1.0031738 -0.63544464 -1.9174805 -0.012374878l-2.7572021 4.3386536l-1.0163879 -0.6438141l3.7796326 -5.9475174l0.963562 0.6103668zm8.807922 13.920929q0.016571045 -0.22996521 0.24868774 -0.71177673q-1.173706 0.2738037 -2.1636658 -0.35328674q-0.8711853 -0.5518341 -1.1286926 -1.3992996q-0.24914551 -0.8606491 0.23693848 -1.6255188q0.5866394 -0.9231186 1.6130676 -0.9942856q1.0396118 -0.062805176 2.3199768 0.74822235l0.98999023 0.62709045l0.30169678 -0.4747467q0.3352356 -0.52749634 0.21957397 -1.0446625q-0.11566162 -0.51716614 -0.73605347 -0.910141q-0.54119873 -0.34280396 -1.0867615 -0.29998016q-0.54559326 0.04282379 -0.78863525 0.42525482l-1.0163574 -0.64380646q0.2765503 -0.4351883 0.8399353 -0.6516876q0.58496094 -0.22132874 1.277008 -0.11589813q0.71362305 0.100608826 1.3604126 0.5103073q1.0295715 0.6521683 1.2835083 1.5343704q0.25393677 0.88220215 -0.28952026 1.7956619l-1.7431641 2.742981q-0.5195923 0.8176193 -0.623291 1.4177856l-0.058685303 0.092308044l-1.0559692 -0.6688919zm-1.1950989 -1.8482819q0.4751892 0.3010025 1.0484314 0.3311844q0.5948181 0.025360107 1.0310364 -0.25321198l0.7793884 -1.2264252l-0.7919922 -0.50167084q-1.8743591 -1.1872864 -2.5699463 -0.09272766q-0.30169678 0.4747467 -0.16088867 0.9523468q0.16238403 0.47277832 0.66397095 0.79050446zm9.715912 -3.1120453l-0.91345215 1.4374237l1.1087646 0.7023392l-0.50283813 0.7912445l-1.1087646 -0.7023392l-2.3381653 3.6792831q-0.22628784 0.35606384 -0.1984253 0.6326599q0.027862549 0.27659607 0.38427734 0.50234985q0.18478394 0.11705017 0.53027344 0.24342346l-0.5195923 0.8176193q-0.4630432 -0.14533997 -0.8458252 -0.38780975q-0.68637085 -0.43478394 -0.7697754 -1.0609818q-0.08340454 -0.6261978 0.40267944 -1.3910675l2.3381653 -3.6792831l-1.082367 -0.68561554l0.50283813 -0.7912445l1.082367 0.68561554l0.91348267 -1.4374313l1.0163574 0.6438141zm2.1362305E-4 10.505821q-1.2011719 -0.76086426 -1.4639282 -2.037056q-0.24954224 -1.2678299 0.5968933 -2.5997543l0.11734009 -0.18462372q0.5614929 -0.8835602 1.3272705 -1.3602753q0.7873535 -0.48153687 1.6459656 -0.49254608q0.85861206 -0.011009216 1.5713806 0.44049072q1.16156 0.7357788 1.309082 1.9019852q0.16070557 1.1745682 -0.74438477 2.5988083l-0.26818848 0.42199707l-4.025879 -2.5501556q-0.539917 0.8787308 -0.3951416 1.728775q0.1579895 0.8584137 0.9103699 1.3349991q0.54119873 0.34280396 1.0448608 0.36592102q0.52526855 0.018287659 1.0287476 -0.1621933l0.31866455 0.86772156q-1.4682922 0.6790848 -2.973053 -0.27409363zm3.2669373 -5.4029617q-0.6203613 -0.39296722 -1.3276978 -0.2121582q-0.6941223 0.18917847 -1.3109436 0.92671967l2.9831238 1.8896255l0.041900635 -0.06594086q0.4548645 -0.80313873 0.34024048 -1.4676132q-0.09301758 -0.66929626 -0.72662354 -1.0706329zm1.978363 4.34198q0.87158203 -1.3714905 2.0463257 -1.7925949q1.1747742 -0.42111206 2.2175293 0.23941803q1.0559692 0.6688919 1.2106018 1.765625l1.9694519 -3.0990372l1.0163574 0.64380646l-5.3635254 8.439941l-0.9371948 -0.5936432l0.3494568 -0.6664429q-1.076477 0.35388184 -2.158844 -0.3317337q-1.0427856 -0.6605301 -1.1532288 -1.9142227q-0.1104126 -1.253685 0.7527771 -2.611992l0.05029297 -0.07912445zm0.9409485 0.76249695q-0.6369324 1.002243 -0.59646606 1.8416824q0.06201172 0.8346176 0.8012085 1.3028412q0.963562 0.6103668 1.9654541 0.024276733l1.7347717 -2.7297897q0.07437134 -1.1366348 -0.86279297 -1.730278q-0.7523804 -0.4765854 -1.5435181 -0.16389465q-0.7779236 0.32104492 -1.4986572 1.455162zm8.196259 5.0253525q0.87158203 -1.3714905 2.0463562 -1.7925949q1.1747437 -0.42111206 2.2175293 0.23941803q1.0559692 0.6688919 1.2106018 1.765625l1.9694214 -3.0990372l1.0163879 0.64380646l-5.363556 8.439941l-0.9371643 -0.5936432l0.3494568 -0.66643524q-1.0765076 0.3538742 -2.1588745 -0.3317337q-1.0427856 -0.6605377 -1.1531982 -1.9142227q-0.110443115 -1.2536926 0.7527771 -2.6119995l0.05026245 -0.07912445zm0.9409485 0.76249695q-0.63690186 1.002243 -0.59646606 1.8416901q0.06201172 0.83461 0.8012085 1.3028336q0.9635925 0.6103668 1.9654846 0.024276733l1.7347717 -2.7297897q0.07437134 -1.1366348 -0.8628235 -1.730278q-0.7523804 -0.4765854 -1.5435181 -0.16389465q-0.7779236 0.32104492 -1.4986572 1.455162zm6.128662 8.099205q-1.2011414 -0.76086426 -1.4638977 -2.0370636q-0.24954224 -1.2678299 0.5968933 -2.5997543l0.11730957 -0.18462372q0.5614929 -0.8835602 1.3272705 -1.3602753q0.78738403 -0.4815445 1.6459656 -0.4925537q0.85861206 -0.011009216 1.5713806 0.44049835q1.1615906 0.7357788 1.309082 1.9019852q0.16073608 1.1745682 -0.74438477 2.5988007l-0.26815796 0.42199707l-4.0259094 -2.550148q-0.539917 0.8787308 -0.3951416 1.7287827q0.1579895 0.85839844 0.9103699 1.3349915q0.54119873 0.34280396 1.0448608 0.36592102q0.52526855 0.01828003 1.0287476 -0.16218567l0.31866455 0.86772156q-1.4682617 0.67907715 -2.973053 -0.27409363zm3.2669678 -5.4029694q-0.62039185 -0.39297485 -1.3277283 -0.2121582q-0.6941223 0.18917847 -1.3109436 0.92671967l2.9831238 1.8896179l0.041931152 -0.06593323q0.45483398 -0.80313873 0.34020996 -1.4676132q-0.09301758 -0.66929626 -0.726593 -1.0706329zm7.169586 7.796768q-0.8631897 1.3583069 -2.0115662 1.7961426q-1.1399841 0.42463684 -2.209137 -0.25260925q-1.0823975 -0.68562317 -1.2669678 -1.7643433l-1.8186035 2.8616638l-1.0163574 -0.6437988l5.2294617 -8.228943l0.9371643 0.5936432l-0.37942505 0.68444824q1.1196594 -0.36353302 2.2152405 0.33044434q1.0691528 0.67726135 1.1783447 1.8746643q0.12237549 1.2057648 -0.7994995 2.656372l-0.058654785 0.092315674zm-0.9409485 -0.76249695q0.63690186 -1.002243 0.57006836 -1.8583984q-0.04525757 -0.86099243 -0.79763794 -1.3375854q-0.9239807 -0.5852814 -1.9055786 -0.060302734l-1.8101807 2.8484802q-0.049224854 1.0970764 0.88793945 1.6907196q0.7391968 0.46821594 1.5219421 0.16871643q0.8043213 -0.3043213 1.5334473 -1.4516296zm6.4641113 -2.0275574l-0.91348267 1.437439l1.1087646 0.70233154l-0.50283813 0.7912445l-1.1087646 -0.70233154l-2.3381653 3.6792755q-0.22628784 0.35606384 -0.1984253 0.6326599q0.027893066 0.27659607 0.38427734 0.50234985q0.18478394 0.11705017 0.53027344 0.24342346l-0.5195923 0.8176117q-0.4630127 -0.1453247 -0.8458252 -0.38780212q-0.68637085 -0.43478394 -0.7697754 -1.0609741q-0.08337402 -0.62620544 0.40267944 -1.3910828l2.3381653 -3.6792755l-1.082367 -0.68562317l0.50283813 -0.7912445l1.082367 0.68562317l0.91348267 -1.4374237l1.0163879 0.6437988zm1.93396 4.2583923q1.2143555 -0.3960266 2.296753 0.28959656q1.8875427 1.1956329 0.55148315 3.327179l-2.497406 3.92984l-1.0163879 -0.6438141l2.497406 -3.92984q0.39746094 -0.654541 0.2998047 -1.1417999q-0.076049805 -0.4920807 -0.69644165 -0.88505554q-0.4883728 -0.30937195 -1.0387878 -0.28808594q-0.5372009 0.029632568 -1.0249634 0.33103943l-2.690155 4.2331543l-1.0163574 -0.6438141l5.363556 -8.439941l1.0163574 0.6438141l-2.0448608 3.2177277z" fill-rule="nonzero"/><path fill="#000000" fill-opacity="0.0" d="m174.50131 209.0c13.170837 4.9168854 50.515488 29.83464 79.025024 29.501312c28.509552 -0.33332825 76.69351 -26.251099 92.032196 -31.501312" fill-rule="evenodd"/><path stroke="#586e75" stroke-width="1.0" stroke-linejoin="round" stroke-linecap="butt" d="m179.9843 211.43658l0.52474976 0.2564087c2.337326 1.1512451 4.9878693 2.5266418 7.8872223 4.0377655c5.798645 3.0222778 12.592438 6.5875397 19.86554 9.988724c14.546204 6.8023987 31.009766 12.948502 45.26451 12.78183c14.254776 -0.16667175 33.428146 -6.729431 50.955185 -13.90683c8.763519 -3.588684 17.115417 -7.331024 24.235138 -10.504349c3.559845 -1.5866547 6.8116455 -3.0310364 9.652832 -4.2428436c0.35513306 -0.15148926 0.7038574 -0.29930115 1.04599 -0.44335938l0.5506897 -0.23010254" fill-rule="evenodd"/><path fill="#586e75" stroke="#586e75" stroke-width="1.0" stroke-linecap="butt" d="m180.65506 209.92719l-4.81781 -0.33351135l3.4762726 3.3523102z" fill-rule="evenodd"/><path fill="#586e75" stroke="#586e75" stroke-width="1.0" stroke-linecap="butt" d="m340.5646 210.71335l3.6313477 -3.1837006l-4.8282166 0.10467529z" fill-rule="evenodd"/><path fill="#000000" fill-opacity="0.0" d="m196.49081 238.50394l110.01575 0l0 25.007874l-110.01575 0z" fill-rule="evenodd"/><path fill="#586e75" d="m214.52206 259.29895l-5.75 0l0 4.6875l6.6875 0l0 1.4375l-8.421875 0l0 -13.26564l8.328125 0l0 1.4375l-6.59375 0l0 4.2656403l5.75 0l0 1.4375zm8.58783 3.515625q0 -0.6875 -0.515625 -1.0625q-0.515625 -0.375 -1.796875 -0.640625q-1.28125 -0.28125 -2.03125 -0.65625q-0.75 -0.390625 -1.109375 -0.921875q-0.359375 -0.53125 -0.359375 -1.265625q0 -1.203125 1.015625 -2.03125q1.03125 -0.84376526 2.625 -0.84376526q1.671875 0 2.71875 0.85939026q1.046875 0.859375 1.046875 2.21875l-1.6875 0q0 -0.703125 -0.59375 -1.203125q-0.59375 -0.5 -1.484375 -0.5q-0.921875 0 -1.4375 0.40625q-0.515625 0.390625 -0.515625 1.046875q0 0.609375 0.484375 0.921875q0.484375 0.3125 1.734375 0.59375q1.265625 0.28125 2.046875 0.671875q0.78125 0.390625 1.15625 0.9375q0.390625 0.546875 0.390625 1.34375q0 1.328125 -1.0625 2.125q-1.046875 0.796875 -2.734375 0.796875q-1.1875 0 -2.109375 -0.421875q-0.90625 -0.421875 -1.421875 -1.171875q-0.515625 -0.75 -0.515625 -1.625l1.6875 0q0.046875 0.84375 0.671875 1.34375q0.640625 0.5 1.6875 0.5q0.953125 0 1.53125 -0.390625q0.578125 -0.390625 0.578125 -1.03125zm6.166504 -9.64064l0 2.390625l1.84375 0l0 1.3125153l-1.84375 0l0 6.109375q0 0.59375 0.234375 0.890625q0.25 0.296875 0.84375 0.296875q0.296875 0 0.8125 -0.109375l0 1.359375q-0.671875 0.1875 -1.296875 0.1875q-1.125 0 -1.703125 -0.6875q-0.578125 -0.6875 -0.578125 -1.9375l0 -6.109375l-1.796875 0l0 -1.3125153l1.796875 0l0 -2.390625l1.6875 0zm5.6411285 12.250015l-1.6875 0l0 -9.85939l1.6875 0l0 9.85939zm-1.828125 -12.468765q0 -0.40625 0.25 -0.6875q0.25 -0.296875 0.734375 -0.296875q0.5 0 0.75 0.296875q0.265625 0.28125 0.265625 0.6875q0 0.40625 -0.265625 0.6875q-0.25 0.265625 -0.75 0.265625q-0.484375 0 -0.734375 -0.265625q-0.25 -0.28125 -0.25 -0.6875zm6.105545 2.609375l0.046875 1.0937653q1.078125 -1.2656403 2.921875 -1.2656403q2.0625 0 2.8125 1.5781403q0.5 -0.71875 1.28125 -1.1406403q0.796875 -0.4375 1.859375 -0.4375q3.25 0 3.296875 3.4218903l0 6.609375l-1.671875 0l0 -6.5q0 -1.0625 -0.484375 -1.578125q-0.484375 -0.53125 -1.625 -0.53125q-0.9375 0 -1.5625 0.5625q-0.609375 0.5625 -0.71875 1.5l0 6.546875l-1.6875 0l0 -6.453125q0 -2.15625 -2.109375 -2.15625q-1.65625 0 -2.265625 1.40625l0 7.203125l-1.6875 0l0 -9.85939l1.59375 0zm20.851532 9.85939q-0.140625 -0.296875 -0.234375 -1.03125q-1.171875 1.21875 -2.8125 1.21875q-1.4531097 0 -2.3906097 -0.828125q-0.921875 -0.828125 -0.921875 -2.09375q0 -1.53125 1.15625 -2.375q1.1718597 -0.859375 3.2968597 -0.859375l1.640625 0l0 -0.78125q0 -0.890625 -0.53125 -1.40625q-0.515625 -0.53125 -1.546875 -0.53125q-0.90625 0 -1.515625 0.46875q-0.60935974 0.453125 -0.60935974 1.09375l-1.703125 0q0 -0.734375 0.515625 -1.421875q0.53125 -0.6875 1.421875 -1.0781403q0.90623474 -0.40625 1.9843597 -0.40625q1.703125 0 2.671875 0.85939026q0.96875 0.84375 1.0 2.328125l0 4.53125q0 1.359375 0.34375 2.171875l0 0.140625l-1.765625 0zm-2.796875 -1.28125q0.796875 0 1.5 -0.40625q0.71875 -0.421875 1.03125 -1.078125l0 -2.015625l-1.3125 0q-3.1093597 0 -3.1093597 1.8125q0 0.796875 0.53125 1.25q0.53123474 0.4375 1.3593597 0.4375zm9.14798 -10.968765l0 2.390625l1.84375 0l0 1.3125153l-1.84375 0l0 6.109375q0 0.59375 0.234375 0.890625q0.25 0.296875 0.84375 0.296875q0.296875 0 0.8125 -0.109375l0 1.359375q-0.671875 0.1875 -1.296875 0.1875q-1.125 0 -1.703125 -0.6875q-0.578125 -0.6875 -0.578125 -1.9375l0 -6.109375l-1.796875 0l0 -1.3125153l1.796875 0l0 -2.390625l1.6875 0zm7.891144 12.437515q-2.0 0 -3.265625 -1.3125q-1.25 -1.328125 -1.25 -3.53125l0 -0.3125q0 -1.46875 0.5625 -2.609375q0.5625 -1.15625 1.5625 -1.796875q1.015625 -0.65626526 2.1875 -0.65626526q1.921875 0 2.984375 1.2656403q1.0625 1.265625 1.0625 3.625l0 0.6875l-6.671875 0q0.03125 1.46875 0.84375 2.375q0.828125 0.890625 2.078125 0.890625q0.890625 0 1.515625 -0.359375q0.625 -0.375 1.078125 -0.96875l1.03125 0.796875q-1.234375 1.90625 -3.71875 1.90625zm-0.203125 -8.84375q-1.015625 0 -1.71875 0.75q-0.6875 0.734375 -0.84375 2.078125l4.9375 0l0 -0.125q-0.078125 -1.28125 -0.703125 -1.984375q-0.609375 -0.71875 -1.671875 -0.71875zm5.586914 3.640625q0 -2.265625 1.078125 -3.640625q1.078125 -1.3750153 2.8125 -1.3750153q1.734375 0 2.75 1.1718903l0 -5.1406403l1.6875 0l0 14.000015l-1.546875 0l-0.09375 -1.0625q-1.0 1.25 -2.8125 1.25q-1.703125 0 -2.796875 -1.40625q-1.078125 -1.40625 -1.078125 -3.65625l0 -0.140625zm1.6875 0.203125q0 1.671875 0.6875 2.625q0.703125 0.9375 1.921875 0.9375q1.609375 0 2.34375 -1.4375l0 -4.53125q-0.765625 -1.390625 -2.328125 -1.390625q-1.234375 0 -1.9375 0.953125q-0.6875 0.953125 -0.6875 2.84375z" fill-rule="nonzero"/><path fill="#586e75" d="m209.05331 275.17395l0 2.390625l1.84375 0l0 1.3125l-1.84375 0l0 6.109375q0 0.59375 0.234375 0.890625q0.25 0.296875 0.84375 0.296875q0.296875 0 0.8125 -0.109375l0 1.359375q-0.671875 0.1875 -1.296875 0.1875q-1.125 0 -1.703125 -0.6875q-0.578125 -0.6875 -0.578125 -1.9375l0 -6.109375l-1.796875 0l0 -1.3125l1.796875 0l0 -2.390625l1.6875 0zm8.578629 3.90625q-0.390625 -0.0625 -0.84375 -0.0625q-1.65625 0 -2.25 1.40625l0 7.0l-1.671875 0l0 -9.859375l1.640625 0l0.015625 1.140625q0.828125 -1.3125 2.359375 -1.3125q0.484375 0 0.75 0.125l0 1.5625zm7.6253815 8.34375q-0.140625 -0.296875 -0.234375 -1.03125q-1.171875 1.21875 -2.8125 1.21875q-1.453125 0 -2.390625 -0.828125q-0.921875 -0.828125 -0.921875 -2.09375q0 -1.53125 1.15625 -2.375q1.171875 -0.859375 3.296875 -0.859375l1.640625 0l0 -0.78125q0 -0.890625 -0.53125 -1.40625q-0.515625 -0.53125 -1.546875 -0.53125q-0.90625 0 -1.515625 0.46875q-0.609375 0.453125 -0.609375 1.09375l-1.703125 0q0 -0.734375 0.515625 -1.421875q0.53125 -0.6875 1.421875 -1.078125q0.90625 -0.40625 1.984375 -0.40625q1.703125 0 2.671875 0.859375q0.96875 0.84375 1.0 2.328125l0 4.53125q0 1.359375 0.34375 2.171875l0 0.140625l-1.765625 0zm-2.796875 -1.28125q0.796875 0 1.5 -0.40625q0.71875 -0.421875 1.03125 -1.078125l0 -2.015625l-1.3125 0q-3.109375 0 -3.109375 1.8125q0 0.796875 0.53125 1.25q0.53125 0.4375 1.359375 0.4375zm8.46048 -8.578125l0.046875 1.234375q1.125 -1.40625 2.953125 -1.40625q3.125 0 3.15625 3.515625l0 6.515625l-1.6875 0l0 -6.515625q-0.015625 -1.078125 -0.5 -1.578125q-0.46875 -0.515625 -1.484375 -0.515625q-0.8125 0 -1.4375 0.4375q-0.609375 0.4375 -0.96875 1.15625l0 7.015625l-1.671875 0l0 -9.859375l1.59375 0zm14.434357 7.25q0 -0.6875 -0.515625 -1.0625q-0.515625 -0.375 -1.796875 -0.640625q-1.28125 -0.28125 -2.03125 -0.65625q-0.75 -0.390625 -1.109375 -0.921875q-0.359375 -0.53125 -0.359375 -1.265625q0 -1.203125 1.015625 -2.03125q1.03125 -0.84375 2.625 -0.84375q1.671875 0 2.71875 0.859375q1.046875 0.859375 1.046875 2.21875l-1.6875 0q0 -0.703125 -0.59375 -1.203125q-0.59375 -0.5 -1.484375 -0.5q-0.921875 0 -1.4375 0.40625q-0.515625 0.390625 -0.515625 1.046875q0 0.609375 0.484375 0.921875q0.484375 0.3125 1.734375 0.59375q1.265625 0.28125 2.046875 0.671875q0.78125 0.390625 1.15625 0.9375q0.390625 0.546875 0.390625 1.34375q0 1.328125 -1.0625 2.125q-1.046875 0.796875 -2.734375 0.796875q-1.1875 0 -2.109375 -0.421875q-0.90625 -0.421875 -1.421875 -1.171875q-0.515625 -0.75 -0.515625 -1.625l1.6875 0q0.046875 0.84375 0.671875 1.34375q0.640625 0.5 1.6875 0.5q0.953125 0 1.53125 -0.390625q0.578125 -0.390625 0.578125 -1.03125zm4.713379 2.609375l0 -8.546875l-1.5625 0l0 -1.3125l1.5625 0l0 -1.015625q0 -1.578125 0.84375 -2.4375q0.84375 -0.875 2.390625 -0.875q0.59375 0 1.15625 0.15625l-0.09375 1.375q-0.421875 -0.09375 -0.90625 -0.09375q-0.8125 0 -1.265625 0.484375q-0.4375 0.484375 -0.4375 1.375l0 1.03125l2.09375 0l0 1.3125l-2.09375 0l0 8.546875l-1.6875 0zm5.1956024 -5.015625q0 -1.453125 0.5625 -2.609375q0.57810974 -1.15625 1.5937347 -1.78125q1.015625 -0.625 2.3125 -0.625q2.015625 0 3.25 1.390625q1.25 1.390625 1.25 3.703125l0 0.125q0 1.4375 -0.546875 2.578125q-0.546875 1.140625 -1.578125 1.78125q-1.015625 0.640625 -2.359375 0.640625q-2.0 0 -3.25 -1.390625q-1.2343597 -1.40625 -1.2343597 -3.703125l0 -0.109375zm1.6874847 0.203125q0 1.640625 0.765625 2.640625q0.765625 0.984375 2.03125 0.984375q1.296875 0 2.046875 -1.0q0.75 -1.015625 0.75 -2.828125q0 -1.625 -0.765625 -2.625q-0.765625 -1.015625 -2.046875 -1.015625q-1.25 0 -2.015625 1.0q-0.765625 0.984375 -0.765625 2.84375zm14.171143 -3.53125q-0.390625 -0.0625 -0.84375 -0.0625q-1.65625 0 -2.25 1.40625l0 7.0l-1.671875 0l0 -9.859375l1.640625 0l0.015625 1.140625q0.828125 -1.3125 2.359375 -1.3125q0.484375 0 0.75 0.125l0 1.5625zm3.1253967 -1.515625l0.046875 1.09375q1.078125 -1.265625 2.921875 -1.265625q2.0625 0 2.8125 1.578125q0.5 -0.71875 1.28125 -1.140625q0.796875 -0.4375 1.859375 -0.4375q3.25 0 3.296875 3.421875l0 6.609375l-1.671875 0l0 -6.5q0 -1.0625 -0.484375 -1.578125q-0.484375 -0.53125 -1.625 -0.53125q-0.9375 0 -1.5625 0.5625q-0.609375 0.5625 -0.71875 1.5l0 6.546875l-1.6875 0l0 -6.453125q0 -2.15625 -2.109375 -2.15625q-1.65625 0 -2.265625 1.40625l0 7.203125l-1.6875 0l0 -9.859375l1.59375 0z" fill-rule="nonzero"/><path fill="#000000" fill-opacity="0.0" d="m80.50131 12.0l104.0 0l0 53.51181l-104.0 0z" fill-rule="evenodd"/><path fill="#586e75" d="m106.11011 31.207153l-5.546875 0l-1.25 3.46875l-1.8125 0l5.0625 -13.265625l1.53125 0l5.078125 13.265625l-1.796875 0l-1.265625 -3.46875zm-5.03125 -1.4375l4.515625 0l-2.265625 -6.203125l-2.25 6.203125zm22.554428 0.09375q0 2.25 -1.03125 3.625q-1.015625 1.375 -2.78125 1.375q-1.796875 0 -2.828125 -1.140625l0 4.75l-1.671875 0l0 -13.65625l1.53125 0l0.078125 1.09375q1.03125 -1.265625 2.859375 -1.265625q1.78125 0 2.8125 1.34375q1.03125 1.328125 1.03125 3.71875l0 0.15625zm-1.671875 -0.203125q0 -1.65625 -0.71875 -2.625q-0.703125 -0.96875 -1.953125 -0.96875q-1.53125 0 -2.296875 1.359375l0 4.703125q0.765625 1.359375 2.328125 1.359375q1.203125 0 1.921875 -0.953125q0.71875 -0.96875 0.71875 -2.875zm3.3730621 0q0 -1.453125 0.5625 -2.609375q0.578125 -1.15625 1.59375 -1.78125q1.015625 -0.625 2.3125 -0.625q2.015625 0 3.25 1.390625q1.25 1.390625 1.25 3.703125l0 0.125q0 1.4375 -0.546875 2.578125q-0.546875 1.140625 -1.578125 1.78125q-1.015625 0.640625 -2.359375 0.640625q-2.0 0 -3.25 -1.390625q-1.234375 -1.40625 -1.234375 -3.703125l0 -0.109375zm1.6875 0.203125q0 1.640625 0.765625 2.640625q0.765625 0.984375 2.03125 0.984375q1.296875 0 2.046875 -1.0q0.75 -1.015625 0.75 -2.828125q0 -1.625 -0.765625 -2.625q-0.765625 -1.015625 -2.046875 -1.015625q-1.25 0 -2.015625 1.0q-0.765625 0.984375 -0.765625 2.84375zm11.233643 4.8125l-1.6875 0l0 -9.859375l1.6875 0l0 9.859375zm-1.828125 -12.46875q0 -0.40625 0.25 -0.6875q0.25 -0.296875 0.734375 -0.296875q0.5 0 0.75 0.296875q0.265625 0.28125 0.265625 0.6875q0 0.40625 -0.265625 0.6875q-0.25 0.265625 -0.75 0.265625q-0.484375 0 -0.734375 -0.265625q-0.25 -0.28125 -0.25 -0.6875zm6.12117 2.609375l0.046875 1.234375q1.125 -1.40625 2.953125 -1.40625q3.125 0 3.15625 3.515625l0 6.515625l-1.6875 0l0 -6.515625q-0.015625 -1.078125 -0.5 -1.578125q-0.46875 -0.515625 -1.484375 -0.515625q-0.8125 0 -1.4375 0.4375q-0.609375 0.4375 -0.96875 1.15625l0 7.015625l-1.671875 0l0 -9.859375l1.59375 0zm10.981232 -2.390625l0 2.390625l1.84375 0l0 1.3125l-1.84375 0l0 6.109375q0 0.59375 0.234375 0.890625q0.25 0.296875 0.84375 0.296875q0.296875 0 0.8125 -0.109375l0 1.359375q-0.671875 0.1875 -1.296875 0.1875q-1.125 0 -1.703125 -0.6875q-0.578125 -0.6875 -0.578125 -1.9375l0 -6.109375l-1.796875 0l0 -1.3125l1.796875 0l0 -2.390625l1.6875 0zm10.259644 12.25l-1.6875 0l0 -9.859375l1.6875 0l0 9.859375zm-1.828125 -12.46875q0 -0.40625 0.25 -0.6875q0.25 -0.296875 0.734375 -0.296875q0.5 0 0.75 0.296875q0.265625 0.28125 0.265625 0.6875q0 0.40625 -0.265625 0.6875q-0.25 0.265625 -0.75 0.265625q-0.484375 0 -0.734375 -0.265625q-0.25 -0.28125 -0.25 -0.6875zm6.12117 2.609375l0.046875 1.234375q1.125 -1.40625 2.953125 -1.40625q3.125 0 3.15625 3.515625l0 6.515625l-1.6875 0l0 -6.515625q-0.015625 -1.078125 -0.5 -1.578125q-0.46875 -0.515625 -1.484375 -0.515625q-0.8125 0 -1.4375 0.4375q-0.609375 0.4375 -0.96875 1.15625l0 7.015625l-1.671875 0l0 -9.859375l1.59375 0z" fill-rule="nonzero"/><path fill="#586e75" d="m98.74538 44.425903l0 2.390625l1.84375 0l0 1.3125l-1.84375 0l0 6.109375q0 0.59375 0.234375 0.890625q0.25 0.296875 0.84375 0.296875q0.296875 0 0.8125 -0.109375l0 1.359375q-0.671875 0.1875 -1.296875 0.1875q-1.125 0 -1.703125 -0.6875q-0.578125 -0.6875 -0.578125 -1.9375l0 -6.109375l-1.796875 0l0 -1.3125l1.796875 0l0 -2.390625l1.6875 0zm5.4848785 3.59375q1.125 -1.375 2.921875 -1.375q3.125 0 3.15625 3.515625l0 6.515625l-1.6875 0l0 -6.515625q-0.015625 -1.078125 -0.5 -1.578125q-0.46875 -0.515625 -1.484375 -0.515625q-0.8125 0 -1.4375 0.4375q-0.609375 0.4375 -0.96875 1.15625l0 7.015625l-1.671875 0l0 -14.0l1.671875 0l0 5.34375zm12.681763 8.84375q-2.0 0 -3.265625 -1.3125q-1.25 -1.328125 -1.25 -3.53125l0 -0.3125q0 -1.46875 0.5625 -2.609375q0.5625 -1.15625 1.5625 -1.796875q1.015625 -0.65625 2.1875 -0.65625q1.921875 0 2.984375 1.265625q1.0625 1.265625 1.0625 3.625l0 0.6875l-6.671875 0q0.03125 1.46875 0.84375 2.375q0.828125 0.890625 2.078125 0.890625q0.890625 0 1.515625 -0.359375q0.625 -0.375 1.078125 -0.96875l1.03125 0.796875q-1.234375 1.90625 -3.71875 1.90625zm-0.203125 -8.84375q-1.015625 0 -1.71875 0.75q-0.6875 0.734375 -0.84375 2.078125l4.9375 0l0 -0.125q-0.078125 -1.28125 -0.703125 -1.984375q-0.609375 -0.71875 -1.671875 -0.71875zm16.361694 6.046875q0 -0.6875 -0.515625 -1.0625q-0.515625 -0.375 -1.796875 -0.640625q-1.28125 -0.28125 -2.03125 -0.65625q-0.75 -0.390625 -1.109375 -0.921875q-0.359375 -0.53125 -0.359375 -1.265625q0 -1.203125 1.015625 -2.03125q1.03125 -0.84375 2.625 -0.84375q1.671875 0 2.71875 0.859375q1.046875 0.859375 1.046875 2.21875l-1.6875 0q0 -0.703125 -0.59375 -1.203125q-0.59375 -0.5 -1.484375 -0.5q-0.921875 0 -1.4375 0.40625q-0.515625 0.390625 -0.515625 1.046875q0 0.609375 0.484375 0.921875q0.484375 0.3125 1.734375 0.59375q1.265625 0.28125 2.046875 0.671875q0.78125 0.390625 1.15625 0.9375q0.390625 0.546875 0.390625 1.34375q0 1.328125 -1.0625 2.125q-1.046875 0.796875 -2.734375 0.796875q-1.1875 0 -2.109375 -0.421875q-0.90625 -0.421875 -1.421875 -1.171875q-0.515625 -0.75 -0.515625 -1.625l1.6875 0q0.046875 0.84375 0.671875 1.34375q0.640625 0.5 1.6875 0.5q0.953125 0 1.53125 -0.390625q0.578125 -0.390625 0.578125 -1.03125zm7.838379 1.421875q0.890625 0 1.5625 -0.546875q0.6875 -0.546875 0.75 -1.375l1.59375 0q-0.046875 0.84375 -0.578125 1.609375q-0.53125 0.765625 -1.4375 1.234375q-0.890625 0.453125 -1.890625 0.453125q-2.015625 0 -3.203125 -1.34375q-1.1875 -1.34375 -1.1875 -3.6875l0 -0.28125q0 -1.4375 0.515625 -2.546875q0.53125 -1.125 1.515625 -1.734375q1.0 -0.625 2.34375 -0.625q1.65625 0 2.75 1.0q1.109375 0.984375 1.171875 2.5625l-1.59375 0q-0.0625 -0.953125 -0.71875 -1.5625q-0.65625 -0.625 -1.609375 -0.625q-1.28125 0 -2.0 0.921875q-0.703125 0.921875 -0.703125 2.671875l0 0.328125q0 1.703125 0.703125 2.625q0.703125 0.921875 2.015625 0.921875zm9.890381 1.375q-2.0 0 -3.265625 -1.3125q-1.25 -1.328125 -1.25 -3.53125l0 -0.3125q0 -1.46875 0.5625 -2.609375q0.5625 -1.15625 1.5625 -1.796875q1.015625 -0.65625 2.1875 -0.65625q1.921875 0 2.984375 1.265625q1.0625 1.265625 1.0625 3.625l0 0.6875l-6.671875 0q0.03125 1.46875 0.84375 2.375q0.828125 0.890625 2.078125 0.890625q0.890625 0 1.515625 -0.359375q0.625 -0.375 1.078125 -0.96875l1.03125 0.796875q-1.234375 1.90625 -3.71875 1.90625zm-0.203125 -8.84375q-1.015625 0 -1.71875 0.75q-0.6875 0.734375 -0.84375 2.078125l4.9375 0l0 -0.125q-0.078125 -1.28125 -0.703125 -1.984375q-0.609375 -0.71875 -1.671875 -0.71875zm7.6025543 -1.203125l0.046875 1.234375q1.125 -1.40625 2.953125 -1.40625q3.125 0 3.15625 3.515625l0 6.515625l-1.6875 0l0 -6.515625q-0.015625 -1.078125 -0.5 -1.578125q-0.46875 -0.515625 -1.484375 -0.515625q-0.8125 0 -1.4375 0.4375q-0.609375 0.4375 -0.96875 1.15625l0 7.015625l-1.671875 0l0 -9.859375l1.59375 0zm12.778107 10.046875q-2.0 0 -3.265625 -1.3125q-1.25 -1.328125 -1.25 -3.53125l0 -0.3125q0 -1.46875 0.5625 -2.609375q0.5625 -1.15625 1.5625 -1.796875q1.015625 -0.65625 2.1875 -0.65625q1.921875 0 2.984375 1.265625q1.0625 1.265625 1.0625 3.625l0 0.6875l-6.671875 0q0.03125 1.46875 0.84375 2.375q0.828125 0.890625 2.078125 0.890625q0.890625 0 1.515625 -0.359375q0.625 -0.375 1.078125 -0.96875l1.03125 0.796875q-1.234375 1.90625 -3.71875 1.90625zm-0.203125 -8.84375q-1.015625 0 -1.71875 0.75q-0.6875 0.734375 -0.84375 2.078125l4.9375 0l0 -0.125q-0.078125 -1.28125 -0.703125 -1.984375q-0.609375 -0.71875 -1.671875 -0.71875z" fill-rule="nonzero"/><path fill="#000000" fill-opacity="0.0" d="m184.50131 38.755905l34.48819 33.259842" fill-rule="evenodd"/><path stroke="#586e75" stroke-width="1.0" stroke-linejoin="round" stroke-linecap="butt" d="m184.50131 38.755905l30.169327 29.09481" fill-rule="evenodd"/><path fill="#586e75" stroke="#586e75" stroke-width="1.0" stroke-linecap="butt" d="m213.52406 69.03965l4.413147 1.9612885l-2.1199799 -4.339157z" fill-rule="evenodd"/><path fill="#000000" fill-opacity="0.0" d="m61.501312 195.99606l86.99213 0l0 37.51181l-86.99213 0z" fill-rule="evenodd"/><path fill="#586e75" d="m72.61069 213.17232l0 3.34375l-1.125 0l0 -8.53125l3.15625 0q1.390625 0 2.1875 0.71875q0.796875 0.703125 0.796875 1.890625q0 1.234375 -0.78125 1.90625q-0.765625 0.671875 -2.21875 0.671875l-2.015625 0zm0 -0.921875l2.03125 0q0.90625 0 1.375 -0.421875q0.484375 -0.421875 0.484375 -1.21875q0 -0.765625 -0.484375 -1.21875q-0.46875 -0.46875 -1.3125 -0.484375l-2.09375 0l0 3.34375zm5.9921875 1.03125q0 -0.921875 0.359375 -1.671875q0.375 -0.75 1.03125 -1.140625q0.65625 -0.40625 1.484375 -0.40625q1.296875 0 2.09375 0.890625q0.8125 0.890625 0.8125 2.390625l0 0.078125q0 0.921875 -0.359375 1.65625q-0.359375 0.734375 -1.015625 1.15625q-0.65625 0.40625 -1.515625 0.40625q-1.28125 0 -2.09375 -0.890625q-0.796875 -0.90625 -0.796875 -2.390625l0 -0.078125zm1.09375 0.140625q0 1.046875 0.484375 1.6875q0.5 0.640625 1.3125 0.640625q0.828125 0 1.3125 -0.640625q0.484375 -0.65625 0.484375 -1.828125q0 -1.03125 -0.5 -1.671875q-0.484375 -0.65625 -1.3125 -0.65625q-0.796875 0 -1.296875 0.640625q-0.484375 0.625 -0.484375 1.828125zm7.21875 3.09375l-1.078125 0l0 -6.34375l1.078125 0l0 6.34375zm-1.171875 -8.015625q0 -0.265625 0.15625 -0.453125q0.171875 -0.1875 0.484375 -0.1875q0.3125 0 0.46875 0.1875q0.171875 0.1875 0.171875 0.453125q0 0.25 -0.171875 0.4375q-0.15625 0.171875 -0.46875 0.171875q-0.3125 0 -0.484375 -0.171875q-0.15625 -0.1875 -0.15625 -0.4375zm3.9277344 1.671875l0.03125 0.796875q0.734375 -0.90625 1.90625 -0.90625q2.015625 0 2.03125 2.265625l0 4.1875l-1.09375 0l0 -4.203125q0 -0.671875 -0.3125 -1.0q-0.296875 -0.328125 -0.953125 -0.328125q-0.53125 0 -0.9375 0.28125q-0.390625 0.28125 -0.609375 0.734375l0 4.515625l-1.078125 0l0 -6.34375l1.015625 0zm7.0742188 -1.53125l0 1.53125l1.171875 0l0 0.84375l-1.171875 0l0 3.921875q0 0.390625 0.15625 0.578125q0.15625 0.1875 0.53125 0.1875q0.1875 0 0.515625 -0.0625l0 0.875q-0.421875 0.125 -0.828125 0.125q-0.71875 0 -1.09375 -0.4375q-0.375 -0.453125 -0.375 -1.265625l0 -3.921875l-1.15625 0l0 -0.84375l1.15625 0l0 -1.53125l1.09375 0zm6.59375 7.875l-1.078125 0l0 -6.34375l1.078125 0l0 6.34375zm-1.171875 -8.015625q0 -0.265625 0.15625 -0.453125q0.171875 -0.1875 0.484375 -0.1875q0.3125 0 0.46875 0.1875q0.171875 0.1875 0.171875 0.453125q0 0.25 -0.171875 0.4375q-0.15625 0.171875 -0.46875 0.171875q-0.3125 0 -0.484375 -0.171875q-0.15625 -0.1875 -0.15625 -0.4375zm3.9277344 1.671875l0.03125 0.796875q0.734375 -0.90625 1.90625 -0.90625q2.015625 0 2.03125 2.265625l0 4.1875l-1.09375 0l0 -4.203125q0 -0.671875 -0.3125 -1.0q-0.296875 -0.328125 -0.953125 -0.328125q-0.53125 0 -0.9375 0.28125q-0.390625 0.28125 -0.609375 0.734375l0 4.515625l-1.078125 0l0 -6.34375l1.015625 0z" fill-rule="nonzero"/><path fill="#586e75" d="m115.12436 215.60982l1.03125 -5.6875q0.03125 -0.1875 -0.09375 -0.28125q-0.109375 -0.109375 -0.765625 -0.203125l0.078125 -0.390625l1.828125 0.046875q0.421875 0 0.71875 -0.015625q0.3125 -0.03125 0.703125 -0.03125l-0.046875 0.421875q-0.609375 0.015625 -0.78125 0.1875q-0.15625 0.15625 -0.234375 0.578125l-0.953125 5.40625q-0.015625 0.0625 -0.015625 0.109375q0 0.390625 0.953125 0.4375l-0.09375 0.40625l-1.890625 -0.046875l-1.578125 0.046875q0.046875 -0.28125 0.0625 -0.34375q0.03125 -0.0625 0.328125 -0.109375q0.3125 -0.046875 0.5 -0.15625q0.203125 -0.109375 0.25 -0.375z" fill-rule="nonzero"/><path fill="#586e75" d="m119.11655 210.39107l-0.609375 -0.421875q0.546875 -0.765625 0.5625 -1.609375l0 -0.84375l1.078125 0l0 0.765625q-0.015625 0.578125 -0.296875 1.171875q-0.28125 0.578125 -0.734375 0.9375zm6.0214844 4.4375q0 -0.4375 -0.34375 -0.671875q-0.328125 -0.25 -1.15625 -0.421875q-0.8125 -0.171875 -1.296875 -0.421875q-0.484375 -0.25 -0.71875 -0.578125q-0.21875 -0.34375 -0.21875 -0.8125q0 -0.78125 0.65625 -1.3125q0.65625 -0.546875 1.6875 -0.546875q1.078125 0 1.734375 0.5625q0.671875 0.546875 0.671875 1.40625l-1.078125 0q0 -0.4375 -0.390625 -0.75q-0.375 -0.328125 -0.9375 -0.328125q-0.59375 0 -0.9375 0.265625q-0.328125 0.25 -0.328125 0.65625q0 0.390625 0.3125 0.59375q0.3125 0.203125 1.125 0.390625q0.8125 0.171875 1.3125 0.421875q0.5 0.25 0.734375 0.609375q0.25 0.359375 0.25 0.859375q0 0.859375 -0.6875 1.375q-0.671875 0.515625 -1.75 0.515625q-0.765625 0 -1.359375 -0.265625q-0.578125 -0.28125 -0.90625 -0.765625q-0.328125 -0.484375 -0.328125 -1.046875l1.078125 0q0.03125 0.546875 0.4375 0.875q0.40625 0.3125 1.078125 0.3125q0.609375 0 0.984375 -0.25q0.375 -0.25 0.375 -0.671875z" fill-rule="nonzero"/><path fill="#586e75" d="m73.86069 229.75044q0.578125 0 1.015625 -0.34375q0.4375 -0.359375 0.484375 -0.890625l1.03125 0q-0.03125 0.546875 -0.390625 1.046875q-0.34375 0.484375 -0.921875 0.78125q-0.5625 0.296875 -1.21875 0.296875q-1.296875 0 -2.0625 -0.859375q-0.75 -0.875 -0.75 -2.375l0 -0.1875q0 -0.921875 0.328125 -1.640625q0.34375 -0.71875 0.96875 -1.109375q0.640625 -0.40625 1.515625 -0.40625q1.0625 0 1.765625 0.640625q0.71875 0.625 0.765625 1.65625l-1.03125 0q-0.046875 -0.625 -0.46875 -1.015625q-0.421875 -0.390625 -1.03125 -0.390625q-0.828125 0 -1.28125 0.59375q-0.453125 0.59375 -0.453125 1.71875l0 0.203125q0 1.09375 0.453125 1.6875q0.453125 0.59375 1.28125 0.59375zm7.65625 0.765625q-0.09375 -0.1875 -0.15625 -0.671875q-0.75 0.796875 -1.796875 0.796875q-0.9375 0 -1.546875 -0.53125q-0.59375 -0.53125 -0.59375 -1.359375q0 -0.984375 0.75 -1.53125q0.75 -0.546875 2.125 -0.546875l1.046875 0l0 -0.5q0 -0.5625 -0.34375 -0.890625q-0.328125 -0.34375 -1.0 -0.34375q-0.578125 0 -0.96875 0.296875q-0.390625 0.28125 -0.390625 0.703125l-1.09375 0q0 -0.484375 0.328125 -0.921875q0.34375 -0.4375 0.921875 -0.6875q0.578125 -0.265625 1.265625 -0.265625q1.109375 0 1.71875 0.546875q0.625 0.546875 0.65625 1.5l0 2.921875q0 0.875 0.21875 1.390625l0 0.09375l-1.140625 0zm-1.796875 -0.828125q0.515625 0 0.96875 -0.265625q0.453125 -0.265625 0.65625 -0.6875l0 -1.296875l-0.84375 0q-2.0 0 -2.0 1.171875q0 0.5 0.34375 0.796875q0.34375 0.28125 0.875 0.28125zm5.4335938 -5.515625l0.03125 0.703125q0.6875 -0.8125 1.875 -0.8125q1.328125 0 1.8125 1.015625q0.3125 -0.453125 0.8125 -0.734375q0.515625 -0.28125 1.203125 -0.28125q2.09375 0 2.125 2.203125l0 4.25l-1.078125 0l0 -4.1875q0 -0.671875 -0.3125 -1.0q-0.3125 -0.34375 -1.046875 -0.34375q-0.609375 0 -1.015625 0.359375q-0.390625 0.359375 -0.453125 0.96875l0 4.203125l-1.078125 0l0 -4.15625q0 -1.375 -1.359375 -1.375q-1.0625 0 -1.453125 0.90625l0 4.625l-1.09375 0l0 -6.34375l1.03125 0zm12.126953 6.46875q-1.296875 0 -2.109375 -0.84375q-0.796875 -0.859375 -0.796875 -2.28125l0 -0.1875q0 -0.953125 0.359375 -1.6875q0.359375 -0.75 1.0 -1.15625q0.65625 -0.421875 1.40625 -0.421875q1.234375 0 1.921875 0.8125q0.6875 0.8125 0.6875 2.328125l0 0.453125l-4.296875 0q0.03125 0.9375 0.546875 1.515625q0.53125 0.578125 1.34375 0.578125q0.5625 0 0.953125 -0.234375q0.40625 -0.234375 0.71875 -0.625l0.65625 0.515625q-0.796875 1.234375 -2.390625 1.234375zm-0.140625 -5.6875q-0.65625 0 -1.109375 0.484375q-0.4375 0.46875 -0.53125 1.328125l3.171875 0l0 -0.078125q-0.046875 -0.828125 -0.453125 -1.28125q-0.390625 -0.453125 -1.078125 -0.453125zm6.935547 0.1875q-0.25 -0.03125 -0.53125 -0.03125q-1.078125 0 -1.453125 0.90625l0 4.5l-1.078125 0l0 -6.34375l1.046875 0l0.015625 0.734375q0.53125 -0.84375 1.515625 -0.84375q0.3125 0 0.484375 0.078125l0 1.0zm4.904297 5.375q-0.09375 -0.1875 -0.15625 -0.671875q-0.75 0.796875 -1.796875 0.796875q-0.9375 0 -1.546875 -0.53125q-0.59375 -0.53125 -0.59375 -1.359375q0 -0.984375 0.75 -1.53125q0.75 -0.546875 2.125 -0.546875l1.046875 0l0 -0.5q0 -0.5625 -0.34375 -0.890625q-0.328125 -0.34375 -1.0 -0.34375q-0.578125 0 -0.96875 0.296875q-0.390625 0.28125 -0.390625 0.703125l-1.09375 0q0 -0.484375 0.328125 -0.921875q0.34375 -0.4375 0.921875 -0.6875q0.578125 -0.265625 1.265625 -0.265625q1.109375 0 1.71875 0.546875q0.625 0.546875 0.65625 1.5l0 2.921875q0 0.875 0.21875 1.390625l0 0.09375l-1.140625 0zm-1.796875 -0.828125q0.515625 0 0.96875 -0.265625q0.453125 -0.265625 0.65625 -0.6875l0 -1.296875l-0.84375 0q-2.0 0 -2.0 1.171875q0 0.5 0.34375 0.796875q0.34375 0.28125 0.875 0.28125zm9.466797 -0.640625l1.578125 -4.875l1.109375 0l-2.28125 6.34375l-0.828125 0l-2.296875 -6.34375l1.109375 0l1.609375 4.875zm4.90625 1.46875l-1.078125 0l0 -6.34375l1.078125 0l0 6.34375zm-1.171875 -8.015625q0 -0.265625 0.15625 -0.453125q0.171875 -0.1875 0.484375 -0.1875q0.3125 0 0.46875 0.1875q0.171875 0.1875 0.171875 0.453125q0 0.25 -0.171875 0.4375q-0.15625 0.171875 -0.46875 0.171875q-0.3125 0 -0.484375 -0.171875q-0.15625 -0.1875 -0.15625 -0.4375zm5.5371094 8.140625q-1.296875 0 -2.109375 -0.84375q-0.796875 -0.859375 -0.796875 -2.28125l0 -0.1875q0 -0.953125 0.359375 -1.6875q0.359375 -0.75 1.0 -1.15625q0.65625 -0.421875 1.40625 -0.421875q1.234375 0 1.921875 0.8125q0.6875 0.8125 0.6875 2.328125l0 0.453125l-4.296875 0q0.03125 0.9375 0.546875 1.515625q0.53125 0.578125 1.34375 0.578125q0.5625 0 0.953125 -0.234375q0.40625 -0.234375 0.71875 -0.625l0.65625 0.515625q-0.796875 1.234375 -2.390625 1.234375zm-0.140625 -5.6875q-0.65625 0 -1.109375 0.484375q-0.4375 0.46875 -0.53125 1.328125l3.171875 0l0 -0.078125q-0.046875 -0.828125 -0.453125 -1.28125q-0.390625 -0.453125 -1.078125 -0.453125zm9.482422 4.0625l1.21875 -4.84375l1.078125 0l-1.84375 6.34375l-0.875 0l-1.546875 -4.8125l-1.5 4.8125l-0.875 0l-1.84375 -6.34375l1.078125 0l1.25 4.75l1.484375 -4.75l0.859375 0l1.515625 4.84375z" fill-rule="nonzero"/><path fill="#000000" fill-opacity="0.0" d="m355.4987 198.49738l86.99213 0l0 37.51181l-86.99213 0z" fill-rule="evenodd"/><path fill="#586e75" d="m366.60806 215.67363l0 3.34375l-1.125 0l0 -8.53125l3.15625 0q1.390625 0 2.1875 0.71875q0.796875 0.703125 0.796875 1.890625q0 1.234375 -0.78125 1.90625q-0.765625 0.671875 -2.21875 0.671875l-2.015625 0zm0 -0.921875l2.03125 0q0.90625 0 1.375 -0.421875q0.484375 -0.421875 0.484375 -1.21875q0 -0.765625 -0.484375 -1.21875q-0.46875 -0.46875 -1.3125 -0.484375l-2.09375 0l0 3.34375zm5.9921875 1.03125q0 -0.921875 0.359375 -1.671875q0.375 -0.75 1.03125 -1.140625q0.65625 -0.40625 1.484375 -0.40625q1.296875 0 2.09375 0.890625q0.8125 0.890625 0.8125 2.390625l0 0.078125q0 0.921875 -0.359375 1.65625q-0.359375 0.734375 -1.015625 1.15625q-0.65625 0.40625 -1.515625 0.40625q-1.28125 0 -2.09375 -0.890625q-0.796875 -0.90625 -0.796875 -2.390625l0 -0.078125zm1.09375 0.140625q0 1.046875 0.484375 1.6875q0.5 0.640625 1.3125 0.640625q0.828125 0 1.3125 -0.640625q0.484375 -0.65625 0.484375 -1.828125q0 -1.03125 -0.5 -1.671875q-0.484375 -0.65625 -1.3125 -0.65625q-0.796875 0 -1.296875 0.640625q-0.484375 0.625 -0.484375 1.828125zm7.21875 3.09375l-1.078125 0l0 -6.34375l1.078125 0l0 6.34375zm-1.171875 -8.015625q0 -0.265625 0.15625 -0.453125q0.171875 -0.1875 0.484375 -0.1875q0.3125 0 0.46875 0.1875q0.171875 0.1875 0.171875 0.453125q0 0.25 -0.171875 0.4375q-0.15625 0.171875 -0.46875 0.171875q-0.3125 0 -0.484375 -0.171875q-0.15625 -0.1875 -0.15625 -0.4375zm3.9277344 1.671875l0.03125 0.796875q0.734375 -0.90625 1.90625 -0.90625q2.015625 0 2.03125 2.265625l0 4.1875l-1.09375 0l0 -4.203125q0 -0.671875 -0.3125 -1.0q-0.296875 -0.328125 -0.953125 -0.328125q-0.53125 0 -0.9375 0.28125q-0.390625 0.28125 -0.609375 0.734375l0 4.515625l-1.078125 0l0 -6.34375l1.015625 0zm7.0742188 -1.53125l0 1.53125l1.171875 0l0 0.84375l-1.171875 0l0 3.921875q0 0.390625 0.15625 0.578125q0.15625 0.1875 0.53125 0.1875q0.1875 0 0.515625 -0.0625l0 0.875q-0.421875 0.125 -0.828125 0.125q-0.71875 0 -1.09375 -0.4375q-0.375 -0.453125 -0.375 -1.265625l0 -3.921875l-1.15625 0l0 -0.84375l1.15625 0l0 -1.53125l1.09375 0zm6.59375 7.875l-1.078125 0l0 -6.34375l1.078125 0l0 6.34375zm-1.171875 -8.015625q0 -0.265625 0.15625 -0.453125q0.171875 -0.1875 0.484375 -0.1875q0.3125 0 0.46875 0.1875q0.171875 0.1875 0.171875 0.453125q0 0.25 -0.171875 0.4375q-0.15625 0.171875 -0.46875 0.171875q-0.3125 0 -0.484375 -0.171875q-0.15625 -0.1875 -0.15625 -0.4375zm3.9277344 1.671875l0.03125 0.796875q0.734375 -0.90625 1.90625 -0.90625q2.015625 0 2.03125 2.265625l0 4.1875l-1.09375 0l0 -4.203125q0 -0.671875 -0.3125 -1.0q-0.296875 -0.328125 -0.953125 -0.328125q-0.53125 0 -0.9375 0.28125q-0.390625 0.28125 -0.609375 0.734375l0 4.515625l-1.078125 0l0 -6.34375l1.015625 0z" fill-rule="nonzero"/><path fill="#586e75" d="m368.3893 227.64238q-0.25 -0.03125 -0.53125 -0.03125q-1.078125 0 -1.453125 0.90625l0 4.5l-1.078125 0l0 -6.34375l1.046875 0l0.015625 0.734375q0.53125 -0.84375 1.515625 -0.84375q0.3125 0 0.484375 0.078125l0 1.0zm3.6230469 5.5q-1.296875 0 -2.109375 -0.84375q-0.796875 -0.859375 -0.796875 -2.28125l0 -0.1875q0 -0.953125 0.359375 -1.6875q0.359375 -0.75 1.0 -1.15625q0.65625 -0.421875 1.40625 -0.421875q1.234375 0 1.921875 0.8125q0.6875 0.8125 0.6875 2.328125l0 0.453125l-4.296875 0q0.03125 0.9375 0.546875 1.515625q0.53125 0.578125 1.34375 0.578125q0.5625 0 0.953125 -0.234375q0.40625 -0.234375 0.71875 -0.625l0.65625 0.515625q-0.796875 1.234375 -2.390625 1.234375zm-0.140625 -5.6875q-0.65625 0 -1.109375 0.484375q-0.4375 0.46875 -0.53125 1.328125l3.171875 0l0 -0.078125q-0.046875 -0.828125 -0.453125 -1.28125q-0.390625 -0.453125 -1.078125 -0.453125zm4.404297 5.5625l0 -5.5l-1.0 0l0 -0.84375l1.0 0l0 -0.640625q0 -1.03125 0.53125 -1.578125q0.546875 -0.5625 1.546875 -0.5625q0.375 0 0.75 0.09375l-0.0625 0.890625q-0.28125 -0.0625 -0.578125 -0.0625q-0.53125 0 -0.828125 0.3125q-0.28125 0.3125 -0.28125 0.875l0 0.671875l1.359375 0l0 0.84375l-1.359375 0l0 5.5l-1.078125 0zm6.2597656 0.125q-1.296875 0 -2.109375 -0.84375q-0.796875 -0.859375 -0.796875 -2.28125l0 -0.1875q0 -0.953125 0.359375 -1.6875q0.359375 -0.75 1.0 -1.15625q0.65625 -0.421875 1.40625 -0.421875q1.234375 0 1.921875 0.8125q0.6875 0.8125 0.6875 2.328125l0 0.453125l-4.296875 0q0.03125 0.9375 0.546875 1.515625q0.53125 0.578125 1.34375 0.578125q0.5625 0 0.953125 -0.234375q0.40625 -0.234375 0.71875 -0.625l0.65625 0.515625q-0.796875 1.234375 -2.390625 1.234375zm-0.140625 -5.6875q-0.65625 0 -1.109375 0.484375q-0.4375 0.46875 -0.53125 1.328125l3.171875 0l0 -0.078125q-0.046875 -0.828125 -0.453125 -1.28125q-0.390625 -0.453125 -1.078125 -0.453125zm6.935547 0.1875q-0.25 -0.03125 -0.53125 -0.03125q-1.078125 0 -1.453125 0.90625l0 4.5l-1.078125 0l0 -6.34375l1.046875 0l0.015625 0.734375q0.53125 -0.84375 1.515625 -0.84375q0.3125 0 0.484375 0.078125l0 1.0zm3.6230469 5.5q-1.296875 0 -2.109375 -0.84375q-0.796875 -0.859375 -0.796875 -2.28125l0 -0.1875q0 -0.953125 0.359375 -1.6875q0.359375 -0.75 1.0 -1.15625q0.65625 -0.421875 1.40625 -0.421875q1.234375 0 1.921875 0.8125q0.6875 0.8125 0.6875 2.328125l0 0.453125l-4.296875 0q0.03125 0.9375 0.546875 1.515625q0.53125 0.578125 1.34375 0.578125q0.5625 0 0.953125 -0.234375q0.40625 -0.234375 0.71875 -0.625l0.65625 0.515625q-0.796875 1.234375 -2.390625 1.234375zm-0.140625 -5.6875q-0.65625 0 -1.109375 0.484375q-0.4375 0.46875 -0.53125 1.328125l3.171875 0l0 -0.078125q-0.046875 -0.828125 -0.453125 -1.28125q-0.390625 -0.453125 -1.078125 -0.453125zm4.888672 -0.78125l0.03125 0.796875q0.734375 -0.90625 1.90625 -0.90625q2.015625 0 2.03125 2.265625l0 4.1875l-1.09375 0l0 -4.203125q0 -0.671875 -0.3125 -1.0q-0.296875 -0.328125 -0.953125 -0.328125q-0.53125 0 -0.9375 0.28125q-0.390625 0.28125 -0.609375 0.734375l0 4.515625l-1.078125 0l0 -6.34375l1.015625 0zm8.136719 5.578125q0.578125 0 1.015625 -0.34375q0.4375 -0.359375 0.484375 -0.890625l1.03125 0q-0.03125 0.546875 -0.390625 1.046875q-0.34375 0.484375 -0.921875 0.78125q-0.5625 0.296875 -1.21875 0.296875q-1.296875 0 -2.0625 -0.859375q-0.75 -0.875 -0.75 -2.375l0 -0.1875q0 -0.921875 0.328125 -1.640625q0.34375 -0.71875 0.96875 -1.109375q0.640625 -0.40625 1.515625 -0.40625q1.0625 0 1.765625 0.640625q0.71875 0.625 0.765625 1.65625l-1.03125 0q-0.046875 -0.625 -0.46875 -1.015625q-0.421875 -0.390625 -1.03125 -0.390625q-0.828125 0 -1.28125 0.59375q-0.453125 0.59375 -0.453125 1.71875l0 0.203125q0 1.09375 0.453125 1.6875q0.453125 0.59375 1.28125 0.59375zm6.375 0.890625q-1.296875 0 -2.109375 -0.84375q-0.796875 -0.859375 -0.796875 -2.28125l0 -0.1875q0 -0.953125 0.359375 -1.6875q0.359375 -0.75 1.0 -1.15625q0.65625 -0.421875 1.40625 -0.421875q1.234375 0 1.921875 0.8125q0.6875 0.8125 0.6875 2.328125l0 0.453125l-4.296875 0q0.03125 0.9375 0.546875 1.515625q0.53125 0.578125 1.34375 0.578125q0.5625 0 0.953125 -0.234375q0.40625 -0.234375 0.71875 -0.625l0.65625 0.515625q-0.796875 1.234375 -2.390625 1.234375zm-0.140625 -5.6875q-0.65625 0 -1.109375 0.484375q-0.4375 0.46875 -0.53125 1.328125l3.171875 0l0 -0.078125q-0.046875 -0.828125 -0.453125 -1.28125q-0.390625 -0.453125 -1.078125 -0.453125z" fill-rule="nonzero"/><path fill="#586e75" d="m367.85806 246.25175q0.578125 0 1.015625 -0.34375q0.4375 -0.359375 0.484375 -0.890625l1.03125 0q-0.03125 0.546875 -0.390625 1.046875q-0.34375 0.484375 -0.921875 0.78125q-0.5625 0.296875 -1.21875 0.296875q-1.296875 0 -2.0625 -0.859375q-0.75 -0.875 -0.75 -2.375l0 -0.1875q0 -0.921875 0.328125 -1.640625q0.34375 -0.71875 0.96875 -1.109375q0.640625 -0.40625 1.515625 -0.40625q1.0625 0 1.765625 0.640625q0.71875 0.625 0.765625 1.65625l-1.03125 0q-0.046875 -0.625 -0.46875 -1.015625q-0.421875 -0.390625 -1.03125 -0.390625q-0.828125 0 -1.28125 0.59375q-0.453125 0.59375 -0.453125 1.71875l0 0.203125q0 1.09375 0.453125 1.6875q0.453125 0.59375 1.28125 0.59375zm7.65625 0.765625q-0.09375 -0.1875 -0.15625 -0.671875q-0.75 0.796875 -1.796875 0.796875q-0.9375 0 -1.546875 -0.53125q-0.59375 -0.53125 -0.59375 -1.359375q0 -0.984375 0.75 -1.53125q0.75 -0.546875 2.125 -0.546875l1.046875 0l0 -0.5q0 -0.5625 -0.34375 -0.890625q-0.328125 -0.34375 -1.0 -0.34375q-0.578125 0 -0.96875 0.296875q-0.390625 0.28125 -0.390625 0.703125l-1.09375 0q0 -0.484375 0.328125 -0.921875q0.34375 -0.4375 0.921875 -0.6875q0.578125 -0.265625 1.265625 -0.265625q1.109375 0 1.71875 0.546875q0.625 0.546875 0.65625 1.5l0 2.921875q0 0.875 0.21875 1.390625l0 0.09375l-1.140625 0zm-1.796875 -0.828125q0.515625 0 0.96875 -0.265625q0.453125 -0.265625 0.65625 -0.6875l0 -1.296875l-0.84375 0q-2.0 0 -2.0 1.171875q0 0.5 0.34375 0.796875q0.34375 0.28125 0.875 0.28125zm5.4335938 -5.515625l0.03125 0.703125q0.6875 -0.8125 1.875 -0.8125q1.328125 0 1.8125 1.015625q0.3125 -0.453125 0.8125 -0.734375q0.515625 -0.28125 1.203125 -0.28125q2.09375 0 2.125 2.203125l0 4.25l-1.078125 0l0 -4.1875q0 -0.671875 -0.3125 -1.0q-0.3125 -0.34375 -1.046875 -0.34375q-0.609375 0 -1.015625 0.359375q-0.390625 0.359375 -0.453125 0.96875l0 4.203125l-1.078125 0l0 -4.15625q0 -1.375 -1.359375 -1.375q-1.0625 0 -1.453125 0.90625l0 4.625l-1.09375 0l0 -6.34375l1.03125 0zm12.126953 6.46875q-1.296875 0 -2.109375 -0.84375q-0.796875 -0.859375 -0.796875 -2.28125l0 -0.1875q0 -0.953125 0.359375 -1.6875q0.359375 -0.75 1.0 -1.15625q0.65625 -0.421875 1.40625 -0.421875q1.234375 0 1.921875 0.8125q0.6875 0.8125 0.6875 2.328125l0 0.453125l-4.296875 0q0.03125 0.9375 0.546875 1.515625q0.53125 0.578125 1.34375 0.578125q0.5625 0 0.953125 -0.234375q0.40625 -0.234375 0.71875 -0.625l0.65625 0.515625q-0.796875 1.234375 -2.390625 1.234375zm-0.140625 -5.6875q-0.65625 0 -1.109375 0.484375q-0.4375 0.46875 -0.53125 1.328125l3.171875 0l0 -0.078125q-0.046875 -0.828125 -0.453125 -1.28125q-0.390625 -0.453125 -1.078125 -0.453125zm6.935547 0.1875q-0.25 -0.03125 -0.53125 -0.03125q-1.078125 0 -1.453125 0.90625l0 4.5l-1.078125 0l0 -6.34375l1.046875 0l0.015625 0.734375q0.53125 -0.84375 1.515625 -0.84375q0.3125 0 0.484375 0.078125l0 1.0zm4.904297 5.375q-0.09375 -0.1875 -0.15625 -0.671875q-0.75 0.796875 -1.796875 0.796875q-0.9375 0 -1.546875 -0.53125q-0.59375 -0.53125 -0.59375 -1.359375q0 -0.984375 0.75 -1.53125q0.75 -0.546875 2.125 -0.546875l1.046875 0l0 -0.5q0 -0.5625 -0.34375 -0.890625q-0.328125 -0.34375 -1.0 -0.34375q-0.578125 0 -0.96875 0.296875q-0.390625 0.28125 -0.390625 0.703125l-1.09375 0q0 -0.484375 0.328125 -0.921875q0.34375 -0.4375 0.921875 -0.6875q0.578125 -0.265625 1.265625 -0.265625q1.109375 0 1.71875 0.546875q0.625 0.546875 0.65625 1.5l0 2.921875q0 0.875 0.21875 1.390625l0 0.09375l-1.140625 0zm-1.796875 -0.828125q0.515625 0 0.96875 -0.265625q0.453125 -0.265625 0.65625 -0.6875l0 -1.296875l-0.84375 0q-2.0 0 -2.0 1.171875q0 0.5 0.34375 0.796875q0.34375 0.28125 0.875 0.28125zm9.466797 -0.640625l1.578125 -4.875l1.109375 0l-2.28125 6.34375l-0.828125 0l-2.296875 -6.34375l1.109375 0l1.609375 4.875zm4.90625 1.46875l-1.078125 0l0 -6.34375l1.078125 0l0 6.34375zm-1.171875 -8.015625q0 -0.265625 0.15625 -0.453125q0.171875 -0.1875 0.484375 -0.1875q0.3125 0 0.46875 0.1875q0.171875 0.1875 0.171875 0.453125q0 0.25 -0.171875 0.4375q-0.15625 0.171875 -0.46875 0.171875q-0.3125 0 -0.484375 -0.171875q-0.15625 -0.1875 -0.15625 -0.4375zm5.5371094 8.140625q-1.296875 0 -2.109375 -0.84375q-0.796875 -0.859375 -0.796875 -2.28125l0 -0.1875q0 -0.953125 0.359375 -1.6875q0.359375 -0.75 1.0 -1.15625q0.65625 -0.421875 1.40625 -0.421875q1.234375 0 1.921875 0.8125q0.6875 0.8125 0.6875 2.328125l0 0.453125l-4.296875 0q0.03125 0.9375 0.546875 1.515625q0.53125 0.578125 1.34375 0.578125q0.5625 0 0.953125 -0.234375q0.40625 -0.234375 0.71875 -0.625l0.65625 0.515625q-0.796875 1.234375 -2.390625 1.234375zm-0.140625 -5.6875q-0.65625 0 -1.109375 0.484375q-0.4375 0.46875 -0.53125 1.328125l3.171875 0l0 -0.078125q-0.046875 -0.828125 -0.453125 -1.28125q-0.390625 -0.453125 -1.078125 -0.453125zm9.482422 4.0625l1.21875 -4.84375l1.078125 0l-1.84375 6.34375l-0.875 0l-1.546875 -4.8125l-1.5 4.8125l-0.875 0l-1.84375 -6.34375l1.078125 0l1.25 4.75l1.484375 -4.75l0.859375 0l1.515625 4.84375z" fill-rule="nonzero"/></g></svg>