<?xml version="1.0" standalone="yes"?>

<svg version="1.1" viewBox="0.0 0.0 645.0262467191601 264.8582677165354" fill="none" stroke="none" stroke-linecap="square" stroke-miterlimit="10" xmlns="http://www.w3.org/2000/svg" xmlns:xlink="http://www.w3.org/1999/xlink"><clipPath id="p.0"><path d="m0 0l645.02625 0l0 264.85828l-645.02625 0l0 -264.85828z" clip-rule="nonzero"></path></clipPath><g clip-path="url(#p.0)"><path fill="#000000" fill-opacity="0.0" d="m0 0l645.02625 0l0 264.85828l-645.02625 0z" fill-rule="evenodd"></path><path fill="#ffce19" d="m179.76418 179.08267l82.04726 0l0 82.04724l-82.04726 0z" fill-rule="evenodd"></path><path stroke="#000000" stroke-width="1.0" stroke-linejoin="round" stroke-linecap="butt" d="m179.76418 179.08267l82.04726 0l0 82.04724l-82.04726 0z" fill-rule="evenodd"></path><path fill="#ffce19" d="m306.05814 179.08267l82.04724 0l0 82.04724l-82.04724 0z" fill-rule="evenodd"></path><path stroke="#000000" stroke-width="1.0" stroke-linejoin="round" stroke-linecap="butt" d="m306.05814 179.08267l82.04724 0l0 82.04724l-82.04724 0z" fill-rule="evenodd"></path><path fill="#000000" fill-opacity="0.0" d="m261.81143 220.1063l44.251953 0" fill-rule="evenodd"></path><path stroke="#000000" stroke-width="3.0" stroke-linejoin="round" stroke-linecap="butt" d="m261.8114 220.1063l26.251984 0" fill-rule="evenodd"></path><path fill="#000000" stroke="#000000" stroke-width="3.0" stroke-linecap="butt" d="m288.0634 225.0615l13.614288 -4.9552l-13.614288 -4.955185z" fill-rule="evenodd"></path><path fill="#ffce19" d="m432.3521 179.08267l82.04724 0l0 82.04724l-82.04724 0z" fill-rule="evenodd"></path><path stroke="#000000" stroke-width="1.0" stroke-linejoin="round" stroke-linecap="butt" d="m432.3521 179.08267l82.04724 0l0 82.04724l-82.04724 0z" fill-rule="evenodd"></path><path fill="#ffce19" d="m558.64606 179.08267l82.04724 0l0 82.04724l-82.04724 0z" fill-rule="evenodd"></path><path stroke="#000000" stroke-width="1.0" stroke-linejoin="round" stroke-linecap="butt" d="m558.64606 179.08267l82.04724 0l0 82.04724l-82.04724 0z" fill-rule="evenodd"></path><path fill="#000000" fill-opacity="0.0" d="m514.39935 220.1063l44.251953 0" fill-rule="evenodd"></path><path stroke="#000000" stroke-width="3.0" stroke-linejoin="round" stroke-linecap="butt" d="m514.39935 220.1063l26.251953 0" fill-rule="evenodd"></path><path fill="#000000" stroke="#000000" stroke-width="3.0" stroke-linecap="butt" d="m540.6513 225.0615l13.614319 -4.9552l-13.614319 -4.955185z" fill-rule="evenodd"></path><path fill="#000000" fill-opacity="0.0" d="m388.10275 222.58136l44.251984 0" fill-rule="evenodd"></path><path stroke="#000000" stroke-width="3.0" stroke-linejoin="round" stroke-linecap="butt" d="m388.10278 222.58136l26.251953 0" fill-rule="evenodd"></path><path fill="#000000" stroke="#000000" stroke-width="3.0" stroke-linecap="butt" d="m414.35474 227.53656l13.614288 -4.9552l-13.614288 -4.955185z" fill-rule="evenodd"></path><path fill="#000000" fill-opacity="0.0" d="m182.55157 -7.420448l76.47244 0l0 37.070866l-76.47244 0z" fill-rule="evenodd"></path><path fill="#000000" d="m218.09958 18.2808q-0.9375 0.796875 -1.796875 1.125q-0.859375 0.3125 -1.84375 0.3125q-1.609375 0 -2.484375 -0.78125q-0.875 -0.796875 -0.875 -2.03125q0 -0.734375 0.328125 -1.328125q0.328125 -0.59375 0.859375 -0.953125q0.53125 -0.359375 1.203125 -0.546875q0.5 -0.140625 1.484375 -0.25q2.03125 -0.25 2.984375 -0.578125q0 -0.34375 0 -0.4375q0 -1.015625 -0.46875 -1.4375q-0.640625 -0.5625 -1.90625 -0.5625q-1.171875 0 -1.734375 0.40625q-0.5625 0.40625 -0.828125 1.46875l-1.640625 -0.234375q0.234375 -1.046875 0.734375 -1.6875q0.515625 -0.640625 1.46875 -0.984375q0.96875 -0.359375 2.25 -0.359375q1.265625 0 2.046875 0.296875q0.78125 0.296875 1.15625 0.75q0.375 0.453125 0.515625 1.140625q0.09375 0.421875 0.09375 1.53125l0 2.234375q0 2.328125 0.09375 2.953125q0.109375 0.609375 0.4375 1.171875l-1.75 0q-0.265625 -0.515625 -0.328125 -1.21875zm-0.140625 -3.71875q-0.90625 0.359375 -2.734375 0.625q-1.03125 0.140625 -1.453125 0.328125q-0.421875 0.1875 -0.65625 0.546875q-0.234375 0.359375 -0.234375 0.796875q0 0.671875 0.5 1.125q0.515625 0.4375 1.484375 0.4375q0.96875 0 1.71875 -0.421875q0.75 -0.4375 1.109375 -1.15625q0.265625 -0.578125 0.265625 -1.671875l0 -0.609375zm4.078842 4.9375l0 -9.859375l1.5 0l0 1.40625q1.09375 -1.625 3.140625 -1.625q0.890625 0 1.640625 0.328125q0.75 0.3125 1.109375 0.84375q0.375 0.515625 0.53125 1.21875q0.09375 0.46875 0.09375 1.625l0 6.0625l-1.671875 0l0 -6.0q0 -1.015625 -0.203125 -1.515625q-0.1875 -0.515625 -0.6875 -0.8125q-0.5 -0.296875 -1.171875 -0.296875q-1.0625 0 -1.84375 0.671875q-0.765625 0.671875 -0.765625 2.578125l0 5.375l-1.671875 0z" fill-rule="nonzero"></path><path fill="#000000" fill-opacity="0.0" d="m290.16837 -5.5241227l114.11026 0l0 37.070866l-114.11026 0z" fill-rule="evenodd"></path><path fill="#000000" d="m303.3789 9.708376l0 -1.9062505l1.671875 0l0 1.9062505l-1.671875 0zm0 11.6875l0 -9.859375l1.671875 0l0 9.859375l-1.671875 0zm4.129181 0l0 -9.859375l1.5 0l0 1.40625q1.09375 -1.625 3.140625 -1.625q0.890625 0 1.640625 0.328125q0.75 0.3125 1.109375 0.84375q0.375 0.515625 0.53125 1.21875q0.09375 0.46875 0.09375 1.625l0 6.0625l-1.671875 0l0 -6.0q0 -1.015625 -0.203125 -1.515625q-0.1875 -0.515625 -0.6875 -0.8125q-0.5 -0.296875 -1.171875 -0.296875q-1.0625 0 -1.84375 0.671875q-0.765625 0.671875 -0.765625 2.578125l0 5.375l-1.671875 0zm16.766357 0l0 -1.25q-0.9375 1.46875 -2.75 1.46875q-1.171875 0 -2.171875 -0.640625q-0.984375 -0.65625 -1.53125 -1.8125q-0.53125 -1.171875 -0.53125 -2.6875q0 -1.46875 0.484375 -2.671875q0.5 -1.203125 1.46875 -1.84375q0.984375 -0.640625 2.203125 -0.640625q0.890625 0 1.578125 0.375q0.703125 0.375 1.140625 0.984375l0 -4.8750005l1.65625 0l0 13.59375l-1.546875 0zm-5.28125 -4.921875q0 1.890625 0.796875 2.828125q0.8125 0.9375 1.890625 0.9375q1.09375 0 1.859375 -0.890625q0.765625 -0.890625 0.765625 -2.734375q0 -2.015625 -0.78125 -2.953125q-0.78125 -0.953125 -1.921875 -0.953125q-1.109375 0 -1.859375 0.90625q-0.75 0.90625 -0.75 2.859375zm15.719452 4.921875l0 -1.453125q-1.140625 1.671875 -3.125 1.671875q-0.859375 0 -1.625 -0.328125q-0.75 -0.34375 -1.125 -0.84375q-0.359375 -0.5 -0.515625 -1.234375q-0.09375 -0.5 -0.09375 -1.5625l0 -6.109375l1.671875 0l0 5.46875q0 1.3125 0.09375 1.765625q0.15625 0.65625 0.671875 1.03125q0.515625 0.375 1.265625 0.375q0.75 0 1.40625 -0.375q0.65625 -0.390625 0.921875 -1.046875q0.28125 -0.671875 0.28125 -1.9375l0 -5.28125l1.671875 0l0 9.859375l-1.5 0zm3.2507324 -2.9375l1.65625 -0.265625q0.140625 1.0 0.765625 1.53125q0.640625 0.515625 1.78125 0.515625q1.15625 0 1.703125 -0.46875q0.5625 -0.46875 0.5625 -1.09375q0 -0.5625 -0.484375 -0.890625q-0.34375 -0.21875 -1.703125 -0.5625q-1.84375 -0.46875 -2.5625 -0.796875q-0.703125 -0.34375 -1.078125 -0.9375q-0.359375 -0.609375 -0.359375 -1.328125q0 -0.65625 0.296875 -1.21875q0.3125 -0.5625 0.828125 -0.9375q0.390625 -0.28125 1.0625 -0.484375q0.671875 -0.203125 1.4375 -0.203125q1.171875 0 2.046875 0.34375q0.875 0.328125 1.28125 0.90625q0.421875 0.5625 0.578125 1.515625l-1.625 0.21875q-0.109375 -0.75 -0.65625 -1.171875q-0.53125 -0.4375 -1.5 -0.4375q-1.15625 0 -1.640625 0.390625q-0.484375 0.375 -0.484375 0.875q0 0.328125 0.203125 0.59375q0.203125 0.265625 0.640625 0.4375q0.25 0.09375 1.46875 0.4375q1.765625 0.46875 2.46875 0.765625q0.703125 0.296875 1.09375 0.875q0.40625 0.578125 0.40625 1.4375q0 0.828125 -0.484375 1.578125q-0.484375 0.734375 -1.40625 1.140625q-0.921875 0.390625 -2.078125 0.390625q-1.921875 0 -2.9375 -0.796875q-1.0 -0.796875 -1.28125 -2.359375zm13.65625 1.4375l0.234375 1.484375q-0.703125 0.140625 -1.265625 0.140625q-0.90625 0 -1.40625 -0.28125q-0.5 -0.296875 -0.703125 -0.75q-0.203125 -0.46875 -0.203125 -1.984375l0 -5.65625l-1.234375 0l0 -1.3125l1.234375 0l0 -2.4375l1.65625 -1.0l0 3.4375l1.6875 0l0 1.3125l-1.6875 0l0 5.75q0 0.71875 0.078125 0.921875q0.09375 0.203125 0.296875 0.328125q0.203125 0.125 0.578125 0.125q0.265625 0 0.734375 -0.078125zm1.5114136 1.5l0 -9.859375l1.5 0l0 1.5q0.578125 -1.046875 1.0625 -1.375q0.484375 -0.34375 1.078125 -0.34375q0.84375 0 1.71875 0.546875l-0.578125 1.546875q-0.609375 -0.359375 -1.234375 -0.359375q-0.546875 0 -0.984375 0.328125q-0.421875 0.328125 -0.609375 0.90625q-0.28125 0.890625 -0.28125 1.953125l0 5.15625l-1.671875 0zm6.243927 -11.6875l0 -1.9062505l1.671875 0l0 1.9062505l-1.671875 0zm0 11.6875l0 -9.859375l1.671875 0l0 9.859375l-1.671875 0zm3.504181 -4.921875q0 -2.734375 1.53125 -4.0625q1.265625 -1.09375 3.09375 -1.09375q2.03125 0 3.3125 1.34375q1.296875 1.328125 1.296875 3.671875q0 1.90625 -0.578125 3.0q-0.5625 1.078125 -1.65625 1.6875q-1.078125 0.59375 -2.375 0.59375q-2.0625 0 -3.34375 -1.328125q-1.28125 -1.328125 -1.28125 -3.8125zm1.71875 0q0 1.890625 0.828125 2.828125q0.828125 0.9375 2.078125 0.9375q1.25 0 2.0625 -0.9375q0.828125 -0.953125 0.828125 -2.890625q0 -1.828125 -0.828125 -2.765625q-0.828125 -0.9375 -2.0625 -0.9375q-1.25 0 -2.078125 0.9375q-0.828125 0.9375 -0.828125 2.828125zm15.735107 4.921875l0 -1.453125q-1.140625 1.671875 -3.125 1.671875q-0.859375 0 -1.625 -0.328125q-0.75 -0.34375 -1.125 -0.84375q-0.359375 -0.5 -0.515625 -1.234375q-0.09375 -0.5 -0.09375 -1.5625l0 -6.109375l1.671875 0l0 5.46875q0 1.3125 0.09375 1.765625q0.15625 0.65625 0.671875 1.03125q0.515625 0.375 1.265625 0.375q0.75 0 1.40625 -0.375q0.65625 -0.390625 0.921875 -1.046875q0.28125 -0.671875 0.28125 -1.9375l0 -5.28125l1.671875 0l0 9.859375l-1.5 0zm3.250702 -2.9375l1.65625 -0.265625q0.140625 1.0 0.765625 1.53125q0.640625 0.515625 1.78125 0.515625q1.15625 0 1.703125 -0.46875q0.5625 -0.46875 0.5625 -1.09375q0 -0.5625 -0.484375 -0.890625q-0.34375 -0.21875 -1.703125 -0.5625q-1.84375 -0.46875 -2.5625 -0.796875q-0.703125 -0.34375 -1.078125 -0.9375q-0.359375 -0.609375 -0.359375 -1.328125q0 -0.65625 0.296875 -1.21875q0.3125 -0.5625 0.828125 -0.9375q0.390625 -0.28125 1.0625 -0.484375q0.671875 -0.203125 1.4375 -0.203125q1.171875 0 2.046875 0.34375q0.875 0.328125 1.28125 0.90625q0.421875 0.5625 0.578125 1.515625l-1.625 0.21875q-0.109375 -0.75 -0.65625 -1.171875q-0.53125 -0.4375 -1.5 -0.4375q-1.15625 0 -1.640625 0.390625q-0.484375 0.375 -0.484375 0.875q0 0.328125 0.203125 0.59375q0.203125 0.265625 0.640625 0.4375q0.25 0.09375 1.46875 0.4375q1.765625 0.46875 2.46875 0.765625q0.703125 0.296875 1.09375 0.875q0.40625 0.578125 0.40625 1.4375q0 0.828125 -0.484375 1.578125q-0.484375 0.734375 -1.40625 1.140625q-0.921875 0.390625 -2.078125 0.390625q-1.921875 0 -2.9375 -0.796875q-1.0 -0.796875 -1.28125 -2.359375z" fill-rule="nonzero"></path><path fill="#000000" fill-opacity="0.0" d="m421.81668 -7.420448l103.11807 0l0 37.070866l-103.11807 0z" fill-rule="evenodd"></path><path fill="#000000" d="m460.60904 19.49955l-1.546875 0l0 -13.59375l1.65625 0l0 4.8437495q1.0625 -1.328125 2.703125 -1.328125q0.90625 0 1.71875 0.375q0.8125 0.359375 1.328125 1.03125q0.53125 0.65625 0.828125 1.59375q0.296875 0.9375 0.296875 2.0q0 2.53125 -1.25 3.921875q-1.25 1.375 -3.0 1.375q-1.75 0 -2.734375 -1.453125l0 1.234375zm-0.015625 -5.0q0 1.765625 0.46875 2.5625q0.796875 1.28125 2.140625 1.28125q1.09375 0 1.890625 -0.9375q0.796875 -0.953125 0.796875 -2.84375q0 -1.921875 -0.765625 -2.84375q-0.765625 -0.921875 -1.84375 -0.921875q-1.09375 0 -1.890625 0.953125q-0.796875 0.953125 -0.796875 2.75zm15.297577 5.0l0 -1.453125q-1.140625 1.671875 -3.125 1.671875q-0.859375 0 -1.625 -0.328125q-0.75 -0.34375 -1.125 -0.84375q-0.359375 -0.5 -0.515625 -1.234375q-0.09375 -0.5 -0.09375 -1.5625l0 -6.109375l1.671875 0l0 5.46875q0 1.3125 0.09375 1.765625q0.15625 0.65625 0.671875 1.03125q0.515625 0.375 1.265625 0.375q0.75 0 1.40625 -0.375q0.65625 -0.390625 0.921875 -1.046875q0.28125 -0.671875 0.28125 -1.9375l0 -5.28125l1.671875 0l0 9.859375l-1.5 0zm3.6257324 0.8125l1.609375 0.25q0.109375 0.75 0.578125 1.09375q0.609375 0.453125 1.6875 0.453125q1.171875 0 1.796875 -0.46875q0.625 -0.453125 0.859375 -1.28125q0.125 -0.515625 0.109375 -2.15625q-1.09375 1.296875 -2.71875 1.296875q-2.03125 0 -3.15625 -1.46875q-1.109375 -1.46875 -1.109375 -3.515625q0 -1.40625 0.515625 -2.59375q0.515625 -1.203125 1.484375 -1.84375q0.96875 -0.65625 2.265625 -0.65625q1.75 0 2.875 1.40625l0 -1.1875l1.546875 0l0 8.515625q0 2.3125 -0.46875 3.265625q-0.46875 0.96875 -1.484375 1.515625q-1.015625 0.5625 -2.5 0.5625q-1.765625 0 -2.859375 -0.796875q-1.078125 -0.796875 -1.03125 -2.390625zm1.375 -5.921875q0 1.953125 0.765625 2.84375q0.78125 0.890625 1.9375 0.890625q1.140625 0 1.921875 -0.890625q0.78125 -0.890625 0.78125 -2.78125q0 -1.8125 -0.8125 -2.71875q-0.796875 -0.921875 -1.921875 -0.921875q-1.109375 0 -1.890625 0.90625q-0.78125 0.890625 -0.78125 2.671875z" fill-rule="nonzero"></path><path fill="#000000" fill-opacity="0.0" d="m549.7799 -5.525435l99.77954 0l0 37.070866l-99.77954 0z" fill-rule="evenodd"></path><path fill="#000000" d="m575.1318 17.019564l1.6875 -0.140625q0.125 1.015625 0.5625 1.671875q0.4375 0.65625 1.359375 1.0625q0.9375 0.40625 2.09375 0.40625q1.03125 0 1.8125 -0.3125q0.796875 -0.3125 1.1875 -0.84375q0.390625 -0.53125 0.390625 -1.15625q0 -0.640625 -0.375 -1.109375q-0.375 -0.484375 -1.234375 -0.8125q-0.546875 -0.21875 -2.421875 -0.65625q-1.875 -0.453125 -2.625 -0.859375q-0.96875 -0.515625 -1.453125 -1.265625q-0.46875 -0.75 -0.46875 -1.6875q0 -1.03125 0.578125 -1.921875q0.59375 -0.90625 1.703125 -1.359375q1.125 -0.46875048 2.5 -0.46875048q1.515625 0 2.671875 0.48437548q1.15625 0.484375 1.765625 1.4375q0.625 0.9375 0.671875 2.140625l-1.71875 0.125q-0.140625 -1.28125 -0.953125 -1.9375q-0.796875 -0.671875 -2.359375 -0.671875q-1.625 0 -2.375 0.609375q-0.75 0.59375 -0.75 1.4375q0 0.734375 0.53125 1.203125q0.515625 0.46875 2.703125 0.96875q2.203125 0.5 3.015625 0.875q1.1875 0.546875 1.75 1.390625q0.578125 0.828125 0.578125 1.921875q0 1.09375 -0.625 2.0625q-0.625 0.953125 -1.796875 1.484375q-1.15625 0.53125 -2.609375 0.53125q-1.84375 0 -3.09375 -0.53125q-1.25 -0.546875 -1.96875 -1.625q-0.703125 -1.078125 -0.734375 -2.453125zm16.506104 4.375l0 -12.0l-4.46875 0l0 -1.5937505l10.765625 0l0 1.5937505l-4.5 0l0 12.0l-1.796875 0zm7.395935 -6.625q0 -3.390625 1.8125 -5.296875q1.828125 -1.9218755 4.703125 -1.9218755q1.875 0 3.390625 0.9062505q1.515625 0.890625 2.296875 2.5q0.796875 1.609375 0.796875 3.65625q0 2.0625 -0.84375 3.703125q-0.828125 1.625 -2.359375 2.46875q-1.53125 0.84375 -3.296875 0.84375q-1.921875 0 -3.4375 -0.921875q-1.5 -0.9375 -2.28125 -2.53125q-0.78125 -1.609375 -0.78125 -3.40625zm1.859375 0.03125q0 2.453125 1.3125 3.875q1.328125 1.40625 3.3125 1.40625q2.03125 0 3.34375 -1.421875q1.3125 -1.4375 1.3125 -4.0625q0 -1.65625 -0.5625 -2.890625q-0.546875 -1.234375 -1.640625 -1.921875q-1.078125 -0.6875 -2.421875 -0.6875q-1.90625 0 -3.28125 1.3125q-1.375 1.3125 -1.375 4.390625zm13.198975 6.59375l0 -13.59375l5.125 0q1.359375 0 2.078125 0.125q1.0 0.17187548 1.671875 0.6406255q0.671875 0.46875 1.078125 1.3125q0.421875 0.84375 0.421875 1.84375q0 1.734375 -1.109375 2.9375q-1.09375 1.203125 -3.984375 1.203125l-3.484375 0l0 5.53125l-1.796875 0zm1.796875 -7.140625l3.515625 0q1.75 0 2.46875 -0.640625q0.734375 -0.65625 0.734375 -1.828125q0 -0.859375 -0.4375 -1.46875q-0.421875 -0.609375 -1.125 -0.796875q-0.453125 -0.125 -1.671875 -0.125l-3.484375 0l0 4.859375z" fill-rule="nonzero"></path><path fill="#000000" fill-opacity="0.0" d="m220.7874 179.08379l0 -151.1181" fill-rule="evenodd"></path><path stroke="#000000" stroke-width="2.0" stroke-linejoin="round" stroke-linecap="butt" d="m220.7874 179.08379l0 -139.1181" fill-rule="evenodd"></path><path fill="#000000" stroke="#000000" stroke-width="2.0" stroke-linecap="butt" d="m224.09087 39.965675l-3.3034668 -9.076197l-3.3034668 9.076197z" fill-rule="evenodd"></path><path fill="#000000" fill-opacity="0.0" d="m347.08136 179.08379l0.1574707 -149.51181" fill-rule="evenodd"></path><path stroke="#000000" stroke-width="2.0" stroke-linejoin="round" stroke-linecap="butt" d="m347.08136 179.08379l0.14486694 -137.51183" fill-rule="evenodd"></path><path fill="#000000" stroke="#000000" stroke-width="2.0" stroke-linecap="butt" d="m350.52966 41.575447l-3.2938843 -9.07967l-3.3130493 9.072708z" fill-rule="evenodd"></path><path fill="#000000" fill-opacity="0.0" d="m473.37534 179.08379l0 -151.1181" fill-rule="evenodd"></path><path stroke="#000000" stroke-width="2.0" stroke-linejoin="round" stroke-linecap="butt" d="m473.37534 179.08379l0 -139.1181" fill-rule="evenodd"></path><path fill="#000000" stroke="#000000" stroke-width="2.0" stroke-linecap="butt" d="m476.6788 39.965675l-3.3034668 -9.076197l-3.3034668 9.076197z" fill-rule="evenodd"></path><path fill="#000000" fill-opacity="0.0" d="m599.6693 179.08379l0 -149.51181" fill-rule="evenodd"></path><path stroke="#000000" stroke-width="2.0" stroke-linejoin="round" stroke-linecap="butt" d="m599.6693 179.08379l0 -137.51181" fill-rule="evenodd"></path><path fill="#000000" stroke="#000000" stroke-width="2.0" stroke-linecap="butt" d="m602.9728 41.57197l-3.3034668 -9.076195l-3.3034668 9.076195z" fill-rule="evenodd"></path><path fill="#000000" fill-opacity="0.0" d="m47.071266 220.0433c33.173225 0 49.759842 0.01574707 66.34646 0.03149414c16.586609 0.01574707 33.173218 0.03149414 66.34645 0.03149414" fill-rule="evenodd"></path><path stroke="#000000" stroke-width="2.0" stroke-linejoin="round" stroke-linecap="butt" d="m47.071266 220.0433c33.173225 0 49.759842 0.01574707 66.34646 0.03149414c8.293304 0.007873535 16.586609 0.01574707 26.953247 0.021652222c5.183319 0.002960205 10.884964 0.00541687 17.364105 0.0071411133l10.0290985 0.0012359619" fill-rule="evenodd"></path><path fill="#000000" stroke="#000000" stroke-width="2.0" stroke-linecap="butt" d="m167.76376 223.4083l9.076599 -3.302353l-9.07579 -3.3045807z" fill-rule="evenodd"></path><path fill="#000000" fill-opacity="0.0" d="m-14.465622 201.54068l67.93701 0l0 37.07086l-67.93701 0z" fill-rule="evenodd"></path><path fill="#000000" d="m12.524366 227.08487q-1.171875 0.984375 -2.265625 1.40625q-1.078125 0.40625 -2.3125 0.40625q-2.046875 0 -3.15625 -1.0q-1.09375 -1.0 -1.09375 -2.5625q0 -0.921875 0.40625 -1.671875q0.421875 -0.75 1.09375 -1.203125q0.671875 -0.46875 1.515625 -0.703125q0.625 -0.15625 1.875 -0.3125q2.5625 -0.3125 3.765625 -0.734375q0.015625 -0.421875 0.015625 -0.546875q0 -1.28125 -0.609375 -1.8125q-0.796875 -0.71875 -2.390625 -0.71875q-1.5 0 -2.203125 0.53125q-0.703125 0.515625 -1.046875 1.84375l-2.0625 -0.28125q0.28125 -1.328125 0.921875 -2.140625q0.640625 -0.8125 1.859375 -1.25q1.21875 -0.453125 2.828125 -0.453125q1.59375 0 2.59375 0.375q1.0 0.375 1.46875 0.953125q0.46875 0.5625 0.65625 1.4375q0.09375 0.53125 0.09375 1.9375l0 2.8125q0 2.9375 0.140625 3.71875q0.140625 0.78125 0.53125 1.5l-2.203125 0q-0.328125 -0.65625 -0.421875 -1.53125zm-0.171875 -4.71875q-1.15625 0.46875 -3.453125 0.796875q-1.296875 0.1875 -1.84375 0.421875q-0.53125 0.234375 -0.828125 0.6875q-0.28125 0.453125 -0.28125 1.0q0 0.84375 0.625 1.40625q0.640625 0.5625 1.875 0.5625q1.21875 0 2.171875 -0.53125q0.953125 -0.53125 1.390625 -1.453125q0.34375 -0.71875 0.34375 -2.109375l0 -0.78125zm5.394533 6.25l0 -12.453125l1.90625 0l0 1.78125q1.375 -2.0625 3.953125 -2.0625q1.125 0 2.0625 0.40625q0.953125 0.40625 1.421875 1.0625q0.46875 0.65625 0.65625 1.5625q0.125 0.578125 0.125 2.046875l0 7.65625l-2.109375 0l0 -7.578125q0 -1.28125 -0.25 -1.921875q-0.25 -0.640625 -0.875 -1.015625q-0.625 -0.390625 -1.46875 -0.390625q-1.34375 0 -2.328125 0.859375q-0.984375 0.859375 -0.984375 3.25l0 6.796875l-2.109375 0zm17.957031 -1.890625l0.3125 1.859375q-0.890625 0.203125 -1.59375 0.203125q-1.15625 0 -1.796875 -0.359375q-0.625 -0.375 -0.890625 -0.96875q-0.25 -0.59375 -0.25 -2.484375l0 -7.171875l-1.546875 0l0 -1.640625l1.546875 0l0 -3.078125l2.09375 -1.265625l0 4.34375l2.125 0l0 1.640625l-2.125 0l0 7.28125q0 0.90625 0.109375 1.171875q0.125 0.25 0.375 0.40625q0.25 0.140625 0.71875 0.140625q0.34375 0 0.921875 -0.078125z" fill-rule="nonzero"></path><path fill="#000000" fill-opacity="0.0" d="m221.2231 185.77953l0 -151.33858l56.62993 0l0 151.33858z" fill-rule="evenodd"></path><path fill="#000000" d="m243.75247 163.71953l-0.171875 -1.78125l0.46875 0.03125q0.796875 0 1.453125 -0.359375q0.640625 -0.375 1.0 -1.203125q0.359375 -0.84375 0.359375 -1.984375q0 -1.640625 -0.703125 -2.484375q-0.71875 -0.859375 -1.640625 -0.859375q-0.640625 0 -1.171875 0.453125q-0.515625 0.453125 -1.40625 2.53125q-0.703125 1.59375 -1.078125 2.1875q-0.59375 0.921875 -1.296875 1.359375q-0.71875 0.421875 -1.625 0.421875q-1.046875 0 -1.890625 -0.5625q-0.84375 -0.578125 -1.28125 -1.6875q-0.453125 -1.109375 -0.453125 -2.5q0 -1.65625 0.5625 -2.796875q0.546875 -1.15625 1.484375 -1.65625q0.921875 -0.515625 1.765625 -0.515625q0.078125 0 0.28125 0l0.125 1.75q-0.5625 0 -0.890625 0.109375q-0.5625 0.1875 -0.953125 0.578125q-0.390625 0.390625 -0.625 1.078125q-0.25 0.671875 -0.25 1.515625q0 1.484375 0.671875 2.3125q0.515625 0.625 1.359375 0.625q0.5 0 0.890625 -0.25q0.390625 -0.265625 0.78125 -0.9375q0.265625 -0.484375 1.0625 -2.296875q0.65625 -1.46875 1.015625 -2.015625q0.5 -0.75 1.203125 -1.140625q0.703125 -0.40625 1.59375 -0.40625q1.09375 0 2.03125 0.671875q0.9375 0.671875 1.453125 1.859375q0.5 1.1875 0.5 2.71875q0 2.3125 -1.0 3.78125q-1.015625 1.453125 -3.625 1.453125zm0.65625 -12.021698q-2.890625 0 -4.78125 -1.703125q-1.5625 -1.40625 -1.5625 -3.671875q0 -1.78125 1.125 -2.875q1.109375 -1.09375 3.0 -1.09375q1.6875 0 3.15625 0.6875q1.453125 0.6875 2.234375 1.953125q0.78125 1.265625 0.78125 2.671875q0 1.15625 -0.484375 2.09375q-0.5 0.9375 -1.390625 1.4375q-0.90625 0.5 -2.078125 0.5zm-0.171875 -1.6875q1.390625 0 2.109375 -0.65625q0.71875 -0.671875 0.71875 -1.703125q0 -0.546875 -0.21875 -1.0625q-0.21875 -0.53125 -0.65625 -0.984375q-0.453125 -0.46875 -1.015625 -0.78125q-0.578125 -0.328125 -1.234375 -0.515625q-0.921875 -0.28125 -1.765625 -0.28125q-1.328125 0 -2.0625 0.671875q-0.75 0.671875 -0.75 1.6875q0 0.78125 0.375 1.4375q0.375 0.65625 1.109375 1.1875q0.71875 0.515625 1.6875 0.765625q0.953125 0.234375 1.703125 0.234375zm3.90625 -8.625717l-8.546875 -1.796875l0 1.5l-1.3125 -0.265625l0 -1.5l-1.390625 -0.28125q-1.046875 -0.234375 -1.515625 -0.46875q-0.46875 -0.234375 -0.765625 -0.765625q-0.296875 -0.53125 -0.296875 -1.453125q0 -0.640625 0.265625 -1.859375l1.46875 0.3125q-0.234375 0.84375 -0.234375 1.421875q0 0.5 0.25 0.75q0.25 0.25 1.171875 0.4375l1.046875 0.21875l0 -1.859375l1.3125 0.265625l0 1.875l8.546875 1.78125l0 1.6875zm-1.359375 -8.886429l1.375 0.28125q0.15625 0.609375 0.15625 1.171875q0 1.0 -0.5 1.59375q-0.375 0.453125 -1.015625 0.453125q-0.3125 0 -1.484375 -0.25l-5.71875 -1.1875l0 1.328125l-1.3125 -0.28125l0 -1.328125l-2.421875 -0.5l-1.15625 -1.921875l3.578125 0.75l0 -1.65625l1.3125 0.28125l0 1.640625l5.4375 1.140625q1.046875 0.21875 1.25 0.21875q0.296875 0 0.453125 -0.171875q0.15625 -0.171875 0.15625 -0.5625q0 -0.5625 -0.109375 -1.0zm1.359375 -1.2458038l-9.859375 -2.0625l0 -1.671875l1.625 0.34375q-1.046875 -0.9375 -1.4375 -1.671875q-0.40625 -0.734375 -0.40625 -1.609375q0 -0.90625 0.5 -1.515625q0.484375 -0.625 1.34375 -0.828125q-0.921875 -0.75 -1.375 -1.578125q-0.46875 -0.828125 -0.46875 -1.75q0 -1.234375 0.59375 -1.84375q0.578125 -0.625 1.640625 -0.625q0.453125 0 1.5 0.21875l6.34375 1.328125l0 1.671875l-6.515625 -1.359375q-0.796875 -0.171875 -1.140625 -0.171875q-0.484375 0 -0.75 0.3125q-0.28125 0.296875 -0.28125 0.859375q0 0.75 0.453125 1.53125q0.453125 0.78125 1.1875 1.21875q0.734375 0.421875 2.265625 0.75l4.78125 1.0l0 1.671875l-6.65625 -1.390625q-0.671875 -0.140625 -0.953125 -0.140625q-0.484375 0 -0.78125 0.296875q-0.296875 0.296875 -0.296875 0.78125q0 0.71875 0.453125 1.5q0.453125 0.78125 1.265625 1.28125q0.8125 0.484375 2.3125 0.796875l4.65625 0.984375l0 1.671875zm-1.21875 -22.197052q0.75 0.875 1.09375 1.6875q0.34375 0.8125 0.34375 1.71875q0 1.375 -0.796875 2.21875q-0.796875 0.828125 -2.0625 0.828125q-0.8125 0 -1.453125 -0.375q-0.640625 -0.390625 -1.015625 -1.0q-0.390625 -0.625 -0.5625 -1.53125q-0.109375 -0.5625 -0.171875 -2.140625q-0.0625 -1.578125 -0.328125 -2.265625q-0.6875 -0.203125 -1.140625 -0.203125q-0.59375 0 -0.921875 0.4375q-0.46875 0.578125 -0.46875 1.703125q0 1.046875 0.46875 1.734375q0.46875 0.671875 1.328125 0.96875l-0.140625 1.703125q-1.46875 -0.515625 -2.25 -1.640625q-0.78125 -1.140625 -0.78125 -2.859375q0 -1.828125 0.875 -2.890625q0.65625 -0.8125 1.6875 -0.8125q0.796875 0 1.828125 0.234375l2.453125 0.546875q1.171875 0.25 1.890625 0.25q0.46875 0 1.34375 -0.203125l0 1.703125q-0.484375 0.140625 -1.21875 0.1875zm-3.765625 -0.609375q0.125 0.34375 0.203125 0.75q0.078125 0.40625 0.15625 1.34375q0.140625 1.46875 0.34375 2.078125q0.1875 0.59375 0.625 0.90625q0.4375 0.3125 0.96875 0.3125q0.703125 0 1.15625 -0.484375q0.453125 -0.5 0.453125 -1.390625q0 -0.84375 -0.4375 -1.609375q-0.4375 -0.765625 -1.21875 -1.203125q-0.796875 -0.453125 -2.25 -0.703125zm4.984375 -2.4538422l-5.0 -4.296875l-4.859375 2.46875l0 -1.859375l1.765625 -0.828125q0.984375 -0.46875 1.875 -0.84375l-3.640625 -2.84375l0 -2.046875l4.984375 4.140625l4.875 -2.484375l0 1.859375l-2.0 0.984375q-0.640625 0.3125 -1.59375 0.703125l3.59375 2.9375l0 2.109375zm-3.734375 -15.464554q-2.890625 0 -4.78125 -1.703125q-1.5625 -1.40625 -1.5625 -3.671875q0 -1.78125 1.125 -2.875q1.109375 -1.09375 3.0 -1.09375q1.6875 0 3.15625 0.6875q1.453125 0.6875 2.234375 1.953125q0.78125 1.265625 0.78125 2.671875q0 1.15625 -0.484375 2.09375q-0.5 0.9375 -1.390625 1.4375q-0.90625 0.5 -2.078125 0.5zm-0.171875 -1.6875q1.390625 0 2.109375 -0.65625q0.71875 -0.671875 0.71875 -1.703125q0 -0.546875 -0.21875 -1.0625q-0.21875 -0.53125 -0.65625 -0.984375q-0.453125 -0.46875 -1.015625 -0.78125q-0.578125 -0.328125 -1.234375 -0.515625q-0.921875 -0.28125 -1.765625 -0.28125q-1.328125 0 -2.0625 0.671875q-0.75 0.671875 -0.75 1.6875q0 0.78125 0.375 1.4375q0.375 0.65625 1.109375 1.1875q0.71875 0.515625 1.6875 0.765625q0.953125 0.234375 1.703125 0.234375zm3.90625 -10.891342l-9.859375 1.625l0 -1.640625l5.4375 -0.84375q0.890625 -0.140625 2.90625 -0.34375q-1.046875 -0.484375 -2.40625 -1.234375l-5.9375 -3.28125l0 -1.78125l9.859375 5.640625l0 1.859375zm-3.34375 -14.078125l0.15625 -1.625q1.21875 0.359375 2.3125 1.625q1.09375 1.265625 1.09375 3.015625q0 1.09375 -0.5 2.015625q-0.5 0.90625 -1.46875 1.390625q-0.96875 0.46875 -2.203125 0.46875q-1.609375 0 -3.125 -0.75q-1.515625 -0.75 -2.25 -1.9375q-0.75 -1.1875 -0.75 -2.5625q0 -1.765625 1.09375 -2.8125q1.09375 -1.0625 2.984375 -1.0625q0.734375 0 1.484375 0.140625l0 7.25q0.296875 0.03125 0.53125 0.03125q1.375 0 2.109375 -0.625q0.71875 -0.640625 0.71875 -1.5625q0 -0.859375 -0.5625 -1.6875q-0.5625 -0.84375 -1.625 -1.3125zm-2.453125 4.890625l0 -5.53125q-0.25 -0.015625 -0.359375 -0.015625q-1.265625 0 -1.9375 0.640625q-0.671875 0.625 -0.671875 1.625q0 1.0625 0.75 1.953125q0.734375 0.890625 2.21875 1.328125zm5.796875 -8.016342l-9.859375 -2.0625l0 -1.484375l2.015625 0.421875q-1.140625 -0.765625 -1.6875 -1.484375q-0.546875 -0.734375 -0.546875 -1.5q0 -0.5 0.359375 -1.234375l1.5625 0.6875q-0.3125 0.4375 -0.3125 0.953125q0 0.875 0.984375 1.8125q0.984375 0.921875 3.53125 1.453125l3.953125 0.828125l0 1.609375z" fill-rule="nonzero"></path><path fill="#000000" d="m270.1431 152.09547l-9.859375 1.625l0 -1.640625l5.4375 -0.84375q0.890625 -0.140625 2.90625 -0.34375q-1.046875 -0.484375 -2.40625 -1.234375l-5.9375 -3.28125l0 -1.78125l9.859375 5.640625l0 1.859375zm-3.734375 -7.125q-2.890625 0 -4.78125 -1.703125q-1.5625 -1.40625 -1.5625 -3.671875q0 -1.78125 1.125 -2.875q1.109375 -1.09375 3.0 -1.09375q1.6875 0 3.15625 0.6875q1.453125 0.6875 2.234375 1.953125q0.78125 1.265625 0.78125 2.671875q0 1.15625 -0.484375 2.09375q-0.5 0.9375 -1.390625 1.4375q-0.90625 0.5 -2.078125 0.5zm-0.171875 -1.6875q1.390625 0 2.109375 -0.65625q0.71875 -0.671875 0.71875 -1.703125q0 -0.546875 -0.21875 -1.0625q-0.21875 -0.53125 -0.65625 -0.984375q-0.453125 -0.46875 -1.015625 -0.78125q-0.578125 -0.328125 -1.234375 -0.515625q-0.921875 -0.28125 -1.765625 -0.28125q-1.328125 0 -2.0625 0.671875q-0.75 0.671875 -0.75 1.6875q0 0.78125 0.375 1.4375q0.375 0.65625 1.109375 1.1875q0.71875 0.515625 1.6875 0.765625q0.953125 0.234375 1.703125 0.234375zm0.3125 -15.203842l0.171875 -1.6718826q1.859375 0.625 2.75 1.7968826q0.890625 1.15625 0.890625 2.640625q0 1.609375 -1.03125 2.609375q-1.046875 1.0 -2.90625 1.0q-1.609375 0 -3.171875 -0.640625q-1.5625 -0.640625 -2.375 -1.828125q-0.8125 -1.203125 -0.8125 -2.734375q0 -1.5781326 0.90625 -2.5000076q0.890625 -0.9375 2.359375 -0.9375l0.109375 1.65625q-0.9375 0 -1.453125 0.5312576q-0.53125 0.53125 -0.53125 1.40625q0 1.015625 0.640625 1.765625q0.640625 0.734375 1.9375 1.15625q1.296875 0.421875 2.515625 0.421875q1.25 0 1.890625 -0.546875q0.625 -0.5625 0.625 -1.375q0 -0.828125 -0.609375 -1.5625q-0.625 -0.75 -1.90625 -1.1875zm2.375 -9.171883q0.75 0.875 1.09375 1.6875q0.34375 0.8125 0.34375 1.71875q0 1.375 -0.796875 2.21875q-0.796875 0.828125 -2.0625 0.828125q-0.8125 0 -1.453125 -0.375q-0.640625 -0.390625 -1.015625 -1.0q-0.390625 -0.625 -0.5625 -1.53125q-0.109375 -0.5625 -0.171875 -2.140625q-0.0625 -1.578125 -0.328125 -2.265625q-0.6875 -0.203125 -1.140625 -0.203125q-0.59375 0 -0.921875 0.4375q-0.46875 0.578125 -0.46875 1.703125q0 1.046875 0.46875 1.734375q0.46875 0.671875 1.328125 0.96875l-0.140625 1.703125q-1.46875 -0.515625 -2.25 -1.640625q-0.78125 -1.140625 -0.78125 -2.859375q0 -1.828125 0.875 -2.890625q0.65625 -0.8125 1.6875 -0.8125q0.796875 0 1.828125 0.234375l2.453125 0.546875q1.171875 0.25 1.890625 0.25q0.46875 0 1.34375 -0.203125l0 1.703125q-0.484375 0.140625 -1.21875 0.1875zm-3.765625 -0.609375q0.125 0.34375 0.203125 0.75q0.078125 0.40625 0.15625 1.34375q0.140625 1.46875 0.34375 2.078125q0.1875 0.59375 0.625 0.90625q0.4375 0.3125 0.96875 0.3125q0.703125 0 1.15625 -0.484375q0.453125 -0.5 0.453125 -1.390625q0 -0.84375 -0.4375 -1.609375q-0.4375 -0.765625 -1.21875 -1.203125q-0.796875 -0.453125 -2.25 -0.703125zm4.984375 -3.1100922l-13.59375 -2.84375l0 -1.6875l4.859375 1.015625q-0.734375 -0.796875 -1.03125 -1.4375q-0.3125 -0.65625 -0.3125 -1.359375q0 -1.390625 1.03125 -2.3125q1.03125 -0.921875 3.0 -0.921875q1.3125 0 2.40625 0.375q1.078125 0.375 1.8125 0.921875q0.734375 0.546875 1.171875 1.140625q0.4375 0.578125 0.65625 1.1875q0.21875 0.609375 0.21875 1.171875q0 0.984375 -0.515625 1.734375q-0.515625 0.734375 -1.5625 1.140625l1.859375 0.390625l0 1.484375zm-4.046875 -2.5l0.3125 0.015625q1.265625 0 1.921875 -0.59375q0.65625 -0.609375 0.65625 -1.515625q0 -0.875 -0.609375 -1.609375q-0.625 -0.75 -1.921875 -1.21875q-1.3125 -0.46875 -2.421875 -0.46875q-1.234375 0 -1.921875 0.609375q-0.6875 0.59375 -0.6875 1.46875q0 0.90625 0.703125 1.671875q0.703125 0.75 2.15625 1.265625q1.078125 0.375 1.8125 0.375zm2.265625 -14.610092q2.0 1.78125 2.0 3.625q0 1.140625 -0.640625 1.84375q-0.65625 0.703125 -1.609375 0.703125q-0.625 0 -2.140625 -0.3125l-5.6875 -1.1875l0 -1.6875l6.3125 1.328125q0.78125 0.15625 1.21875 0.15625q0.5625 0 0.875 -0.328125q0.296875 -0.34375 0.296875 -1.0q0 -0.703125 -0.34375 -1.375q-0.34375 -0.671875 -0.921875 -1.15625q-0.578125 -0.5 -1.375 -0.796875q-0.515625 -0.203125 -1.796875 -0.484375l-4.265625 -0.890625l0 -1.671875l9.859375 2.0625l0 1.546875l-1.78125 -0.375zm1.78125 -3.5163422l-13.59375 -2.84375l0 -1.671875l13.59375 2.828125l0 1.6875zm-1.21875 -10.926071q0.75 0.875 1.09375 1.6875q0.34375 0.8125 0.34375 1.71875q0 1.375 -0.796875 2.21875q-0.796875 0.828125 -2.0625 0.828125q-0.8125 0 -1.453125 -0.375q-0.640625 -0.390625 -1.015625 -1.0q-0.390625 -0.625 -0.5625 -1.53125q-0.109375 -0.5625 -0.171875 -2.140625q-0.0625 -1.578125 -0.328125 -2.265625q-0.6875 -0.203125 -1.140625 -0.203125q-0.59375 0 -0.921875 0.4375q-0.46875 0.578125 -0.46875 1.703125q0 1.046875 0.46875 1.734375q0.46875 0.671875 1.328125 0.96875l-0.140625 1.703125q-1.46875 -0.515625 -2.25 -1.640625q-0.78125 -1.140625 -0.78125 -2.859375q0 -1.828125 0.875 -2.890625q0.65625 -0.8125 1.6875 -0.8125q0.796875 0 1.828125 0.234375l2.453125 0.546875q1.171875 0.25 1.890625 0.25q0.46875 0 1.34375 -0.203125l0 1.703125q-0.484375 0.140625 -1.21875 0.1875zm-3.765625 -0.609375q0.125 0.34375 0.203125 0.75q0.078125 0.40625 0.15625 1.34375q0.140625 1.46875 0.34375 2.078125q0.1875 0.59375 0.625 0.90625q0.4375 0.3125 0.96875 0.3125q0.703125 0 1.15625 -0.484375q0.453125 -0.5 0.453125 -1.390625q0 -0.84375 -0.4375 -1.609375q-0.4375 -0.765625 -1.21875 -1.203125q-0.796875 -0.453125 -2.25 -0.703125zm4.984375 -3.1100922l-9.859375 -2.0625l0 -1.484375l2.015625 0.421875q-1.140625 -0.765625 -1.6875 -1.484375q-0.546875 -0.734375 -0.546875 -1.5q0 -0.5 0.359375 -1.234375l1.5625 0.6875q-0.3125 0.4375 -0.3125 0.953125q0 0.875 0.984375 1.8125q0.984375 0.921875 3.53125 1.453125l3.953125 0.828125l0 1.609375zm3.796875 -5.587677l-1.5625 -0.109375q0.140625 -0.515625 0.140625 -1.0q0 -0.515625 -0.234375 -0.828125q-0.296875 -0.40625 -1.140625 -0.890625l-0.96875 -0.546875l-9.890625 1.65625l0 -1.65625l4.984375 -0.75q1.484375 -0.21875 2.953125 -0.375l-7.9375 -4.40625l0 -1.75l11.171875 6.28125q1.625 0.90625 2.15625 1.609375q0.53125 0.703125 0.53125 1.625q0 0.578125 -0.203125 1.140625z" fill-rule="nonzero"></path><path fill="#000000" fill-opacity="0.0" d="m27.055323 156.88147l182.07874 -0.03149414l0 57.007874l-182.07874 0.03149414z" fill-rule="evenodd"></path><path fill="#000000" d="m71.762314 183.79373l2.84375 -13.594238l9.8125 -0.0016937256l-0.328125 1.546936l-7.984375 0.001373291l-0.890625 4.2189026l7.78125 -0.0013427734l-0.328125 1.562561l-7.78125 0.0013427734l-0.984375 4.718918l8.5625 -0.0014801025l-0.328125 1.546936l-10.375 0.0017852783zm12.209198 -0.002105713l2.0625 -9.859741l1.671875 -2.746582E-4l-0.34375 1.6250458q0.9375 -1.0470276 1.671875 -1.4377899q0.734375 -0.40637207 1.609375 -0.40652466q0.90625 -1.5258789E-4 1.515625 0.4997406q0.625 0.4842682 0.828125 1.3436127q0.75 -0.9220123 1.578125 -1.3752747q0.828125 -0.4689026 1.75 -0.46905518q1.234375 -2.1362305E-4 1.84375 0.59342957q0.625 0.5780182 0.625 1.6405182q0 0.453125 -0.21875 1.5000305l-1.328125 6.343979l-1.671875 2.89917E-4l1.359375 -6.515854q0.171875 -0.7969055 0.171875 -1.1406555q0 -0.484375 -0.3125 -0.74993896q-0.296875 -0.28120422 -0.859375 -0.28111267q-0.75 1.373291E-4 -1.53125 0.45339966q-0.78125 0.45326233 -1.21875 1.1877136q-0.421875 0.73443604 -0.75 2.265747l-1.0 4.781418l-1.671875 2.89917E-4l1.390625 -6.656479q0.140625 -0.6719055 0.140625 -0.9531555q0 -0.484375 -0.296875 -0.7812042q-0.296875 -0.29681396 -0.78125 -0.29673767q-0.71875 1.2207031E-4 -1.5 0.4533844q-0.78125 0.45326233 -1.28125 1.2658539q-0.484375 0.8125763 -0.796875 2.3126373l-0.984375 4.656418l-1.671875 2.89917E-4zm15.540802 -0.0026855469l2.84375 -13.594254l1.6875 -2.89917E-4l-1.015625 4.859558q0.796875 -0.7345123 1.4375 -1.0314941q0.65625 -0.31262207 1.359375 -0.31274414q1.390625 -2.4414062E-4 2.3125 1.0308533q0.921875 1.0310822 0.921875 2.9998322q0 1.3125 -0.375 2.4063263q-0.375 1.078186 -0.921875 1.8126526q-0.546875 0.73446655 -1.140625 1.1720734q-0.578125 0.4376068 -1.1875 0.6564636q-0.609375 0.21884155 -1.171875 0.21894836q-0.984375 1.6784668E-4 -1.734375 -0.5153198q-0.734375 -0.5155029 -1.140625 -1.5623169l-0.390625 1.8594513l-1.484375 2.593994E-4zm2.5 -4.0473175l-0.015625 0.31251526q0 1.265625 0.59375 1.9217682q0.609375 0.6561432 1.515625 0.6559906q0.875 -1.5258789E-4 1.609375 -0.6096649q0.75 -0.6251221 1.21875 -1.9220734q0.46875 -1.3125916 0.46875 -2.4219666q0 -1.234375 -0.609375 -1.9217682q-0.59375 -0.6873932 -1.46875 -0.6872406q-0.90625 1.5258789E-4 -1.671875 0.7034149q-0.75 0.7032471 -1.265625 2.1564636q-0.375 1.078186 -0.375 1.812561zm15.125717 0.70051575l1.625 0.15596008q-0.359375 1.2188263 -1.625 2.31279q-1.265625 1.0939636 -3.015625 1.0942688q-1.09375 1.8310547E-4 -2.015625 -0.49964905q-0.90625 -0.4998474 -1.390625 -1.4685059q-0.46875 -0.9686737 -0.46875 -2.2030487q0 -1.609375 0.75 -3.1251373q0.75 -1.5157471 1.9375 -2.2503204q1.1875 -0.7502136 2.5625 -0.75045776q1.765625 -3.0517578E-4 2.8125 1.093277q1.0625 1.0935669 1.0625 2.984192q0 0.734375 -0.140625 1.4843903l-7.25 0.0012512207q-0.03125 0.29689026 -0.03125 0.53126526q0 1.375 0.625 2.1092682q0.640625 0.7186279 1.5625 0.71847534q0.859375 -1.5258789E-4 1.6875 -0.5627899q0.84375 -0.5626526 1.3125 -1.6252289zm-4.890625 -2.4522858l5.53125 -9.460449E-4q0.015625 -0.25001526 0.015625 -0.35939026q0 -1.265625 -0.640625 -1.9373779q-0.625 -0.6717682 -1.625 -0.67160034q-1.0625 1.8310547E-4 -1.953125 0.7503357q-0.890625 0.7345276 -1.328125 2.218979zm14.672592 4.372467q-1.453125 1.6408691 -3.015625 1.6411438q-1.40625 2.4414062E-4 -2.34375 -1.030838q-0.921875 -1.0310974 -0.921875 -2.9998474q0 -1.796875 0.734375 -3.281372q0.75 -1.5001373 1.84375 -2.2346954q1.109375 -0.75019836 2.234375 -0.75038147q1.828125 -3.2043457E-4 2.765625 1.7807617l1.109375 -5.297058l1.671875 -2.89917E-4l-2.828125 13.594238l-1.546875 2.593994E-4l0.296875 -1.4219208zm-4.609375 -2.7023315q0 1.03125 0.203125 1.6249695q0.203125 0.5937195 0.6875 0.9842529q0.5 0.39053345 1.1875 0.39042664q1.140625 -1.9836426E-4 2.0625 -1.1878662q1.25 -1.5783386 1.25 -3.8908386q0 -1.171875 -0.609375 -1.8280182q-0.609375 -0.6561432 -1.546875 -0.65597534q-0.59375 9.1552734E-5 -1.09375 0.2658081q-0.5 0.26571655 -0.984375 0.92204285q-0.484375 0.64071655 -0.828125 1.6407776q-0.328125 0.9844208 -0.328125 1.7344208zm14.985092 2.700531q-1.453125 1.6408844 -3.015625 1.641159q-1.40625 2.2888184E-4 -2.34375 -1.0308533q-0.921875 -1.0310822 -0.921875 -2.9998322q0 -1.796875 0.734375 -3.2813873q0.75 -1.5001221 1.84375 -2.2346954q1.109375 -0.7501831 2.234375 -0.75038147q1.828125 -3.2043457E-4 2.765625 1.780777l1.109375 -5.2970734l1.671875 -2.89917E-4l-2.828125 13.594238l-1.546875 2.746582E-4l0.296875 -1.421936zm-4.609375 -2.7023163q0 1.03125 0.203125 1.6249542q0.203125 0.5937195 0.6875 0.9842682q0.5 0.39053345 1.1875 0.39041138q1.140625 -1.9836426E-4 2.0625 -1.187851q1.25 -1.5783386 1.25 -3.8908386q0 -1.171875 -0.609375 -1.8280334q-0.609375 -0.6561432 -1.546875 -0.65597534q-0.59375 1.0681152E-4 -1.09375 0.2658081q-0.5 0.26571655 -0.984375 0.9220581q-0.484375 0.6407013 -0.828125 1.6407623q-0.328125 0.98443604 -0.328125 1.734436zm10.719467 -7.5799866l0.40625 -1.8907013l1.65625 -2.746582E-4l-0.390625 1.890686l-1.671875 2.89917E-4zm-2.453125 11.703552l2.0625 -9.859726l1.6875 -3.0517578E-4l-2.0625 9.859741l-1.6875 2.89917E-4zm4.207321 -7.324219E-4l2.0625 -9.859726l1.53125 -2.746582E-4l-0.375 1.7188263q1.0 -1.0001831 1.859375 -1.4690704q0.859375 -0.4689026 1.765625 -0.46905518q1.203125 -2.1362305E-4 1.875 0.6559143q0.6875 0.6405182 0.6875 1.7342682q0 0.546875 -0.25 1.7187805l-1.25 5.968979l-1.671875 2.89917E-4l1.3125 -6.250229q0.1875 -0.9062805 0.1875 -1.3437805q0 -0.484375 -0.34375 -0.7812042q-0.328125 -0.31243896 -0.96875 -0.31233215q-1.296875 2.2888184E-4 -2.3125 0.922287q-1.0 0.92204285 -1.46875 3.1877441l-0.953125 4.578293l-1.6875 2.89917E-4zm10.281967 0.888855l1.703125 0.15594482q-0.015625 0.57814026 0.140625 0.85935974q0.15625 0.29684448 0.5 0.45303345q0.453125 0.2030487 1.171875 0.20292664q1.53125 -2.746582E-4 2.203125 -0.79725647q0.4375 -0.5157013 0.796875 -2.2970123l0.171875 -0.7969055q-1.3125 1.3283539 -2.78125 1.328598q-1.5 2.593994E-4 -2.515625 -1.0933075q-1.0 -1.1092072 -1.0 -3.1248322q0 -1.65625 0.796875 -3.0470123q0.796875 -1.3907623 1.890625 -2.0940704q1.09375 -0.71894836 2.25 -0.7191467q1.9375 -3.3569336E-4 2.984375 1.8432312l0.34375 -1.6250458l1.53125 -2.746582E-4l-1.984375 9.515976q-0.3125 1.5625458 -0.84375 2.4376373q-0.53125 0.89071655 -1.484375 1.3596344q-0.9375 0.48454285 -2.171875 0.48475647q-1.1875 1.9836426E-4 -2.046875 -0.31214905q-0.84375 -0.29673767 -1.28125 -0.8904114q-0.421875 -0.5780487 -0.421875 -1.3436737q0 -0.234375 0.046875 -0.5zm2.109375 -5.250366q0 1.015625 0.1875 1.5155945q0.28125 0.71868896 0.796875 1.0936127q0.515625 0.37490845 1.140625 0.37480164q0.828125 -1.5258789E-4 1.640625 -0.5784149q0.828125 -0.5782623 1.328125 -1.7971039q0.5 -1.2188416 0.5 -2.3125916q0 -1.21875 -0.671875 -1.9373779q-0.671875 -0.7186279 -1.65625 -0.7184601q-0.625 1.0681152E-4 -1.203125 0.32832336q-0.5625 0.3282318 -1.0625 1.0001831q-0.5 0.67196655 -0.75 1.6095123q-0.25 0.9375458 -0.25 1.4219208z" fill-rule="nonzero"></path><path fill="#000000" d="m93.69843 205.78995l2.84375 -13.594254l1.671875 -2.89917E-4l-2.828125 13.594238l-1.6875 3.0517578E-4zm4.566696 -3.7351685q0 -2.890625 1.703125 -4.78154q1.40625 -1.5627441 3.671875 -1.5631409q1.78125 -3.0517578E-4 2.875 1.1244965q1.09375 1.1091919 1.09375 2.999817q0 1.6875 -0.6875 3.156372q-0.6875 1.4532471 -1.953125 2.2347107q-1.265625 0.7814636 -2.671875 0.78170776q-1.15625 1.9836426E-4 -2.09375 -0.4840088q-0.9375 -0.49983215 -1.4375 -1.3903809q-0.5 -0.90615845 -0.5 -2.0780334zm1.6875 -0.17216492q0 1.390625 0.65625 2.109253q0.671875 0.7186432 1.703125 0.7184601q0.546875 -9.1552734E-5 1.0625 -0.2189331q0.53125 -0.21884155 0.984375 -0.65641785q0.46875 -0.45321655 0.78125 -1.0157623q0.328125 -0.57818604 0.515625 -1.2344666q0.28125 -0.9219208 0.28125 -1.7656708q0 -1.328125 -0.671875 -2.0623932q-0.671875 -0.7498779 -1.6875 -0.7496948q-0.78125 1.2207031E-4 -1.4375 0.37524414q-0.65625 0.3751068 -1.1875 1.1095734q-0.515625 0.71884155 -0.765625 1.6876373q-0.234375 0.9531708 -0.234375 1.7031708zm8.688217 0.17036438q0 -2.890625 1.703125 -4.78154q1.40625 -1.5627441 3.671875 -1.5631409q1.78125 -3.0517578E-4 2.875 1.1245117q1.09375 1.1091766 1.09375 2.9998016q0 1.6875 -0.6875 3.156372q-0.6875 1.4532471 -1.953125 2.2347107q-1.265625 0.7814789 -2.671875 0.781723q-1.15625 1.9836426E-4 -2.09375 -0.48402405q-0.9375 -0.49983215 -1.4375 -1.3903656q-0.5 -0.9061737 -0.5 -2.0780487zm1.6875 -0.17216492q0 1.390625 0.65625 2.1092682q0.671875 0.7186279 1.703125 0.7184448q0.546875 -9.1552734E-5 1.0625 -0.2189331q0.53125 -0.21884155 0.984375 -0.65641785q0.46875 -0.4532013 0.78125 -1.0157623q0.328125 -0.5781708 0.515625 -1.2344666q0.28125 -0.9219208 0.28125 -1.7656708q0 -1.328125 -0.671875 -2.062378q-0.671875 -0.7498932 -1.6875 -0.7497101q-0.78125 1.373291E-4 -1.4375 0.37524414q-0.65625 0.37512207 -1.1875 1.1095886q-0.515625 0.71884155 -0.765625 1.6876221q-0.234375 0.9531708 -0.234375 1.7031708zm8.422592 3.9048004l2.84375 -13.594254l1.671875 -2.89917E-4l-1.765625 8.42218l4.890625 -4.688339l2.2187424 -3.8146973E-4l-4.2031174 3.6882172l2.546875 6.1714478l-1.84375 3.2043457E-4l-1.953125 -5.0621643l-2.046875 1.765976l-0.6875 3.296997l-1.671875 2.89917E-4zm16.031242 -1.7840271q-1.78125 2.0003052 -3.625 2.0006256q-1.140625 1.9836426E-4 -1.84375 -0.64030457q-0.703125 -0.6561279 -0.703125 -1.6092529q0 -0.625 0.3125 -2.140686l1.1875 -5.6876984l1.6875 -2.89917E-4l-1.328125 6.312729q-0.15625 0.7812805 -0.15625 1.2187805q0 0.5625 0.328125 0.87493896q0.34375 0.29681396 1.0 0.2966919q0.703125 -1.0681152E-4 1.375 -0.34397888q0.671875 -0.34387207 1.15625 -0.92207336q0.5 -0.57821655 0.796875 -1.3751373q0.203125 -0.5156708 0.484375 -1.7969666l0.890625 -4.2657776l1.671875 -2.89917E-4l-2.0625 9.859741l-1.546875 2.593994E-4l0.375 -1.781311zm2.8288422 5.5620117l2.84375 -13.641113l1.546875 -2.746582E-4l-0.28125 1.3750458q0.859375 -0.8907776 1.53125 -1.2346344q0.6875 -0.35949707 1.453125 -0.3596344q1.40625 -2.4414062E-4 2.328125 1.0308533q0.9375 1.0154572 0.9375 2.9373322q0 1.53125 -0.515625 2.7969666q-0.515625 1.2657166 -1.265625 2.047104q-0.734375 0.7657471 -1.5 1.1252594q-0.75 0.35949707 -1.546875 0.3596344q-1.765625 3.0517578E-4 -2.75 -1.796402l-1.109375 5.3595734l-1.671875 2.89917E-4zm3.3125 -7.81308q0 1.109375 0.15625 1.5312195q0.234375 0.6093445 0.765625 0.9842529q0.53125 0.35928345 1.21875 0.35916138q1.453125 -2.4414062E-4 2.34375 -1.625412q0.890625 -1.6251526 0.890625 -3.3282776q0 -1.25 -0.609375 -1.9217682q-0.59375 -0.6873932 -1.484375 -0.6872406q-0.640625 1.0681152E-4 -1.1875 0.34396362q-0.546875 0.32821655 -1.015625 1.0001678q-0.46875 0.6719513 -0.78125 1.6563873q-0.296875 0.9687958 -0.296875 1.6875458z" fill-rule="nonzero"></path></g></svg>

