<svg version="1.1" viewBox="0.0 0.0 767.1207349081365 265.95800524934384" fill="none" stroke="none" stroke-linecap="square" stroke-miterlimit="10" xmlns:xlink="http://www.w3.org/1999/xlink" xmlns="http://www.w3.org/2000/svg"><clipPath id="p.0"><path d="m0 0l767.1207 0l0 265.958l-767.1207 0l0 -265.958z" clip-rule="nonzero"/></clipPath><g clip-path="url(#p.0)"><path fill="#000000" fill-opacity="0.0" d="m0 0l767.1207 0l0 265.958l-767.1207 0z" fill-rule="evenodd"/><path fill="#000000" fill-opacity="0.0" d="m66.04351 70.88568l57.795273 19.559052" fill-rule="evenodd"/><path stroke="#002b36" stroke-width="3.0" stroke-linejoin="round" stroke-linecap="butt" d="m66.04351 70.88568l57.795273 19.559052" fill-rule="evenodd"/><path fill="#93a1a1" d="m669.40845 20.407244l49.543335 0l0 183.84253l-49.543335 0z" fill-rule="evenodd"/><path stroke="#002b36" stroke-width="2.0" stroke-linejoin="round" stroke-linecap="butt" d="m669.40845 20.407244l49.543335 0l0 183.84253l-49.543335 0z" fill-rule="evenodd"/><path fill="#000000" fill-opacity="0.0" d="m92.37422 44.722355l0 0c6.9833374 6.983341 10.906532 16.45478 10.906532 26.330708c0 9.875931 -3.923195 19.347374 -10.906532 26.330711l-26.330711 -26.330711z" fill-rule="evenodd"/><path fill="#000000" fill-opacity="0.0" d="m92.37422 44.722355l0 0c6.9833374 6.983341 10.906532 16.45478 10.906532 26.330708c0 9.875931 -3.923195 19.347374 -10.906532 26.330711" fill-rule="evenodd"/><path stroke="#002b36" stroke-width="3.0" stroke-linejoin="round" stroke-linecap="butt" d="m92.37422 44.722355l0 0c6.9833374 6.983341 10.906532 16.45478 10.906532 26.330708c0 9.875931 -3.923195 19.347374 -10.906532 26.330711" fill-rule="evenodd"/><path fill="#000000" fill-opacity="0.0" d="m66.04351 71.05306l57.795273 -19.559052" fill-rule="evenodd"/><path stroke="#002b36" stroke-width="3.0" stroke-linejoin="round" stroke-linecap="butt" d="m66.04351 71.05306l57.795273 -19.559052" fill-rule="evenodd"/><path fill="#000000" fill-opacity="0.0" d="m67.292984 70.668236l603.4331 66.33071" fill-rule="evenodd"/><path stroke="#002b36" stroke-width="1.0" stroke-linejoin="round" stroke-linecap="butt" stroke-dasharray="4.0,3.0" d="m67.292984 70.668236l603.4331 66.33071" fill-rule="evenodd"/><path fill="#000000" fill-opacity="0.0" d="m372.761 69.61067l112.75589 12.346458l-3.338562 30.425194l-112.75592 -12.346451z" fill-rule="evenodd"/><path fill="#002b36" d="m383.52435 95.57524l3.2496033 -7.2675934l1.7085266 0.18708038l-4.5856934 9.416183l-1.2736206 -0.1394577l-2.4814453 -10.190018l1.7085266 0.18708038l1.6741028 7.8067245zm7.320648 3.0964813l-1.6774597 -0.18367767l1.0754089 -9.800552l1.6774902 0.1836853l-1.0754395 9.800545zm-0.45721436 -12.593338q0.044311523 -0.40382385 0.32351685 -0.65618896q0.2808838 -0.26789093 0.76239014 -0.21516418q0.4970398 0.05442047 0.7131653 0.37673187q0.23336792 0.30848694 0.1890564 0.7123108q-0.044311523 0.40383148 -0.3390503 0.6544876q-0.27746582 0.23683167 -0.7745056 0.18240356q-0.48150635 -0.052719116 -0.7010498 -0.34397125q-0.21783447 -0.30678558 -0.17352295 -0.71060944zm7.1739197 13.517418q-1.9880981 -0.21768951 -3.1030579 -1.6601181q-1.0976868 -1.4562607 -0.85739136 -3.6462402l0.034088135 -0.31063843q0.16021729 -1.4599838 0.8437805 -2.5325775q0.6852722 -1.0881271 1.7492065 -1.6160812q1.0811768 -0.5417862 2.2460938 -0.41423035q1.9104614 0.20919037 2.8285828 1.5829086q0.91815186 1.3737259 0.6607971 3.7190247l-0.07501221 0.6833954l-6.6322327 -0.72621155q-0.12911987 1.4633865 0.5796814 2.4526672q0.7260742 0.97545624 1.9686584 1.1115112q0.88531494 0.09693909 1.5458069 -0.19226074q0.6622009 -0.30473328 1.1773987 -0.8456192l0.9382019 0.90436554q-1.434967 1.7605209 -3.904602 1.4901047zm0.76272583 -8.813095q-1.0095825 -0.1105423 -1.7903442 0.5584488q-0.7635193 0.655159 -1.0653992 1.9738846l4.9081726 0.5374298l0.01361084 -0.12425232q0.06210327 -1.2821121 -0.4824829 -2.0490646q-0.52737427 -0.78079224 -1.5835571 -0.8964462zm13.949799 7.8934174l2.7008972 -7.280525l1.6774597 0.18367767l-3.9178162 9.489311l-1.3668213 -0.1496582l-1.5617676 -7.6844025l-3.1289368 7.1707764l-1.3668518 -0.1496582l-1.7669678 -10.111786l1.6619568 0.18197632l1.137085 7.5435867l3.0721436 -7.0826874l1.3512878 0.14796448l1.5083313 7.7414246zm11.423676 3.5928955l-1.6774597 -0.18367767l1.5270691 -13.916466l1.6774597 0.18367767l-1.5270691 13.916466zm4.500519 0.49279785l-1.6774597 -0.18367767l1.0754089 -9.800552l1.6774902 0.18367767l-1.0754395 9.800552zm-0.45721436 -12.593338q0.044311523 -0.40383148 0.32351685 -0.65618896q0.2808838 -0.26789093 0.76239014 -0.21517181q0.49700928 0.0544281 0.7131653 0.3767395q0.23336792 0.30848694 0.1890564 0.7123108q-0.044311523 0.40383148 -0.3390503 0.6544876q-0.27749634 0.23683167 -0.7745056 0.18240356q-0.48150635 -0.052719116 -0.7010498 -0.34397125q-0.21783447 -0.30678558 -0.17352295 -0.71060944zm5.800171 3.2600708l-0.08804321 1.2321167q1.271698 -1.2754059 3.0889893 -1.0764236q3.1064148 0.3401413 2.7539978 3.8381958l-0.71069336 6.4767456l-1.6774597 -0.18367767l0.71069336 -6.4767456q0.10205078 -1.0733948 -0.32489014 -1.6231308q-0.409729 -0.56357574 -1.4193115 -0.67411804q-0.8076782 -0.08843994 -1.4766846 0.2784195q-0.6534729 0.3685608 -1.0891113 1.0439072l-0.7652283 6.9737625l-1.6619568 -0.18197632l1.0754395 -9.800545l1.584259 0.17346954zm11.606323 11.377785q-1.9881287 -0.21768951 -3.1030579 -1.6601181q-1.0977173 -1.4562607 -0.85739136 -3.6462402l0.034088135 -0.31063843q0.16018677 -1.4599838 0.84375 -2.5325775q0.68530273 -1.0881271 1.7492371 -1.6160812q1.0811768 -0.5417862 2.2460632 -0.41423035q1.9104614 0.20919037 2.8286133 1.5829086q0.91812134 1.3737259 0.6607666 3.7190247l-0.07498169 0.6833954l-6.6322327 -0.72621155q-0.12915039 1.4633865 0.5796814 2.4526672q0.7260742 0.9754486 1.9686279 1.1115112q0.88534546 0.09693909 1.5458374 -0.19226074q0.6621704 -0.30473328 1.1773682 -0.8456192l0.9382019 0.90436554q-1.434967 1.7605209 -3.9045715 1.4901047zm0.76272583 -8.813095q-1.0095825 -0.1105423 -1.7903442 0.5584488q-0.7635193 0.655159 -1.0654297 1.9738846l4.9081726 0.5374298l0.013641357 -0.12425232q0.06210327 -1.2821121 -0.48251343 -2.0490646q-0.52734375 -0.78079224 -1.5835266 -0.8964462z" fill-rule="nonzero"/><path fill="#000000" fill-opacity="0.0" d="m431.43307 210.0958l113.41733 0l0 30.614182l-113.41733 0z" fill-rule="evenodd"/><path fill="#002b36" d="m473.3054 237.0158l-1.6875 0l0 -14.0l1.6875 0l0 14.0zm4.5274353 0l-1.6875 0l0 -9.859375l1.6875 0l0 9.859375zm-1.828125 -12.46875q0 -0.40625 0.25 -0.6875q0.25 -0.296875 0.734375 -0.296875q0.5 0 0.75 0.296875q0.265625 0.28125 0.265625 0.6875q0 0.40625 -0.265625 0.6875q-0.25 0.265625 -0.75 0.265625q-0.484375 0 -0.734375 -0.265625q-0.25 -0.28125 -0.25 -0.6875zm4.121155 7.453125q0 -2.296875 1.0625 -3.65625q1.0625 -1.359375 2.828125 -1.359375q1.796875 0 2.8125 1.265625l0.078125 -1.09375l1.546875 0l0 9.625q0 1.90625 -1.140625 3.0q-1.125 1.109375 -3.046875 1.109375q-1.0625 0 -2.09375 -0.453125q-1.015625 -0.453125 -1.546875 -1.25l0.875 -1.0q1.078125 1.328125 2.65625 1.328125q1.21875 0 1.90625 -0.6875q0.6875 -0.6875 0.6875 -1.953125l0 -0.84375q-1.0 1.171875 -2.75 1.171875q-1.734375 0 -2.8125 -1.390625q-1.0625 -1.40625 -1.0625 -3.8125zm1.6875 0.203125q0 1.65625 0.6875 2.609375q0.6875 0.953125 1.921875 0.953125q1.59375 0 2.328125 -1.453125l0 -4.5q-0.765625 -1.40625 -2.3125 -1.40625q-1.234375 0 -1.9375 0.953125q-0.6875 0.953125 -0.6875 2.84375zm10.857452 -3.84375q1.125 -1.375 2.921875 -1.375q3.125 0 3.15625 3.515625l0 6.515625l-1.6875 0l0 -6.515625q-0.015625 -1.078125 -0.5 -1.578125q-0.46875 -0.515625 -1.484375 -0.515625q-0.8125 0 -1.4375 0.4375q-0.609375 0.4375 -0.96875 1.15625l0 7.015625l-1.671875 0l0 -14.0l1.671875 0l0 5.34375zm10.884888 -3.59375l0 2.390625l1.84375 0l0 1.3125l-1.84375 0l0 6.109375q0 0.59375 0.234375 0.890625q0.25 0.296875 0.84375 0.296875q0.296875 0 0.8125 -0.109375l0 1.359375q-0.671875 0.1875 -1.296875 0.1875q-1.125 0 -1.703125 -0.6875q-0.578125 -0.6875 -0.578125 -1.9375l0 -6.109375l-1.796875 0l0 -1.3125l1.796875 0l0 -2.390625l1.6875 0z" fill-rule="nonzero"/><path fill="#000000" fill-opacity="0.0" d="m47.29659 107.27559l113.41733 0l0 30.614182l-113.41733 0z" fill-rule="evenodd"/><path fill="#002b36" d="m78.11713 133.00809q0.890625 0 1.5625 -0.546875q0.6875 -0.546875 0.75 -1.375l1.59375 0q-0.046875 0.84375 -0.578125 1.609375q-0.53125 0.765625 -1.4375 1.234375q-0.890625 0.453125 -1.890625 0.453125q-2.015625 0 -3.203125 -1.34375q-1.1875 -1.34375 -1.1875 -3.6875l0 -0.28125q0 -1.4375 0.515625 -2.546875q0.53125 -1.125 1.515625 -1.734375q1.0 -0.625 2.34375 -0.625q1.65625 0 2.75 1.0q1.109375 0.984375 1.171875 2.5625l-1.59375 0q-0.0625 -0.953125 -0.71875 -1.5625q-0.65625 -0.625 -1.609375 -0.625q-1.28125 0 -2.0 0.921875q-0.703125 0.921875 -0.703125 2.671875l0 0.328125q0 1.703125 0.703125 2.625q0.703125 0.921875 2.015625 0.921875zm11.890381 1.1875q-0.140625 -0.296875 -0.234375 -1.03125q-1.171875 1.21875 -2.8125 1.21875q-1.453125 0 -2.390625 -0.828125q-0.921875 -0.828125 -0.921875 -2.09375q0 -1.53125 1.15625 -2.375q1.171875 -0.859375 3.296875 -0.859375l1.640625 0l0 -0.78125q0 -0.890625 -0.53125 -1.40625q-0.515625 -0.53125 -1.546875 -0.53125q-0.90625 0 -1.515625 0.46875q-0.609375 0.453125 -0.609375 1.09375l-1.703125 0q0 -0.734375 0.515625 -1.421875q0.53125 -0.6875 1.421875 -1.078125q0.90625 -0.40625 1.984375 -0.40625q1.703125 0 2.671875 0.859375q0.96875 0.84375 1.0 2.328125l0 4.53125q0 1.359375 0.34375 2.171875l0 0.140625l-1.765625 0zm-2.796875 -1.28125q0.796875 0 1.5 -0.40625q0.71875 -0.421875 1.03125 -1.078125l0 -2.015625l-1.3125 0q-3.109375 0 -3.109375 1.8125q0 0.796875 0.53125 1.25q0.53125 0.4375 1.359375 0.4375zm8.444855 -8.578125l0.046875 1.09375q1.078125 -1.265625 2.921875 -1.265625q2.0625 0 2.8125 1.578125q0.5 -0.71875 1.28125 -1.140625q0.796875 -0.4375 1.859375 -0.4375q3.25 0 3.296875 3.421875l0 6.609375l-1.671875 0l0 -6.5q0 -1.0625 -0.484375 -1.578125q-0.484375 -0.53125 -1.625 -0.53125q-0.9375 0 -1.5625 0.5625q-0.609375 0.5625 -0.71875 1.5l0 6.546875l-1.6875 0l0 -6.453125q0 -2.15625 -2.109375 -2.15625q-1.65625 0 -2.265625 1.40625l0 7.203125l-1.6875 0l0 -9.859375l1.59375 0zm18.851547 10.046875q-2.0 0 -3.265625 -1.3125q-1.25 -1.328125 -1.25 -3.53125l0 -0.3125q0 -1.46875 0.5625 -2.609375q0.5625 -1.15625 1.5625 -1.796875q1.015625 -0.65625 2.1875 -0.65625q1.921875 0 2.984375 1.265625q1.0625 1.265625 1.0625 3.625l0 0.6875l-6.671875 0q0.03125 1.46875 0.84375 2.375q0.828125 0.890625 2.078125 0.890625q0.890625 0 1.515625 -0.359375q0.625 -0.375 1.078125 -0.96875l1.03125 0.796875q-1.234375 1.90625 -3.71875 1.90625zm-0.203125 -8.84375q-1.015625 0 -1.71875 0.75q-0.6875 0.734375 -0.84375 2.078125l4.9375 0l0 -0.125q-0.078125 -1.28125 -0.703125 -1.984375q-0.609375 -0.71875 -1.671875 -0.71875zm10.774429 0.3125q-0.390625 -0.0625 -0.84375 -0.0625q-1.65625 0 -2.25 1.40625l0 7.0l-1.671875 0l0 -9.859375l1.640625 0l0.015625 1.140625q0.828125 -1.3125 2.359375 -1.3125q0.484375 0 0.75 0.125l0 1.5625zm7.260803 8.34375q-0.140625 -0.296875 -0.234375 -1.03125q-1.171875 1.21875 -2.8125 1.21875q-1.453125 0 -2.390625 -0.828125q-0.921875 -0.828125 -0.921875 -2.09375q0 -1.53125 1.15625 -2.375q1.171875 -0.859375 3.296875 -0.859375l1.640625 0l0 -0.78125q0 -0.890625 -0.53125 -1.40625q-0.515625 -0.53125 -1.546875 -0.53125q-0.90625 0 -1.515625 0.46875q-0.609375 0.453125 -0.609375 1.09375l-1.703125 0q0 -0.734375 0.515625 -1.421875q0.53125 -0.6875 1.421875 -1.078125q0.90625 -0.40625 1.984375 -0.40625q1.703125 0 2.671875 0.859375q0.96875 0.84375 1.0 2.328125l0 4.53125q0 1.359375 0.34375 2.171875l0 0.140625l-1.765625 0zm-2.796875 -1.28125q0.796875 0 1.5 -0.40625q0.71875 -0.421875 1.03125 -1.078125l0 -2.015625l-1.3125 0q-3.109375 0 -3.109375 1.8125q0 0.796875 0.53125 1.25q0.53125 0.4375 1.359375 0.4375z" fill-rule="nonzero"/><path fill="#000000" fill-opacity="0.0" d="m640.79004 204.93176l113.4173 0l0 30.614166l-113.4173 0z" fill-rule="evenodd"/><path fill="#002b36" d="m672.67444 226.83614q0 -1.453125 0.5625 -2.609375q0.578125 -1.15625 1.59375 -1.78125q1.015625 -0.625 2.3125 -0.625q2.015625 0 3.25 1.390625q1.25 1.390625 1.25 3.703125l0 0.125q0 1.4375 -0.546875 2.578125q-0.546875 1.140625 -1.578125 1.78125q-1.015625 0.640625 -2.359375 0.640625q-2.0 0 -3.25 -1.390625q-1.234375 -1.40625 -1.234375 -3.703125l0 -0.109375zm1.6875 0.203125q0 1.640625 0.765625 2.640625q0.765625 0.984375 2.03125 0.984375q1.296875 0 2.046875 -1.0q0.75 -1.015625 0.75 -2.828125q0 -1.625 -0.765625 -2.625q-0.765625 -1.015625 -2.046875 -1.015625q-1.25 0 -2.015625 1.0q-0.765625 0.984375 -0.765625 2.84375zm17.749268 0q0 2.25 -1.046875 3.625q-1.03125 1.375 -2.78125 1.375q-1.875 0 -2.890625 -1.328125l-0.078125 1.140625l-1.546875 0l0 -14.0l1.671875 0l0 5.234375q1.03125 -1.265625 2.8125 -1.265625q1.796875 0 2.828125 1.359375q1.03125 1.34375 1.03125 3.703125l0 0.15625zm-1.6875 -0.203125q0 -1.71875 -0.671875 -2.65625q-0.65625 -0.9375 -1.90625 -0.9375q-1.671875 0 -2.40625 1.546875l0 4.265625q0.78125 1.546875 2.421875 1.546875q1.21875 0 1.890625 -0.9375q0.671875 -0.9375 0.671875 -2.828125zm5.544983 -4.84375l0 11.0q0 2.84375 -2.578125 2.84375q-0.5625 0 -1.03125 -0.171875l0 -1.34375q0.296875 0.078125 0.765625 0.078125q0.5625 0 0.859375 -0.3125q0.296875 -0.296875 0.296875 -1.0625l0 -11.03125l1.6875 0zm-1.859375 -2.609375q0 -0.40625 0.25 -0.6875q0.25 -0.296875 0.734375 -0.296875q0.484375 0 0.734375 0.296875q0.265625 0.28125 0.265625 0.6875q0 0.40625 -0.265625 0.6875q-0.25 0.265625 -0.734375 0.265625q-0.484375 0 -0.734375 -0.265625q-0.25 -0.28125 -0.25 -0.6875zm8.657654 12.65625q-2.0 0 -3.265625 -1.3125q-1.25 -1.328125 -1.25 -3.53125l0 -0.3125q0 -1.46875 0.5625 -2.609375q0.5625 -1.15625 1.5625 -1.796875q1.015625 -0.65625 2.1875 -0.65625q1.921875 0 2.984375 1.265625q1.0625 1.265625 1.0625 3.625l0 0.6875l-6.671875 0q0.03125 1.46875 0.84375 2.375q0.828125 0.890625 2.078125 0.890625q0.890625 0 1.515625 -0.359375q0.625 -0.375 1.078125 -0.96875l1.03125 0.796875q-1.234375 1.90625 -3.71875 1.90625zm-0.203125 -8.84375q-1.015625 0 -1.71875 0.75q-0.6875 0.734375 -0.84375 2.078125l4.9375 0l0 -0.125q-0.078125 -1.28125 -0.703125 -1.984375q-0.609375 -0.71875 -1.671875 -0.71875zm9.961914 7.46875q0.890625 0 1.5625 -0.546875q0.6875 -0.546875 0.75 -1.375l1.59375 0q-0.046875 0.84375 -0.578125 1.609375q-0.53125 0.765625 -1.4375 1.234375q-0.890625 0.453125 -1.890625 0.453125q-2.015625 0 -3.203125 -1.34375q-1.1875 -1.34375 -1.1875 -3.6875l0 -0.28125q0 -1.4375 0.515625 -2.546875q0.53125 -1.125 1.515625 -1.734375q1.0 -0.625 2.34375 -0.625q1.65625 0 2.75 1.0q1.109375 0.984375 1.171875 2.5625l-1.59375 0q-0.0625 -0.953125 -0.71875 -1.5625q-0.65625 -0.625 -1.609375 -0.625q-1.28125 0 -2.0 0.921875q-0.703125 0.921875 -0.703125 2.671875l0 0.328125q0 1.703125 0.703125 2.625q0.703125 0.921875 2.015625 0.921875zm8.093506 -11.0625l0 2.390625l1.84375 0l0 1.3125l-1.84375 0l0 6.109375q0 0.59375 0.234375 0.890625q0.25 0.296875 0.84375 0.296875q0.296875 0 0.8125 -0.109375l0 1.359375q-0.671875 0.1875 -1.296875 0.1875q-1.125 0 -1.703125 -0.6875q-0.578125 -0.6875 -0.578125 -1.9375l0 -6.109375l-1.796875 0l0 -1.3125l1.796875 0l0 -2.390625l1.6875 0z" fill-rule="nonzero"/><path fill="#ff9900" d="m509.81104 192.12862l-8.744476 3.109726l0 -6.219467zm-6.348297 -15.322998l-3.9832458 8.382996l-4.397766 -4.3977814zm-15.321014 -6.346298l3.1097412 8.744461l-6.2194824 0zm-15.322998 6.346298l8.382996 3.9852142l-4.397766 4.3977814zm-6.346283 15.322998l8.744446 -3.1097412l0 6.219467zm6.346283 15.320984l3.9852295 -8.380997l4.397766 4.3977814zm15.322998 6.348297l-3.1097412 -8.744461l6.2194824 0zm15.321014 -6.348297l-8.381012 -3.9832153l4.397766 -4.3977814zm-26.15564 -15.320984l0 0c0 -5.9838104 4.85083 -10.834656 10.834625 -10.834656c5.9838257 0 10.834656 4.8508453 10.834656 10.834656c0 5.983795 -4.85083 10.8346405 -10.834656 10.8346405c-5.983795 0 -10.834625 -4.8508453 -10.834625 -10.8346405z" fill-rule="evenodd"/><path stroke="#ffff00" stroke-width="1.0" stroke-linejoin="round" stroke-linecap="butt" d="m509.81104 192.12862l-8.744476 3.109726l0 -6.219467zm-6.348297 -15.322998l-3.9832458 8.382996l-4.397766 -4.3977814zm-15.321014 -6.346298l3.1097412 8.744461l-6.2194824 0zm-15.322998 6.346298l8.382996 3.9852142l-4.397766 4.3977814zm-6.346283 15.322998l8.744446 -3.1097412l0 6.219467zm6.346283 15.320984l3.9852295 -8.380997l4.397766 4.3977814zm15.322998 6.348297l-3.1097412 -8.744461l6.2194824 0zm15.321014 -6.348297l-8.381012 -3.9832153l4.397766 -4.3977814zm-26.15564 -15.320984l0 0c0 -5.9838104 4.85083 -10.834656 10.834625 -10.834656c5.9838257 0 10.834656 4.8508453 10.834656 10.834656c0 5.983795 -4.85083 10.8346405 -10.834656 10.8346405c-5.983795 0 -10.834625 -4.8508453 -10.834625 -10.8346405z" fill-rule="evenodd"/><path fill="#268bd2" d="m60.46982 71.05249l0 0c0 -3.0788727 2.495922 -5.5747986 5.5747986 -5.5747986l0 0c1.4785309 0 2.8965073 0.5873413 3.941986 1.6328201c1.0454788 1.0454788 1.6328201 2.4634552 1.6328201 3.9419785l0 0c0 3.0788803 -2.495926 5.574806 -5.574806 5.574806l0 0c-3.0788765 0 -5.5747986 -2.495926 -5.5747986 -5.574806z" fill-rule="evenodd"/><path stroke="#002b36" stroke-width="1.0" stroke-linejoin="round" stroke-linecap="butt" d="m60.46982 71.05249l0 0c0 -3.0788727 2.495922 -5.5747986 5.5747986 -5.5747986l0 0c1.4785309 0 2.8965073 0.5873413 3.941986 1.6328201c1.0454788 1.0454788 1.6328201 2.4634552 1.6328201 3.9419785l0 0c0 3.0788803 -2.495926 5.574806 -5.574806 5.574806l0 0c-3.0788765 0 -5.5747986 -2.495926 -5.5747986 -5.574806z" fill-rule="evenodd"/><path fill="#268bd2" d="m663.36743 136.71391l0 0c0 -3.078888 2.4959717 -5.5747986 5.574829 -5.5747986l0 0c1.4785156 0 2.8964844 0.5873413 3.9419556 1.6328125c1.0454712 1.0454865 1.6328735 2.4634552 1.6328735 3.941986l0 0c0 3.0788727 -2.4959717 5.5747986 -5.574829 5.5747986l0 0c-3.0788574 0 -5.574829 -2.495926 -5.574829 -5.5747986z" fill-rule="evenodd"/><path stroke="#002b36" stroke-width="1.0" stroke-linejoin="round" stroke-linecap="butt" d="m663.36743 136.71391l0 0c0 -3.078888 2.4959717 -5.5747986 5.574829 -5.5747986l0 0c1.4785156 0 2.8964844 0.5873413 3.9419556 1.6328125c1.0454712 1.0454865 1.6328735 2.4634552 1.6328735 3.941986l0 0c0 3.0788727 -2.4959717 5.5747986 -5.574829 5.5747986l0 0c-3.0788574 0 -5.574829 -2.495926 -5.574829 -5.5747986z" fill-rule="evenodd"/><path fill="#268bd2" d="m482.56693 192.12862l0 0c0 -3.078888 2.4959412 -5.574814 5.5747986 -5.574814l0 0c1.4785461 0 2.896515 0.5873413 3.941986 1.6328278c1.0454712 1.0454712 1.6328125 2.4634552 1.6328125 3.941986l0 0c0 3.0788727 -2.4959106 5.5747986 -5.5747986 5.5747986l0 0c-3.0788574 0 -5.5747986 -2.495926 -5.5747986 -5.5747986z" fill-rule="evenodd"/><path stroke="#002b36" stroke-width="1.0" stroke-linejoin="round" stroke-linecap="butt" d="m482.56693 192.12862l0 0c0 -3.078888 2.4959412 -5.574814 5.5747986 -5.574814l0 0c1.4785461 0 2.896515 0.5873413 3.941986 1.6328278c1.0454712 1.0454712 1.6328125 2.4634552 1.6328125 3.941986l0 0c0 3.0788727 -2.4959106 5.5747986 -5.5747986 5.5747986l0 0c-3.0788574 0 -5.5747986 -2.495926 -5.5747986 -5.5747986z" fill-rule="evenodd"/><path fill="#268bd2" d="m315.17322 98.36483l0 0c0 -3.0788803 2.4959412 -5.574806 5.5747986 -5.574806l0 0c1.4785461 0 2.896515 0.58734894 3.941986 1.6328278c1.0455017 1.0454788 1.632843 2.4634476 1.632843 3.9419785l0 0c0 3.0788803 -2.4959412 5.574806 -5.574829 5.574806l0 0c-3.0788574 0 -5.5747986 -2.495926 -5.5747986 -5.574806z" fill-rule="evenodd"/><path stroke="#002b36" stroke-width="1.0" stroke-linejoin="round" stroke-linecap="butt" d="m315.17322 98.36483l0 0c0 -3.0788803 2.4959412 -5.574806 5.5747986 -5.574806l0 0c1.4785461 0 2.896515 0.58734894 3.941986 1.6328278c1.0455017 1.0454788 1.632843 2.4634476 1.632843 3.9419785l0 0c0 3.0788803 -2.4959412 5.574806 -5.574829 5.574806l0 0c-3.0788574 0 -5.5747986 -2.495926 -5.5747986 -5.574806z" fill-rule="evenodd"/><path fill="#000000" fill-opacity="0.0" d="m62.10264 67.11051l-16.818897 -18.425198" fill-rule="evenodd"/><path stroke="#000000" stroke-width="1.0" stroke-linejoin="round" stroke-linecap="butt" d="m62.10264 67.11051l-16.818897 -18.425198" fill-rule="evenodd"/><path fill="#000000" fill-opacity="0.0" d="m22.175854 30.259842l22.645668 0l0 19.559055l-22.645668 0z" fill-rule="evenodd"/><path fill="#002b36" d="m36.894604 47.04812q1.140625 0.03125 2.046875 -0.65625q0.921875 -0.6875 1.203125 -1.796875l2.0 -0.015625q-0.171875 1.203125 -0.953125 2.1875q-0.78125 0.984375 -1.96875 1.53125q-1.171875 0.546875 -2.421875 0.515625q-1.578125 -0.015625 -2.671875 -0.8125q-1.09375 -0.8125 -1.609375 -2.25q-0.515625 -1.4375 -0.359375 -3.234375l0.0625 -0.578125q0.21875 -1.828125 1.0625 -3.265625q0.84375 -1.453125 2.203125 -2.25q1.359375 -0.8125 3.0 -0.765625q2.0 0.046875 3.1875 1.34375q1.203125 1.28125 1.203125 3.265625l-1.984375 -0.015625q-0.03125 -1.234375 -0.703125 -2.0q-0.65625 -0.765625 -1.796875 -0.8125q-1.65625 -0.046875 -2.75 1.21875q-1.09375 1.265625 -1.359375 3.546875l-0.03125 0.296875q-0.078125 0.75 -0.03125 1.546875q0.078125 1.375 0.765625 2.171875q0.703125 0.796875 1.90625 0.828125z" fill-rule="nonzero"/><path fill="#000000" fill-opacity="0.0" d="m317.98456 93.41499l-16.818909 -18.425194" fill-rule="evenodd"/><path stroke="#000000" stroke-width="1.0" stroke-linejoin="round" stroke-linecap="butt" d="m317.98456 93.41499l-16.818909 -18.425194" fill-rule="evenodd"/><path fill="#000000" fill-opacity="0.0" d="m278.05777 56.564323l22.64566 0l0 19.55906l-22.64566 0z" fill-rule="evenodd"/><path fill="#002b36" d="m292.87027 66.82135l3.453125 -4.625l2.59375 0l-5.078125 6.375l3.09375 6.3125l-2.3125 0l-2.09375 -4.734375l-3.578125 4.734375l-2.59375 0l5.234375 -6.515625l-3.0 -6.171875l2.328125 0l1.953125 4.625z" fill-rule="nonzero"/><path fill="#000000" fill-opacity="0.0" d="m666.3205 131.7641l-16.818848 -18.425201" fill-rule="evenodd"/><path stroke="#000000" stroke-width="1.0" stroke-linejoin="round" stroke-linecap="butt" d="m666.3205 131.7641l-16.818848 -18.425201" fill-rule="evenodd"/><path fill="#000000" fill-opacity="0.0" d="m626.39374 94.91342l22.64569 0l0 19.55906l-22.64569 0z" fill-rule="evenodd"/><path fill="#002b36" d="m647.14374 110.23295l4.03125 -9.6875l2.203125 0l-5.78125 12.6875l-1.71875 0l-1.3125 -9.59375l-4.578125 9.59375l-1.71875 0l-1.375 -12.6875l2.03125 0l0.765625 9.453125l4.5 -9.453125l1.71875 0l1.234375 9.6875z" fill-rule="nonzero"/><path fill="#000000" fill-opacity="0.0" d="m485.20502 187.74571l-16.818878 -18.425201" fill-rule="evenodd"/><path stroke="#000000" stroke-width="1.0" stroke-linejoin="round" stroke-linecap="butt" d="m485.20502 187.74571l-16.818878 -18.425201" fill-rule="evenodd"/><path fill="#000000" fill-opacity="0.0" d="m445.27826 150.89503l22.64566 0l0 19.559067l-22.64566 0z" fill-rule="evenodd"/><path fill="#002b36" d="m457.497 167.37082l7.859375 0l-0.328125 1.84375l-10.0625 0l2.96875 -17.0625l2.21875 0l-2.65625 15.21875z" fill-rule="nonzero"/></g></svg>