<svg version="1.1" viewBox="0.0 0.0 765.8110236220473 295.4488188976378" fill="none" stroke="none" stroke-linecap="square" stroke-miterlimit="10" xmlns:xlink="http://www.w3.org/1999/xlink" xmlns="http://www.w3.org/2000/svg"><clipPath id="p.0"><path d="m0 0l765.81104 0l0 295.44882l-765.81104 0l0 -295.44882z" clip-rule="nonzero"/></clipPath><g clip-path="url(#p.0)"><path fill="#000000" fill-opacity="0.0" d="m0 0l765.81104 0l0 295.44882l-765.81104 0z" fill-rule="evenodd"/><path fill="#000000" fill-opacity="0.0" d="m56.72561 136.9772l59.590553 13.13385" fill-rule="evenodd"/><path stroke="#002b36" stroke-width="3.0" stroke-linejoin="round" stroke-linecap="butt" d="m56.72561 136.9772l59.590553 13.13385" fill-rule="evenodd"/><path fill="#93a1a1" d="m651.29663 20.957758l49.259827 -5.448819l20.189026 182.74016l-49.259888 5.448822z" fill-rule="evenodd"/><path stroke="#002b36" stroke-width="2.0" stroke-linejoin="round" stroke-linecap="butt" d="m651.29663 20.957758l49.259827 -5.448819l20.189026 182.74016l-49.259888 5.448822z" fill-rule="evenodd"/><path fill="#000000" fill-opacity="0.0" d="m80.4285 108.47122l0 0c7.7100754 6.173073 12.6521225 15.156128 13.738945 24.972992c1.0868225 9.816864 -1.7705994 19.663391 -7.943672 27.373474l-29.070862 -23.275604z" fill-rule="evenodd"/><path fill="#000000" fill-opacity="0.0" d="m80.4285 108.47122l0 0c7.7100754 6.173073 12.6521225 15.156128 13.738945 24.972992c1.0868225 9.816864 -1.7705994 19.663391 -7.943672 27.373474" fill-rule="evenodd"/><path stroke="#002b36" stroke-width="3.0" stroke-linejoin="round" stroke-linecap="butt" d="m80.4285 108.47122l0 0c7.7100754 6.173073 12.6521225 15.156128 13.738945 24.972992c1.0868225 9.816864 -1.7705994 19.663391 -7.943672 27.373474" fill-rule="evenodd"/><path fill="#000000" fill-opacity="0.0" d="m57.13914 137.14357l55.307087 -25.763779" fill-rule="evenodd"/><path stroke="#002b36" stroke-width="3.0" stroke-linejoin="round" stroke-linecap="butt" d="m57.13914 137.14357l55.307087 -25.763779" fill-rule="evenodd"/><path fill="#ff9900" d="m511.66074 211.52544l-8.744476 3.109726l0 -6.219467zm-6.348297 -15.322998l-3.9832458 8.382996l-4.397766 -4.397766zm-15.321014 -6.346298l3.1097412 8.744461l-6.2194824 0zm-15.322998 6.346298l8.382996 3.9852295l-4.397766 4.397766zm-6.346283 15.322998l8.744446 -3.1097412l0 6.219467zm6.346283 15.320984l3.9852295 -8.380981l4.397766 4.397766zm15.322998 6.348297l-3.1097412 -8.744446l6.2194824 0zm15.321014 -6.348297l-8.381012 -3.9832153l4.397766 -4.397766zm-26.15564 -15.320984l0 0c0 -5.9838104 4.85083 -10.834656 10.834625 -10.834656c5.9838257 0 10.834656 4.8508453 10.834656 10.834656c0 5.9838104 -4.85083 10.8346405 -10.834656 10.8346405c-5.983795 0 -10.834625 -4.85083 -10.834625 -10.8346405z" fill-rule="evenodd"/><path stroke="#ffff00" stroke-width="1.0" stroke-linejoin="round" stroke-linecap="butt" d="m511.66074 211.52544l-8.744476 3.109726l0 -6.219467zm-6.348297 -15.322998l-3.9832458 8.382996l-4.397766 -4.397766zm-15.321014 -6.346298l3.1097412 8.744461l-6.2194824 0zm-15.322998 6.346298l8.382996 3.9852295l-4.397766 4.397766zm-6.346283 15.322998l8.744446 -3.1097412l0 6.219467zm6.346283 15.320984l3.9852295 -8.380981l4.397766 4.397766zm15.322998 6.348297l-3.1097412 -8.744446l6.2194824 0zm15.321014 -6.348297l-8.381012 -3.9832153l4.397766 -4.397766zm-26.15564 -15.320984l0 0c0 -5.9838104 4.85083 -10.834656 10.834625 -10.834656c5.9838257 0 10.834656 4.8508453 10.834656 10.834656c0 5.9838104 -4.85083 10.8346405 -10.834656 10.8346405c-5.983795 0 -10.834625 -4.85083 -10.834625 -10.8346405z" fill-rule="evenodd"/><path fill="#000000" fill-opacity="0.0" d="m27.787401 136.84514l715.74805 0" fill-rule="evenodd"/><path stroke="#002b36" stroke-width="1.0" stroke-linejoin="round" stroke-linecap="butt" d="m33.787403 136.84514l703.74805 0" fill-rule="evenodd"/><path fill="#002b36" stroke="#002b36" stroke-width="1.0" stroke-linecap="butt" d="m33.787403 135.1934l-4.5380993 1.6517334l4.5380993 1.6517334z" fill-rule="evenodd"/><path fill="#002b36" stroke="#002b36" stroke-width="1.0" stroke-linecap="butt" d="m737.53546 138.49687l4.538086 -1.6517334l-4.538086 -1.6517334z" fill-rule="evenodd"/><path fill="#000000" fill-opacity="0.0" d="m489.99738 48.377953l0 237.13385" fill-rule="evenodd"/><path stroke="#002b36" stroke-width="1.0" stroke-linejoin="round" stroke-linecap="butt" d="m489.99738 54.377953l0 225.13385" fill-rule="evenodd"/><path fill="#002b36" stroke="#002b36" stroke-width="1.0" stroke-linecap="butt" d="m491.6491 54.377953l-1.6517334 -4.5380974l-1.6517334 4.5380974z" fill-rule="evenodd"/><path fill="#002b36" stroke="#002b36" stroke-width="1.0" stroke-linecap="butt" d="m488.34564 279.5118l1.6517334 4.538086l1.6517334 -4.538086z" fill-rule="evenodd"/><path fill="#268bd2" d="m305.97113 137.21785l0 0c0 -3.078888 2.4959106 -5.5747986 5.5747986 -5.5747986l0 0c1.4785461 0 2.896515 0.5873413 3.941986 1.6328125c1.0454712 1.0454865 1.6328125 2.4634552 1.6328125 3.941986l0 0c0 3.0788727 -2.4959106 5.5747986 -5.5747986 5.5747986l0 0c-3.078888 0 -5.5747986 -2.495926 -5.5747986 -5.5747986z" fill-rule="evenodd"/><path stroke="#002b36" stroke-width="1.0" stroke-linejoin="round" stroke-linecap="butt" d="m305.97113 137.21785l0 0c0 -3.078888 2.4959106 -5.5747986 5.5747986 -5.5747986l0 0c1.4785461 0 2.896515 0.5873413 3.941986 1.6328125c1.0454712 1.0454865 1.6328125 2.4634552 1.6328125 3.941986l0 0c0 3.0788727 -2.4959106 5.5747986 -5.5747986 5.5747986l0 0c-3.078888 0 -5.5747986 -2.495926 -5.5747986 -5.5747986z" fill-rule="evenodd"/><path fill="#000000" fill-opacity="0.0" d="m308.78244 132.268l-16.818878 -18.425194" fill-rule="evenodd"/><path stroke="#000000" stroke-width="1.0" stroke-linejoin="round" stroke-linecap="butt" d="m308.78244 132.268l-16.818878 -18.425194" fill-rule="evenodd"/><path fill="#000000" fill-opacity="0.0" d="m268.85565 95.41734l22.64569 0l0 19.559052l-22.64569 0z" fill-rule="evenodd"/><path fill="#002b36" d="m283.66815 105.67437l3.453125 -4.625l2.59375 0l-5.078125 6.375l3.09375 6.3125l-2.3125 0l-2.09375 -4.734375l-3.578125 4.734375l-2.59375 0l5.234375 -6.515625l-3.0 -6.171875l2.328125 0l1.953125 4.625z" fill-rule="nonzero"/><path fill="#000000" fill-opacity="0.0" d="m444.32285 136.32808l0 75.2126" fill-rule="evenodd"/><path stroke="#002b36" stroke-width="3.0" stroke-linejoin="round" stroke-linecap="butt" d="m444.32285 136.32808l0 75.2126" fill-rule="evenodd"/><path fill="#000000" fill-opacity="0.0" d="m456.55905 211.52493l-24.472443 0" fill-rule="evenodd"/><path stroke="#002b36" stroke-width="3.0" stroke-linejoin="round" stroke-linecap="butt" d="m456.55905 211.52493l-24.472443 0" fill-rule="evenodd"/><path fill="#000000" fill-opacity="0.0" d="m456.55905 136.84514l-24.472443 0" fill-rule="evenodd"/><path stroke="#002b36" stroke-width="3.0" stroke-linejoin="round" stroke-linecap="butt" d="m456.55905 136.84514l-24.472443 0" fill-rule="evenodd"/><path fill="#000000" fill-opacity="0.0" d="m409.44098 164.15488l22.64566 0l0 19.559052l-22.64566 0z" fill-rule="evenodd"/><path fill="#002b36" d="m422.7691 171.33377q1.65625 -1.8125 3.828125 -1.765625q1.78125 0.03125 2.640625 1.234375q0.859375 1.1875 0.640625 3.359375l-1.375 8.3125l-2.125 0l1.390625 -8.34375q0.078125 -0.578125 0.015625 -1.0625q-0.203125 -1.640625 -1.9375 -1.6875q-1.9375 -0.046875 -3.34375 2.046875l-1.578125 9.046875l-2.125 0l3.140625 -18.0l2.109375 0l-1.28125 6.859375z" fill-rule="nonzero"/><path fill="#000000" fill-opacity="0.0" d="m57.152184 137.14699l0 95.02362" fill-rule="evenodd"/><path stroke="#002b36" stroke-width="1.0" stroke-linejoin="round" stroke-linecap="butt" stroke-dasharray="4.0,3.0" d="m57.152184 137.14699l0 95.02362" fill-rule="evenodd"/><path fill="#000000" fill-opacity="0.0" d="m18.61675 232.17061l77.07086 0l0 19.559052l-77.07086 0z" fill-rule="evenodd"/><path fill="#002b36" d="m44.296715 242.42763l3.453125 -4.625l2.59375 0l-5.078125 6.375l3.09375 6.3125l-2.3125 0l-2.09375 -4.734375l-3.578125 4.734375l-2.59375 0l5.234375 -6.515625l-3.0 -6.171875l2.328125 0l1.953125 4.625zm17.503906 -1.484375l-9.5 0l0.328125 -1.875l9.5 0l-0.328125 1.875zm-0.84375 4.875l-9.5 0l0.328125 -1.875l9.5 0l-0.328125 1.875zm10.203125 4.671875q-0.078125 -0.34375 -0.078125 -0.671875l0.03125 -0.671875q-1.75 1.625 -3.703125 1.578125q-1.671875 -0.015625 -2.734375 -1.046875q-1.046875 -1.046875 -0.953125 -2.609375q0.125 -2.015625 1.765625 -3.140625q1.65625 -1.140625 4.328125 -1.140625l2.21875 0.015625l0.140625 -1.015625q0.125 -1.125 -0.4375 -1.78125q-0.5625 -0.671875 -1.671875 -0.703125q-1.09375 -0.015625 -1.9375 0.546875q-0.828125 0.546875 -1.015625 1.46875l-2.125 0q0.09375 -1.109375 0.859375 -1.96875q0.765625 -0.859375 1.953125 -1.328125q1.203125 -0.484375 2.484375 -0.453125q1.96875 0.046875 3.0625 1.203125q1.109375 1.140625 0.9375 3.0625l-1.03125 6.28125l-0.0625 0.890625q-0.015625 0.65625 0.140625 1.28125l-0.015625 0.203125l-2.15625 0zm-3.328125 -1.640625q1.015625 0.015625 1.921875 -0.484375q0.90625 -0.515625 1.5625 -1.421875l0.46875 -2.609375l-1.609375 -0.015625q-2.0 0 -3.078125 0.640625q-1.0625 0.625 -1.203125 1.796875q-0.109375 0.890625 0.40625 1.484375q0.53125 0.578125 1.53125 0.609375z" fill-rule="nonzero"/><path fill="#000000" fill-opacity="0.0" d="m663.1163 137.14821l0 95.023636" fill-rule="evenodd"/><path stroke="#002b36" stroke-width="1.0" stroke-linejoin="round" stroke-linecap="butt" stroke-dasharray="4.0,3.0" d="m663.1163 137.14821l0 95.023636" fill-rule="evenodd"/><path fill="#000000" fill-opacity="0.0" d="m624.5809 232.17184l77.07086 0l0 19.559052l-77.07086 0z" fill-rule="evenodd"/><path fill="#002b36" d="m650.0616 242.42886l3.453125 -4.625l2.59375 0l-5.078125 6.375l3.09375 6.3125l-2.3125 0l-2.09375 -4.734375l-3.578125 4.734375l-2.59375 0l5.234375 -6.515625l-3.0 -6.171875l2.328125 0l1.953125 4.625zm17.503906 -1.484375l-9.5 0l0.328125 -1.875l9.5 0l-0.328125 1.875zm-0.84375 4.875l-9.5 0l0.328125 -1.875l9.5 0l-0.328125 1.875zm13.953125 -1.609375q-0.234375 1.9375 -1.078125 3.5q-0.828125 1.5625 -2.015625 2.3125q-1.171875 0.75 -2.609375 0.71875q-2.296875 -0.046875 -3.421875 -1.734375l-0.421875 1.484375l-1.96875 0l3.140625 -18.0l2.109375 0l-1.265625 6.71875q1.515625 -1.6875 3.703125 -1.640625q1.828125 0.046875 2.84375 1.359375q1.015625 1.296875 1.078125 3.578125q0.015625 0.75 -0.078125 1.453125l-0.015625 0.25zm-2.015625 -1.234375q0.03125 -1.703125 -0.578125 -2.609375q-0.609375 -0.921875 -1.859375 -0.96875q-1.984375 -0.046875 -3.359375 2.0l-0.9375 5.515625q0.703125 1.9375 2.625 1.984375q1.25 0.046875 2.171875 -0.734375q0.9375 -0.796875 1.421875 -2.203125q0.484375 -1.40625 0.515625 -2.984375z" fill-rule="nonzero"/></g></svg>