<?xml version="1.0" standalone="yes"?>

<svg version="1.1" viewBox="0.0 0.0 980.3727034120735 335.6036745406824" fill="none" stroke="none" stroke-linecap="square" stroke-miterlimit="10" xmlns="http://www.w3.org/2000/svg" xmlns:xlink="http://www.w3.org/1999/xlink"><clipPath id="p.0"><path d="m0 0l980.3727 0l0 335.60367l-980.3727 0l0 -335.60367z" clip-rule="nonzero"></path></clipPath><g clip-path="url(#p.0)"><path fill="#000000" fill-opacity="0.0" d="m0 0l980.3727 0l0 335.60367l-980.3727 0z" fill-rule="evenodd"></path><path fill="#000000" fill-opacity="0.0" d="m516.95276 29.422049l87.71649 0" fill-rule="evenodd"></path><path stroke="#002b36" stroke-width="2.0" stroke-linejoin="round" stroke-linecap="butt" d="m516.95276 29.422049l87.71649 0" fill-rule="evenodd"></path><path fill="#000000" fill-opacity="0.0" d="m516.95276 29.422049l87.71649 72.34646" fill-rule="evenodd"></path><path stroke="#002b36" stroke-width="2.0" stroke-linejoin="round" stroke-linecap="butt" d="m516.95276 29.422049l87.71649 72.34646" fill-rule="evenodd"></path><path fill="#000000" fill-opacity="0.0" d="m516.95276 29.422049l87.71649 140.47244" fill-rule="evenodd"></path><path stroke="#002b36" stroke-width="2.0" stroke-linejoin="round" stroke-linecap="butt" d="m516.95276 29.422049l87.71649 140.47244" fill-rule="evenodd"></path><path fill="#000000" fill-opacity="0.0" d="m516.95276 29.422049l87.71649 208.62993" fill-rule="evenodd"></path><path stroke="#002b36" stroke-width="2.0" stroke-linejoin="round" stroke-linecap="butt" d="m516.95276 29.422049l87.71649 208.62993" fill-rule="evenodd"></path><path fill="#000000" fill-opacity="0.0" d="m516.95276 29.422049l87.747986 276.7559" fill-rule="evenodd"></path><path stroke="#002b36" stroke-width="2.0" stroke-linejoin="round" stroke-linecap="butt" d="m516.95276 29.422049l87.747986 276.7559" fill-rule="evenodd"></path><path fill="#000000" fill-opacity="0.0" d="m516.95667 101.758l87.71655 -72.34645" fill-rule="evenodd"></path><path stroke="#002b36" stroke-width="2.0" stroke-linejoin="round" stroke-linecap="butt" d="m516.95667 101.758l87.71655 -72.34645" fill-rule="evenodd"></path><path fill="#000000" fill-opacity="0.0" d="m516.95667 101.758l87.71655 0" fill-rule="evenodd"></path><path stroke="#002b36" stroke-width="2.0" stroke-linejoin="round" stroke-linecap="butt" d="m516.95667 101.758l87.71655 0" fill-rule="evenodd"></path><path fill="#000000" fill-opacity="0.0" d="m516.95667 101.758l87.71655 68.125984" fill-rule="evenodd"></path><path stroke="#002b36" stroke-width="2.0" stroke-linejoin="round" stroke-linecap="butt" d="m516.95667 101.758l87.71655 68.125984" fill-rule="evenodd"></path><path fill="#000000" fill-opacity="0.0" d="m516.9593 169.89973l87.71655 68.157486" fill-rule="evenodd"></path><path stroke="#002b36" stroke-width="2.0" stroke-linejoin="round" stroke-linecap="butt" d="m516.9593 169.89973l87.71655 68.157486" fill-rule="evenodd"></path><path fill="#000000" fill-opacity="0.0" d="m516.9593 169.89973l87.71655 0" fill-rule="evenodd"></path><path stroke="#002b36" stroke-width="2.0" stroke-linejoin="round" stroke-linecap="butt" d="m516.9593 169.89973l87.71655 0" fill-rule="evenodd"></path><path fill="#000000" fill-opacity="0.0" d="m516.9593 169.89973l87.71655 -68.15748" fill-rule="evenodd"></path><path stroke="#002b36" stroke-width="2.0" stroke-linejoin="round" stroke-linecap="butt" d="m516.9593 169.89973l87.71655 -68.15748" fill-rule="evenodd"></path><path fill="#000000" fill-opacity="0.0" d="m516.9593 169.89973l87.71655 -140.47244" fill-rule="evenodd"></path><path stroke="#002b36" stroke-width="2.0" stroke-linejoin="round" stroke-linecap="butt" d="m516.9593 169.89973l87.71655 -140.47244" fill-rule="evenodd"></path><path fill="#000000" fill-opacity="0.0" d="m516.9593 169.89973l87.71655 136.28346" fill-rule="evenodd"></path><path stroke="#002b36" stroke-width="2.0" stroke-linejoin="round" stroke-linecap="butt" d="m516.9593 169.89973l87.71655 136.28346" fill-rule="evenodd"></path><path fill="#000000" fill-opacity="0.0" d="m516.95667 101.758l87.71655 136.28348" fill-rule="evenodd"></path><path stroke="#002b36" stroke-width="2.0" stroke-linejoin="round" stroke-linecap="butt" d="m516.95667 101.758l87.71655 136.28348" fill-rule="evenodd"></path><path fill="#000000" fill-opacity="0.0" d="m516.95667 101.758l87.71655 204.40945" fill-rule="evenodd"></path><path stroke="#002b36" stroke-width="2.0" stroke-linejoin="round" stroke-linecap="butt" d="m516.95667 101.758l87.71655 204.40945" fill-rule="evenodd"></path><path fill="#000000" fill-opacity="0.0" d="m516.9593 238.04147l87.71655 -208.62993" fill-rule="evenodd"></path><path stroke="#002b36" stroke-width="2.0" stroke-linejoin="round" stroke-linecap="butt" d="m516.9593 238.04147l87.71655 -208.62993" fill-rule="evenodd"></path><path fill="#000000" fill-opacity="0.0" d="m516.9593 238.04147l87.71655 -136.28348" fill-rule="evenodd"></path><path stroke="#002b36" stroke-width="2.0" stroke-linejoin="round" stroke-linecap="butt" d="m516.9593 238.04147l87.71655 -136.28348" fill-rule="evenodd"></path><path fill="#000000" fill-opacity="0.0" d="m516.9593 238.04147l87.71655 -68.157486" fill-rule="evenodd"></path><path stroke="#002b36" stroke-width="2.0" stroke-linejoin="round" stroke-linecap="butt" d="m516.9593 238.04147l87.71655 -68.157486" fill-rule="evenodd"></path><path fill="#000000" fill-opacity="0.0" d="m516.9593 238.04147l87.71655 0" fill-rule="evenodd"></path><path stroke="#002b36" stroke-width="2.0" stroke-linejoin="round" stroke-linecap="butt" d="m516.9593 238.04147l87.71655 0" fill-rule="evenodd"></path><path fill="#000000" fill-opacity="0.0" d="m516.9593 238.04147l87.71655 68.12598" fill-rule="evenodd"></path><path stroke="#002b36" stroke-width="2.0" stroke-linejoin="round" stroke-linecap="butt" d="m516.9593 238.04147l87.71655 68.12598" fill-rule="evenodd"></path><path fill="#000000" fill-opacity="0.0" d="m516.9593 306.1832l87.71655 -276.7559" fill-rule="evenodd"></path><path stroke="#002b36" stroke-width="2.0" stroke-linejoin="round" stroke-linecap="butt" d="m516.9593 306.1832l87.71655 -276.7559" fill-rule="evenodd"></path><path fill="#000000" fill-opacity="0.0" d="m516.9593 306.1832l87.71655 -204.44095" fill-rule="evenodd"></path><path stroke="#002b36" stroke-width="2.0" stroke-linejoin="round" stroke-linecap="butt" d="m516.9593 306.1832l87.71655 -204.44095" fill-rule="evenodd"></path><path fill="#000000" fill-opacity="0.0" d="m516.9593 306.1832l87.71655 -136.28346" fill-rule="evenodd"></path><path stroke="#002b36" stroke-width="2.0" stroke-linejoin="round" stroke-linecap="butt" d="m516.9593 306.1832l87.71655 -136.28346" fill-rule="evenodd"></path><path fill="#000000" fill-opacity="0.0" d="m516.9593 306.1832l87.71655 -68.12598" fill-rule="evenodd"></path><path stroke="#002b36" stroke-width="2.0" stroke-linejoin="round" stroke-linecap="butt" d="m516.9593 306.1832l87.71655 -68.12598" fill-rule="evenodd"></path><path fill="#000000" fill-opacity="0.0" d="m516.9593 306.1832l87.71655 0" fill-rule="evenodd"></path><path stroke="#002b36" stroke-width="2.0" stroke-linejoin="round" stroke-linecap="butt" d="m516.9593 306.1832l87.71655 0" fill-rule="evenodd"></path><path fill="#000000" fill-opacity="0.0" d="m649.122 29.42336l47.4646 40.0" fill-rule="evenodd"></path><path stroke="#002b36" stroke-width="2.0" stroke-linejoin="round" stroke-linecap="butt" d="m649.122 29.42336l47.4646 40.0" fill-rule="evenodd"></path><path fill="#000000" fill-opacity="0.0" d="m649.122 29.42336l47.4646 236.7559" fill-rule="evenodd"></path><path stroke="#002b36" stroke-width="2.0" stroke-linejoin="round" stroke-linecap="butt" d="m649.122 29.42336l47.4646 236.7559" fill-rule="evenodd"></path><path fill="#000000" fill-opacity="0.0" d="m649.1207 101.75669l47.46454 -32.34645" fill-rule="evenodd"></path><path stroke="#002b36" stroke-width="2.0" stroke-linejoin="round" stroke-linecap="butt" d="m649.1207 101.75669l47.46454 -32.34645" fill-rule="evenodd"></path><path fill="#000000" fill-opacity="0.0" d="m649.1207 101.75669l47.46454 164.44095" fill-rule="evenodd"></path><path stroke="#002b36" stroke-width="2.0" stroke-linejoin="round" stroke-linecap="butt" d="m649.1207 101.75669l47.46454 164.44095" fill-rule="evenodd"></path><path fill="#000000" fill-opacity="0.0" d="m649.1207 169.89842l47.46454 96.28346" fill-rule="evenodd"></path><path stroke="#002b36" stroke-width="2.0" stroke-linejoin="round" stroke-linecap="butt" d="m649.1207 169.89842l47.46454 96.28346" fill-rule="evenodd"></path><path fill="#000000" fill-opacity="0.0" d="m649.1207 169.89842l47.46454 -100.472435" fill-rule="evenodd"></path><path stroke="#002b36" stroke-width="2.0" stroke-linejoin="round" stroke-linecap="butt" d="m649.1207 169.89842l47.46454 -100.472435" fill-rule="evenodd"></path><path fill="#000000" fill-opacity="0.0" d="m649.122 238.04147l47.4646 28.15747" fill-rule="evenodd"></path><path stroke="#002b36" stroke-width="2.0" stroke-linejoin="round" stroke-linecap="butt" d="m649.122 238.04147l47.4646 28.15747" fill-rule="evenodd"></path><path fill="#000000" fill-opacity="0.0" d="m649.12726 306.1819l47.4646 -40.0" fill-rule="evenodd"></path><path stroke="#002b36" stroke-width="2.0" stroke-linejoin="round" stroke-linecap="butt" d="m649.12726 306.1819l47.4646 -40.0" fill-rule="evenodd"></path><path fill="#000000" fill-opacity="0.0" d="m472.5118 29.422049l-139.3386 0" fill-rule="evenodd"></path><path stroke="#002b36" stroke-width="2.0" stroke-linejoin="round" stroke-linecap="butt" d="m472.5118 29.422049l-139.3386 0" fill-rule="evenodd"></path><path fill="#000000" fill-opacity="0.0" d="m472.51575 101.758l-139.3386 0" fill-rule="evenodd"></path><path stroke="#002b36" stroke-width="2.0" stroke-linejoin="round" stroke-linecap="butt" d="m472.51575 101.758l-139.3386 0" fill-rule="evenodd"></path><path fill="#000000" fill-opacity="0.0" d="m472.51837 169.89973l-139.3386 0" fill-rule="evenodd"></path><path stroke="#002b36" stroke-width="2.0" stroke-linejoin="round" stroke-linecap="butt" d="m472.51837 169.89973l-139.3386 0" fill-rule="evenodd"></path><path fill="#000000" fill-opacity="0.0" d="m333.16797 101.75853l139.3386 -72.34646" fill-rule="evenodd"></path><path stroke="#002b36" stroke-width="2.0" stroke-linejoin="round" stroke-linecap="butt" d="m333.16797 101.75853l139.3386 -72.34646" fill-rule="evenodd"></path><path fill="#000000" fill-opacity="0.0" d="m333.17453 29.419947l139.3386 72.34646" fill-rule="evenodd"></path><path stroke="#002b36" stroke-width="2.0" stroke-linejoin="round" stroke-linecap="butt" d="m333.17453 29.419947l139.3386 72.34646" fill-rule="evenodd"></path><path fill="#000000" fill-opacity="0.0" d="m333.17453 29.419947l139.3386 140.47244" fill-rule="evenodd"></path><path stroke="#002b36" stroke-width="2.0" stroke-linejoin="round" stroke-linecap="butt" d="m333.17453 29.419947l139.3386 140.47244" fill-rule="evenodd"></path><path fill="#000000" fill-opacity="0.0" d="m333.16797 101.75853l139.3386 68.12599" fill-rule="evenodd"></path><path stroke="#002b36" stroke-width="2.0" stroke-linejoin="round" stroke-linecap="butt" d="m333.16797 101.75853l139.3386 68.12599" fill-rule="evenodd"></path><path fill="#000000" fill-opacity="0.0" d="m333.1706 169.90027l139.3386 -68.157486" fill-rule="evenodd"></path><path stroke="#002b36" stroke-width="2.0" stroke-linejoin="round" stroke-linecap="butt" d="m333.1706 169.90027l139.3386 -68.157486" fill-rule="evenodd"></path><path fill="#000000" fill-opacity="0.0" d="m333.1706 169.90027l139.3386 -140.47244" fill-rule="evenodd"></path><path stroke="#002b36" stroke-width="2.0" stroke-linejoin="round" stroke-linecap="butt" d="m333.1706 169.90027l139.3386 -140.47244" fill-rule="evenodd"></path><path fill="#000000" fill-opacity="0.0" d="m242.0853 169.89896l46.64566 -140.47244" fill-rule="evenodd"></path><path stroke="#002b36" stroke-width="2.0" stroke-linejoin="round" stroke-linecap="butt" d="m242.0853 169.89896l42.863983 -129.08391" fill-rule="evenodd"></path><path fill="#002b36" stroke="#002b36" stroke-width="2.0" stroke-linecap="butt" d="m288.0844 41.856102l-0.2748413 -9.654774l-5.995453 7.572651z" fill-rule="evenodd"></path><path fill="#000000" fill-opacity="0.0" d="m242.0853 169.89896l46.64566 -68.12599" fill-rule="evenodd"></path><path stroke="#002b36" stroke-width="2.0" stroke-linejoin="round" stroke-linecap="butt" d="m242.0853 169.89896l39.86618 -58.22455" fill-rule="evenodd"></path><path fill="#002b36" stroke="#002b36" stroke-width="2.0" stroke-linecap="butt" d="m284.67725 113.540726l2.401886 -9.35527l-7.8533936 5.622635z" fill-rule="evenodd"></path><path fill="#000000" fill-opacity="0.0" d="m242.0853 169.89896l46.64566 0" fill-rule="evenodd"></path><path stroke="#002b36" stroke-width="2.0" stroke-linejoin="round" stroke-linecap="butt" d="m242.0853 169.89896l34.64566 0" fill-rule="evenodd"></path><path fill="#002b36" stroke="#002b36" stroke-width="2.0" stroke-linecap="butt" d="m276.73096 173.20241l9.076202 -3.3034515l-9.076202 -3.3034668z" fill-rule="evenodd"></path><path fill="#eee8d5" d="m472.5118 29.422049l0 0c0 -12.272028 9.948425 -22.220472 22.220459 -22.220472l0 0c5.8932495 0 11.545105 2.3410788 15.71225 6.5082254c4.1671143 4.1671476 6.5082397 9.819011 6.5082397 15.712247l0 0c0 12.272028 -9.948456 22.220472 -22.22049 22.220472l0 0c-12.272034 0 -22.220459 -9.948444 -22.220459 -22.220472z" fill-rule="evenodd"></path><path stroke="#002b36" stroke-width="1.0" stroke-linejoin="round" stroke-linecap="butt" d="m472.5118 29.422049l0 0c0 -12.272028 9.948425 -22.220472 22.220459 -22.220472l0 0c5.8932495 0 11.545105 2.3410788 15.71225 6.5082254c4.1671143 4.1671476 6.5082397 9.819011 6.5082397 15.712247l0 0c0 12.272028 -9.948456 22.220472 -22.22049 22.220472l0 0c-12.272034 0 -22.220459 -9.948444 -22.220459 -22.220472z" fill-rule="evenodd"></path><path fill="#eee8d5" d="m288.73358 29.419947l0 0c0 -12.272028 9.948456 -22.22047 22.22049 -22.22047l0 0c5.893219 0 11.545105 2.3410788 15.71225 6.5082254c4.167145 4.1671467 6.508209 9.819012 6.508209 15.712246l0 0c0 12.272028 -9.948425 22.220472 -22.220459 22.220472l0 0c-12.272034 0 -22.22049 -9.948444 -22.22049 -22.220472z" fill-rule="evenodd"></path><path stroke="#002b36" stroke-width="1.0" stroke-linejoin="round" stroke-linecap="butt" d="m288.73358 29.419947l0 0c0 -12.272028 9.948456 -22.22047 22.22049 -22.22047l0 0c5.893219 0 11.545105 2.3410788 15.71225 6.5082254c4.167145 4.1671467 6.508209 9.819012 6.508209 15.712246l0 0c0 12.272028 -9.948425 22.220472 -22.220459 22.220472l0 0c-12.272034 0 -22.22049 -9.948444 -22.22049 -22.220472z" fill-rule="evenodd"></path><path fill="#eee8d5" d="m472.51575 101.758l0 0c0 -12.272026 9.948425 -22.220467 22.220459 -22.220467l0 0c5.8932495 0 11.545105 2.3410797 15.71225 6.5082245c4.167145 4.167145 6.508209 9.819008 6.508209 15.712242l0 0c0 12.272034 -9.948425 22.220474 -22.220459 22.220474l0 0c-12.272034 0 -22.220459 -9.948441 -22.220459 -22.220474z" fill-rule="evenodd"></path><path stroke="#002b36" stroke-width="1.0" stroke-linejoin="round" stroke-linecap="butt" d="m472.51575 101.758l0 0c0 -12.272026 9.948425 -22.220467 22.220459 -22.220467l0 0c5.8932495 0 11.545105 2.3410797 15.71225 6.5082245c4.167145 4.167145 6.508209 9.819008 6.508209 15.712242l0 0c0 12.272034 -9.948425 22.220474 -22.220459 22.220474l0 0c-12.272034 0 -22.220459 -9.948441 -22.220459 -22.220474z" fill-rule="evenodd"></path><path fill="#eee8d5" d="m288.72702 101.75853l0 0c0 -12.272026 9.948456 -22.220474 22.22049 -22.220474l0 0c5.893219 0 11.545105 2.3410797 15.71225 6.5082245c4.167145 4.1671524 6.508209 9.8190155 6.508209 15.71225l0 0c0 12.272026 -9.948425 22.220474 -22.220459 22.220474l0 0c-12.272034 0 -22.22049 -9.948448 -22.22049 -22.220474z" fill-rule="evenodd"></path><path stroke="#002b36" stroke-width="1.0" stroke-linejoin="round" stroke-linecap="butt" d="m288.72702 101.75853l0 0c0 -12.272026 9.948456 -22.220474 22.22049 -22.220474l0 0c5.893219 0 11.545105 2.3410797 15.71225 6.5082245c4.167145 4.1671524 6.508209 9.8190155 6.508209 15.71225l0 0c0 12.272026 -9.948425 22.220474 -22.220459 22.220474l0 0c-12.272034 0 -22.22049 -9.948448 -22.22049 -22.220474z" fill-rule="evenodd"></path><path fill="#eee8d5" d="m472.51837 169.89973l0 0c0 -12.272018 9.948425 -22.220474 22.220459 -22.220474l0 0c5.8932495 0 11.545105 2.3410797 15.71225 6.5082245c4.167145 4.16716 6.508209 9.8190155 6.508209 15.71225l0 0c0 12.272034 -9.948425 22.220474 -22.220459 22.220474l0 0c-12.272034 0 -22.220459 -9.948441 -22.220459 -22.220474z" fill-rule="evenodd"></path><path stroke="#002b36" stroke-width="1.0" stroke-linejoin="round" stroke-linecap="butt" d="m472.51837 169.89973l0 0c0 -12.272018 9.948425 -22.220474 22.220459 -22.220474l0 0c5.8932495 0 11.545105 2.3410797 15.71225 6.5082245c4.167145 4.16716 6.508209 9.8190155 6.508209 15.71225l0 0c0 12.272034 -9.948425 22.220474 -22.220459 22.220474l0 0c-12.272034 0 -22.220459 -9.948441 -22.220459 -22.220474z" fill-rule="evenodd"></path><path fill="#eee8d5" d="m288.72964 169.90027l0 0c0 -12.272034 9.948456 -22.220474 22.22049 -22.220474l0 0c5.893219 0 11.545105 2.3410797 15.71225 6.5082245c4.167145 4.167145 6.508209 9.8190155 6.508209 15.71225l0 0c0 12.272018 -9.948425 22.220459 -22.220459 22.220459l0 0c-12.272034 0 -22.22049 -9.948441 -22.22049 -22.220459z" fill-rule="evenodd"></path><path stroke="#002b36" stroke-width="1.0" stroke-linejoin="round" stroke-linecap="butt" d="m288.72964 169.90027l0 0c0 -12.272034 9.948456 -22.220474 22.22049 -22.220474l0 0c5.893219 0 11.545105 2.3410797 15.71225 6.5082245c4.167145 4.167145 6.508209 9.8190155 6.508209 15.71225l0 0c0 12.272018 -9.948425 22.220459 -22.220459 22.220459l0 0c-12.272034 0 -22.22049 -9.948441 -22.22049 -22.220459z" fill-rule="evenodd"></path><path fill="#eee8d5" d="m696.5866 247.85695l155.33856 0l0 36.656174l-155.33856 0z" fill-rule="evenodd"></path><path stroke="#002b36" stroke-width="1.0" stroke-linejoin="round" stroke-linecap="butt" d="m696.5866 247.85695l155.33856 0l0 36.656174l-155.33856 0z" fill-rule="evenodd"></path><path fill="#002b36" d="m709.1801 262.55066l2.609375 0l3.234375 8.75l0.703125 2.140625l0.71875 -2.1875l3.21875 -8.703125l2.515625 0l-5.1875 13.234375l-2.640625 0l-5.171875 -13.234375zm27.077576 5.921875q0 0.484375 -0.015625 0.8125q-0.015625 0.328125 -0.046875 0.625l-9.296875 0q0 2.03125 1.125 3.125q1.140625 1.078125 3.28125 1.078125q0.578125 0 1.15625 -0.046875q0.578125 -0.046875 1.125 -0.125q0.546875 -0.078125 1.03125 -0.171875q0.5 -0.109375 0.921875 -0.21875l0 1.875q-0.9375 0.265625 -2.125 0.421875q-1.171875 0.171875 -2.4375 0.171875q-1.703125 0 -2.9375 -0.453125q-1.21875 -0.46875 -2.0 -1.34375q-0.78125 -0.875 -1.15625 -2.140625q-0.375 -1.28125 -0.375 -2.890625q0 -1.390625 0.390625 -2.640625q0.40625 -1.25 1.171875 -2.1875q0.78125 -0.9375 1.890625 -1.484375q1.125 -0.5625 2.546875 -0.5625q1.390625 0 2.453125 0.4375q1.078125 0.421875 1.796875 1.21875q0.734375 0.796875 1.109375 1.9375q0.390625 1.140625 0.390625 2.5625zm-2.390625 -0.328125q0.03125 -0.890625 -0.1875 -1.625q-0.203125 -0.734375 -0.640625 -1.25q-0.4375 -0.53125 -1.109375 -0.828125q-0.65625 -0.296875 -1.515625 -0.296875q-0.75 0 -1.375 0.296875q-0.625 0.28125 -1.078125 0.8125q-0.4375 0.53125 -0.71875 1.265625q-0.265625 0.734375 -0.34375 1.625l6.96875 0zm15.390137 -3.71875q0.375 0.453125 0.578125 1.078125q0.203125 0.609375 0.203125 1.3125q0 1.03125 -0.375 1.890625q-0.375 0.84375 -1.0625 1.453125q-0.6875 0.609375 -1.640625 0.953125q-0.953125 0.328125 -2.109375 0.328125q-0.828125 0 -1.5625 -0.171875q-0.71875 -0.1875 -1.140625 -0.453125q-0.25 0.375 -0.421875 0.703125q-0.171875 0.328125 -0.171875 0.734375q0 0.5 0.484375 0.828125q0.484375 0.328125 1.28125 0.359375l3.46875 0.125q1.0 0.03125 1.828125 0.265625q0.84375 0.21875 1.4375 0.640625q0.59375 0.421875 0.9375 1.046875q0.34375 0.609375 0.34375 1.421875q0 0.890625 -0.390625 1.671875q-0.375 0.796875 -1.1875 1.390625q-0.796875 0.609375 -2.015625 0.953125q-1.21875 0.359375 -2.90625 0.359375q-1.609375 0 -2.75 -0.265625q-1.125 -0.25 -1.84375 -0.703125q-0.71875 -0.453125 -1.0625 -1.078125q-0.328125 -0.625 -0.328125 -1.375q0 -0.96875 0.453125 -1.6875q0.453125 -0.71875 1.390625 -1.390625q-0.34375 -0.171875 -0.59375 -0.40625q-0.25 -0.234375 -0.421875 -0.515625q-0.15625 -0.28125 -0.234375 -0.59375q-0.078125 -0.328125 -0.078125 -0.625q0 -0.859375 0.40625 -1.5625q0.40625 -0.71875 0.953125 -1.359375q-0.25 -0.296875 -0.4375 -0.578125q-0.1875 -0.296875 -0.328125 -0.625q-0.140625 -0.34375 -0.21875 -0.734375q-0.0625 -0.390625 -0.0625 -0.890625q0 -1.03125 0.375 -1.875q0.375 -0.859375 1.046875 -1.453125q0.6875 -0.609375 1.640625 -0.9375q0.953125 -0.34375 2.109375 -0.34375q0.484375 0 0.9375 0.0625q0.453125 0.0625 0.796875 0.171875l4.796875 0l0 1.875l-2.125 0zm-7.96875 13.265625q0 0.9375 0.96875 1.359375q0.984375 0.4375 2.734375 0.4375q1.09375 0 1.828125 -0.203125q0.75 -0.1875 1.203125 -0.515625q0.453125 -0.328125 0.65625 -0.75q0.203125 -0.40625 0.203125 -0.84375q0 -0.796875 -0.671875 -1.1875q-0.65625 -0.375 -2.015625 -0.4375l-3.453125 -0.125q-0.4375 0.296875 -0.71875 0.5625q-0.28125 0.28125 -0.4375 0.5625q-0.15625 0.296875 -0.234375 0.578125q-0.0625 0.28125 -0.0625 0.5625zm0.703125 -10.8125q0 0.625 0.203125 1.15625q0.21875 0.53125 0.59375 0.90625q0.390625 0.359375 0.90625 0.5625q0.53125 0.203125 1.15625 0.203125q0.6875 0 1.21875 -0.234375q0.53125 -0.234375 0.890625 -0.625q0.375 -0.390625 0.5625 -0.90625q0.1875 -0.515625 0.1875 -1.0625q0 -0.640625 -0.21875 -1.15625q-0.203125 -0.53125 -0.59375 -0.90625q-0.375 -0.375 -0.890625 -0.578125q-0.515625 -0.203125 -1.15625 -0.203125q-0.6875 0 -1.21875 0.25q-0.53125 0.234375 -0.890625 0.625q-0.359375 0.375 -0.5625 0.890625q-0.1875 0.515625 -0.1875 1.078125zm23.577576 1.59375q0 0.484375 -0.015625 0.8125q-0.015625 0.328125 -0.046875 0.625l-9.296875 0q0 2.03125 1.125 3.125q1.140625 1.078125 3.28125 1.078125q0.578125 0 1.15625 -0.046875q0.578125 -0.046875 1.125 -0.125q0.546875 -0.078125 1.03125 -0.171875q0.5 -0.109375 0.921875 -0.21875l0 1.875q-0.9375 0.265625 -2.125 0.421875q-1.171875 0.171875 -2.4375 0.171875q-1.703125 0 -2.9375 -0.453125q-1.21875 -0.46875 -2.0 -1.34375q-0.78125 -0.875 -1.15625 -2.140625q-0.375 -1.28125 -0.375 -2.890625q0 -1.390625 0.390625 -2.640625q0.40625 -1.25 1.171875 -2.1875q0.78125 -0.9375 1.890625 -1.484375q1.125 -0.5625 2.546875 -0.5625q1.390625 0 2.453125 0.4375q1.078125 0.421875 1.796875 1.21875q0.734375 0.796875 1.109375 1.9375q0.390625 1.140625 0.390625 2.5625zm-2.390625 -0.328125q0.03125 -0.890625 -0.1875 -1.625q-0.203125 -0.734375 -0.640625 -1.25q-0.4375 -0.53125 -1.109375 -0.828125q-0.65625 -0.296875 -1.515625 -0.296875q-0.75 0 -1.375 0.296875q-0.625 0.28125 -1.078125 0.8125q-0.4375 0.53125 -0.71875 1.265625q-0.265625 0.734375 -0.34375 1.625l6.96875 0zm16.530762 7.453125q-0.78125 0.203125 -1.609375 0.28125q-0.828125 0.09375 -1.6875 0.09375q-2.5 0 -3.734375 -1.125q-1.21875 -1.125 -1.21875 -3.46875l0 -6.90625l-3.703125 0l0 -1.921875l3.703125 0l0 -3.640625l2.296875 -0.59375l0 4.234375l5.953125 0l0 1.921875l-5.953125 0l0 6.71875q0 1.421875 0.75 2.140625q0.765625 0.703125 2.25 0.703125q0.625 0 1.375 -0.09375q0.75 -0.109375 1.578125 -0.3125l0 1.96875zm12.483826 0.1875l-0.046875 -1.78125q-1.078125 1.0625 -2.203125 1.546875q-1.109375 0.46875 -2.328125 0.46875q-1.140625 0 -1.953125 -0.28125q-0.796875 -0.296875 -1.328125 -0.796875q-0.515625 -0.515625 -0.765625 -1.203125q-0.234375 -0.6875 -0.234375 -1.484375q0 -2.0 1.484375 -3.125q1.484375 -1.125 4.390625 -1.125l2.734375 0l0 -1.15625q0 -1.171875 -0.75 -1.875q-0.75 -0.703125 -2.296875 -0.703125q-1.109375 0 -2.203125 0.25q-1.09375 0.25 -2.25 0.703125l0 -2.0625q0.4375 -0.15625 0.96875 -0.3125q0.53125 -0.15625 1.125 -0.265625q0.59375 -0.125 1.234375 -0.1875q0.65625 -0.078125 1.3125 -0.078125q1.203125 0 2.15625 0.265625q0.96875 0.25 1.625 0.796875q0.671875 0.546875 1.03125 1.359375q0.359375 0.8125 0.359375 1.921875l0 9.125l-2.0625 0zm-0.25 -6.03125l-2.90625 0q-0.859375 0 -1.484375 0.171875q-0.609375 0.171875 -1.015625 0.5q-0.390625 0.3125 -0.59375 0.75q-0.1875 0.4375 -0.1875 1.0q0 0.375 0.125 0.734375q0.125 0.34375 0.375 0.625q0.265625 0.265625 0.6875 0.421875q0.421875 0.15625 1.03125 0.15625q0.796875 0 1.8125 -0.484375q1.03125 -0.484375 2.15625 -1.515625l0 -2.359375zm17.718262 -0.828125q0 1.65625 -0.453125 2.953125q-0.453125 1.296875 -1.296875 2.203125q-0.828125 0.90625 -2.03125 1.390625q-1.203125 0.46875 -2.703125 0.46875q-1.171875 0 -2.40625 -0.21875q-1.21875 -0.234375 -2.421875 -0.71875l0 -17.84375l2.296875 0l0 5.125l-0.109375 2.453125q0.984375 -1.328125 2.109375 -1.875q1.140625 -0.546875 2.421875 -0.546875q1.140625 0 2.0 0.46875q0.859375 0.46875 1.4375 1.34375q0.578125 0.859375 0.859375 2.078125q0.296875 1.21875 0.296875 2.71875zm-2.34375 0.109375q0 -1.046875 -0.15625 -1.90625q-0.15625 -0.875 -0.484375 -1.484375q-0.328125 -0.625 -0.84375 -0.96875q-0.515625 -0.359375 -1.21875 -0.359375q-0.4375 0 -0.890625 0.140625q-0.4375 0.140625 -0.921875 0.46875q-0.484375 0.3125 -1.015625 0.84375q-0.53125 0.53125 -1.140625 1.328125l0 6.421875q0.671875 0.265625 1.359375 0.421875q0.703125 0.140625 1.34375 0.140625q0.78125 0 1.5 -0.25q0.71875 -0.25 1.265625 -0.828125q0.546875 -0.59375 0.875 -1.5625q0.328125 -0.96875 0.328125 -2.40625zm10.202576 -10.0l-3.921875 0l0 -1.875l6.234375 0l0 16.71875l3.9375 0l0 1.90625l-10.609375 0l0 -1.90625l4.359375 0l0 -14.84375zm21.327637 9.4375q0 0.484375 -0.015625 0.8125q-0.015625 0.328125 -0.046875 0.625l-9.296875 0q0 2.03125 1.125 3.125q1.140625 1.078125 3.28125 1.078125q0.578125 0 1.15625 -0.046875q0.578125 -0.046875 1.125 -0.125q0.546875 -0.078125 1.03125 -0.171875q0.5 -0.109375 0.921875 -0.21875l0 1.875q-0.9375 0.265625 -2.125 0.421875q-1.171875 0.171875 -2.4375 0.171875q-1.703125 0 -2.9375 -0.453125q-1.21875 -0.46875 -2.0 -1.34375q-0.78125 -0.875 -1.15625 -2.140625q-0.375 -1.28125 -0.375 -2.890625q0 -1.390625 0.390625 -2.640625q0.40625 -1.25 1.171875 -2.1875q0.78125 -0.9375 1.890625 -1.484375q1.125 -0.5625 2.546875 -0.5625q1.390625 0 2.453125 0.4375q1.078125 0.421875 1.796875 1.21875q0.734375 0.796875 1.109375 1.9375q0.390625 1.140625 0.390625 2.5625zm-2.390625 -0.328125q0.03125 -0.890625 -0.1875 -1.625q-0.203125 -0.734375 -0.640625 -1.25q-0.4375 -0.53125 -1.109375 -0.828125q-0.65625 -0.296875 -1.515625 -0.296875q-0.75 0 -1.375 0.296875q-0.625 0.28125 -1.078125 0.8125q-0.4375 0.53125 -0.71875 1.265625q-0.265625 0.734375 -0.34375 1.625l6.96875 0z" fill-rule="nonzero"></path><path fill="#000000" fill-opacity="0.0" d="m380.62466 238.02835l-47.46457 0" fill-rule="evenodd"></path><path stroke="#002b36" stroke-width="2.0" stroke-linejoin="round" stroke-linecap="butt" d="m380.62466 238.02835l-47.46457 0" fill-rule="evenodd"></path><path fill="#000000" fill-opacity="0.0" d="m380.62598 306.17795l-47.46457 0" fill-rule="evenodd"></path><path stroke="#002b36" stroke-width="2.0" stroke-linejoin="round" stroke-linecap="butt" d="m380.62598 306.17795l-47.46457 0" fill-rule="evenodd"></path><path fill="#000000" fill-opacity="0.0" d="m333.1706 238.04199l47.46457 68.12598" fill-rule="evenodd"></path><path stroke="#002b36" stroke-width="2.0" stroke-linejoin="round" stroke-linecap="butt" d="m333.1706 238.04199l47.46457 68.12598" fill-rule="evenodd"></path><path fill="#000000" fill-opacity="0.0" d="m333.17322 306.18372l47.46457 -68.15747" fill-rule="evenodd"></path><path stroke="#002b36" stroke-width="2.0" stroke-linejoin="round" stroke-linecap="butt" d="m333.17322 306.18372l47.46457 -68.15747" fill-rule="evenodd"></path><path fill="#000000" fill-opacity="0.0" d="m242.0853 169.89896l46.64566 68.15747" fill-rule="evenodd"></path><path stroke="#002b36" stroke-width="2.0" stroke-linejoin="round" stroke-linecap="butt" d="m242.0853 169.89896l39.868317 58.254562" fill-rule="evenodd"></path><path fill="#002b36" stroke="#002b36" stroke-width="2.0" stroke-linecap="butt" d="m279.22745 230.01926l7.8522034 5.6243286l-2.3998718 -9.355789z" fill-rule="evenodd"></path><path fill="#000000" fill-opacity="0.0" d="m242.0853 169.89896l46.64566 136.28345" fill-rule="evenodd"></path><path stroke="#002b36" stroke-width="2.0" stroke-linejoin="round" stroke-linecap="butt" d="m242.0853 169.89896l42.759735 124.930084" fill-rule="evenodd"></path><path fill="#002b36" stroke="#002b36" stroke-width="2.0" stroke-linecap="butt" d="m281.71957 295.89877l6.0646057 7.517395l0.18634033 -9.656891z" fill-rule="evenodd"></path><path fill="#eee8d5" d="m472.51837 238.04147l0 0c0 -12.272034 9.948425 -22.220474 22.220459 -22.220474l0 0c5.8932495 0 11.545105 2.3410797 15.71225 6.5082245c4.167145 4.167145 6.508209 9.8190155 6.508209 15.71225l0 0c0 12.272018 -9.948425 22.220459 -22.220459 22.220459l0 0c-12.272034 0 -22.220459 -9.948441 -22.220459 -22.220459z" fill-rule="evenodd"></path><path stroke="#002b36" stroke-width="1.0" stroke-linejoin="round" stroke-linecap="butt" d="m472.51837 238.04147l0 0c0 -12.272034 9.948425 -22.220474 22.220459 -22.220474l0 0c5.8932495 0 11.545105 2.3410797 15.71225 6.5082245c4.167145 4.167145 6.508209 9.8190155 6.508209 15.71225l0 0c0 12.272018 -9.948425 22.220459 -22.220459 22.220459l0 0c-12.272034 0 -22.220459 -9.948441 -22.220459 -22.220459z" fill-rule="evenodd"></path><path fill="#eee8d5" d="m288.72964 238.04199l0 0c0 -12.272018 9.948456 -22.220474 22.22049 -22.220474l0 0c5.893219 0 11.545105 2.3410797 15.71225 6.5082245c4.167145 4.16716 6.508209 9.8190155 6.508209 15.71225l0 0c0 12.272034 -9.948425 22.22049 -22.220459 22.22049l0 0c-12.272034 0 -22.22049 -9.948456 -22.22049 -22.22049z" fill-rule="evenodd"></path><path stroke="#002b36" stroke-width="1.0" stroke-linejoin="round" stroke-linecap="butt" d="m288.72964 238.04199l0 0c0 -12.272018 9.948456 -22.220474 22.22049 -22.220474l0 0c5.893219 0 11.545105 2.3410797 15.71225 6.5082245c4.167145 4.16716 6.508209 9.8190155 6.508209 15.71225l0 0c0 12.272034 -9.948425 22.22049 -22.220459 22.22049l0 0c-12.272034 0 -22.22049 -9.948456 -22.22049 -22.22049z" fill-rule="evenodd"></path><path fill="#eee8d5" d="m472.51837 306.1832l0 0c0 -12.272034 9.948425 -22.220459 22.220459 -22.220459l0 0c5.8932495 0 11.545105 2.3410645 15.71225 6.508209c4.167145 4.167145 6.508209 9.819031 6.508209 15.71225l0 0c0 12.272034 -9.948425 22.22049 -22.220459 22.22049l0 0c-12.272034 0 -22.220459 -9.948456 -22.220459 -22.22049z" fill-rule="evenodd"></path><path stroke="#002b36" stroke-width="1.0" stroke-linejoin="round" stroke-linecap="butt" d="m472.51837 306.1832l0 0c0 -12.272034 9.948425 -22.220459 22.220459 -22.220459l0 0c5.8932495 0 11.545105 2.3410645 15.71225 6.508209c4.167145 4.167145 6.508209 9.819031 6.508209 15.71225l0 0c0 12.272034 -9.948425 22.22049 -22.220459 22.22049l0 0c-12.272034 0 -22.220459 -9.948456 -22.220459 -22.22049z" fill-rule="evenodd"></path><path fill="#eee8d5" d="m288.73227 306.18372l0 0c0 -12.272003 9.948456 -22.220459 22.22049 -22.220459l0 0c5.893219 0 11.545105 2.3410645 15.71225 6.508209c4.167145 4.1671753 6.508209 9.819031 6.508209 15.71225l0 0c0 12.272034 -9.948425 22.22049 -22.220459 22.22049l0 0c-12.272034 0 -22.22049 -9.948456 -22.22049 -22.22049z" fill-rule="evenodd"></path><path stroke="#002b36" stroke-width="1.0" stroke-linejoin="round" stroke-linecap="butt" d="m288.73227 306.18372l0 0c0 -12.272003 9.948456 -22.220459 22.22049 -22.220459l0 0c5.893219 0 11.545105 2.3410645 15.71225 6.508209c4.167145 4.1671753 6.508209 9.819031 6.508209 15.71225l0 0c0 12.272034 -9.948425 22.22049 -22.220459 22.22049l0 0c-12.272034 0 -22.22049 -9.948456 -22.22049 -22.22049z" fill-rule="evenodd"></path><path fill="#eee8d5" d="m604.6811 29.42336l0 0c0 -12.272028 9.948425 -22.220472 22.220459 -22.220472l0 0c5.8932495 0 11.545105 2.3410788 15.71228 6.5082254c4.1671143 4.1671476 6.5081787 9.819011 6.5081787 15.712247l0 0c0 12.272028 -9.948425 22.220472 -22.220459 22.220472l0 0c-12.272034 0 -22.220459 -9.948444 -22.220459 -22.220472z" fill-rule="evenodd"></path><path stroke="#002b36" stroke-width="1.0" stroke-linejoin="round" stroke-linecap="butt" d="m604.6811 29.42336l0 0c0 -12.272028 9.948425 -22.220472 22.220459 -22.220472l0 0c5.8932495 0 11.545105 2.3410788 15.71228 6.5082254c4.1671143 4.1671476 6.5081787 9.819011 6.5081787 15.712247l0 0c0 12.272028 -9.948425 22.220472 -22.220459 22.220472l0 0c-12.272034 0 -22.220459 -9.948444 -22.220459 -22.220472z" fill-rule="evenodd"></path><path fill="#eee8d5" d="m604.67975 101.75669l0 0c0 -12.272026 9.948486 -22.220467 22.22052 -22.220467l0 0c5.8931885 0 11.545105 2.3410797 15.712219 6.5082245c4.1671753 4.167145 6.5082397 9.819008 6.5082397 15.712242l0 0c0 12.272034 -9.948425 22.220474 -22.220459 22.220474l0 0c-12.272034 0 -22.22052 -9.948441 -22.22052 -22.220474z" fill-rule="evenodd"></path><path stroke="#002b36" stroke-width="1.0" stroke-linejoin="round" stroke-linecap="butt" d="m604.67975 101.75669l0 0c0 -12.272026 9.948486 -22.220467 22.22052 -22.220467l0 0c5.8931885 0 11.545105 2.3410797 15.712219 6.5082245c4.1671753 4.167145 6.5082397 9.819008 6.5082397 15.712242l0 0c0 12.272034 -9.948425 22.220474 -22.220459 22.220474l0 0c-12.272034 0 -22.22052 -9.948441 -22.22052 -22.220474z" fill-rule="evenodd"></path><path fill="#eee8d5" d="m604.67975 169.89842l0 0c0 -12.272018 9.948486 -22.220474 22.22052 -22.220474l0 0c5.8931885 0 11.545105 2.3410797 15.712219 6.5082245c4.1671753 4.16716 6.5082397 9.8190155 6.5082397 15.71225l0 0c0 12.272034 -9.948425 22.220474 -22.220459 22.220474l0 0c-12.272034 0 -22.22052 -9.948441 -22.22052 -22.220474z" fill-rule="evenodd"></path><path stroke="#002b36" stroke-width="1.0" stroke-linejoin="round" stroke-linecap="butt" d="m604.67975 169.89842l0 0c0 -12.272018 9.948486 -22.220474 22.22052 -22.220474l0 0c5.8931885 0 11.545105 2.3410797 15.712219 6.5082245c4.1671753 4.16716 6.5082397 9.8190155 6.5082397 15.71225l0 0c0 12.272034 -9.948425 22.220474 -22.220459 22.220474l0 0c-12.272034 0 -22.22052 -9.948441 -22.22052 -22.220474z" fill-rule="evenodd"></path><path fill="#eee8d5" d="m604.6811 238.04147l0 0c0 -12.272034 9.948425 -22.220474 22.220459 -22.220474l0 0c5.8932495 0 11.545105 2.3410797 15.71228 6.5082245c4.1671143 4.167145 6.5081787 9.8190155 6.5081787 15.71225l0 0c0 12.272018 -9.948425 22.220459 -22.220459 22.220459l0 0c-12.272034 0 -22.220459 -9.948441 -22.220459 -22.220459z" fill-rule="evenodd"></path><path stroke="#002b36" stroke-width="1.0" stroke-linejoin="round" stroke-linecap="butt" d="m604.6811 238.04147l0 0c0 -12.272034 9.948425 -22.220474 22.220459 -22.220474l0 0c5.8932495 0 11.545105 2.3410797 15.71228 6.5082245c4.1671143 4.167145 6.5081787 9.8190155 6.5081787 15.71225l0 0c0 12.272018 -9.948425 22.220459 -22.220459 22.220459l0 0c-12.272034 0 -22.220459 -9.948441 -22.220459 -22.220459z" fill-rule="evenodd"></path><path fill="#eee8d5" d="m604.68634 306.1819l0 0c0 -12.272034 9.948425 -22.220459 22.220459 -22.220459l0 0c5.8932495 0 11.545105 2.3410645 15.71228 6.508209c4.1671143 4.167145 6.5081787 9.819031 6.5081787 15.71225l0 0c0 12.272034 -9.948425 22.22049 -22.220459 22.22049l0 0c-12.272034 0 -22.220459 -9.948456 -22.220459 -22.22049z" fill-rule="evenodd"></path><path stroke="#002b36" stroke-width="1.0" stroke-linejoin="round" stroke-linecap="butt" d="m604.68634 306.1819l0 0c0 -12.272034 9.948425 -22.220459 22.220459 -22.220459l0 0c5.8932495 0 11.545105 2.3410645 15.71228 6.508209c4.1671143 4.167145 6.5081787 9.819031 6.5081787 15.71225l0 0c0 12.272034 -9.948425 22.22049 -22.220459 22.22049l0 0c-12.272034 0 -22.220459 -9.948456 -22.220459 -22.22049z" fill-rule="evenodd"></path><path fill="#000000" fill-opacity="0.0" d="m649.12726 306.1819l47.4646 -236.75589" fill-rule="evenodd"></path><path stroke="#002b36" stroke-width="2.0" stroke-linejoin="round" stroke-linecap="butt" d="m649.12726 306.1819l47.4646 -236.75589" fill-rule="evenodd"></path><path fill="#eee8d5" d="m380.62466 238.02835l0 0c0 -12.272034 9.948425 -22.220474 22.220459 -22.220474l0 0c5.8932495 0 11.545105 2.3410797 15.71225 6.5082245c4.167145 4.167145 6.5082397 9.8190155 6.5082397 15.71225l0 0c0 12.272018 -9.948456 22.220459 -22.22049 22.220459l0 0c-12.272034 0 -22.220459 -9.948441 -22.220459 -22.220459z" fill-rule="evenodd"></path><path stroke="#002b36" stroke-width="1.0" stroke-linejoin="round" stroke-linecap="butt" d="m380.62466 238.02835l0 0c0 -12.272034 9.948425 -22.220474 22.220459 -22.220474l0 0c5.8932495 0 11.545105 2.3410797 15.71225 6.5082245c4.167145 4.167145 6.5082397 9.8190155 6.5082397 15.71225l0 0c0 12.272018 -9.948456 22.220459 -22.22049 22.220459l0 0c-12.272034 0 -22.220459 -9.948441 -22.220459 -22.220459z" fill-rule="evenodd"></path><path fill="#eee8d5" d="m380.62598 306.17795l0 0c0 -12.272034 9.948425 -22.220459 22.220459 -22.220459l0 0c5.8932495 0 11.545105 2.3410645 15.71225 6.508209c4.167145 4.167145 6.5082397 9.819031 6.5082397 15.71225l0 0c0 12.272034 -9.948456 22.22049 -22.22049 22.22049l0 0c-12.272034 0 -22.220459 -9.948456 -22.220459 -22.22049z" fill-rule="evenodd"></path><path stroke="#002b36" stroke-width="1.0" stroke-linejoin="round" stroke-linecap="butt" d="m380.62598 306.17795l0 0c0 -12.272034 9.948425 -22.220459 22.220459 -22.220459l0 0c5.8932495 0 11.545105 2.3410645 15.71225 6.508209c4.167145 4.167145 6.5082397 9.819031 6.5082397 15.71225l0 0c0 12.272034 -9.948456 22.22049 -22.22049 22.22049l0 0c-12.272034 0 -22.220459 -9.948456 -22.220459 -22.22049z" fill-rule="evenodd"></path><path fill="#000000" fill-opacity="0.0" d="m472.51837 238.04147l-47.46457 0" fill-rule="evenodd"></path><path stroke="#002b36" stroke-width="2.0" stroke-linejoin="round" stroke-linecap="butt" d="m472.51837 238.04147l-47.46457 0" fill-rule="evenodd"></path><path fill="#000000" fill-opacity="0.0" d="m472.51837 306.1832l-47.46457 0" fill-rule="evenodd"></path><path stroke="#002b36" stroke-width="2.0" stroke-linejoin="round" stroke-linecap="butt" d="m472.51837 306.1832l-47.46457 0" fill-rule="evenodd"></path><path fill="#000000" fill-opacity="0.0" d="m425.0656 238.02835l47.46457 68.15747" fill-rule="evenodd"></path><path stroke="#002b36" stroke-width="2.0" stroke-linejoin="round" stroke-linecap="butt" d="m425.0656 238.02835l47.46457 68.15747" fill-rule="evenodd"></path><path fill="#000000" fill-opacity="0.0" d="m425.06693 306.17795l47.46457 -68.12598" fill-rule="evenodd"></path><path stroke="#002b36" stroke-width="2.0" stroke-linejoin="round" stroke-linecap="butt" d="m425.06693 306.17795l47.46457 -68.12598" fill-rule="evenodd"></path><path fill="#000000" fill-opacity="0.0" d="m649.122 238.04147l47.4646 -168.62991" fill-rule="evenodd"></path><path stroke="#002b36" stroke-width="2.0" stroke-linejoin="round" stroke-linecap="butt" d="m649.122 238.04147l47.4646 -168.62991" fill-rule="evenodd"></path><path fill="#eee8d5" d="m696.5866 51.60499l155.33856 0l0 35.62992l-155.33856 0z" fill-rule="evenodd"></path><path stroke="#002b36" stroke-width="1.0" stroke-linejoin="round" stroke-linecap="butt" d="m696.5866 51.60499l155.33856 0l0 35.62992l-155.33856 0z" fill-rule="evenodd"></path><path fill="#002b36" d="m754.9285 65.78557l2.09375 0l0.0625 2.4375q1.171875 -1.40625 2.3125 -2.03125q1.140625 -0.640625 2.296875 -0.640625q2.0625 0 3.125 1.328125q1.0625 1.328125 0.984375 3.953125l-2.328125 0q0.046875 -1.734375 -0.5 -2.515625q-0.546875 -0.796875 -1.609375 -0.796875q-0.453125 0 -0.921875 0.171875q-0.46875 0.15625 -0.96875 0.53125q-0.5 0.359375 -1.046875 0.921875q-0.546875 0.5625 -1.1875 1.375l0 8.5l-2.3125 0l0 -13.234375zm25.296387 5.921875q0 0.484375 -0.015625 0.8125q-0.015625 0.328125 -0.046875 0.625l-9.296875 0q0 2.03125 1.125 3.125q1.140625 1.078125 3.28125 1.078125q0.578125 0 1.15625 -0.046875q0.578125 -0.046875 1.125 -0.125q0.546875 -0.078125 1.03125 -0.171875q0.5 -0.109375 0.921875 -0.21875l0 1.875q-0.9375 0.265625 -2.125 0.421875q-1.171875 0.171875 -2.4375 0.171875q-1.703125 0 -2.9375 -0.453125q-1.21875 -0.46875 -2.0 -1.34375q-0.78125 -0.875 -1.15625 -2.140625q-0.375 -1.28125 -0.375 -2.890625q0 -1.390625 0.390625 -2.640625q0.40625 -1.25 1.171875 -2.1875q0.78125 -0.9375 1.890625 -1.484375q1.125 -0.5625 2.546875 -0.5625q1.390625 0 2.453125 0.4375q1.078125 0.421875 1.796875 1.21875q0.734375 0.796875 1.109375 1.9375q0.390625 1.140625 0.390625 2.5625zm-2.390625 -0.328125q0.03125 -0.890625 -0.1875 -1.625q-0.203125 -0.734375 -0.640625 -1.25q-0.4375 -0.53125 -1.109375 -0.828125q-0.65625 -0.296875 -1.515625 -0.296875q-0.75 0 -1.375 0.296875q-0.625 0.28125 -1.078125 0.8125q-0.4375 0.53125 -0.71875 1.265625q-0.265625 0.734375 -0.34375 1.625l6.96875 0zm5.1869507 1.296875q0 -1.6875 0.453125 -3.0q0.46875 -1.3125 1.3125 -2.203125q0.859375 -0.90625 2.046875 -1.375q1.203125 -0.46875 2.65625 -0.46875q0.640625 0 1.25 0.078125q0.609375 0.078125 1.203125 0.25l0 -5.562496l2.3125 0l0 18.624996l-2.0625 0l-0.078125 -2.5q-0.953125 1.390625 -2.078125 2.0625q-1.125 0.671875 -2.421875 0.671875q-1.140625 0 -2.0 -0.46875q-0.859375 -0.484375 -1.4375 -1.34375q-0.578125 -0.859375 -0.875 -2.0625q-0.28125 -1.21875 -0.28125 -2.703125zm2.34375 -0.140625q0 2.390625 0.703125 3.578125q0.703125 1.171875 2.0 1.171875q0.875 0 1.84375 -0.765625q0.96875 -0.78125 2.03125 -2.3125l0 -6.140625q-0.5625 -0.265625 -1.25 -0.40625q-0.6875 -0.140625 -1.359375 -0.140625q-1.875 0 -2.921875 1.21875q-1.046875 1.203125 -1.046875 3.796875z" fill-rule="nonzero"></path><path fill="#eee8d5" d="m128.44751 151.05774l113.63779 0l0 37.68242l-113.63779 0z" fill-rule="evenodd"></path><path stroke="#002b36" stroke-width="1.0" stroke-linejoin="round" stroke-linecap="butt" d="m128.44751 151.05774l113.63779 0l0 37.68242l-113.63779 0z" fill-rule="evenodd"></path><path fill="#002b36" d="m150.22876 179.31145q-0.78125 0.203125 -1.609375 0.28125q-0.828125 0.09375 -1.6875 0.09375q-2.5 0 -3.734375 -1.125q-1.21875 -1.125 -1.21875 -3.46875l0 -6.90625l-3.703125 0l0 -1.921875l3.703125 0l0 -3.640625l2.296875 -0.59375l0 4.234375l5.953125 0l0 1.921875l-5.953125 0l0 6.71875q0 1.421875 0.75 2.140625q0.765625 0.703125 2.25 0.703125q0.625 0 1.375 -0.09375q0.75 -0.109375 1.578125 -0.3125l0 1.96875zm14.624481 0.1875l-2.0625 0l-0.078125 -2.140625q-0.59375 0.6875 -1.125 1.140625q-0.53125 0.453125 -1.0625 0.734375q-0.53125 0.28125 -1.0625 0.390625q-0.53125 0.109375 -1.125 0.109375q-2.046875 0 -3.09375 -1.1875q-1.03125 -1.203125 -1.03125 -3.640625l0 -8.640625l2.296875 0l0 8.46875q0 3.03125 2.296875 3.03125q0.421875 0 0.8125 -0.125q0.40625 -0.125 0.84375 -0.421875q0.453125 -0.3125 0.953125 -0.84375q0.515625 -0.53125 1.140625 -1.328125l0 -8.78125l2.296875 0l0 13.234375zm4.561981 -13.234375l2.09375 0l0.0625 2.4375q1.171875 -1.40625 2.3125 -2.03125q1.140625 -0.640625 2.296875 -0.640625q2.0625 0 3.125 1.328125q1.0625 1.328125 0.984375 3.953125l-2.328125 0q0.046875 -1.734375 -0.5 -2.515625q-0.546875 -0.796875 -1.609375 -0.796875q-0.453125 0 -0.921875 0.171875q-0.46875 0.15625 -0.96875 0.53125q-0.5 0.359375 -1.046875 0.921875q-0.546875 0.5625 -1.1875 1.375l0 8.5l-2.3125 0l0 -13.234375zm14.108856 0l2.046875 0l0.09375 2.140625q0.578125 -0.6875 1.109375 -1.140625q0.546875 -0.46875 1.0625 -0.734375q0.53125 -0.28125 1.0625 -0.390625q0.546875 -0.109375 1.125 -0.109375q2.046875 0 3.09375 1.203125q1.046875 1.203125 1.046875 3.625l0 8.640625l-2.296875 0l0 -8.453125q0 -1.546875 -0.578125 -2.296875q-0.578125 -0.75 -1.734375 -0.75q-0.421875 0 -0.828125 0.125q-0.390625 0.125 -0.828125 0.4375q-0.4375 0.3125 -0.953125 0.84375q-0.5 0.515625 -1.125 1.3125l0 8.78125l-2.296875 0l0 -13.234375zm19.171356 1.890625l-3.921875 0l0 -1.890625l6.234375 0l0 11.328125l3.9375 0l0 1.90625l-10.609375 0l0 -1.90625l4.359375 0l0 -9.4375zm0.796875 -7.4375q0.390625 0 0.71875 0.140625q0.328125 0.125 0.5625 0.375q0.25 0.25 0.390625 0.578125q0.140625 0.328125 0.140625 0.703125q0 0.375 -0.140625 0.703125q-0.140625 0.328125 -0.390625 0.578125q-0.234375 0.25 -0.5625 0.390625q-0.328125 0.140625 -0.71875 0.140625q-0.375 0 -0.71875 -0.140625q-0.328125 -0.140625 -0.578125 -0.390625q-0.234375 -0.25 -0.375 -0.578125q-0.140625 -0.328125 -0.140625 -0.703125q0 -0.375 0.140625 -0.703125q0.140625 -0.328125 0.375 -0.578125q0.25 -0.25 0.578125 -0.375q0.34375 -0.140625 0.71875 -0.140625zm20.655731 11.921875q0 1.765625 -0.5 3.09375q-0.484375 1.3125 -1.359375 2.1875q-0.875 0.859375 -2.0625 1.296875q-1.1875 0.4375 -2.5625 0.4375q-0.640625 0 -1.265625 -0.0625q-0.625 -0.0625 -1.265625 -0.21875l0 5.53125l-2.296875 0l0 -18.640625l2.046875 0l0.140625 2.21875q0.984375 -1.359375 2.109375 -1.90625q1.125 -0.546875 2.421875 -0.546875q1.140625 0 2.0 0.46875q0.859375 0.46875 1.4375 1.34375q0.578125 0.859375 0.859375 2.078125q0.296875 1.21875 0.296875 2.71875zm-2.34375 0.109375q0 -1.046875 -0.15625 -1.90625q-0.15625 -0.875 -0.484375 -1.484375q-0.328125 -0.625 -0.84375 -0.96875q-0.515625 -0.359375 -1.21875 -0.359375q-0.4375 0 -0.890625 0.140625q-0.4375 0.140625 -0.921875 0.46875q-0.484375 0.3125 -1.015625 0.84375q-0.53125 0.53125 -1.140625 1.328125l0 6.421875q0.625 0.265625 1.328125 0.421875q0.703125 0.140625 1.375 0.140625q1.859375 0 2.90625 -1.25q1.0625 -1.265625 1.0625 -3.796875z" fill-rule="nonzero"></path></g></svg>

